<?xml version="1.0" encoding="utf-8" standalone="no"?>
<!DOCTYPE svg PUBLIC "-//W3C//DTD SVG 1.1//EN"
  "http://www.w3.org/Graphics/SVG/1.1/DTD/svg11.dtd">
<svg xmlns:xlink="http://www.w3.org/1999/xlink" width="432pt" height="216pt" viewBox="0 0 432 216" xmlns="http://www.w3.org/2000/svg" version="1.1">
 <metadata>
  <rdf:RDF xmlns:dc="http://purl.org/dc/elements/1.1/" xmlns:cc="http://creativecommons.org/ns#" xmlns:rdf="http://www.w3.org/1999/02/22-rdf-syntax-ns#">
   <cc:Work>
    <dc:type rdf:resource="http://purl.org/dc/dcmitype/StillImage"/>
    <dc:date>2023-11-30T09:27:04.356926</dc:date>
    <dc:format>image/svg+xml</dc:format>
    <dc:creator>
     <cc:Agent>
      <dc:title>Matplotlib v3.7.1, https://matplotlib.org/</dc:title>
     </cc:Agent>
    </dc:creator>
   </cc:Work>
  </rdf:RDF>
 </metadata>
 <defs>
  <style type="text/css">*{stroke-linejoin: round; stroke-linecap: butt}</style>
 </defs>
 <g id="figure_1">
  <g id="patch_1">
   <path d="M 0 216 
L 432 216 
L 432 0 
L 0 0 
z
" style="fill: #ffffff"/>
  </g>
  <g id="axes_1">
   <g id="patch_2">
    <path d="M 55.85 167.908 
L 379.3 167.908 
L 379.3 14.76 
L 55.85 14.76 
z
" style="fill: #ffffff"/>
   </g>
   <g id="PolyCollection_1">
    <defs>
     <path id="m2a1291d6e9" d="M 55.85 -58.305889 
L 55.85 -46.454399 
L 58.006333 -46.454399 
L 60.162667 -46.454399 
L 62.319 -46.454399 
L 64.475333 -46.454399 
L 66.631667 -46.454399 
L 68.788 -46.454399 
L 70.944333 -46.454399 
L 73.100667 -46.454399 
L 75.257 -46.454399 
L 77.413333 -46.454399 
L 79.569667 -46.454399 
L 81.726 -46.454399 
L 83.882333 -46.454399 
L 86.038667 -46.454399 
L 88.195 -46.454399 
L 90.351333 -46.454399 
L 92.507667 -46.709249 
L 94.664 -47.602304 
L 96.820333 -46.89799 
L 98.976667 -46.372213 
L 101.133 -46.667301 
L 103.289333 -46.667301 
L 105.445667 -46.103818 
L 107.602 -45.644486 
L 109.758333 -45.26484 
L 111.914667 -44.949253 
L 114.071 -45.081473 
L 116.227333 -45.097878 
L 118.383667 -44.977137 
L 120.54 -45.436523 
L 122.696333 -45.443608 
L 124.852667 -45.443608 
L 127.009 -45.137312 
L 129.165333 -45.75409 
L 131.321667 -47.098746 
L 133.478 -46.649579 
L 135.634333 -46.853776 
L 137.790667 -46.853776 
L 139.947 -47.098746 
L 142.103333 -47.385652 
L 144.259667 -48.097052 
L 146.416 -47.983735 
L 148.572333 -47.742331 
L 150.728667 -47.742331 
L 152.885 -47.983735 
L 155.041333 -48.053368 
L 157.197667 -47.790756 
L 159.354 -48.155467 
L 161.510333 -48.155467 
L 163.666667 -48.155467 
L 165.823 -49.065024 
L 167.979333 -48.838956 
L 170.135667 -48.838956 
L 172.292 -48.838956 
L 174.448333 -48.700947 
L 176.604667 -48.49675 
L 178.761 -48.579634 
L 180.917333 -48.700947 
L 183.073667 -48.902623 
L 185.23 -48.614664 
L 187.386333 -48.397028 
L 189.542667 -48.397028 
L 191.699 -48.397028 
L 193.855333 -47.862121 
L 196.011667 -47.283226 
L 198.168 -47.181127 
L 200.324333 -47.195029 
L 202.480667 -46.785936 
L 204.637 -46.600754 
L 206.793333 -46.137556 
L 208.949667 -46.137556 
L 211.106 -46.018113 
L 213.262333 -45.870343 
L 215.418667 -45.870343 
L 217.575 -45.60753 
L 219.731333 -45.663549 
L 221.887667 -45.663549 
L 224.044 -45.386596 
L 226.200333 -45.576106 
L 228.356667 -47.315336 
L 230.513 -46.895415 
L 232.669333 -47.008688 
L 234.825667 -46.080635 
L 236.982 -45.860432 
L 239.138333 -45.860432 
L 241.294667 -45.860432 
L 243.451 -45.860432 
L 245.607333 -45.969845 
L 247.763667 -45.860432 
L 249.92 -46.193512 
L 252.076333 -45.887216 
L 254.232667 -46.198756 
L 256.389 -45.868988 
L 258.545333 -45.870343 
L 260.701667 -45.539881 
L 262.858 -45.576106 
L 265.014333 -45.496057 
L 267.170667 -47.314313 
L 269.327 -47.494023 
L 271.483333 -47.314984 
L 273.639667 -47.385652 
L 275.796 -47.160072 
L 277.952333 -47.160072 
L 280.108667 -47.160072 
L 282.265 -47.160072 
L 284.421333 -46.801643 
L 286.577667 -46.559252 
L 288.734 -47.160072 
L 290.890333 -47.315336 
L 293.046667 -47.160072 
L 295.203 -46.947749 
L 297.359333 -46.947749 
L 299.515667 -46.939203 
L 301.672 -46.865548 
L 303.828333 -47.206507 
L 305.984667 -46.980849 
L 308.141 -47.169467 
L 310.297333 -47.048154 
L 312.453667 -47.048154 
L 314.61 -47.231838 
L 316.766333 -47.231838 
L 318.922667 -47.466924 
L 321.079 -47.160072 
L 323.235333 -46.922452 
L 325.391667 -47.078312 
L 327.548 -47.3074 
L 329.704333 -47.3074 
L 331.860667 -47.30312 
L 334.017 -47.34694 
L 336.173333 -47.34694 
L 338.329667 -47.34694 
L 340.486 -47.551137 
L 342.642333 -46.685062 
L 344.798667 -46.857967 
L 346.955 -46.783356 
L 349.111333 -47.662331 
L 351.267667 -47.662331 
L 353.424 -48.195141 
L 355.580333 -47.476492 
L 357.736667 -47.040644 
L 359.893 -46.841134 
L 362.049333 -46.943233 
L 364.205667 -46.943233 
L 366.362 -47.165825 
L 368.518333 -46.865548 
L 370.674667 -47.083184 
L 372.831 -46.581317 
L 374.987333 -47.189548 
L 377.143667 -46.883252 
L 379.3 -47.083184 
L 379.3 -56.247723 
L 379.3 -56.247723 
L 377.143667 -56.651852 
L 374.987333 -56.958148 
L 372.831 -57.157984 
L 370.674667 -56.247723 
L 368.518333 -56.261161 
L 366.362 -56.369279 
L 364.205667 -57.000266 
L 362.049333 -57.000266 
L 359.893 -56.898167 
L 357.736667 -57.515447 
L 355.580333 -57.692191 
L 353.424 -58.198726 
L 351.267667 -58.323141 
L 349.111333 -58.323141 
L 346.955 -58.589524 
L 344.798667 -58.310715 
L 342.642333 -58.075226 
L 340.486 -58.02594 
L 338.329667 -57.821743 
L 336.173333 -57.821743 
L 334.017 -57.821743 
L 331.860667 -57.252971 
L 329.704333 -57.452888 
L 327.548 -57.452888 
L 325.391667 -56.865187 
L 323.235333 -57.225244 
L 321.079 -55.966637 
L 318.922667 -56.06818 
L 316.766333 -56.099069 
L 314.61 -56.099069 
L 312.453667 -55.670161 
L 310.297333 -55.670161 
L 308.141 -55.34465 
L 305.984667 -55.329071 
L 303.828333 -55.511807 
L 301.672 -56.261161 
L 299.515667 -56.391703 
L 297.359333 -55.974763 
L 295.203 -55.974763 
L 293.046667 -55.966637 
L 290.890333 -54.994584 
L 288.734 -55.966637 
L 286.577667 -55.954865 
L 284.421333 -56.120869 
L 282.265 -55.966637 
L 280.108667 -55.966637 
L 277.952333 -55.966637 
L 275.796 -55.966637 
L 273.639667 -55.945255 
L 271.483333 -55.811725 
L 269.327 -54.815897 
L 267.170667 -54.587212 
L 265.014333 -57.630652 
L 262.858 -57.7548 
L 260.701667 -58.403618 
L 258.545333 -58.48155 
L 256.389 -57.870313 
L 254.232667 -57.744743 
L 252.076333 -57.647888 
L 249.92 -57.954184 
L 247.763667 -58.083066 
L 245.607333 -58.177851 
L 243.451 -58.083066 
L 241.294667 -58.083066 
L 239.138333 -58.083066 
L 236.982 -58.083066 
L 234.825667 -58.067061 
L 232.669333 -55.505429 
L 230.513 -55.8229 
L 228.356667 -54.994584 
L 226.200333 -57.7548 
L 224.044 -57.740113 
L 221.887667 -57.871555 
L 219.731333 -57.871555 
L 217.575 -57.51918 
L 215.418667 -58.48155 
L 213.262333 -58.48155 
L 211.106 -58.742175 
L 208.949667 -59.235324 
L 206.793333 -59.235324 
L 204.637 -59.588915 
L 202.480667 -59.607931 
L 200.324333 -59.403035 
L 198.168 -59.621134 
L 196.011667 -59.723233 
L 193.855333 -57.919154 
L 191.699 -57.792641 
L 189.542667 -57.792641 
L 187.386333 -57.792641 
L 185.23 -57.779203 
L 183.073667 -56.878651 
L 180.917333 -56.87613 
L 178.761 -57.201641 
L 176.604667 -56.671933 
L 174.448333 -56.87613 
L 172.292 -56.329727 
L 170.135667 -56.329727 
L 167.979333 -56.329727 
L 165.823 -55.695264 
L 163.666667 -55.788032 
L 161.510333 -55.788032 
L 159.354 -55.788032 
L 157.197667 -55.744348 
L 155.041333 -55.685933 
L 152.885 -55.959763 
L 150.728667 -56.609562 
L 148.572333 -56.609562 
L 146.416 -55.959763 
L 144.259667 -56.050644 
L 142.103333 -55.945255 
L 139.947 -55.823766 
L 137.790667 -55.660341 
L 135.634333 -55.660341 
L 133.478 -55.456144 
L 131.321667 -55.823766 
L 129.165333 -58.393606 
L 127.009 -58.397792 
L 124.852667 -58.704088 
L 122.696333 -58.704088 
L 120.54 -58.506976 
L 118.383667 -59.374756 
L 116.227333 -59.458213 
L 114.071 -59.883013 
L 111.914667 -59.811035 
L 109.758333 -59.699646 
L 107.602 -59.728394 
L 105.445667 -60.085851 
L 103.289333 -60.339158 
L 101.133 -60.339158 
L 98.976667 -60.225851 
L 96.820333 -58.47489 
L 94.664 -58.178971 
L 92.507667 -58.255236 
L 90.351333 -58.305889 
L 88.195 -58.305889 
L 86.038667 -58.305889 
L 83.882333 -58.305889 
L 81.726 -58.305889 
L 79.569667 -58.305889 
L 77.413333 -58.305889 
L 75.257 -58.305889 
L 73.100667 -58.305889 
L 70.944333 -58.305889 
L 68.788 -58.305889 
L 66.631667 -58.305889 
L 64.475333 -58.305889 
L 62.319 -58.305889 
L 60.162667 -58.305889 
L 58.006333 -58.305889 
L 55.85 -58.305889 
z
" style="stroke: #d62728; stroke-opacity: 0.2; stroke-width: 0.24"/>
    </defs>
    <g clip-path="url(#p6559c387a6)">
     <use xlink:href="#m2a1291d6e9" x="0" y="216" style="fill: #d62728; fill-opacity: 0.2; stroke: #d62728; stroke-opacity: 0.2; stroke-width: 0.24"/>
    </g>
   </g>
   <g id="matplotlib.axis_1">
    <g id="xtick_1">
     <g id="line2d_1">
      <defs>
       <path id="mcc891e4236" d="M 0 0 
L 0 3.5 
" style="stroke: #000000; stroke-width: 0.8"/>
      </defs>
      <g>
       <use xlink:href="#mcc891e4236" x="55.85" y="167.908" style="stroke: #000000; stroke-width: 0.8"/>
      </g>
     </g>
     <g id="text_1">
      <!-- 0 -->
      <g transform="translate(52.66875 184.606437) scale(0.1 -0.1)">
       <defs>
        <path id="DejaVuSans-30" d="M 2034 4250 
Q 1547 4250 1301 3770 
Q 1056 3291 1056 2328 
Q 1056 1369 1301 889 
Q 1547 409 2034 409 
Q 2525 409 2770 889 
Q 3016 1369 3016 2328 
Q 3016 3291 2770 3770 
Q 2525 4250 2034 4250 
z
M 2034 4750 
Q 2819 4750 3233 4129 
Q 3647 3509 3647 2328 
Q 3647 1150 3233 529 
Q 2819 -91 2034 -91 
Q 1250 -91 836 529 
Q 422 1150 422 2328 
Q 422 3509 836 4129 
Q 1250 4750 2034 4750 
z
" transform="scale(0.015625)"/>
       </defs>
       <use xlink:href="#DejaVuSans-30"/>
      </g>
     </g>
    </g>
    <g id="xtick_2">
     <g id="line2d_2">
      <g>
       <use xlink:href="#mcc891e4236" x="98.976667" y="167.908" style="stroke: #000000; stroke-width: 0.8"/>
      </g>
     </g>
     <g id="text_2">
      <!-- 20 -->
      <g transform="translate(92.614167 184.606437) scale(0.1 -0.1)">
       <defs>
        <path id="DejaVuSans-32" d="M 1228 531 
L 3431 531 
L 3431 0 
L 469 0 
L 469 531 
Q 828 903 1448 1529 
Q 2069 2156 2228 2338 
Q 2531 2678 2651 2914 
Q 2772 3150 2772 3378 
Q 2772 3750 2511 3984 
Q 2250 4219 1831 4219 
Q 1534 4219 1204 4116 
Q 875 4013 500 3803 
L 500 4441 
Q 881 4594 1212 4672 
Q 1544 4750 1819 4750 
Q 2544 4750 2975 4387 
Q 3406 4025 3406 3419 
Q 3406 3131 3298 2873 
Q 3191 2616 2906 2266 
Q 2828 2175 2409 1742 
Q 1991 1309 1228 531 
z
" transform="scale(0.015625)"/>
       </defs>
       <use xlink:href="#DejaVuSans-32"/>
       <use xlink:href="#DejaVuSans-30" x="63.623047"/>
      </g>
     </g>
    </g>
    <g id="xtick_3">
     <g id="line2d_3">
      <g>
       <use xlink:href="#mcc891e4236" x="142.103333" y="167.908" style="stroke: #000000; stroke-width: 0.8"/>
      </g>
     </g>
     <g id="text_3">
      <!-- 40 -->
      <g transform="translate(135.740833 184.606437) scale(0.1 -0.1)">
       <defs>
        <path id="DejaVuSans-34" d="M 2419 4116 
L 825 1625 
L 2419 1625 
L 2419 4116 
z
M 2253 4666 
L 3047 4666 
L 3047 1625 
L 3713 1625 
L 3713 1100 
L 3047 1100 
L 3047 0 
L 2419 0 
L 2419 1100 
L 313 1100 
L 313 1709 
L 2253 4666 
z
" transform="scale(0.015625)"/>
       </defs>
       <use xlink:href="#DejaVuSans-34"/>
       <use xlink:href="#DejaVuSans-30" x="63.623047"/>
      </g>
     </g>
    </g>
    <g id="xtick_4">
     <g id="line2d_4">
      <g>
       <use xlink:href="#mcc891e4236" x="185.23" y="167.908" style="stroke: #000000; stroke-width: 0.8"/>
      </g>
     </g>
     <g id="text_4">
      <!-- 60 -->
      <g transform="translate(178.8675 184.606437) scale(0.1 -0.1)">
       <defs>
        <path id="DejaVuSans-36" d="M 2113 2584 
Q 1688 2584 1439 2293 
Q 1191 2003 1191 1497 
Q 1191 994 1439 701 
Q 1688 409 2113 409 
Q 2538 409 2786 701 
Q 3034 994 3034 1497 
Q 3034 2003 2786 2293 
Q 2538 2584 2113 2584 
z
M 3366 4563 
L 3366 3988 
Q 3128 4100 2886 4159 
Q 2644 4219 2406 4219 
Q 1781 4219 1451 3797 
Q 1122 3375 1075 2522 
Q 1259 2794 1537 2939 
Q 1816 3084 2150 3084 
Q 2853 3084 3261 2657 
Q 3669 2231 3669 1497 
Q 3669 778 3244 343 
Q 2819 -91 2113 -91 
Q 1303 -91 875 529 
Q 447 1150 447 2328 
Q 447 3434 972 4092 
Q 1497 4750 2381 4750 
Q 2619 4750 2861 4703 
Q 3103 4656 3366 4563 
z
" transform="scale(0.015625)"/>
       </defs>
       <use xlink:href="#DejaVuSans-36"/>
       <use xlink:href="#DejaVuSans-30" x="63.623047"/>
      </g>
     </g>
    </g>
    <g id="xtick_5">
     <g id="line2d_5">
      <g>
       <use xlink:href="#mcc891e4236" x="228.356667" y="167.908" style="stroke: #000000; stroke-width: 0.8"/>
      </g>
     </g>
     <g id="text_5">
      <!-- 80 -->
      <g transform="translate(221.994167 184.606437) scale(0.1 -0.1)">
       <defs>
        <path id="DejaVuSans-38" d="M 2034 2216 
Q 1584 2216 1326 1975 
Q 1069 1734 1069 1313 
Q 1069 891 1326 650 
Q 1584 409 2034 409 
Q 2484 409 2743 651 
Q 3003 894 3003 1313 
Q 3003 1734 2745 1975 
Q 2488 2216 2034 2216 
z
M 1403 2484 
Q 997 2584 770 2862 
Q 544 3141 544 3541 
Q 544 4100 942 4425 
Q 1341 4750 2034 4750 
Q 2731 4750 3128 4425 
Q 3525 4100 3525 3541 
Q 3525 3141 3298 2862 
Q 3072 2584 2669 2484 
Q 3125 2378 3379 2068 
Q 3634 1759 3634 1313 
Q 3634 634 3220 271 
Q 2806 -91 2034 -91 
Q 1263 -91 848 271 
Q 434 634 434 1313 
Q 434 1759 690 2068 
Q 947 2378 1403 2484 
z
M 1172 3481 
Q 1172 3119 1398 2916 
Q 1625 2713 2034 2713 
Q 2441 2713 2670 2916 
Q 2900 3119 2900 3481 
Q 2900 3844 2670 4047 
Q 2441 4250 2034 4250 
Q 1625 4250 1398 4047 
Q 1172 3844 1172 3481 
z
" transform="scale(0.015625)"/>
       </defs>
       <use xlink:href="#DejaVuSans-38"/>
       <use xlink:href="#DejaVuSans-30" x="63.623047"/>
      </g>
     </g>
    </g>
    <g id="xtick_6">
     <g id="line2d_6">
      <g>
       <use xlink:href="#mcc891e4236" x="271.483333" y="167.908" style="stroke: #000000; stroke-width: 0.8"/>
      </g>
     </g>
     <g id="text_6">
      <!-- 100 -->
      <g transform="translate(261.939583 184.606437) scale(0.1 -0.1)">
       <defs>
        <path id="DejaVuSans-31" d="M 794 531 
L 1825 531 
L 1825 4091 
L 703 3866 
L 703 4441 
L 1819 4666 
L 2450 4666 
L 2450 531 
L 3481 531 
L 3481 0 
L 794 0 
L 794 531 
z
" transform="scale(0.015625)"/>
       </defs>
       <use xlink:href="#DejaVuSans-31"/>
       <use xlink:href="#DejaVuSans-30" x="63.623047"/>
       <use xlink:href="#DejaVuSans-30" x="127.246094"/>
      </g>
     </g>
    </g>
    <g id="xtick_7">
     <g id="line2d_7">
      <g>
       <use xlink:href="#mcc891e4236" x="314.61" y="167.908" style="stroke: #000000; stroke-width: 0.8"/>
      </g>
     </g>
     <g id="text_7">
      <!-- 120 -->
      <g transform="translate(305.06625 184.606437) scale(0.1 -0.1)">
       <use xlink:href="#DejaVuSans-31"/>
       <use xlink:href="#DejaVuSans-32" x="63.623047"/>
       <use xlink:href="#DejaVuSans-30" x="127.246094"/>
      </g>
     </g>
    </g>
    <g id="xtick_8">
     <g id="line2d_8">
      <g>
       <use xlink:href="#mcc891e4236" x="357.736667" y="167.908" style="stroke: #000000; stroke-width: 0.8"/>
      </g>
     </g>
     <g id="text_8">
      <!-- 140 -->
      <g transform="translate(348.192917 184.606437) scale(0.1 -0.1)">
       <use xlink:href="#DejaVuSans-31"/>
       <use xlink:href="#DejaVuSans-34" x="63.623047"/>
       <use xlink:href="#DejaVuSans-30" x="127.246094"/>
      </g>
     </g>
    </g>
    <g id="text_9">
     <!-- Step ($\times10^3$) -->
     <g transform="translate(191.307 198.694125) scale(0.088 -0.088)">
      <defs>
       <path id="DejaVuSans-53" d="M 3425 4513 
L 3425 3897 
Q 3066 4069 2747 4153 
Q 2428 4238 2131 4238 
Q 1616 4238 1336 4038 
Q 1056 3838 1056 3469 
Q 1056 3159 1242 3001 
Q 1428 2844 1947 2747 
L 2328 2669 
Q 3034 2534 3370 2195 
Q 3706 1856 3706 1288 
Q 3706 609 3251 259 
Q 2797 -91 1919 -91 
Q 1588 -91 1214 -16 
Q 841 59 441 206 
L 441 856 
Q 825 641 1194 531 
Q 1563 422 1919 422 
Q 2459 422 2753 634 
Q 3047 847 3047 1241 
Q 3047 1584 2836 1778 
Q 2625 1972 2144 2069 
L 1759 2144 
Q 1053 2284 737 2584 
Q 422 2884 422 3419 
Q 422 4038 858 4394 
Q 1294 4750 2059 4750 
Q 2388 4750 2728 4690 
Q 3069 4631 3425 4513 
z
" transform="scale(0.015625)"/>
       <path id="DejaVuSans-74" d="M 1172 4494 
L 1172 3500 
L 2356 3500 
L 2356 3053 
L 1172 3053 
L 1172 1153 
Q 1172 725 1289 603 
Q 1406 481 1766 481 
L 2356 481 
L 2356 0 
L 1766 0 
Q 1100 0 847 248 
Q 594 497 594 1153 
L 594 3053 
L 172 3053 
L 172 3500 
L 594 3500 
L 594 4494 
L 1172 4494 
z
" transform="scale(0.015625)"/>
       <path id="DejaVuSans-65" d="M 3597 1894 
L 3597 1613 
L 953 1613 
Q 991 1019 1311 708 
Q 1631 397 2203 397 
Q 2534 397 2845 478 
Q 3156 559 3463 722 
L 3463 178 
Q 3153 47 2828 -22 
Q 2503 -91 2169 -91 
Q 1331 -91 842 396 
Q 353 884 353 1716 
Q 353 2575 817 3079 
Q 1281 3584 2069 3584 
Q 2775 3584 3186 3129 
Q 3597 2675 3597 1894 
z
M 3022 2063 
Q 3016 2534 2758 2815 
Q 2500 3097 2075 3097 
Q 1594 3097 1305 2825 
Q 1016 2553 972 2059 
L 3022 2063 
z
" transform="scale(0.015625)"/>
       <path id="DejaVuSans-70" d="M 1159 525 
L 1159 -1331 
L 581 -1331 
L 581 3500 
L 1159 3500 
L 1159 2969 
Q 1341 3281 1617 3432 
Q 1894 3584 2278 3584 
Q 2916 3584 3314 3078 
Q 3713 2572 3713 1747 
Q 3713 922 3314 415 
Q 2916 -91 2278 -91 
Q 1894 -91 1617 61 
Q 1341 213 1159 525 
z
M 3116 1747 
Q 3116 2381 2855 2742 
Q 2594 3103 2138 3103 
Q 1681 3103 1420 2742 
Q 1159 2381 1159 1747 
Q 1159 1113 1420 752 
Q 1681 391 2138 391 
Q 2594 391 2855 752 
Q 3116 1113 3116 1747 
z
" transform="scale(0.015625)"/>
       <path id="DejaVuSans-20" transform="scale(0.015625)"/>
       <path id="DejaVuSans-28" d="M 1984 4856 
Q 1566 4138 1362 3434 
Q 1159 2731 1159 2009 
Q 1159 1288 1364 580 
Q 1569 -128 1984 -844 
L 1484 -844 
Q 1016 -109 783 600 
Q 550 1309 550 2009 
Q 550 2706 781 3412 
Q 1013 4119 1484 4856 
L 1984 4856 
z
" transform="scale(0.015625)"/>
       <path id="DejaVuSans-d7" d="M 4488 3438 
L 3059 2003 
L 4488 575 
L 4116 197 
L 2681 1631 
L 1247 197 
L 878 575 
L 2303 2003 
L 878 3438 
L 1247 3816 
L 2681 2381 
L 4116 3816 
L 4488 3438 
z
" transform="scale(0.015625)"/>
       <path id="DejaVuSans-33" d="M 2597 2516 
Q 3050 2419 3304 2112 
Q 3559 1806 3559 1356 
Q 3559 666 3084 287 
Q 2609 -91 1734 -91 
Q 1441 -91 1130 -33 
Q 819 25 488 141 
L 488 750 
Q 750 597 1062 519 
Q 1375 441 1716 441 
Q 2309 441 2620 675 
Q 2931 909 2931 1356 
Q 2931 1769 2642 2001 
Q 2353 2234 1838 2234 
L 1294 2234 
L 1294 2753 
L 1863 2753 
Q 2328 2753 2575 2939 
Q 2822 3125 2822 3475 
Q 2822 3834 2567 4026 
Q 2313 4219 1838 4219 
Q 1578 4219 1281 4162 
Q 984 4106 628 3988 
L 628 4550 
Q 988 4650 1302 4700 
Q 1616 4750 1894 4750 
Q 2613 4750 3031 4423 
Q 3450 4097 3450 3541 
Q 3450 3153 3228 2886 
Q 3006 2619 2597 2516 
z
" transform="scale(0.015625)"/>
       <path id="DejaVuSans-29" d="M 513 4856 
L 1013 4856 
Q 1481 4119 1714 3412 
Q 1947 2706 1947 2009 
Q 1947 1309 1714 600 
Q 1481 -109 1013 -844 
L 513 -844 
Q 928 -128 1133 580 
Q 1338 1288 1338 2009 
Q 1338 2731 1133 3434 
Q 928 4138 513 4856 
z
" transform="scale(0.015625)"/>
      </defs>
      <use xlink:href="#DejaVuSans-53" transform="translate(0 0.765625)"/>
      <use xlink:href="#DejaVuSans-74" transform="translate(63.476562 0.765625)"/>
      <use xlink:href="#DejaVuSans-65" transform="translate(102.685547 0.765625)"/>
      <use xlink:href="#DejaVuSans-70" transform="translate(164.208984 0.765625)"/>
      <use xlink:href="#DejaVuSans-20" transform="translate(227.685547 0.765625)"/>
      <use xlink:href="#DejaVuSans-28" transform="translate(259.472656 0.765625)"/>
      <use xlink:href="#DejaVuSans-d7" transform="translate(298.486328 0.765625)"/>
      <use xlink:href="#DejaVuSans-31" transform="translate(382.275391 0.765625)"/>
      <use xlink:href="#DejaVuSans-30" transform="translate(445.898438 0.765625)"/>
      <use xlink:href="#DejaVuSans-33" transform="translate(510.478516 39.046875) scale(0.7)"/>
      <use xlink:href="#DejaVuSans-29" transform="translate(557.749023 0.765625)"/>
     </g>
    </g>
   </g>
   <g id="matplotlib.axis_2">
    <g id="ytick_1">
     <g id="line2d_9">
      <defs>
       <path id="m0800b92f52" d="M 0 0 
L -3.5 0 
" style="stroke: #000000; stroke-width: 0.8"/>
      </defs>
      <g>
       <use xlink:href="#m0800b92f52" x="55.85" y="167.908" style="stroke: #000000; stroke-width: 0.8"/>
      </g>
     </g>
     <g id="text_10">
      <!-- 0 -->
      <g style="fill: #d62728" transform="translate(40.3875 171.707219) scale(0.1 -0.1)">
       <use xlink:href="#DejaVuSans-30"/>
      </g>
     </g>
    </g>
    <g id="ytick_2">
     <g id="line2d_10">
      <g>
       <use xlink:href="#m0800b92f52" x="55.85" y="137.2784" style="stroke: #000000; stroke-width: 0.8"/>
      </g>
     </g>
     <g id="text_11">
      <!-- 20 -->
      <g style="fill: #d62728" transform="translate(34.025 141.077619) scale(0.1 -0.1)">
       <use xlink:href="#DejaVuSans-32"/>
       <use xlink:href="#DejaVuSans-30" x="63.623047"/>
      </g>
     </g>
    </g>
    <g id="ytick_3">
     <g id="line2d_11">
      <g>
       <use xlink:href="#m0800b92f52" x="55.85" y="106.6488" style="stroke: #000000; stroke-width: 0.8"/>
      </g>
     </g>
     <g id="text_12">
      <!-- 40 -->
      <g style="fill: #d62728" transform="translate(34.025 110.448019) scale(0.1 -0.1)">
       <use xlink:href="#DejaVuSans-34"/>
       <use xlink:href="#DejaVuSans-30" x="63.623047"/>
      </g>
     </g>
    </g>
    <g id="ytick_4">
     <g id="line2d_12">
      <g>
       <use xlink:href="#m0800b92f52" x="55.85" y="76.0192" style="stroke: #000000; stroke-width: 0.8"/>
      </g>
     </g>
     <g id="text_13">
      <!-- 60 -->
      <g style="fill: #d62728" transform="translate(34.025 79.818419) scale(0.1 -0.1)">
       <use xlink:href="#DejaVuSans-36"/>
       <use xlink:href="#DejaVuSans-30" x="63.623047"/>
      </g>
     </g>
    </g>
    <g id="ytick_5">
     <g id="line2d_13">
      <g>
       <use xlink:href="#m0800b92f52" x="55.85" y="45.3896" style="stroke: #000000; stroke-width: 0.8"/>
      </g>
     </g>
     <g id="text_14">
      <!-- 80 -->
      <g style="fill: #d62728" transform="translate(34.025 49.188819) scale(0.1 -0.1)">
       <use xlink:href="#DejaVuSans-38"/>
       <use xlink:href="#DejaVuSans-30" x="63.623047"/>
      </g>
     </g>
    </g>
    <g id="ytick_6">
     <g id="line2d_14">
      <g>
       <use xlink:href="#m0800b92f52" x="55.85" y="14.76" style="stroke: #000000; stroke-width: 0.8"/>
      </g>
     </g>
     <g id="text_15">
      <!-- 100 -->
      <g style="fill: #d62728" transform="translate(27.6625 18.559219) scale(0.1 -0.1)">
       <use xlink:href="#DejaVuSans-31"/>
       <use xlink:href="#DejaVuSans-30" x="63.623047"/>
       <use xlink:href="#DejaVuSans-30" x="127.246094"/>
      </g>
     </g>
    </g>
    <g id="text_16">
     <!-- Success rate (%) -->
     <g style="fill: #d62728" transform="translate(21.166875 141.870875) rotate(-90) scale(0.12 -0.12)">
      <defs>
       <path id="DejaVuSans-75" d="M 544 1381 
L 544 3500 
L 1119 3500 
L 1119 1403 
Q 1119 906 1312 657 
Q 1506 409 1894 409 
Q 2359 409 2629 706 
Q 2900 1003 2900 1516 
L 2900 3500 
L 3475 3500 
L 3475 0 
L 2900 0 
L 2900 538 
Q 2691 219 2414 64 
Q 2138 -91 1772 -91 
Q 1169 -91 856 284 
Q 544 659 544 1381 
z
M 1991 3584 
L 1991 3584 
z
" transform="scale(0.015625)"/>
       <path id="DejaVuSans-63" d="M 3122 3366 
L 3122 2828 
Q 2878 2963 2633 3030 
Q 2388 3097 2138 3097 
Q 1578 3097 1268 2742 
Q 959 2388 959 1747 
Q 959 1106 1268 751 
Q 1578 397 2138 397 
Q 2388 397 2633 464 
Q 2878 531 3122 666 
L 3122 134 
Q 2881 22 2623 -34 
Q 2366 -91 2075 -91 
Q 1284 -91 818 406 
Q 353 903 353 1747 
Q 353 2603 823 3093 
Q 1294 3584 2113 3584 
Q 2378 3584 2631 3529 
Q 2884 3475 3122 3366 
z
" transform="scale(0.015625)"/>
       <path id="DejaVuSans-73" d="M 2834 3397 
L 2834 2853 
Q 2591 2978 2328 3040 
Q 2066 3103 1784 3103 
Q 1356 3103 1142 2972 
Q 928 2841 928 2578 
Q 928 2378 1081 2264 
Q 1234 2150 1697 2047 
L 1894 2003 
Q 2506 1872 2764 1633 
Q 3022 1394 3022 966 
Q 3022 478 2636 193 
Q 2250 -91 1575 -91 
Q 1294 -91 989 -36 
Q 684 19 347 128 
L 347 722 
Q 666 556 975 473 
Q 1284 391 1588 391 
Q 1994 391 2212 530 
Q 2431 669 2431 922 
Q 2431 1156 2273 1281 
Q 2116 1406 1581 1522 
L 1381 1569 
Q 847 1681 609 1914 
Q 372 2147 372 2553 
Q 372 3047 722 3315 
Q 1072 3584 1716 3584 
Q 2034 3584 2315 3537 
Q 2597 3491 2834 3397 
z
" transform="scale(0.015625)"/>
       <path id="DejaVuSans-72" d="M 2631 2963 
Q 2534 3019 2420 3045 
Q 2306 3072 2169 3072 
Q 1681 3072 1420 2755 
Q 1159 2438 1159 1844 
L 1159 0 
L 581 0 
L 581 3500 
L 1159 3500 
L 1159 2956 
Q 1341 3275 1631 3429 
Q 1922 3584 2338 3584 
Q 2397 3584 2469 3576 
Q 2541 3569 2628 3553 
L 2631 2963 
z
" transform="scale(0.015625)"/>
       <path id="DejaVuSans-61" d="M 2194 1759 
Q 1497 1759 1228 1600 
Q 959 1441 959 1056 
Q 959 750 1161 570 
Q 1363 391 1709 391 
Q 2188 391 2477 730 
Q 2766 1069 2766 1631 
L 2766 1759 
L 2194 1759 
z
M 3341 1997 
L 3341 0 
L 2766 0 
L 2766 531 
Q 2569 213 2275 61 
Q 1981 -91 1556 -91 
Q 1019 -91 701 211 
Q 384 513 384 1019 
Q 384 1609 779 1909 
Q 1175 2209 1959 2209 
L 2766 2209 
L 2766 2266 
Q 2766 2663 2505 2880 
Q 2244 3097 1772 3097 
Q 1472 3097 1187 3025 
Q 903 2953 641 2809 
L 641 3341 
Q 956 3463 1253 3523 
Q 1550 3584 1831 3584 
Q 2591 3584 2966 3190 
Q 3341 2797 3341 1997 
z
" transform="scale(0.015625)"/>
       <path id="DejaVuSans-25" d="M 4653 2053 
Q 4381 2053 4226 1822 
Q 4072 1591 4072 1178 
Q 4072 772 4226 539 
Q 4381 306 4653 306 
Q 4919 306 5073 539 
Q 5228 772 5228 1178 
Q 5228 1588 5073 1820 
Q 4919 2053 4653 2053 
z
M 4653 2450 
Q 5147 2450 5437 2106 
Q 5728 1763 5728 1178 
Q 5728 594 5436 251 
Q 5144 -91 4653 -91 
Q 4153 -91 3862 251 
Q 3572 594 3572 1178 
Q 3572 1766 3864 2108 
Q 4156 2450 4653 2450 
z
M 1428 4353 
Q 1159 4353 1004 4120 
Q 850 3888 850 3481 
Q 850 3069 1003 2837 
Q 1156 2606 1428 2606 
Q 1700 2606 1854 2837 
Q 2009 3069 2009 3481 
Q 2009 3884 1853 4118 
Q 1697 4353 1428 4353 
z
M 4250 4750 
L 4750 4750 
L 1831 -91 
L 1331 -91 
L 4250 4750 
z
M 1428 4750 
Q 1922 4750 2215 4408 
Q 2509 4066 2509 3481 
Q 2509 2891 2217 2550 
Q 1925 2209 1428 2209 
Q 931 2209 642 2551 
Q 353 2894 353 3481 
Q 353 4063 643 4406 
Q 934 4750 1428 4750 
z
" transform="scale(0.015625)"/>
      </defs>
      <use xlink:href="#DejaVuSans-53"/>
      <use xlink:href="#DejaVuSans-75" x="63.476562"/>
      <use xlink:href="#DejaVuSans-63" x="126.855469"/>
      <use xlink:href="#DejaVuSans-63" x="181.835938"/>
      <use xlink:href="#DejaVuSans-65" x="236.816406"/>
      <use xlink:href="#DejaVuSans-73" x="298.339844"/>
      <use xlink:href="#DejaVuSans-73" x="350.439453"/>
      <use xlink:href="#DejaVuSans-20" x="402.539062"/>
      <use xlink:href="#DejaVuSans-72" x="434.326172"/>
      <use xlink:href="#DejaVuSans-61" x="475.439453"/>
      <use xlink:href="#DejaVuSans-74" x="536.71875"/>
      <use xlink:href="#DejaVuSans-65" x="575.927734"/>
      <use xlink:href="#DejaVuSans-20" x="637.451172"/>
      <use xlink:href="#DejaVuSans-28" x="669.238281"/>
      <use xlink:href="#DejaVuSans-25" x="708.251953"/>
      <use xlink:href="#DejaVuSans-29" x="803.271484"/>
     </g>
    </g>
   </g>
   <g id="line2d_15">
    <path d="M 55.85 163.619856 
L 92.507667 163.517757 
L 94.664 163.109363 
L 96.820333 163.31356 
L 98.976667 162.700968 
L 101.133 162.496771 
L 103.289333 162.496771 
L 107.602 163.31356 
L 111.914667 163.619856 
L 114.071 163.517757 
L 120.54 164.028251 
L 124.852667 163.926152 
L 127.009 164.232448 
L 129.165333 163.926152 
L 131.321667 164.538744 
L 133.478 164.947139 
L 135.634333 164.742941 
L 137.790667 164.742941 
L 142.103333 164.334547 
L 144.259667 163.926152 
L 146.416 164.028251 
L 148.572333 163.824053 
L 150.728667 163.824053 
L 155.041333 164.130349 
L 157.197667 164.232448 
L 159.354 164.028251 
L 163.666667 164.028251 
L 165.823 163.619856 
L 167.979333 163.415659 
L 172.292 163.415659 
L 174.448333 163.211461 
L 176.604667 163.415659 
L 178.761 163.109363 
L 180.917333 163.211461 
L 183.073667 163.109363 
L 185.23 162.803067 
L 189.542667 162.905165 
L 191.699 162.905165 
L 193.855333 163.109363 
L 196.011667 162.496771 
L 204.637 162.905165 
L 206.793333 163.31356 
L 208.949667 163.31356 
L 213.262333 163.824053 
L 215.418667 163.824053 
L 217.575 164.436645 
L 219.731333 164.232448 
L 221.887667 164.232448 
L 224.044 164.436645 
L 226.200333 164.334547 
L 228.356667 164.84504 
L 230.513 164.640843 
L 232.669333 164.742941 
L 234.825667 163.926152 
L 239.138333 164.028251 
L 249.92 163.926152 
L 252.076333 164.232448 
L 254.232667 164.028251 
L 256.389 164.130349 
L 258.545333 163.824053 
L 265.014333 164.436645 
L 267.170667 165.049237 
L 269.327 164.84504 
L 271.483333 164.436645 
L 273.639667 164.334547 
L 277.952333 164.436645 
L 284.421333 164.538744 
L 286.577667 164.742941 
L 288.734 164.436645 
L 290.890333 164.84504 
L 293.046667 164.436645 
L 297.359333 164.538744 
L 299.515667 164.334547 
L 303.828333 164.640843 
L 305.984667 164.84504 
L 318.922667 164.232448 
L 321.079 164.436645 
L 323.235333 163.926152 
L 325.391667 164.028251 
L 327.548 163.619856 
L 331.860667 163.721955 
L 334.017 163.415659 
L 338.329667 163.415659 
L 340.486 163.211461 
L 342.642333 163.619856 
L 349.111333 163.007264 
L 351.267667 163.007264 
L 353.424 162.803067 
L 355.580333 163.415659 
L 359.893 164.130349 
L 364.205667 164.028251 
L 368.518333 164.436645 
L 372.831 164.130349 
L 374.987333 163.926152 
L 377.143667 164.232448 
L 379.3 164.334547 
L 379.3 164.334547 
" clip-path="url(#p6559c387a6)" style="fill: none; stroke: #d62728; stroke-width: 2; stroke-linecap: square"/>
   </g>
   <g id="patch_3">
    <path d="M 55.85 167.908 
L 55.85 14.76 
" style="fill: none; stroke: #000000; stroke-width: 0.8; stroke-linejoin: miter; stroke-linecap: square"/>
   </g>
   <g id="patch_4">
    <path d="M 379.3 167.908 
L 379.3 14.76 
" style="fill: none; stroke: #000000; stroke-width: 0.8; stroke-linejoin: miter; stroke-linecap: square"/>
   </g>
   <g id="patch_5">
    <path d="M 55.85 167.908 
L 379.3 167.908 
" style="fill: none; stroke: #000000; stroke-width: 0.8; stroke-linejoin: miter; stroke-linecap: square"/>
   </g>
   <g id="patch_6">
    <path d="M 55.85 14.76 
L 379.3 14.76 
" style="fill: none; stroke: #000000; stroke-width: 0.8; stroke-linejoin: miter; stroke-linecap: square"/>
   </g>
  </g>
  <g id="axes_2">
   <g id="PolyCollection_2">
    <defs>
     <path id="mbf44373af4" d="M 55.85 -194.979982 
L 55.85 -172.849124 
L 58.006333 -172.849124 
L 60.162667 -172.849124 
L 62.319 -172.849124 
L 64.475333 -172.849124 
L 66.631667 -172.849124 
L 68.788 -172.849124 
L 70.944333 -172.849124 
L 73.100667 -172.849124 
L 75.257 -172.849124 
L 77.413333 -172.849124 
L 79.569667 -172.849124 
L 81.726 -172.849124 
L 83.882333 -172.849124 
L 86.038667 -172.849124 
L 88.195 -172.849124 
L 90.351333 -172.849124 
L 92.507667 -172.849124 
L 94.664 -172.849124 
L 96.820333 -172.849124 
L 98.976667 -172.849124 
L 101.133 -172.119379 
L 103.289333 -171.553584 
L 105.445667 -171.738339 
L 107.602 -171.908405 
L 109.758333 -171.36847 
L 111.914667 -171.575459 
L 114.071 -171.391413 
L 116.227333 -171.266411 
L 118.383667 -171.34395 
L 120.54 -171.844405 
L 122.696333 -172.306108 
L 124.852667 -172.67823 
L 127.009 -172.673271 
L 129.165333 -172.66401 
L 131.321667 -172.618162 
L 133.478 -172.615448 
L 135.634333 -171.963836 
L 137.790667 -172.363575 
L 139.947 -172.445824 
L 142.103333 -172.462121 
L 144.259667 -172.412921 
L 146.416 -172.595289 
L 148.572333 -172.590812 
L 150.728667 -172.739197 
L 152.885 -173.249268 
L 155.041333 -173.485093 
L 157.197667 -173.472329 
L 159.354 -173.286081 
L 161.510333 -173.139517 
L 163.666667 -173.142582 
L 165.823 -173.396832 
L 167.979333 -173.405298 
L 170.135667 -173.205399 
L 172.292 -173.216939 
L 174.448333 -173.163976 
L 176.604667 -172.807459 
L 178.761 -173.360414 
L 180.917333 -173.419319 
L 183.073667 -173.427412 
L 185.23 -173.441805 
L 187.386333 -173.637747 
L 189.542667 -173.571007 
L 191.699 -173.520058 
L 193.855333 -173.524542 
L 196.011667 -173.411709 
L 198.168 -173.436977 
L 200.324333 -173.437213 
L 202.480667 -173.453885 
L 204.637 -173.433888 
L 206.793333 -173.419477 
L 208.949667 -173.355574 
L 211.106 -173.222353 
L 213.262333 -173.409277 
L 215.418667 -173.378499 
L 217.575 -173.445837 
L 219.731333 -173.988731 
L 221.887667 -174.182593 
L 224.044 -174.263417 
L 226.200333 -174.267451 
L 228.356667 -174.246141 
L 230.513 -174.327831 
L 232.669333 -174.477523 
L 234.825667 -174.478809 
L 236.982 -174.489124 
L 239.138333 -174.41958 
L 241.294667 -174.493163 
L 243.451 -174.573759 
L 245.607333 -174.941988 
L 247.763667 -175.536085 
L 249.92 -175.54909 
L 252.076333 -175.421374 
L 254.232667 -175.049877 
L 256.389 -175.047651 
L 258.545333 -174.920037 
L 260.701667 -174.678629 
L 262.858 -174.768895 
L 265.014333 -174.73141 
L 267.170667 -174.70375 
L 269.327 -174.703162 
L 271.483333 -174.742437 
L 273.639667 -174.740003 
L 275.796 -175.018895 
L 277.952333 -175.086338 
L 280.108667 -174.934372 
L 282.265 -174.935782 
L 284.421333 -174.860386 
L 286.577667 -174.884005 
L 288.734 -174.841232 
L 290.890333 -174.8703 
L 293.046667 -175.016151 
L 295.203 -175.255377 
L 297.359333 -175.854414 
L 299.515667 -175.947209 
L 301.672 -175.94831 
L 303.828333 -176.54967 
L 305.984667 -176.68768 
L 308.141 -176.661561 
L 310.297333 -176.871295 
L 312.453667 -176.773846 
L 314.61 -176.757305 
L 316.766333 -176.75991 
L 318.922667 -176.746138 
L 321.079 -176.698203 
L 323.235333 -176.7355 
L 325.391667 -176.778581 
L 327.548 -177.223662 
L 329.704333 -177.186426 
L 331.860667 -177.181262 
L 334.017 -176.920512 
L 336.173333 -176.911771 
L 338.329667 -176.866527 
L 340.486 -176.88569 
L 342.642333 -177.070253 
L 344.798667 -177.114255 
L 346.955 -177.108489 
L 349.111333 -177.060051 
L 351.267667 -177.032495 
L 353.424 -177.015392 
L 355.580333 -177.346229 
L 357.736667 -177.311441 
L 359.893 -177.274307 
L 362.049333 -177.263172 
L 364.205667 -177.467135 
L 366.362 -177.50792 
L 368.518333 -177.457806 
L 370.674667 -177.396967 
L 372.831 -177.515525 
L 374.987333 -177.424739 
L 377.143667 -177.552011 
L 379.3 -177.280894 
L 379.3 -182.21815 
L 379.3 -182.21815 
L 377.143667 -181.752511 
L 374.987333 -182.007351 
L 372.831 -182.019544 
L 370.674667 -182.047607 
L 368.518333 -181.881084 
L 366.362 -181.885725 
L 364.205667 -181.752575 
L 362.049333 -181.6726 
L 359.893 -181.77708 
L 357.736667 -181.790736 
L 355.580333 -181.779934 
L 353.424 -181.857029 
L 351.267667 -181.989991 
L 349.111333 -181.979366 
L 346.955 -181.97374 
L 344.798667 -181.601786 
L 342.642333 -181.577394 
L 340.486 -181.626956 
L 338.329667 -181.562037 
L 336.173333 -181.586182 
L 334.017 -181.378636 
L 331.860667 -180.930829 
L 329.704333 -180.908196 
L 327.548 -180.907222 
L 325.391667 -180.961294 
L 323.235333 -180.89154 
L 321.079 -181.049632 
L 318.922667 -181.039094 
L 316.766333 -180.80364 
L 314.61 -180.738041 
L 312.453667 -180.787287 
L 310.297333 -180.745536 
L 308.141 -180.5574 
L 305.984667 -180.571228 
L 303.828333 -180.55317 
L 301.672 -180.870109 
L 299.515667 -180.909883 
L 297.359333 -180.936631 
L 295.203 -181.122842 
L 293.046667 -181.035834 
L 290.890333 -180.966193 
L 288.734 -180.676122 
L 286.577667 -180.570288 
L 284.421333 -180.463454 
L 282.265 -180.44979 
L 280.108667 -180.466684 
L 277.952333 -180.146472 
L 275.796 -180.077873 
L 273.639667 -180.074663 
L 271.483333 -179.900488 
L 269.327 -179.612738 
L 267.170667 -179.607208 
L 265.014333 -179.616688 
L 262.858 -179.454087 
L 260.701667 -179.419923 
L 258.545333 -179.394342 
L 256.389 -179.107693 
L 254.232667 -179.109453 
L 252.076333 -179.027484 
L 249.92 -179.009737 
L 247.763667 -179.012979 
L 245.607333 -179.348339 
L 243.451 -179.251479 
L 241.294667 -179.194567 
L 239.138333 -179.169707 
L 236.982 -178.980346 
L 234.825667 -178.702834 
L 232.669333 -178.698084 
L 230.513 -178.770895 
L 228.356667 -178.71035 
L 226.200333 -178.716625 
L 224.044 -178.538345 
L 221.887667 -178.470111 
L 219.731333 -178.38833 
L 217.575 -178.624071 
L 215.418667 -178.44099 
L 213.262333 -178.205844 
L 211.106 -178.099583 
L 208.949667 -177.785044 
L 206.793333 -177.633125 
L 204.637 -177.564292 
L 202.480667 -177.555805 
L 200.324333 -177.562614 
L 198.168 -177.538459 
L 196.011667 -177.483396 
L 193.855333 -177.250582 
L 191.699 -177.236511 
L 189.542667 -177.127871 
L 187.386333 -177.20557 
L 185.23 -177.613469 
L 183.073667 -177.659275 
L 180.917333 -177.627544 
L 178.761 -177.612586 
L 176.604667 -177.922296 
L 174.448333 -177.843866 
L 172.292 -177.897974 
L 170.135667 -178.040745 
L 167.979333 -178.03967 
L 165.823 -178.119079 
L 163.666667 -178.12155 
L 161.510333 -178.185431 
L 159.354 -178.299579 
L 157.197667 -178.381334 
L 155.041333 -178.396968 
L 152.885 -178.489202 
L 150.728667 -178.65995 
L 148.572333 -179.141298 
L 146.416 -179.166799 
L 144.259667 -179.152497 
L 142.103333 -179.009211 
L 139.947 -178.936544 
L 137.790667 -179.297999 
L 135.634333 -180.337484 
L 133.478 -180.23666 
L 131.321667 -180.532141 
L 129.165333 -180.709913 
L 127.009 -180.826117 
L 124.852667 -181.160089 
L 122.696333 -182.092527 
L 120.54 -183.741458 
L 118.383667 -185.162583 
L 116.227333 -185.947387 
L 114.071 -186.367734 
L 111.914667 -186.961424 
L 109.758333 -188.83042 
L 107.602 -189.999632 
L 105.445667 -191.233143 
L 103.289333 -193.07961 
L 101.133 -194.457279 
L 98.976667 -194.979982 
L 96.820333 -194.979982 
L 94.664 -194.979982 
L 92.507667 -194.979982 
L 90.351333 -194.979982 
L 88.195 -194.979982 
L 86.038667 -194.979982 
L 83.882333 -194.979982 
L 81.726 -194.979982 
L 79.569667 -194.979982 
L 77.413333 -194.979982 
L 75.257 -194.979982 
L 73.100667 -194.979982 
L 70.944333 -194.979982 
L 68.788 -194.979982 
L 66.631667 -194.979982 
L 64.475333 -194.979982 
L 62.319 -194.979982 
L 60.162667 -194.979982 
L 58.006333 -194.979982 
L 55.85 -194.979982 
z
" style="stroke: #1f77b4; stroke-opacity: 0.2; stroke-width: 0.24"/>
    </defs>
    <g clip-path="url(#p6559c387a6)">
     <use xlink:href="#mbf44373af4" x="0" y="216" style="fill: #1f77b4; fill-opacity: 0.2; stroke: #1f77b4; stroke-opacity: 0.2; stroke-width: 0.24"/>
    </g>
   </g>
   <g id="matplotlib.axis_3">
    <g id="ytick_7">
     <g id="line2d_16">
      <defs>
       <path id="mccb4947396" d="M 0 0 
L 3.5 0 
" style="stroke: #000000; stroke-width: 0.8"/>
      </defs>
      <g>
       <use xlink:href="#mccb4947396" x="379.3" y="167.908" style="stroke: #000000; stroke-width: 0.8"/>
      </g>
     </g>
     <g id="text_17">
      <!-- 0.0 -->
      <g style="fill: #1f77b4" transform="translate(388.4 171.707219) scale(0.1 -0.1)">
       <defs>
        <path id="DejaVuSans-2e" d="M 684 794 
L 1344 794 
L 1344 0 
L 684 0 
L 684 794 
z
" transform="scale(0.015625)"/>
       </defs>
       <use xlink:href="#DejaVuSans-30"/>
       <use xlink:href="#DejaVuSans-2e" x="63.623047"/>
       <use xlink:href="#DejaVuSans-30" x="95.410156"/>
      </g>
     </g>
    </g>
    <g id="ytick_8">
     <g id="line2d_17">
      <g>
       <use xlink:href="#mccb4947396" x="379.3" y="129.621" style="stroke: #000000; stroke-width: 0.8"/>
      </g>
     </g>
     <g id="text_18">
      <!-- 0.2 -->
      <g style="fill: #1f77b4" transform="translate(388.4 133.420219) scale(0.1 -0.1)">
       <use xlink:href="#DejaVuSans-30"/>
       <use xlink:href="#DejaVuSans-2e" x="63.623047"/>
       <use xlink:href="#DejaVuSans-32" x="95.410156"/>
      </g>
     </g>
    </g>
    <g id="ytick_9">
     <g id="line2d_18">
      <g>
       <use xlink:href="#mccb4947396" x="379.3" y="91.334" style="stroke: #000000; stroke-width: 0.8"/>
      </g>
     </g>
     <g id="text_19">
      <!-- 0.4 -->
      <g style="fill: #1f77b4" transform="translate(388.4 95.133219) scale(0.1 -0.1)">
       <use xlink:href="#DejaVuSans-30"/>
       <use xlink:href="#DejaVuSans-2e" x="63.623047"/>
       <use xlink:href="#DejaVuSans-34" x="95.410156"/>
      </g>
     </g>
    </g>
    <g id="ytick_10">
     <g id="line2d_19">
      <g>
       <use xlink:href="#mccb4947396" x="379.3" y="53.047" style="stroke: #000000; stroke-width: 0.8"/>
      </g>
     </g>
     <g id="text_20">
      <!-- 0.6 -->
      <g style="fill: #1f77b4" transform="translate(388.4 56.846219) scale(0.1 -0.1)">
       <use xlink:href="#DejaVuSans-30"/>
       <use xlink:href="#DejaVuSans-2e" x="63.623047"/>
       <use xlink:href="#DejaVuSans-36" x="95.410156"/>
      </g>
     </g>
    </g>
    <g id="ytick_11">
     <g id="line2d_20">
      <g>
       <use xlink:href="#mccb4947396" x="379.3" y="14.76" style="stroke: #000000; stroke-width: 0.8"/>
      </g>
     </g>
     <g id="text_21">
      <!-- 0.8 -->
      <g style="fill: #1f77b4" transform="translate(388.4 18.559219) scale(0.1 -0.1)">
       <use xlink:href="#DejaVuSans-30"/>
       <use xlink:href="#DejaVuSans-2e" x="63.623047"/>
       <use xlink:href="#DejaVuSans-38" x="95.410156"/>
      </g>
     </g>
    </g>
    <g id="text_22">
     <!-- Loss -->
     <g style="fill: #1f77b4" transform="translate(417.42125 104.494625) rotate(-90) scale(0.12 -0.12)">
      <defs>
       <path id="DejaVuSans-4c" d="M 628 4666 
L 1259 4666 
L 1259 531 
L 3531 531 
L 3531 0 
L 628 0 
L 628 4666 
z
" transform="scale(0.015625)"/>
       <path id="DejaVuSans-6f" d="M 1959 3097 
Q 1497 3097 1228 2736 
Q 959 2375 959 1747 
Q 959 1119 1226 758 
Q 1494 397 1959 397 
Q 2419 397 2687 759 
Q 2956 1122 2956 1747 
Q 2956 2369 2687 2733 
Q 2419 3097 1959 3097 
z
M 1959 3584 
Q 2709 3584 3137 3096 
Q 3566 2609 3566 1747 
Q 3566 888 3137 398 
Q 2709 -91 1959 -91 
Q 1206 -91 779 398 
Q 353 888 353 1747 
Q 353 2609 779 3096 
Q 1206 3584 1959 3584 
z
" transform="scale(0.015625)"/>
      </defs>
      <use xlink:href="#DejaVuSans-4c"/>
      <use xlink:href="#DejaVuSans-6f" x="53.962891"/>
      <use xlink:href="#DejaVuSans-73" x="115.144531"/>
      <use xlink:href="#DejaVuSans-73" x="167.244141"/>
     </g>
    </g>
   </g>
   <g id="line2d_21">
    <path d="M 55.85 32.085447 
L 98.976667 32.085447 
L 101.133 32.711671 
L 103.289333 33.683403 
L 105.445667 34.514259 
L 107.602 35.045982 
L 111.914667 36.731558 
L 114.071 37.120426 
L 118.383667 37.746734 
L 120.54 38.207068 
L 122.696333 38.800682 
L 127.009 39.250306 
L 131.321667 39.424849 
L 133.478 39.573946 
L 139.947 40.308816 
L 148.572333 40.133945 
L 150.728667 40.300426 
L 155.041333 40.058969 
L 157.197667 40.073169 
L 163.666667 40.367934 
L 165.823 40.242044 
L 172.292 40.442544 
L 178.761 40.5135 
L 185.23 40.472363 
L 189.542667 40.650561 
L 211.106 40.339032 
L 221.887667 39.673648 
L 230.513 39.450637 
L 241.294667 39.156135 
L 243.451 39.087381 
L 247.763667 38.725468 
L 252.076333 38.775571 
L 254.232667 38.920335 
L 269.327 38.84205 
L 275.796 38.451616 
L 282.265 38.307214 
L 286.577667 38.272854 
L 288.734 38.241323 
L 297.359333 37.604477 
L 308.141 37.390519 
L 310.297333 37.191585 
L 316.766333 37.218225 
L 318.922667 37.107384 
L 325.391667 37.130062 
L 327.548 36.934558 
L 331.860667 36.943955 
L 336.173333 36.751023 
L 340.486 36.743677 
L 351.267667 36.488757 
L 353.424 36.56379 
L 355.580333 36.436919 
L 364.205667 36.390145 
L 366.362 36.303177 
L 370.674667 36.277713 
L 374.987333 36.283955 
L 377.143667 36.347739 
L 379.3 36.250478 
L 379.3 36.250478 
" clip-path="url(#p6559c387a6)" style="fill: none; stroke: #1f77b4; stroke-width: 2; stroke-linecap: square"/>
   </g>
   <g id="patch_7">
    <path d="M 55.85 167.908 
L 55.85 14.76 
" style="fill: none; stroke: #000000; stroke-width: 0.8; stroke-linejoin: miter; stroke-linecap: square"/>
   </g>
   <g id="patch_8">
    <path d="M 379.3 167.908 
L 379.3 14.76 
" style="fill: none; stroke: #000000; stroke-width: 0.8; stroke-linejoin: miter; stroke-linecap: square"/>
   </g>
   <g id="patch_9">
    <path d="M 55.85 167.908 
L 379.3 167.908 
" style="fill: none; stroke: #000000; stroke-width: 0.8; stroke-linejoin: miter; stroke-linecap: square"/>
   </g>
   <g id="patch_10">
    <path d="M 55.85 14.76 
L 379.3 14.76 
" style="fill: none; stroke: #000000; stroke-width: 0.8; stroke-linejoin: miter; stroke-linecap: square"/>
   </g>
  </g>
 </g>
 <defs>
  <clipPath id="p6559c387a6">
   <rect x="55.85" y="14.76" width="323.45" height="153.148"/>
  </clipPath>
 </defs>
</svg>
