<?xml version="1.0" encoding="utf-8" standalone="no"?>
<!DOCTYPE svg PUBLIC "-//W3C//DTD SVG 1.1//EN"
  "http://www.w3.org/Graphics/SVG/1.1/DTD/svg11.dtd">
<svg xmlns:xlink="http://www.w3.org/1999/xlink" width="432pt" height="216pt" viewBox="0 0 432 216" xmlns="http://www.w3.org/2000/svg" version="1.1">
 <metadata>
  <rdf:RDF xmlns:dc="http://purl.org/dc/elements/1.1/" xmlns:cc="http://creativecommons.org/ns#" xmlns:rdf="http://www.w3.org/1999/02/22-rdf-syntax-ns#">
   <cc:Work>
    <dc:type rdf:resource="http://purl.org/dc/dcmitype/StillImage"/>
    <dc:date>2023-11-30T09:20:05.157790</dc:date>
    <dc:format>image/svg+xml</dc:format>
    <dc:creator>
     <cc:Agent>
      <dc:title>Matplotlib v3.7.1, https://matplotlib.org/</dc:title>
     </cc:Agent>
    </dc:creator>
   </cc:Work>
  </rdf:RDF>
 </metadata>
 <defs>
  <style type="text/css">*{stroke-linejoin: round; stroke-linecap: butt}</style>
 </defs>
 <g id="figure_1">
  <g id="patch_1">
   <path d="M 0 216 
L 432 216 
L 432 0 
L 0 0 
L 0 216 
z
" style="fill: none"/>
  </g>
  <g id="axes_1">
   <g id="patch_2">
    <path d="M 54 172.8 
L 388.8 172.8 
L 388.8 25.92 
L 54 25.92 
L 54 172.8 
z
" style="fill: none"/>
   </g>
   <g id="PolyCollection_1">
    <path d="M 56.391429 172.628489 
L 56.391429 172.628489 
L 58.782857 172.628489 
L 61.174286 172.628489 
L 63.565714 172.628489 
L 65.957143 172.623814 
L 68.348571 172.620113 
L 70.74 172.593336 
L 73.131429 172.559555 
L 75.522857 172.524504 
L 77.914286 172.498679 
L 80.305714 172.499035 
L 82.697143 172.505979 
L 85.088571 172.487342 
L 87.48 172.467274 
L 89.871429 172.452672 
L 92.262857 172.431514 
L 94.654286 172.433449 
L 97.045714 172.433067 
L 99.437143 172.406451 
L 101.828571 172.383165 
L 104.22 172.36103 
L 106.611429 172.346513 
L 109.002857 172.352698 
L 111.394286 172.360421 
L 113.785714 172.36595 
L 116.177143 172.357032 
L 118.568571 172.356469 
L 120.96 172.362066 
L 123.351429 172.366604 
L 125.742857 172.380152 
L 128.134286 172.344621 
L 130.525714 170.268255 
L 132.917143 167.72183 
L 135.308571 165.594168 
L 137.7 163.485467 
L 140.091429 165.020026 
L 142.482857 164.949478 
L 144.874286 164.253781 
L 147.265714 162.263037 
L 149.657143 160.846583 
L 152.048571 161.514594 
L 154.44 161.945236 
L 156.831429 163.127465 
L 159.222857 163.026413 
L 161.614286 162.694 
L 164.005714 163.165352 
L 166.397143 163.061822 
L 168.788571 159.602035 
L 171.18 153.452723 
L 173.571429 150.074491 
L 175.962857 146.005445 
L 178.354286 149.729238 
L 180.745714 148.801263 
L 183.137143 151.210355 
L 185.528571 156.609206 
L 187.92 154.214716 
L 190.311429 160.137057 
L 192.702857 160.063777 
L 195.094286 154.422472 
L 197.485714 154.031174 
L 199.877143 151.289892 
L 202.268571 147.056786 
L 204.66 146.484303 
L 207.051429 143.388054 
L 209.442857 142.46066 
L 211.834286 140.90857 
L 214.225714 144.456361 
L 216.617143 148.590212 
L 219.008571 149.991184 
L 221.4 150.729138 
L 223.791429 147.824859 
L 226.182857 141.957157 
L 228.574286 133.201674 
L 230.965714 126.470865 
L 233.357143 118.878863 
L 235.748571 113.94672 
L 238.14 111.85191 
L 240.531429 110.332286 
L 242.922857 104.927556 
L 245.314286 97.343924 
L 247.705714 101.184546 
L 250.097143 110.585187 
L 252.488571 125.517965 
L 254.88 142.955131 
L 257.271429 150.641433 
L 259.662857 152.581764 
L 262.054286 153.33001 
L 264.445714 151.562764 
L 266.837143 152.833917 
L 269.228571 153.028801 
L 271.62 152.498256 
L 274.011429 151.647985 
L 276.402857 149.541281 
L 278.794286 149.458802 
L 281.185714 150.64491 
L 283.577143 152.981555 
L 285.968571 154.566971 
L 288.36 155.569969 
L 290.751429 156.366512 
L 293.142857 157.592417 
L 295.534286 158.783755 
L 297.925714 159.428556 
L 300.317143 159.626236 
L 302.708571 159.580158 
L 305.1 159.656455 
L 307.491429 158.524682 
L 309.882857 158.464874 
L 312.274286 158.784305 
L 314.665714 157.815397 
L 317.057143 159.305808 
L 319.448571 159.404013 
L 321.84 160.402913 
L 324.231429 161.572338 
L 326.622857 161.303197 
L 329.014286 161.04569 
L 331.405714 159.828811 
L 333.797143 158.489637 
L 336.188571 158.191295 
L 338.58 157.984003 
L 340.971429 158.753661 
L 343.362857 161.432627 
L 345.754286 162.387892 
L 348.145714 163.065992 
L 350.537143 163.019547 
L 352.928571 161.776382 
L 355.32 161.969324 
L 357.711429 160.768722 
L 360.102857 159.862194 
L 362.494286 160.214342 
L 364.885714 160.294447 
L 367.277143 160.879814 
L 369.668571 161.387241 
L 372.06 162.020607 
L 374.451429 161.846591 
L 376.842857 163.02121 
L 379.234286 164.131117 
L 381.625714 163.833323 
L 384.017143 164.026383 
L 386.408571 163.200661 
L 388.8 162.061121 
L 391.191429 160.985908 
L 393.582857 160.054863 
L 395.974286 160.311177 
L 398.365714 159.999889 
L 400.757143 161.225334 
L 403.148571 161.891587 
L 405.54 162.194326 
L 407.931429 163.144666 
L 410.322857 162.666719 
L 412.714286 146.212786 
L 415.105714 146.897486 
L 417.497143 147.430246 
L 419.888571 148.160301 
L 422.28 164.96896 
L 424.671429 165.237539 
L 427.062857 165.190285 
L 429.454286 164.867555 
L 431.845714 164.845775 
L 434.237143 164.488128 
L 436.628571 163.622276 
L 439.02 163.027051 
L 441.411429 162.698635 
L 443.802857 161.634553 
L 446.194286 161.829188 
L 448.585714 161.781342 
L 450.977143 162.290995 
L 453.368571 163.137077 
L 455.76 164.774713 
L 458.151429 165.097312 
L 460.542857 165.113951 
L 462.934286 165.154 
L 465.325714 164.257561 
L 467.717143 164.183651 
L 470.108571 163.950504 
L 472.5 164.006767 
L 474.891429 164.252458 
L 477.282857 164.630666 
L 479.674286 165.20431 
L 482.065714 165.788255 
L 484.457143 166.153305 
L 486.848571 165.690187 
L 489.24 165.989068 
L 491.631429 165.907663 
L 494.022857 165.406736 
L 496.414286 165.975934 
L 498.805714 165.351013 
L 501.197143 164.798327 
L 503.588571 163.951823 
L 505.98 163.725521 
L 508.371429 163.534684 
L 510.762857 163.677877 
L 513.154286 164.337649 
L 515.545714 165.432339 
L 517.937143 165.85123 
L 520.328571 166.222181 
L 522.72 166.830501 
L 525.111429 166.019563 
L 527.502857 165.812785 
L 529.894286 165.015068 
L 532.285714 164.889412 
L 534.677143 165.194553 
L 537.068571 165.534541 
L 539.46 166.46419 
L 541.851429 166.435287 
L 544.242857 166.339828 
L 546.634286 166.307238 
L 549.025714 165.986968 
L 551.417143 165.932988 
L 553.808571 165.876257 
L 556.2 165.945399 
L 558.591429 166.235716 
L 560.982857 166.681184 
L 563.374286 166.940977 
L 565.765714 167.127838 
L 568.157143 167.133036 
L 570.548571 166.607731 
L 572.94 166.408701 
L 575.331429 165.683015 
L 577.722857 164.973248 
L 580.114286 165.112896 
L 582.505714 164.876858 
L 584.897143 165.135124 
L 587.288571 165.390797 
L 589.68 165.437108 
L 592.071429 165.883748 
L 594.462857 165.97299 
L 596.854286 165.98579 
L 599.245714 166.093142 
L 601.637143 166.002226 
L 604.028571 166.294676 
L 604.028571 166.294676 
L 604.028571 172.8 
L 601.637143 172.8 
L 599.245714 172.8 
L 596.854286 172.8 
L 594.462857 172.8 
L 592.071429 172.8 
L 589.68 172.8 
L 587.288571 172.8 
L 584.897143 172.8 
L 582.505714 172.8 
L 580.114286 172.8 
L 577.722857 172.8 
L 575.331429 172.8 
L 572.94 172.8 
L 570.548571 172.8 
L 568.157143 172.8 
L 565.765714 172.8 
L 563.374286 172.8 
L 560.982857 172.8 
L 558.591429 172.8 
L 556.2 172.8 
L 553.808571 172.8 
L 551.417143 172.8 
L 549.025714 172.8 
L 546.634286 172.8 
L 544.242857 172.8 
L 541.851429 172.8 
L 539.46 172.8 
L 537.068571 172.8 
L 534.677143 172.8 
L 532.285714 172.8 
L 529.894286 172.8 
L 527.502857 172.8 
L 525.111429 172.8 
L 522.72 172.8 
L 520.328571 172.8 
L 517.937143 172.8 
L 515.545714 172.8 
L 513.154286 172.8 
L 510.762857 172.8 
L 508.371429 172.8 
L 505.98 172.8 
L 503.588571 172.8 
L 501.197143 172.8 
L 498.805714 172.8 
L 496.414286 172.8 
L 494.022857 172.8 
L 491.631429 172.8 
L 489.24 172.8 
L 486.848571 172.8 
L 484.457143 172.8 
L 482.065714 172.8 
L 479.674286 172.8 
L 477.282857 172.8 
L 474.891429 172.8 
L 472.5 172.8 
L 470.108571 172.8 
L 467.717143 172.8 
L 465.325714 172.8 
L 462.934286 172.8 
L 460.542857 172.8 
L 458.151429 172.8 
L 455.76 172.8 
L 453.368571 172.8 
L 450.977143 172.8 
L 448.585714 172.8 
L 446.194286 172.8 
L 443.802857 172.8 
L 441.411429 172.8 
L 439.02 172.8 
L 436.628571 172.8 
L 434.237143 172.8 
L 431.845714 172.8 
L 429.454286 172.8 
L 427.062857 172.8 
L 424.671429 172.8 
L 422.28 172.8 
L 419.888571 172.8 
L 417.497143 172.8 
L 415.105714 172.8 
L 412.714286 172.8 
L 410.322857 172.8 
L 407.931429 172.8 
L 405.54 172.8 
L 403.148571 172.8 
L 400.757143 172.8 
L 398.365714 172.8 
L 395.974286 172.8 
L 393.582857 172.8 
L 391.191429 172.8 
L 388.8 172.8 
L 386.408571 172.8 
L 384.017143 172.8 
L 381.625714 172.8 
L 379.234286 172.8 
L 376.842857 172.8 
L 374.451429 172.8 
L 372.06 172.8 
L 369.668571 172.8 
L 367.277143 172.8 
L 364.885714 172.8 
L 362.494286 172.8 
L 360.102857 172.8 
L 357.711429 172.8 
L 355.32 172.8 
L 352.928571 172.8 
L 350.537143 172.8 
L 348.145714 172.8 
L 345.754286 172.8 
L 343.362857 172.8 
L 340.971429 172.8 
L 338.58 172.8 
L 336.188571 172.8 
L 333.797143 172.8 
L 331.405714 172.8 
L 329.014286 172.8 
L 326.622857 172.8 
L 324.231429 172.8 
L 321.84 172.8 
L 319.448571 172.8 
L 317.057143 172.8 
L 314.665714 172.8 
L 312.274286 172.8 
L 309.882857 172.8 
L 307.491429 172.8 
L 305.1 172.8 
L 302.708571 172.8 
L 300.317143 172.8 
L 297.925714 172.8 
L 295.534286 172.8 
L 293.142857 172.8 
L 290.751429 172.8 
L 288.36 172.8 
L 285.968571 172.8 
L 283.577143 172.8 
L 281.185714 172.8 
L 278.794286 172.8 
L 276.402857 172.8 
L 274.011429 172.8 
L 271.62 172.8 
L 269.228571 172.8 
L 266.837143 172.8 
L 264.445714 172.8 
L 262.054286 172.8 
L 259.662857 172.8 
L 257.271429 172.8 
L 254.88 172.8 
L 252.488571 172.8 
L 250.097143 172.8 
L 247.705714 172.8 
L 245.314286 172.8 
L 242.922857 172.8 
L 240.531429 172.8 
L 238.14 172.8 
L 235.748571 172.8 
L 233.357143 172.8 
L 230.965714 172.8 
L 228.574286 172.8 
L 226.182857 172.8 
L 223.791429 172.8 
L 221.4 172.8 
L 219.008571 172.8 
L 216.617143 172.8 
L 214.225714 172.8 
L 211.834286 172.8 
L 209.442857 172.8 
L 207.051429 172.8 
L 204.66 172.8 
L 202.268571 172.8 
L 199.877143 172.8 
L 197.485714 172.8 
L 195.094286 172.8 
L 192.702857 172.8 
L 190.311429 172.8 
L 187.92 172.8 
L 185.528571 172.8 
L 183.137143 172.8 
L 180.745714 172.8 
L 178.354286 172.8 
L 175.962857 172.8 
L 173.571429 172.8 
L 171.18 172.8 
L 168.788571 172.8 
L 166.397143 172.8 
L 164.005714 172.8 
L 161.614286 172.8 
L 159.222857 172.8 
L 156.831429 172.8 
L 154.44 172.8 
L 152.048571 172.8 
L 149.657143 172.8 
L 147.265714 172.8 
L 144.874286 172.8 
L 142.482857 172.8 
L 140.091429 172.8 
L 137.7 172.8 
L 135.308571 172.8 
L 132.917143 172.8 
L 130.525714 172.8 
L 128.134286 172.8 
L 125.742857 172.8 
L 123.351429 172.8 
L 120.96 172.8 
L 118.568571 172.8 
L 116.177143 172.8 
L 113.785714 172.8 
L 111.394286 172.8 
L 109.002857 172.8 
L 106.611429 172.8 
L 104.22 172.8 
L 101.828571 172.8 
L 99.437143 172.8 
L 97.045714 172.8 
L 94.654286 172.8 
L 92.262857 172.8 
L 89.871429 172.8 
L 87.48 172.8 
L 85.088571 172.8 
L 82.697143 172.8 
L 80.305714 172.8 
L 77.914286 172.8 
L 75.522857 172.8 
L 73.131429 172.8 
L 70.74 172.8 
L 68.348571 172.8 
L 65.957143 172.8 
L 63.565714 172.8 
L 61.174286 172.8 
L 58.782857 172.8 
L 56.391429 172.8 
z
" clip-path="url(#p747edd0915)" style="fill: #1f77b4; fill-opacity: 0.15; stroke: #1f77b4; stroke-opacity: 0.15"/>
   </g>
   <g id="PolyCollection_2">
    <defs>
     <path id="m86d6a02d53" d="M 54.002391 -53.173412 
L 54.002391 -53.173412 
L 54.478286 -51.423832 
L 54.956571 -50.032526 
L 55.434857 -48.802867 
L 55.913143 -49.307198 
L 56.391429 -47.915866 
L 56.869714 -47.923402 
L 57.348 -48.320036 
L 57.826286 -48.95024 
L 58.304571 -48.81411 
L 58.782857 -49.406673 
L 59.261143 -49.58615 
L 59.739429 -50.214754 
L 60.217714 -50.326008 
L 60.696 -50.768468 
L 61.174286 -51.022663 
L 61.652571 -50.56772 
L 62.130857 -50.484327 
L 62.609143 -51.110496 
L 63.087429 -51.235842 
L 63.565714 -51.337837 
L 64.044 -51.540518 
L 64.522286 -52.476402 
L 65.000571 -52.796021 
L 65.478857 -53.242651 
L 65.957143 -53.691246 
L 66.435429 -53.789806 
L 66.913714 -54.348269 
L 67.392 -54.851567 
L 67.870286 -54.892465 
L 68.348571 -54.929429 
L 68.826857 -55.172009 
L 69.305143 -55.056246 
L 69.783429 -54.825855 
L 70.261714 -55.295295 
L 70.74 -55.695045 
L 71.218286 -56.089635 
L 71.696571 -55.979576 
L 72.174857 -56.457514 
L 72.653143 -57.202559 
L 73.131429 -57.774466 
L 73.609714 -58.060211 
L 74.088 -57.744578 
L 74.566286 -58.092924 
L 75.044571 -58.195743 
L 75.522857 -58.600519 
L 76.001143 -58.247252 
L 76.479429 -59.300533 
L 76.957714 -59.709034 
L 77.436 -59.546526 
L 77.914286 -59.362668 
L 78.392571 -59.32665 
L 78.870857 -58.753401 
L 79.349143 -57.477256 
L 79.827429 -57.044237 
L 80.305714 -56.404944 
L 80.784 -56.655177 
L 81.262286 -56.449654 
L 81.740571 -55.816876 
L 82.218857 -55.109055 
L 82.697143 -54.333022 
L 83.175429 -54.3048 
L 83.653714 -53.151058 
L 84.132 -52.306773 
L 84.610286 -52.313882 
L 85.088571 -51.74615 
L 85.566857 -52.145058 
L 86.045143 -51.174557 
L 86.523429 -51.177803 
L 87.001714 -51.161312 
L 87.48 -50.551239 
L 87.958286 -50.4134 
L 88.436571 -50.19604 
L 88.914857 -50.322189 
L 89.393143 -50.684919 
L 89.871429 -51.088212 
L 90.349714 -50.614997 
L 90.828 -50.52722 
L 91.306286 -50.436821 
L 91.784571 -50.518325 
L 92.262857 -50.336874 
L 92.741143 -50.394853 
L 93.219429 -50.468175 
L 93.697714 -50.364351 
L 94.176 -50.301312 
L 94.654286 -50.18088 
L 95.132571 -49.857572 
L 95.610857 -49.79127 
L 96.089143 -49.376023 
L 96.567429 -48.76985 
L 97.045714 -48.182914 
L 97.524 -48.114108 
L 98.002286 -48.21164 
L 98.480571 -48.620291 
L 98.958857 -48.708639 
L 99.437143 -48.919353 
L 99.915429 -49.513059 
L 100.393714 -49.704217 
L 100.872 -50.109495 
L 101.350286 -50.617163 
L 101.828571 -51.725997 
L 102.306857 -52.642002 
L 102.785143 -52.697358 
L 103.263429 -53.052638 
L 103.741714 -53.326325 
L 104.22 -52.884187 
L 104.698286 -52.882803 
L 105.176571 -52.264555 
L 105.654857 -51.585934 
L 106.133143 -50.99638 
L 106.611429 -50.747517 
L 107.089714 -50.41201 
L 107.568 -50.78256 
L 108.046286 -51.19444 
L 108.524571 -52.128559 
L 109.002857 -52.525597 
L 109.481143 -53.330867 
L 109.959429 -54.272406 
L 110.437714 -54.737855 
L 110.916 -55.379327 
L 111.394286 -55.874981 
L 111.872571 -57.105643 
L 112.350857 -58.191082 
L 112.829143 -59.333937 
L 113.307429 -60.410796 
L 113.785714 -61.146678 
L 114.264 -61.507305 
L 114.742286 -61.561454 
L 115.220571 -62.055657 
L 115.698857 -62.449689 
L 116.177143 -62.953568 
L 116.655429 -63.709209 
L 117.133714 -64.453615 
L 117.612 -66.115355 
L 118.090286 -66.718521 
L 118.568571 -68.148099 
L 119.046857 -70.565984 
L 119.525143 -78.251737 
L 120.003429 -85.045903 
L 120.481714 -90.04241 
L 120.96 -92.796609 
L 121.438286 -96.939086 
L 121.916571 -104.128029 
L 122.394857 -113.338101 
L 122.873143 -118.389619 
L 123.351429 -120.639243 
L 123.829714 -121.576342 
L 124.308 -121.81641 
L 124.786286 -120.98205 
L 125.264571 -120.852984 
L 125.742857 -120.342593 
L 126.221143 -118.955497 
L 126.699429 -115.186036 
L 127.177714 -110.146012 
L 127.656 -105.091252 
L 128.134286 -100.433951 
L 128.612571 -91.606343 
L 129.090857 -80.614877 
L 129.569143 -67.087723 
L 130.047429 -58.365405 
L 130.525714 -53.178589 
L 131.004 -51.3346 
L 131.482286 -50.638912 
L 131.960571 -50.102663 
L 132.438857 -50.382819 
L 132.917143 -50.357986 
L 133.395429 -48.340002 
L 133.873714 -47.430519 
L 134.352 -46.914827 
L 134.830286 -47.056901 
L 135.308571 -46.698405 
L 135.786857 -46.750601 
L 136.265143 -46.927181 
L 136.743429 -47.257042 
L 137.221714 -47.526047 
L 137.7 -48.048017 
L 138.178286 -48.106916 
L 138.656571 -48.55998 
L 139.134857 -48.498264 
L 139.613143 -50.125608 
L 140.091429 -50.646215 
L 140.569714 -49.626805 
L 141.048 -49.148078 
L 141.526286 -48.90336 
L 142.004571 -48.608606 
L 142.482857 -48.076529 
L 142.961143 -47.936366 
L 143.439429 -47.61414 
L 143.917714 -47.554768 
L 144.396 -47.521289 
L 144.874286 -47.624649 
L 145.352571 -47.740774 
L 145.830857 -47.351173 
L 146.309143 -47.270553 
L 146.787429 -47.419716 
L 147.265714 -47.367705 
L 147.744 -47.356173 
L 148.222286 -47.24911 
L 148.700571 -47.560066 
L 149.178857 -47.475327 
L 149.657143 -47.695359 
L 150.135429 -47.7206 
L 150.613714 -47.435671 
L 151.092 -47.237124 
L 151.570286 -47.249726 
L 152.048571 -47.241302 
L 152.526857 -46.705243 
L 153.005143 -47.55169 
L 153.483429 -47.175517 
L 153.961714 -47.294779 
L 154.44 -47.596542 
L 154.918286 -47.115606 
L 155.396571 -47.395703 
L 155.874857 -46.979656 
L 156.353143 -47.058115 
L 156.831429 -47.212327 
L 157.309714 -46.992603 
L 157.788 -46.869524 
L 158.266286 -46.835604 
L 158.744571 -47.060285 
L 159.222857 -46.968414 
L 159.701143 -46.991569 
L 160.179429 -47.215622 
L 160.657714 -47.230446 
L 161.136 -47.27405 
L 161.614286 -47.646964 
L 162.092571 -47.511064 
L 162.570857 -47.724432 
L 163.049143 -47.977017 
L 163.527429 -48.028973 
L 164.005714 -47.716047 
L 164.484 -47.963726 
L 164.962286 -48.153483 
L 165.440571 -48.11389 
L 165.918857 -48.036126 
L 166.397143 -48.153224 
L 166.875429 -48.07992 
L 167.353714 -48.156991 
L 167.832 -47.935798 
L 168.310286 -47.721008 
L 168.788571 -47.47036 
L 169.266857 -47.363204 
L 169.745143 -47.092056 
L 170.223429 -46.871804 
L 170.701714 -46.838271 
L 171.18 -46.885854 
L 171.658286 -46.9304 
L 172.136571 -46.378286 
L 172.614857 -46.272062 
L 173.093143 -46.275022 
L 173.571429 -46.300372 
L 174.049714 -46.194226 
L 174.528 -46.420037 
L 175.006286 -45.900285 
L 175.484571 -45.899927 
L 175.962857 -46.089074 
L 176.441143 -46.213102 
L 176.919429 -46.412745 
L 177.397714 -46.624509 
L 177.876 -46.868084 
L 178.354286 -47.383523 
L 178.832571 -47.589232 
L 179.310857 -47.405278 
L 179.789143 -47.223353 
L 180.267429 -47.56228 
L 180.745714 -47.712772 
L 181.224 -47.763053 
L 181.702286 -47.903547 
L 182.180571 -48.033615 
L 182.658857 -48.081032 
L 183.137143 -48.0681 
L 183.615429 -47.816701 
L 184.093714 -47.268771 
L 184.572 -47.126803 
L 185.050286 -46.8059 
L 185.528571 -46.725112 
L 186.006857 -46.829259 
L 186.485143 -46.957113 
L 186.963429 -46.891042 
L 187.441714 -46.97955 
L 187.92 -47.032591 
L 188.398286 -47.015195 
L 188.876571 -47.12816 
L 189.354857 -46.985448 
L 189.833143 -46.77869 
L 190.311429 -46.828002 
L 190.789714 -46.698364 
L 191.268 -46.935108 
L 191.746286 -47.10537 
L 192.224571 -47.398317 
L 192.702857 -47.050143 
L 193.181143 -47.073783 
L 193.659429 -46.697987 
L 194.137714 -46.696366 
L 194.616 -46.784793 
L 195.094286 -46.909567 
L 195.572571 -46.912857 
L 196.050857 -46.934716 
L 196.529143 -47.041472 
L 197.007429 -47.211783 
L 197.485714 -47.342434 
L 197.964 -47.085686 
L 198.442286 -46.607354 
L 198.920571 -46.432974 
L 199.398857 -46.659246 
L 199.877143 -46.750809 
L 200.355429 -46.827427 
L 200.833714 -46.851505 
L 201.312 -46.816298 
L 201.790286 -46.949888 
L 202.268571 -47.112913 
L 202.746857 -47.198167 
L 203.225143 -47.261132 
L 203.703429 -47.449886 
L 204.181714 -47.864357 
L 204.66 -47.797406 
L 205.138286 -47.698518 
L 205.616571 -48.113421 
L 206.094857 -48.003081 
L 206.573143 -48.130824 
L 207.051429 -48.161717 
L 207.529714 -48.117222 
L 208.008 -48.044196 
L 208.486286 -48.108693 
L 208.964571 -48.094491 
L 209.442857 -48.207111 
L 209.921143 -47.845635 
L 210.399429 -47.984805 
L 210.877714 -47.928506 
L 211.356 -47.6279 
L 211.834286 -47.609283 
L 212.312571 -47.449805 
L 212.790857 -47.33735 
L 213.269143 -47.346857 
L 213.747429 -47.161597 
L 214.225714 -47.244939 
L 214.704 -47.173161 
L 215.182286 -47.323238 
L 215.660571 -47.25592 
L 216.138857 -47.185038 
L 216.617143 -46.940295 
L 217.095429 -47.114723 
L 217.573714 -47.032345 
L 218.052 -46.71382 
L 218.530286 -46.864148 
L 219.008571 -46.822794 
L 219.486857 -46.447219 
L 219.965143 -46.304526 
L 220.443429 -46.469193 
L 220.921714 -46.368046 
L 221.4 -46.12826 
L 221.878286 -46.183681 
L 222.356571 -45.892281 
L 222.834857 -45.977969 
L 223.313143 -45.99166 
L 223.791429 -45.748601 
L 224.269714 -45.592064 
L 224.748 -45.393672 
L 225.226286 -45.191968 
L 225.704571 -45.056994 
L 226.182857 -44.899898 
L 226.661143 -45.103162 
L 227.139429 -45.061914 
L 227.617714 -44.894421 
L 228.096 -44.912287 
L 228.574286 -45.207579 
L 229.052571 -45.183453 
L 229.530857 -45.350633 
L 230.009143 -45.680072 
L 230.487429 -46.020794 
L 230.965714 -46.030573 
L 231.444 -46.305328 
L 231.922286 -46.294545 
L 232.400571 -46.361167 
L 232.878857 -46.449908 
L 233.357143 -46.512196 
L 233.835429 -46.684815 
L 234.313714 -46.388931 
L 234.792 -46.23626 
L 235.270286 -46.323163 
L 235.748571 -45.978456 
L 236.226857 -46.099538 
L 236.705143 -46.040878 
L 237.183429 -45.792433 
L 237.661714 -45.76119 
L 238.14 -45.621542 
L 238.618286 -45.513422 
L 239.096571 -45.546468 
L 239.574857 -45.51452 
L 240.053143 -45.497321 
L 240.531429 -45.570959 
L 241.009714 -45.278806 
L 241.488 -44.955564 
L 241.966286 -45.094885 
L 242.444571 -45.066252 
L 242.922857 -45.061645 
L 243.401143 -44.988256 
L 243.879429 -44.953552 
L 244.357714 -44.997086 
L 244.836 -45.033913 
L 245.314286 -45.044194 
L 245.792571 -45.068947 
L 246.270857 -44.901674 
L 246.749143 -44.926456 
L 247.227429 -44.96726 
L 247.705714 -44.911801 
L 248.184 -44.726982 
L 248.662286 -44.754106 
L 249.140571 -44.822739 
L 249.618857 -45.366881 
L 250.097143 -45.276443 
L 250.575429 -45.16471 
L 251.053714 -45.328207 
L 251.532 -45.206927 
L 252.010286 -45.220932 
L 252.488571 -45.223828 
L 252.966857 -45.154818 
L 253.445143 -44.89984 
L 253.923429 -44.883432 
L 254.401714 -44.989185 
L 254.88 -45.188641 
L 255.358286 -45.014636 
L 255.836571 -45.017846 
L 256.314857 -44.90043 
L 256.793143 -44.922818 
L 257.271429 -44.989687 
L 257.749714 -44.969575 
L 258.228 -44.877708 
L 258.706286 -44.884537 
L 259.184571 -44.795931 
L 259.662857 -44.852278 
L 260.141143 -44.81414 
L 260.619429 -44.75678 
L 261.097714 -44.901629 
L 261.576 -44.787729 
L 262.054286 -44.76251 
L 262.532571 -44.882646 
L 263.010857 -44.86927 
L 263.489143 -44.913433 
L 263.967429 -45.016297 
L 264.445714 -45.059077 
L 264.924 -45.01736 
L 265.402286 -45.07626 
L 265.880571 -45.107096 
L 266.358857 -45.096348 
L 266.837143 -45.179745 
L 267.315429 -45.138779 
L 267.793714 -45.069434 
L 268.272 -45.071368 
L 268.750286 -44.865143 
L 269.228571 -44.814348 
L 269.706857 -44.93492 
L 270.185143 -44.832205 
L 270.663429 -44.706402 
L 271.141714 -44.615499 
L 271.62 -44.554027 
L 272.098286 -44.608562 
L 272.576571 -44.624132 
L 273.054857 -44.714133 
L 273.533143 -44.739042 
L 274.011429 -44.585719 
L 274.489714 -44.505397 
L 274.968 -44.487243 
L 275.446286 -44.464116 
L 275.924571 -44.506159 
L 276.402857 -44.414058 
L 276.881143 -44.555536 
L 277.359429 -44.520416 
L 277.837714 -44.498533 
L 278.316 -44.423891 
L 278.794286 -44.437945 
L 279.272571 -44.696384 
L 279.750857 -44.691568 
L 280.229143 -44.81418 
L 280.707429 -44.75729 
L 281.185714 -44.67016 
L 281.664 -44.893239 
L 282.142286 -44.876454 
L 282.620571 -44.807859 
L 283.098857 -45.087416 
L 283.577143 -44.831267 
L 284.055429 -44.276308 
L 284.533714 -44.327044 
L 285.012 -44.267497 
L 285.490286 -44.286964 
L 285.968571 -44.403623 
L 286.446857 -44.412039 
L 286.925143 -44.236087 
L 287.403429 -44.259562 
L 287.881714 -44.326922 
L 288.36 -44.303461 
L 288.838286 -44.304918 
L 289.316571 -44.26906 
L 289.794857 -44.415163 
L 290.273143 -44.452839 
L 290.751429 -44.533117 
L 291.229714 -44.549568 
L 291.708 -44.538801 
L 292.186286 -44.478849 
L 292.664571 -44.497371 
L 293.142857 -44.747346 
L 293.621143 -44.692191 
L 294.099429 -44.735378 
L 294.577714 -44.541354 
L 295.056 -44.460542 
L 295.534286 -44.513787 
L 296.012571 -44.479977 
L 296.490857 -44.468661 
L 296.969143 -44.425341 
L 297.447429 -44.600465 
L 297.925714 -44.793331 
L 298.404 -44.814095 
L 298.882286 -44.895449 
L 299.360571 -44.893422 
L 299.838857 -44.911966 
L 300.317143 -44.81819 
L 300.795429 -44.926432 
L 301.273714 -44.666717 
L 301.752 -44.658697 
L 302.230286 -44.60394 
L 302.708571 -44.643627 
L 303.186857 -44.56172 
L 303.665143 -44.554816 
L 304.143429 -44.513039 
L 304.621714 -44.420442 
L 305.1 -44.388664 
L 305.578286 -44.24534 
L 306.056571 -44.24306 
L 306.534857 -44.210081 
L 307.013143 -44.233851 
L 307.491429 -44.166954 
L 307.969714 -44.163709 
L 308.448 -44.267176 
L 308.926286 -44.330909 
L 309.404571 -44.456761 
L 309.882857 -44.583673 
L 310.361143 -44.612819 
L 310.839429 -44.438681 
L 311.317714 -44.661688 
L 311.796 -44.571519 
L 312.274286 -44.466881 
L 312.752571 -44.460659 
L 313.230857 -44.383322 
L 313.709143 -44.302995 
L 314.187429 -44.170278 
L 314.665714 -44.262872 
L 315.144 -44.063587 
L 315.622286 -44.080867 
L 316.100571 -44.149965 
L 316.578857 -44.23657 
L 317.057143 -44.338674 
L 317.535429 -44.373399 
L 318.013714 -44.278926 
L 318.492 -44.647815 
L 318.970286 -44.809912 
L 319.448571 -44.668452 
L 319.926857 -44.740776 
L 320.405143 -44.796879 
L 320.883429 -44.73496 
L 321.361714 -44.856934 
L 321.84 -44.84473 
L 322.318286 -44.698736 
L 322.796571 -44.732592 
L 323.274857 -44.945381 
L 323.753143 -44.898882 
L 324.231429 -44.781481 
L 324.709714 -44.901956 
L 325.188 -44.945896 
L 325.666286 -44.621121 
L 326.144571 -44.551655 
L 326.622857 -44.650363 
L 327.101143 -44.515924 
L 327.579429 -44.576188 
L 328.057714 -44.679732 
L 328.536 -44.5935 
L 329.014286 -44.440718 
L 329.492571 -44.552734 
L 329.970857 -44.483771 
L 330.449143 -44.346533 
L 330.927429 -44.368637 
L 331.405714 -44.380637 
L 331.884 -44.388909 
L 332.362286 -44.394574 
L 332.840571 -44.593448 
L 333.318857 -44.550052 
L 333.797143 -44.60504 
L 334.275429 -44.590617 
L 334.753714 -44.499231 
L 335.232 -44.404696 
L 335.710286 -44.351351 
L 336.188571 -44.35774 
L 336.666857 -44.316298 
L 337.145143 -44.344487 
L 337.623429 -44.270046 
L 338.101714 -44.274193 
L 338.58 -44.322802 
L 339.058286 -44.466027 
L 339.536571 -44.392743 
L 340.014857 -44.362761 
L 340.493143 -44.321515 
L 340.971429 -44.494563 
L 341.449714 -44.325414 
L 341.928 -44.451488 
L 342.406286 -44.619838 
L 342.884571 -44.663374 
L 343.362857 -44.72881 
L 343.841143 -44.620296 
L 344.319429 -44.609174 
L 344.797714 -44.67551 
L 345.276 -44.837411 
L 345.754286 -44.775553 
L 346.232571 -45.004615 
L 346.710857 -45.112527 
L 347.189143 -45.012505 
L 347.667429 -44.907196 
L 348.145714 -44.80431 
L 348.624 -44.916628 
L 349.102286 -44.864415 
L 349.580571 -44.55455 
L 350.058857 -44.863091 
L 350.537143 -44.857265 
L 351.015429 -44.68976 
L 351.493714 -44.524524 
L 351.972 -44.429024 
L 352.450286 -44.302022 
L 352.928571 -44.275684 
L 353.406857 -44.431652 
L 353.885143 -44.506958 
L 354.363429 -44.667194 
L 354.841714 -44.793279 
L 355.32 -44.716821 
L 355.798286 -44.76839 
L 356.276571 -44.96822 
L 356.754857 -44.868845 
L 357.233143 -45.237428 
L 357.711429 -45.290209 
L 358.189714 -45.345492 
L 358.668 -45.242901 
L 359.146286 -45.282932 
L 359.624571 -45.159389 
L 360.102857 -45.029131 
L 360.581143 -44.957464 
L 361.059429 -44.987467 
L 361.537714 -44.807125 
L 362.016 -44.725437 
L 362.494286 -44.627095 
L 362.972571 -44.837469 
L 363.450857 -44.785009 
L 363.929143 -44.975545 
L 364.407429 -44.850338 
L 364.885714 -44.686391 
L 365.364 -44.753925 
L 365.842286 -44.808096 
L 366.320571 -44.858778 
L 366.798857 -44.832135 
L 367.277143 -44.697748 
L 367.755429 -44.618328 
L 368.233714 -44.611714 
L 368.712 -44.622031 
L 369.190286 -44.599817 
L 369.668571 -44.536 
L 370.146857 -44.352739 
L 370.625143 -44.291944 
L 371.103429 -44.317322 
L 371.581714 -44.195207 
L 372.06 -44.282695 
L 372.538286 -44.170808 
L 373.016571 -44.053215 
L 373.494857 -44.04228 
L 373.973143 -44.117332 
L 374.451429 -44.081542 
L 374.929714 -44.104456 
L 375.408 -44.176862 
L 375.886286 -44.132546 
L 376.364571 -44.0757 
L 376.842857 -43.93419 
L 377.321143 -43.904167 
L 377.799429 -44.007397 
L 378.277714 -44.049601 
L 378.756 -44.199247 
L 379.234286 -44.231532 
L 379.712571 -44.256977 
L 380.190857 -44.39642 
L 380.669143 -44.439563 
L 381.147429 -44.55051 
L 381.625714 -44.772106 
L 382.104 -44.721542 
L 382.582286 -44.638684 
L 383.060571 -44.576309 
L 383.538857 -44.585001 
L 384.017143 -44.425595 
L 384.495429 -44.154502 
L 384.973714 -44.034134 
L 385.452 -44.03278 
L 385.930286 -43.973888 
L 386.408571 -44.215228 
L 386.886857 -44.160597 
L 387.365143 -44.112549 
L 387.843429 -44.34414 
L 388.321714 -44.321188 
L 388.8 -44.36216 
L 389.278286 -44.210028 
L 389.756571 -44.356604 
L 390.234857 -44.547415 
L 390.713143 -44.749584 
L 391.191429 -44.956458 
L 391.669714 -45.028582 
L 392.148 -44.832371 
L 392.626286 -44.835754 
L 393.104571 -44.77558 
L 393.582857 -44.882481 
L 394.061143 -44.862737 
L 394.539429 -44.661659 
L 395.017714 -44.526353 
L 395.496 -44.480922 
L 395.974286 -44.592628 
L 396.452571 -44.36355 
L 396.930857 -44.338776 
L 397.409143 -44.110885 
L 397.887429 -44.26457 
L 398.365714 -44.385565 
L 398.844 -44.237863 
L 399.322286 -44.370664 
L 399.800571 -44.40976 
L 400.278857 -44.443931 
L 400.757143 -44.353004 
L 401.235429 -44.360692 
L 401.713714 -44.442183 
L 402.192 -44.445878 
L 402.670286 -44.436848 
L 403.148571 -44.456649 
L 403.626857 -44.312425 
L 404.105143 -44.345362 
L 404.583429 -44.120963 
L 405.061714 -44.074048 
L 405.061714 -44.074048 
L 405.061714 -43.2 
L 404.583429 -43.2 
L 404.105143 -43.2 
L 403.626857 -43.2 
L 403.148571 -43.2 
L 402.670286 -43.2 
L 402.192 -43.2 
L 401.713714 -43.2 
L 401.235429 -43.2 
L 400.757143 -43.2 
L 400.278857 -43.2 
L 399.800571 -43.2 
L 399.322286 -43.2 
L 398.844 -43.2 
L 398.365714 -43.2 
L 397.887429 -43.2 
L 397.409143 -43.2 
L 396.930857 -43.2 
L 396.452571 -43.2 
L 395.974286 -43.2 
L 395.496 -43.2 
L 395.017714 -43.2 
L 394.539429 -43.2 
L 394.061143 -43.2 
L 393.582857 -43.2 
L 393.104571 -43.2 
L 392.626286 -43.2 
L 392.148 -43.2 
L 391.669714 -43.2 
L 391.191429 -43.2 
L 390.713143 -43.2 
L 390.234857 -43.2 
L 389.756571 -43.2 
L 389.278286 -43.2 
L 388.8 -43.2 
L 388.321714 -43.2 
L 387.843429 -43.2 
L 387.365143 -43.2 
L 386.886857 -43.2 
L 386.408571 -43.2 
L 385.930286 -43.2 
L 385.452 -43.2 
L 384.973714 -43.2 
L 384.495429 -43.2 
L 384.017143 -43.2 
L 383.538857 -43.2 
L 383.060571 -43.2 
L 382.582286 -43.2 
L 382.104 -43.2 
L 381.625714 -43.2 
L 381.147429 -43.2 
L 380.669143 -43.2 
L 380.190857 -43.2 
L 379.712571 -43.2 
L 379.234286 -43.2 
L 378.756 -43.2 
L 378.277714 -43.2 
L 377.799429 -43.2 
L 377.321143 -43.2 
L 376.842857 -43.2 
L 376.364571 -43.2 
L 375.886286 -43.2 
L 375.408 -43.2 
L 374.929714 -43.2 
L 374.451429 -43.2 
L 373.973143 -43.2 
L 373.494857 -43.2 
L 373.016571 -43.2 
L 372.538286 -43.2 
L 372.06 -43.2 
L 371.581714 -43.2 
L 371.103429 -43.2 
L 370.625143 -43.2 
L 370.146857 -43.2 
L 369.668571 -43.2 
L 369.190286 -43.2 
L 368.712 -43.2 
L 368.233714 -43.2 
L 367.755429 -43.2 
L 367.277143 -43.2 
L 366.798857 -43.2 
L 366.320571 -43.2 
L 365.842286 -43.2 
L 365.364 -43.2 
L 364.885714 -43.2 
L 364.407429 -43.2 
L 363.929143 -43.2 
L 363.450857 -43.2 
L 362.972571 -43.2 
L 362.494286 -43.2 
L 362.016 -43.2 
L 361.537714 -43.2 
L 361.059429 -43.2 
L 360.581143 -43.2 
L 360.102857 -43.2 
L 359.624571 -43.2 
L 359.146286 -43.2 
L 358.668 -43.2 
L 358.189714 -43.2 
L 357.711429 -43.2 
L 357.233143 -43.2 
L 356.754857 -43.2 
L 356.276571 -43.2 
L 355.798286 -43.2 
L 355.32 -43.2 
L 354.841714 -43.2 
L 354.363429 -43.2 
L 353.885143 -43.2 
L 353.406857 -43.2 
L 352.928571 -43.2 
L 352.450286 -43.2 
L 351.972 -43.2 
L 351.493714 -43.2 
L 351.015429 -43.2 
L 350.537143 -43.2 
L 350.058857 -43.2 
L 349.580571 -43.2 
L 349.102286 -43.2 
L 348.624 -43.2 
L 348.145714 -43.2 
L 347.667429 -43.2 
L 347.189143 -43.2 
L 346.710857 -43.2 
L 346.232571 -43.2 
L 345.754286 -43.2 
L 345.276 -43.2 
L 344.797714 -43.2 
L 344.319429 -43.2 
L 343.841143 -43.2 
L 343.362857 -43.2 
L 342.884571 -43.2 
L 342.406286 -43.2 
L 341.928 -43.2 
L 341.449714 -43.2 
L 340.971429 -43.2 
L 340.493143 -43.2 
L 340.014857 -43.2 
L 339.536571 -43.2 
L 339.058286 -43.2 
L 338.58 -43.2 
L 338.101714 -43.2 
L 337.623429 -43.2 
L 337.145143 -43.2 
L 336.666857 -43.2 
L 336.188571 -43.2 
L 335.710286 -43.2 
L 335.232 -43.2 
L 334.753714 -43.2 
L 334.275429 -43.2 
L 333.797143 -43.2 
L 333.318857 -43.2 
L 332.840571 -43.2 
L 332.362286 -43.2 
L 331.884 -43.2 
L 331.405714 -43.2 
L 330.927429 -43.2 
L 330.449143 -43.2 
L 329.970857 -43.2 
L 329.492571 -43.2 
L 329.014286 -43.2 
L 328.536 -43.2 
L 328.057714 -43.2 
L 327.579429 -43.2 
L 327.101143 -43.2 
L 326.622857 -43.2 
L 326.144571 -43.2 
L 325.666286 -43.2 
L 325.188 -43.2 
L 324.709714 -43.2 
L 324.231429 -43.2 
L 323.753143 -43.2 
L 323.274857 -43.2 
L 322.796571 -43.2 
L 322.318286 -43.2 
L 321.84 -43.2 
L 321.361714 -43.2 
L 320.883429 -43.2 
L 320.405143 -43.2 
L 319.926857 -43.2 
L 319.448571 -43.2 
L 318.970286 -43.2 
L 318.492 -43.2 
L 318.013714 -43.2 
L 317.535429 -43.2 
L 317.057143 -43.2 
L 316.578857 -43.2 
L 316.100571 -43.2 
L 315.622286 -43.2 
L 315.144 -43.2 
L 314.665714 -43.2 
L 314.187429 -43.2 
L 313.709143 -43.2 
L 313.230857 -43.2 
L 312.752571 -43.2 
L 312.274286 -43.2 
L 311.796 -43.2 
L 311.317714 -43.2 
L 310.839429 -43.2 
L 310.361143 -43.2 
L 309.882857 -43.2 
L 309.404571 -43.2 
L 308.926286 -43.2 
L 308.448 -43.2 
L 307.969714 -43.2 
L 307.491429 -43.2 
L 307.013143 -43.2 
L 306.534857 -43.2 
L 306.056571 -43.2 
L 305.578286 -43.2 
L 305.1 -43.2 
L 304.621714 -43.2 
L 304.143429 -43.2 
L 303.665143 -43.2 
L 303.186857 -43.2 
L 302.708571 -43.2 
L 302.230286 -43.2 
L 301.752 -43.2 
L 301.273714 -43.2 
L 300.795429 -43.2 
L 300.317143 -43.2 
L 299.838857 -43.2 
L 299.360571 -43.2 
L 298.882286 -43.2 
L 298.404 -43.2 
L 297.925714 -43.2 
L 297.447429 -43.2 
L 296.969143 -43.2 
L 296.490857 -43.2 
L 296.012571 -43.2 
L 295.534286 -43.2 
L 295.056 -43.2 
L 294.577714 -43.2 
L 294.099429 -43.2 
L 293.621143 -43.2 
L 293.142857 -43.2 
L 292.664571 -43.2 
L 292.186286 -43.2 
L 291.708 -43.2 
L 291.229714 -43.2 
L 290.751429 -43.2 
L 290.273143 -43.2 
L 289.794857 -43.2 
L 289.316571 -43.2 
L 288.838286 -43.2 
L 288.36 -43.2 
L 287.881714 -43.2 
L 287.403429 -43.2 
L 286.925143 -43.2 
L 286.446857 -43.2 
L 285.968571 -43.2 
L 285.490286 -43.2 
L 285.012 -43.2 
L 284.533714 -43.2 
L 284.055429 -43.2 
L 283.577143 -43.2 
L 283.098857 -43.2 
L 282.620571 -43.2 
L 282.142286 -43.2 
L 281.664 -43.2 
L 281.185714 -43.2 
L 280.707429 -43.2 
L 280.229143 -43.2 
L 279.750857 -43.2 
L 279.272571 -43.2 
L 278.794286 -43.2 
L 278.316 -43.2 
L 277.837714 -43.2 
L 277.359429 -43.2 
L 276.881143 -43.2 
L 276.402857 -43.2 
L 275.924571 -43.2 
L 275.446286 -43.2 
L 274.968 -43.2 
L 274.489714 -43.2 
L 274.011429 -43.2 
L 273.533143 -43.2 
L 273.054857 -43.2 
L 272.576571 -43.2 
L 272.098286 -43.2 
L 271.62 -43.2 
L 271.141714 -43.2 
L 270.663429 -43.2 
L 270.185143 -43.2 
L 269.706857 -43.2 
L 269.228571 -43.2 
L 268.750286 -43.2 
L 268.272 -43.2 
L 267.793714 -43.2 
L 267.315429 -43.2 
L 266.837143 -43.2 
L 266.358857 -43.2 
L 265.880571 -43.2 
L 265.402286 -43.2 
L 264.924 -43.2 
L 264.445714 -43.2 
L 263.967429 -43.2 
L 263.489143 -43.2 
L 263.010857 -43.2 
L 262.532571 -43.2 
L 262.054286 -43.2 
L 261.576 -43.2 
L 261.097714 -43.2 
L 260.619429 -43.2 
L 260.141143 -43.2 
L 259.662857 -43.2 
L 259.184571 -43.2 
L 258.706286 -43.2 
L 258.228 -43.2 
L 257.749714 -43.2 
L 257.271429 -43.2 
L 256.793143 -43.2 
L 256.314857 -43.2 
L 255.836571 -43.2 
L 255.358286 -43.2 
L 254.88 -43.2 
L 254.401714 -43.2 
L 253.923429 -43.2 
L 253.445143 -43.2 
L 252.966857 -43.2 
L 252.488571 -43.2 
L 252.010286 -43.2 
L 251.532 -43.2 
L 251.053714 -43.2 
L 250.575429 -43.2 
L 250.097143 -43.2 
L 249.618857 -43.2 
L 249.140571 -43.2 
L 248.662286 -43.2 
L 248.184 -43.2 
L 247.705714 -43.2 
L 247.227429 -43.2 
L 246.749143 -43.2 
L 246.270857 -43.2 
L 245.792571 -43.2 
L 245.314286 -43.2 
L 244.836 -43.2 
L 244.357714 -43.2 
L 243.879429 -43.2 
L 243.401143 -43.2 
L 242.922857 -43.2 
L 242.444571 -43.2 
L 241.966286 -43.2 
L 241.488 -43.2 
L 241.009714 -43.2 
L 240.531429 -43.2 
L 240.053143 -43.2 
L 239.574857 -43.2 
L 239.096571 -43.2 
L 238.618286 -43.2 
L 238.14 -43.2 
L 237.661714 -43.2 
L 237.183429 -43.2 
L 236.705143 -43.2 
L 236.226857 -43.2 
L 235.748571 -43.2 
L 235.270286 -43.2 
L 234.792 -43.2 
L 234.313714 -43.2 
L 233.835429 -43.2 
L 233.357143 -43.2 
L 232.878857 -43.2 
L 232.400571 -43.2 
L 231.922286 -43.2 
L 231.444 -43.2 
L 230.965714 -43.2 
L 230.487429 -43.2 
L 230.009143 -43.2 
L 229.530857 -43.2 
L 229.052571 -43.2 
L 228.574286 -43.2 
L 228.096 -43.2 
L 227.617714 -43.2 
L 227.139429 -43.2 
L 226.661143 -43.2 
L 226.182857 -43.2 
L 225.704571 -43.2 
L 225.226286 -43.2 
L 224.748 -43.2 
L 224.269714 -43.2 
L 223.791429 -43.2 
L 223.313143 -43.2 
L 222.834857 -43.2 
L 222.356571 -43.2 
L 221.878286 -43.2 
L 221.4 -43.2 
L 220.921714 -43.2 
L 220.443429 -43.2 
L 219.965143 -43.2 
L 219.486857 -43.2 
L 219.008571 -43.2 
L 218.530286 -43.2 
L 218.052 -43.2 
L 217.573714 -43.2 
L 217.095429 -43.2 
L 216.617143 -43.2 
L 216.138857 -43.2 
L 215.660571 -43.2 
L 215.182286 -43.2 
L 214.704 -43.2 
L 214.225714 -43.2 
L 213.747429 -43.2 
L 213.269143 -43.2 
L 212.790857 -43.2 
L 212.312571 -43.2 
L 211.834286 -43.2 
L 211.356 -43.2 
L 210.877714 -43.2 
L 210.399429 -43.2 
L 209.921143 -43.2 
L 209.442857 -43.2 
L 208.964571 -43.2 
L 208.486286 -43.2 
L 208.008 -43.2 
L 207.529714 -43.2 
L 207.051429 -43.2 
L 206.573143 -43.2 
L 206.094857 -43.2 
L 205.616571 -43.2 
L 205.138286 -43.2 
L 204.66 -43.2 
L 204.181714 -43.2 
L 203.703429 -43.2 
L 203.225143 -43.2 
L 202.746857 -43.2 
L 202.268571 -43.2 
L 201.790286 -43.2 
L 201.312 -43.2 
L 200.833714 -43.2 
L 200.355429 -43.2 
L 199.877143 -43.2 
L 199.398857 -43.2 
L 198.920571 -43.2 
L 198.442286 -43.2 
L 197.964 -43.2 
L 197.485714 -43.2 
L 197.007429 -43.2 
L 196.529143 -43.2 
L 196.050857 -43.2 
L 195.572571 -43.2 
L 195.094286 -43.2 
L 194.616 -43.2 
L 194.137714 -43.2 
L 193.659429 -43.2 
L 193.181143 -43.2 
L 192.702857 -43.2 
L 192.224571 -43.2 
L 191.746286 -43.2 
L 191.268 -43.2 
L 190.789714 -43.2 
L 190.311429 -43.2 
L 189.833143 -43.2 
L 189.354857 -43.2 
L 188.876571 -43.2 
L 188.398286 -43.2 
L 187.92 -43.2 
L 187.441714 -43.2 
L 186.963429 -43.2 
L 186.485143 -43.2 
L 186.006857 -43.2 
L 185.528571 -43.2 
L 185.050286 -43.2 
L 184.572 -43.2 
L 184.093714 -43.2 
L 183.615429 -43.2 
L 183.137143 -43.2 
L 182.658857 -43.2 
L 182.180571 -43.2 
L 181.702286 -43.2 
L 181.224 -43.2 
L 180.745714 -43.2 
L 180.267429 -43.2 
L 179.789143 -43.2 
L 179.310857 -43.2 
L 178.832571 -43.2 
L 178.354286 -43.2 
L 177.876 -43.2 
L 177.397714 -43.2 
L 176.919429 -43.2 
L 176.441143 -43.2 
L 175.962857 -43.2 
L 175.484571 -43.2 
L 175.006286 -43.2 
L 174.528 -43.2 
L 174.049714 -43.2 
L 173.571429 -43.2 
L 173.093143 -43.2 
L 172.614857 -43.2 
L 172.136571 -43.2 
L 171.658286 -43.2 
L 171.18 -43.2 
L 170.701714 -43.2 
L 170.223429 -43.2 
L 169.745143 -43.2 
L 169.266857 -43.2 
L 168.788571 -43.2 
L 168.310286 -43.2 
L 167.832 -43.2 
L 167.353714 -43.2 
L 166.875429 -43.2 
L 166.397143 -43.2 
L 165.918857 -43.2 
L 165.440571 -43.2 
L 164.962286 -43.2 
L 164.484 -43.2 
L 164.005714 -43.2 
L 163.527429 -43.2 
L 163.049143 -43.2 
L 162.570857 -43.2 
L 162.092571 -43.2 
L 161.614286 -43.2 
L 161.136 -43.2 
L 160.657714 -43.2 
L 160.179429 -43.2 
L 159.701143 -43.2 
L 159.222857 -43.2 
L 158.744571 -43.2 
L 158.266286 -43.2 
L 157.788 -43.2 
L 157.309714 -43.2 
L 156.831429 -43.2 
L 156.353143 -43.2 
L 155.874857 -43.2 
L 155.396571 -43.2 
L 154.918286 -43.2 
L 154.44 -43.2 
L 153.961714 -43.2 
L 153.483429 -43.2 
L 153.005143 -43.2 
L 152.526857 -43.2 
L 152.048571 -43.2 
L 151.570286 -43.2 
L 151.092 -43.2 
L 150.613714 -43.2 
L 150.135429 -43.2 
L 149.657143 -43.2 
L 149.178857 -43.2 
L 148.700571 -43.2 
L 148.222286 -43.2 
L 147.744 -43.2 
L 147.265714 -43.2 
L 146.787429 -43.2 
L 146.309143 -43.2 
L 145.830857 -43.2 
L 145.352571 -43.2 
L 144.874286 -43.2 
L 144.396 -43.2 
L 143.917714 -43.2 
L 143.439429 -43.2 
L 142.961143 -43.2 
L 142.482857 -43.2 
L 142.004571 -43.2 
L 141.526286 -43.2 
L 141.048 -43.2 
L 140.569714 -43.2 
L 140.091429 -43.2 
L 139.613143 -43.2 
L 139.134857 -43.2 
L 138.656571 -43.2 
L 138.178286 -43.2 
L 137.7 -43.2 
L 137.221714 -43.2 
L 136.743429 -43.2 
L 136.265143 -43.2 
L 135.786857 -43.2 
L 135.308571 -43.2 
L 134.830286 -43.2 
L 134.352 -43.2 
L 133.873714 -43.2 
L 133.395429 -43.2 
L 132.917143 -43.2 
L 132.438857 -43.2 
L 131.960571 -43.2 
L 131.482286 -43.2 
L 131.004 -43.2 
L 130.525714 -43.2 
L 130.047429 -43.2 
L 129.569143 -43.2 
L 129.090857 -43.2 
L 128.612571 -43.2 
L 128.134286 -43.2 
L 127.656 -43.2 
L 127.177714 -43.2 
L 126.699429 -43.2 
L 126.221143 -43.2 
L 125.742857 -43.2 
L 125.264571 -43.2 
L 124.786286 -43.2 
L 124.308 -43.2 
L 123.829714 -43.2 
L 123.351429 -43.2 
L 122.873143 -43.2 
L 122.394857 -43.2 
L 121.916571 -43.2 
L 121.438286 -43.2 
L 120.96 -43.2 
L 120.481714 -43.2 
L 120.003429 -43.2 
L 119.525143 -43.2 
L 119.046857 -43.2 
L 118.568571 -43.2 
L 118.090286 -43.2 
L 117.612 -43.2 
L 117.133714 -43.2 
L 116.655429 -43.2 
L 116.177143 -43.2 
L 115.698857 -43.2 
L 115.220571 -43.2 
L 114.742286 -43.2 
L 114.264 -43.2 
L 113.785714 -43.2 
L 113.307429 -43.2 
L 112.829143 -43.2 
L 112.350857 -43.2 
L 111.872571 -43.2 
L 111.394286 -43.2 
L 110.916 -43.2 
L 110.437714 -43.2 
L 109.959429 -43.2 
L 109.481143 -43.2 
L 109.002857 -43.2 
L 108.524571 -43.2 
L 108.046286 -43.2 
L 107.568 -43.2 
L 107.089714 -43.2 
L 106.611429 -43.2 
L 106.133143 -43.2 
L 105.654857 -43.2 
L 105.176571 -43.2 
L 104.698286 -43.2 
L 104.22 -43.2 
L 103.741714 -43.2 
L 103.263429 -43.2 
L 102.785143 -43.2 
L 102.306857 -43.2 
L 101.828571 -43.2 
L 101.350286 -43.2 
L 100.872 -43.2 
L 100.393714 -43.2 
L 99.915429 -43.2 
L 99.437143 -43.2 
L 98.958857 -43.2 
L 98.480571 -43.2 
L 98.002286 -43.2 
L 97.524 -43.2 
L 97.045714 -43.2 
L 96.567429 -43.2 
L 96.089143 -43.2 
L 95.610857 -43.2 
L 95.132571 -43.2 
L 94.654286 -43.2 
L 94.176 -43.2 
L 93.697714 -43.2 
L 93.219429 -43.2 
L 92.741143 -43.2 
L 92.262857 -43.2 
L 91.784571 -43.2 
L 91.306286 -43.2 
L 90.828 -43.2 
L 90.349714 -43.2 
L 89.871429 -43.2 
L 89.393143 -43.2 
L 88.914857 -43.2 
L 88.436571 -43.2 
L 87.958286 -43.2 
L 87.48 -43.2 
L 87.001714 -43.2 
L 86.523429 -43.2 
L 86.045143 -43.2 
L 85.566857 -43.2 
L 85.088571 -43.2 
L 84.610286 -43.2 
L 84.132 -43.2 
L 83.653714 -43.2 
L 83.175429 -43.2 
L 82.697143 -43.2 
L 82.218857 -43.2 
L 81.740571 -43.2 
L 81.262286 -43.2 
L 80.784 -43.2 
L 80.305714 -43.2 
L 79.827429 -43.2 
L 79.349143 -43.2 
L 78.870857 -43.2 
L 78.392571 -43.2 
L 77.914286 -43.2 
L 77.436 -43.2 
L 76.957714 -43.2 
L 76.479429 -43.2 
L 76.001143 -43.2 
L 75.522857 -43.2 
L 75.044571 -43.2 
L 74.566286 -43.2 
L 74.088 -43.2 
L 73.609714 -43.2 
L 73.131429 -43.2 
L 72.653143 -43.2 
L 72.174857 -43.2 
L 71.696571 -43.2 
L 71.218286 -43.2 
L 70.74 -43.2 
L 70.261714 -43.2 
L 69.783429 -43.2 
L 69.305143 -43.2 
L 68.826857 -43.2 
L 68.348571 -43.2 
L 67.870286 -43.2 
L 67.392 -43.2 
L 66.913714 -43.2 
L 66.435429 -43.2 
L 65.957143 -43.2 
L 65.478857 -43.2 
L 65.000571 -43.2 
L 64.522286 -43.2 
L 64.044 -43.2 
L 63.565714 -43.2 
L 63.087429 -43.2 
L 62.609143 -43.2 
L 62.130857 -43.2 
L 61.652571 -43.2 
L 61.174286 -43.2 
L 60.696 -43.2 
L 60.217714 -43.2 
L 59.739429 -43.2 
L 59.261143 -43.2 
L 58.782857 -43.2 
L 58.304571 -43.2 
L 57.826286 -43.2 
L 57.348 -43.2 
L 56.869714 -43.2 
L 56.391429 -43.2 
L 55.913143 -43.2 
L 55.434857 -43.2 
L 54.956571 -43.2 
L 54.478286 -43.2 
L 54.002391 -43.2 
z
" style="stroke: #d62728; stroke-opacity: 0.15"/>
    </defs>
    <g clip-path="url(#p747edd0915)">
     <use xlink:href="#m86d6a02d53" x="0" y="216" style="fill: #d62728; fill-opacity: 0.15; stroke: #d62728; stroke-opacity: 0.15"/>
    </g>
   </g>
   <g id="matplotlib.axis_1">
    <g id="xtick_1">
     <g id="line2d_1">
      <defs>
       <path id="m6e71fcc6e6" d="M 0 0 
L 0 3.5 
" style="stroke: #000000; stroke-width: 0.8"/>
      </defs>
      <g>
       <use xlink:href="#m6e71fcc6e6" x="54" y="172.8" style="stroke: #000000; stroke-width: 0.8"/>
      </g>
     </g>
     <g id="text_1">
      <!-- 0 -->
      <g transform="translate(50.81875 187.398438) scale(0.1 -0.1)">
       <defs>
        <path id="DejaVuSans-30" d="M 2034 4250 
Q 1547 4250 1301 3770 
Q 1056 3291 1056 2328 
Q 1056 1369 1301 889 
Q 1547 409 2034 409 
Q 2525 409 2770 889 
Q 3016 1369 3016 2328 
Q 3016 3291 2770 3770 
Q 2525 4250 2034 4250 
z
M 2034 4750 
Q 2819 4750 3233 4129 
Q 3647 3509 3647 2328 
Q 3647 1150 3233 529 
Q 2819 -91 2034 -91 
Q 1250 -91 836 529 
Q 422 1150 422 2328 
Q 422 3509 836 4129 
Q 1250 4750 2034 4750 
z
" transform="scale(0.015625)"/>
       </defs>
       <use xlink:href="#DejaVuSans-30"/>
      </g>
     </g>
    </g>
    <g id="xtick_2">
     <g id="line2d_2">
      <g>
       <use xlink:href="#m6e71fcc6e6" x="101.828571" y="172.8" style="stroke: #000000; stroke-width: 0.8"/>
      </g>
     </g>
     <g id="text_2">
      <!-- 20 -->
      <g transform="translate(95.466071 187.398438) scale(0.1 -0.1)">
       <defs>
        <path id="DejaVuSans-32" d="M 1228 531 
L 3431 531 
L 3431 0 
L 469 0 
L 469 531 
Q 828 903 1448 1529 
Q 2069 2156 2228 2338 
Q 2531 2678 2651 2914 
Q 2772 3150 2772 3378 
Q 2772 3750 2511 3984 
Q 2250 4219 1831 4219 
Q 1534 4219 1204 4116 
Q 875 4013 500 3803 
L 500 4441 
Q 881 4594 1212 4672 
Q 1544 4750 1819 4750 
Q 2544 4750 2975 4387 
Q 3406 4025 3406 3419 
Q 3406 3131 3298 2873 
Q 3191 2616 2906 2266 
Q 2828 2175 2409 1742 
Q 1991 1309 1228 531 
z
" transform="scale(0.015625)"/>
       </defs>
       <use xlink:href="#DejaVuSans-32"/>
       <use xlink:href="#DejaVuSans-30" x="63.623047"/>
      </g>
     </g>
    </g>
    <g id="xtick_3">
     <g id="line2d_3">
      <g>
       <use xlink:href="#m6e71fcc6e6" x="149.657143" y="172.8" style="stroke: #000000; stroke-width: 0.8"/>
      </g>
     </g>
     <g id="text_3">
      <!-- 40 -->
      <g transform="translate(143.294643 187.398438) scale(0.1 -0.1)">
       <defs>
        <path id="DejaVuSans-34" d="M 2419 4116 
L 825 1625 
L 2419 1625 
L 2419 4116 
z
M 2253 4666 
L 3047 4666 
L 3047 1625 
L 3713 1625 
L 3713 1100 
L 3047 1100 
L 3047 0 
L 2419 0 
L 2419 1100 
L 313 1100 
L 313 1709 
L 2253 4666 
z
" transform="scale(0.015625)"/>
       </defs>
       <use xlink:href="#DejaVuSans-34"/>
       <use xlink:href="#DejaVuSans-30" x="63.623047"/>
      </g>
     </g>
    </g>
    <g id="xtick_4">
     <g id="line2d_4">
      <g>
       <use xlink:href="#m6e71fcc6e6" x="197.485714" y="172.8" style="stroke: #000000; stroke-width: 0.8"/>
      </g>
     </g>
     <g id="text_4">
      <!-- 60 -->
      <g transform="translate(191.123214 187.398438) scale(0.1 -0.1)">
       <defs>
        <path id="DejaVuSans-36" d="M 2113 2584 
Q 1688 2584 1439 2293 
Q 1191 2003 1191 1497 
Q 1191 994 1439 701 
Q 1688 409 2113 409 
Q 2538 409 2786 701 
Q 3034 994 3034 1497 
Q 3034 2003 2786 2293 
Q 2538 2584 2113 2584 
z
M 3366 4563 
L 3366 3988 
Q 3128 4100 2886 4159 
Q 2644 4219 2406 4219 
Q 1781 4219 1451 3797 
Q 1122 3375 1075 2522 
Q 1259 2794 1537 2939 
Q 1816 3084 2150 3084 
Q 2853 3084 3261 2657 
Q 3669 2231 3669 1497 
Q 3669 778 3244 343 
Q 2819 -91 2113 -91 
Q 1303 -91 875 529 
Q 447 1150 447 2328 
Q 447 3434 972 4092 
Q 1497 4750 2381 4750 
Q 2619 4750 2861 4703 
Q 3103 4656 3366 4563 
z
" transform="scale(0.015625)"/>
       </defs>
       <use xlink:href="#DejaVuSans-36"/>
       <use xlink:href="#DejaVuSans-30" x="63.623047"/>
      </g>
     </g>
    </g>
    <g id="xtick_5">
     <g id="line2d_5">
      <g>
       <use xlink:href="#m6e71fcc6e6" x="245.314286" y="172.8" style="stroke: #000000; stroke-width: 0.8"/>
      </g>
     </g>
     <g id="text_5">
      <!-- 80 -->
      <g transform="translate(238.951786 187.398438) scale(0.1 -0.1)">
       <defs>
        <path id="DejaVuSans-38" d="M 2034 2216 
Q 1584 2216 1326 1975 
Q 1069 1734 1069 1313 
Q 1069 891 1326 650 
Q 1584 409 2034 409 
Q 2484 409 2743 651 
Q 3003 894 3003 1313 
Q 3003 1734 2745 1975 
Q 2488 2216 2034 2216 
z
M 1403 2484 
Q 997 2584 770 2862 
Q 544 3141 544 3541 
Q 544 4100 942 4425 
Q 1341 4750 2034 4750 
Q 2731 4750 3128 4425 
Q 3525 4100 3525 3541 
Q 3525 3141 3298 2862 
Q 3072 2584 2669 2484 
Q 3125 2378 3379 2068 
Q 3634 1759 3634 1313 
Q 3634 634 3220 271 
Q 2806 -91 2034 -91 
Q 1263 -91 848 271 
Q 434 634 434 1313 
Q 434 1759 690 2068 
Q 947 2378 1403 2484 
z
M 1172 3481 
Q 1172 3119 1398 2916 
Q 1625 2713 2034 2713 
Q 2441 2713 2670 2916 
Q 2900 3119 2900 3481 
Q 2900 3844 2670 4047 
Q 2441 4250 2034 4250 
Q 1625 4250 1398 4047 
Q 1172 3844 1172 3481 
z
" transform="scale(0.015625)"/>
       </defs>
       <use xlink:href="#DejaVuSans-38"/>
       <use xlink:href="#DejaVuSans-30" x="63.623047"/>
      </g>
     </g>
    </g>
    <g id="xtick_6">
     <g id="line2d_6">
      <g>
       <use xlink:href="#m6e71fcc6e6" x="293.142857" y="172.8" style="stroke: #000000; stroke-width: 0.8"/>
      </g>
     </g>
     <g id="text_6">
      <!-- 100 -->
      <g transform="translate(283.599107 187.398438) scale(0.1 -0.1)">
       <defs>
        <path id="DejaVuSans-31" d="M 794 531 
L 1825 531 
L 1825 4091 
L 703 3866 
L 703 4441 
L 1819 4666 
L 2450 4666 
L 2450 531 
L 3481 531 
L 3481 0 
L 794 0 
L 794 531 
z
" transform="scale(0.015625)"/>
       </defs>
       <use xlink:href="#DejaVuSans-31"/>
       <use xlink:href="#DejaVuSans-30" x="63.623047"/>
       <use xlink:href="#DejaVuSans-30" x="127.246094"/>
      </g>
     </g>
    </g>
    <g id="xtick_7">
     <g id="line2d_7">
      <g>
       <use xlink:href="#m6e71fcc6e6" x="340.971429" y="172.8" style="stroke: #000000; stroke-width: 0.8"/>
      </g>
     </g>
     <g id="text_7">
      <!-- 120 -->
      <g transform="translate(331.427679 187.398438) scale(0.1 -0.1)">
       <use xlink:href="#DejaVuSans-31"/>
       <use xlink:href="#DejaVuSans-32" x="63.623047"/>
       <use xlink:href="#DejaVuSans-30" x="127.246094"/>
      </g>
     </g>
    </g>
    <g id="xtick_8">
     <g id="line2d_8">
      <g>
       <use xlink:href="#m6e71fcc6e6" x="388.8" y="172.8" style="stroke: #000000; stroke-width: 0.8"/>
      </g>
     </g>
     <g id="text_8">
      <!-- 140 -->
      <g transform="translate(379.25625 187.398438) scale(0.1 -0.1)">
       <use xlink:href="#DejaVuSans-31"/>
       <use xlink:href="#DejaVuSans-34" x="63.623047"/>
       <use xlink:href="#DejaVuSans-30" x="127.246094"/>
      </g>
     </g>
    </g>
    <g id="text_9">
     <!-- Step ($\times10^3$) -->
     <g transform="translate(191.55 202.578125) scale(0.1 -0.1)">
      <defs>
       <path id="DejaVuSans-53" d="M 3425 4513 
L 3425 3897 
Q 3066 4069 2747 4153 
Q 2428 4238 2131 4238 
Q 1616 4238 1336 4038 
Q 1056 3838 1056 3469 
Q 1056 3159 1242 3001 
Q 1428 2844 1947 2747 
L 2328 2669 
Q 3034 2534 3370 2195 
Q 3706 1856 3706 1288 
Q 3706 609 3251 259 
Q 2797 -91 1919 -91 
Q 1588 -91 1214 -16 
Q 841 59 441 206 
L 441 856 
Q 825 641 1194 531 
Q 1563 422 1919 422 
Q 2459 422 2753 634 
Q 3047 847 3047 1241 
Q 3047 1584 2836 1778 
Q 2625 1972 2144 2069 
L 1759 2144 
Q 1053 2284 737 2584 
Q 422 2884 422 3419 
Q 422 4038 858 4394 
Q 1294 4750 2059 4750 
Q 2388 4750 2728 4690 
Q 3069 4631 3425 4513 
z
" transform="scale(0.015625)"/>
       <path id="DejaVuSans-74" d="M 1172 4494 
L 1172 3500 
L 2356 3500 
L 2356 3053 
L 1172 3053 
L 1172 1153 
Q 1172 725 1289 603 
Q 1406 481 1766 481 
L 2356 481 
L 2356 0 
L 1766 0 
Q 1100 0 847 248 
Q 594 497 594 1153 
L 594 3053 
L 172 3053 
L 172 3500 
L 594 3500 
L 594 4494 
L 1172 4494 
z
" transform="scale(0.015625)"/>
       <path id="DejaVuSans-65" d="M 3597 1894 
L 3597 1613 
L 953 1613 
Q 991 1019 1311 708 
Q 1631 397 2203 397 
Q 2534 397 2845 478 
Q 3156 559 3463 722 
L 3463 178 
Q 3153 47 2828 -22 
Q 2503 -91 2169 -91 
Q 1331 -91 842 396 
Q 353 884 353 1716 
Q 353 2575 817 3079 
Q 1281 3584 2069 3584 
Q 2775 3584 3186 3129 
Q 3597 2675 3597 1894 
z
M 3022 2063 
Q 3016 2534 2758 2815 
Q 2500 3097 2075 3097 
Q 1594 3097 1305 2825 
Q 1016 2553 972 2059 
L 3022 2063 
z
" transform="scale(0.015625)"/>
       <path id="DejaVuSans-70" d="M 1159 525 
L 1159 -1331 
L 581 -1331 
L 581 3500 
L 1159 3500 
L 1159 2969 
Q 1341 3281 1617 3432 
Q 1894 3584 2278 3584 
Q 2916 3584 3314 3078 
Q 3713 2572 3713 1747 
Q 3713 922 3314 415 
Q 2916 -91 2278 -91 
Q 1894 -91 1617 61 
Q 1341 213 1159 525 
z
M 3116 1747 
Q 3116 2381 2855 2742 
Q 2594 3103 2138 3103 
Q 1681 3103 1420 2742 
Q 1159 2381 1159 1747 
Q 1159 1113 1420 752 
Q 1681 391 2138 391 
Q 2594 391 2855 752 
Q 3116 1113 3116 1747 
z
" transform="scale(0.015625)"/>
       <path id="DejaVuSans-20" transform="scale(0.015625)"/>
       <path id="DejaVuSans-28" d="M 1984 4856 
Q 1566 4138 1362 3434 
Q 1159 2731 1159 2009 
Q 1159 1288 1364 580 
Q 1569 -128 1984 -844 
L 1484 -844 
Q 1016 -109 783 600 
Q 550 1309 550 2009 
Q 550 2706 781 3412 
Q 1013 4119 1484 4856 
L 1984 4856 
z
" transform="scale(0.015625)"/>
       <path id="DejaVuSans-d7" d="M 4488 3438 
L 3059 2003 
L 4488 575 
L 4116 197 
L 2681 1631 
L 1247 197 
L 878 575 
L 2303 2003 
L 878 3438 
L 1247 3816 
L 2681 2381 
L 4116 3816 
L 4488 3438 
z
" transform="scale(0.015625)"/>
       <path id="DejaVuSans-33" d="M 2597 2516 
Q 3050 2419 3304 2112 
Q 3559 1806 3559 1356 
Q 3559 666 3084 287 
Q 2609 -91 1734 -91 
Q 1441 -91 1130 -33 
Q 819 25 488 141 
L 488 750 
Q 750 597 1062 519 
Q 1375 441 1716 441 
Q 2309 441 2620 675 
Q 2931 909 2931 1356 
Q 2931 1769 2642 2001 
Q 2353 2234 1838 2234 
L 1294 2234 
L 1294 2753 
L 1863 2753 
Q 2328 2753 2575 2939 
Q 2822 3125 2822 3475 
Q 2822 3834 2567 4026 
Q 2313 4219 1838 4219 
Q 1578 4219 1281 4162 
Q 984 4106 628 3988 
L 628 4550 
Q 988 4650 1302 4700 
Q 1616 4750 1894 4750 
Q 2613 4750 3031 4423 
Q 3450 4097 3450 3541 
Q 3450 3153 3228 2886 
Q 3006 2619 2597 2516 
z
" transform="scale(0.015625)"/>
       <path id="DejaVuSans-29" d="M 513 4856 
L 1013 4856 
Q 1481 4119 1714 3412 
Q 1947 2706 1947 2009 
Q 1947 1309 1714 600 
Q 1481 -109 1013 -844 
L 513 -844 
Q 928 -128 1133 580 
Q 1338 1288 1338 2009 
Q 1338 2731 1133 3434 
Q 928 4138 513 4856 
z
" transform="scale(0.015625)"/>
      </defs>
      <use xlink:href="#DejaVuSans-53" transform="translate(0 0.765625)"/>
      <use xlink:href="#DejaVuSans-74" transform="translate(63.476562 0.765625)"/>
      <use xlink:href="#DejaVuSans-65" transform="translate(102.685547 0.765625)"/>
      <use xlink:href="#DejaVuSans-70" transform="translate(164.208984 0.765625)"/>
      <use xlink:href="#DejaVuSans-20" transform="translate(227.685547 0.765625)"/>
      <use xlink:href="#DejaVuSans-28" transform="translate(259.472656 0.765625)"/>
      <use xlink:href="#DejaVuSans-d7" transform="translate(298.486328 0.765625)"/>
      <use xlink:href="#DejaVuSans-31" transform="translate(382.275391 0.765625)"/>
      <use xlink:href="#DejaVuSans-30" transform="translate(445.898438 0.765625)"/>
      <use xlink:href="#DejaVuSans-33" transform="translate(510.478516 39.046875) scale(0.7)"/>
      <use xlink:href="#DejaVuSans-29" transform="translate(557.749023 0.765625)"/>
     </g>
    </g>
   </g>
   <g id="matplotlib.axis_2">
    <g id="ytick_1">
     <g id="line2d_9">
      <defs>
       <path id="mc88948234d" d="M 0 0 
L -3.5 0 
" style="stroke: #000000; stroke-width: 0.8"/>
      </defs>
      <g>
       <use xlink:href="#mc88948234d" x="54" y="172.8" style="stroke: #000000; stroke-width: 0.8"/>
      </g>
     </g>
     <g id="text_10">
      <!-- 0.0 -->
      <g transform="translate(31.096875 176.599219) scale(0.1 -0.1)">
       <defs>
        <path id="DejaVuSans-2e" d="M 684 794 
L 1344 794 
L 1344 0 
L 684 0 
L 684 794 
z
" transform="scale(0.015625)"/>
       </defs>
       <use xlink:href="#DejaVuSans-30"/>
       <use xlink:href="#DejaVuSans-2e" x="63.623047"/>
       <use xlink:href="#DejaVuSans-30" x="95.410156"/>
      </g>
     </g>
    </g>
    <g id="ytick_2">
     <g id="line2d_10">
      <g>
       <use xlink:href="#mc88948234d" x="54" y="123.84" style="stroke: #000000; stroke-width: 0.8"/>
      </g>
     </g>
     <g id="text_11">
      <!-- 0.5 -->
      <g transform="translate(31.096875 127.639219) scale(0.1 -0.1)">
       <defs>
        <path id="DejaVuSans-35" d="M 691 4666 
L 3169 4666 
L 3169 4134 
L 1269 4134 
L 1269 2991 
Q 1406 3038 1543 3061 
Q 1681 3084 1819 3084 
Q 2600 3084 3056 2656 
Q 3513 2228 3513 1497 
Q 3513 744 3044 326 
Q 2575 -91 1722 -91 
Q 1428 -91 1123 -41 
Q 819 9 494 109 
L 494 744 
Q 775 591 1075 516 
Q 1375 441 1709 441 
Q 2250 441 2565 725 
Q 2881 1009 2881 1497 
Q 2881 1984 2565 2268 
Q 2250 2553 1709 2553 
Q 1456 2553 1204 2497 
Q 953 2441 691 2322 
L 691 4666 
z
" transform="scale(0.015625)"/>
       </defs>
       <use xlink:href="#DejaVuSans-30"/>
       <use xlink:href="#DejaVuSans-2e" x="63.623047"/>
       <use xlink:href="#DejaVuSans-35" x="95.410156"/>
      </g>
     </g>
    </g>
    <g id="ytick_3">
     <g id="line2d_11">
      <g>
       <use xlink:href="#mc88948234d" x="54" y="74.88" style="stroke: #000000; stroke-width: 0.8"/>
      </g>
     </g>
     <g id="text_12">
      <!-- 1.0 -->
      <g transform="translate(31.096875 78.679219) scale(0.1 -0.1)">
       <use xlink:href="#DejaVuSans-31"/>
       <use xlink:href="#DejaVuSans-2e" x="63.623047"/>
       <use xlink:href="#DejaVuSans-30" x="95.410156"/>
      </g>
     </g>
    </g>
    <g id="ytick_4">
     <g id="line2d_12">
      <g>
       <use xlink:href="#mc88948234d" x="54" y="25.92" style="stroke: #000000; stroke-width: 0.8"/>
      </g>
     </g>
     <g id="text_13">
      <!-- 1.5 -->
      <g transform="translate(31.096875 29.719219) scale(0.1 -0.1)">
       <use xlink:href="#DejaVuSans-31"/>
       <use xlink:href="#DejaVuSans-2e" x="63.623047"/>
       <use xlink:href="#DejaVuSans-35" x="95.410156"/>
      </g>
     </g>
    </g>
    <g id="text_14">
     <!-- Learning speed -->
     <g transform="translate(25.017187 137.763125) rotate(-90) scale(0.1 -0.1)">
      <defs>
       <path id="DejaVuSans-4c" d="M 628 4666 
L 1259 4666 
L 1259 531 
L 3531 531 
L 3531 0 
L 628 0 
L 628 4666 
z
" transform="scale(0.015625)"/>
       <path id="DejaVuSans-61" d="M 2194 1759 
Q 1497 1759 1228 1600 
Q 959 1441 959 1056 
Q 959 750 1161 570 
Q 1363 391 1709 391 
Q 2188 391 2477 730 
Q 2766 1069 2766 1631 
L 2766 1759 
L 2194 1759 
z
M 3341 1997 
L 3341 0 
L 2766 0 
L 2766 531 
Q 2569 213 2275 61 
Q 1981 -91 1556 -91 
Q 1019 -91 701 211 
Q 384 513 384 1019 
Q 384 1609 779 1909 
Q 1175 2209 1959 2209 
L 2766 2209 
L 2766 2266 
Q 2766 2663 2505 2880 
Q 2244 3097 1772 3097 
Q 1472 3097 1187 3025 
Q 903 2953 641 2809 
L 641 3341 
Q 956 3463 1253 3523 
Q 1550 3584 1831 3584 
Q 2591 3584 2966 3190 
Q 3341 2797 3341 1997 
z
" transform="scale(0.015625)"/>
       <path id="DejaVuSans-72" d="M 2631 2963 
Q 2534 3019 2420 3045 
Q 2306 3072 2169 3072 
Q 1681 3072 1420 2755 
Q 1159 2438 1159 1844 
L 1159 0 
L 581 0 
L 581 3500 
L 1159 3500 
L 1159 2956 
Q 1341 3275 1631 3429 
Q 1922 3584 2338 3584 
Q 2397 3584 2469 3576 
Q 2541 3569 2628 3553 
L 2631 2963 
z
" transform="scale(0.015625)"/>
       <path id="DejaVuSans-6e" d="M 3513 2113 
L 3513 0 
L 2938 0 
L 2938 2094 
Q 2938 2591 2744 2837 
Q 2550 3084 2163 3084 
Q 1697 3084 1428 2787 
Q 1159 2491 1159 1978 
L 1159 0 
L 581 0 
L 581 3500 
L 1159 3500 
L 1159 2956 
Q 1366 3272 1645 3428 
Q 1925 3584 2291 3584 
Q 2894 3584 3203 3211 
Q 3513 2838 3513 2113 
z
" transform="scale(0.015625)"/>
       <path id="DejaVuSans-69" d="M 603 3500 
L 1178 3500 
L 1178 0 
L 603 0 
L 603 3500 
z
M 603 4863 
L 1178 4863 
L 1178 4134 
L 603 4134 
L 603 4863 
z
" transform="scale(0.015625)"/>
       <path id="DejaVuSans-67" d="M 2906 1791 
Q 2906 2416 2648 2759 
Q 2391 3103 1925 3103 
Q 1463 3103 1205 2759 
Q 947 2416 947 1791 
Q 947 1169 1205 825 
Q 1463 481 1925 481 
Q 2391 481 2648 825 
Q 2906 1169 2906 1791 
z
M 3481 434 
Q 3481 -459 3084 -895 
Q 2688 -1331 1869 -1331 
Q 1566 -1331 1297 -1286 
Q 1028 -1241 775 -1147 
L 775 -588 
Q 1028 -725 1275 -790 
Q 1522 -856 1778 -856 
Q 2344 -856 2625 -561 
Q 2906 -266 2906 331 
L 2906 616 
Q 2728 306 2450 153 
Q 2172 0 1784 0 
Q 1141 0 747 490 
Q 353 981 353 1791 
Q 353 2603 747 3093 
Q 1141 3584 1784 3584 
Q 2172 3584 2450 3431 
Q 2728 3278 2906 2969 
L 2906 3500 
L 3481 3500 
L 3481 434 
z
" transform="scale(0.015625)"/>
       <path id="DejaVuSans-73" d="M 2834 3397 
L 2834 2853 
Q 2591 2978 2328 3040 
Q 2066 3103 1784 3103 
Q 1356 3103 1142 2972 
Q 928 2841 928 2578 
Q 928 2378 1081 2264 
Q 1234 2150 1697 2047 
L 1894 2003 
Q 2506 1872 2764 1633 
Q 3022 1394 3022 966 
Q 3022 478 2636 193 
Q 2250 -91 1575 -91 
Q 1294 -91 989 -36 
Q 684 19 347 128 
L 347 722 
Q 666 556 975 473 
Q 1284 391 1588 391 
Q 1994 391 2212 530 
Q 2431 669 2431 922 
Q 2431 1156 2273 1281 
Q 2116 1406 1581 1522 
L 1381 1569 
Q 847 1681 609 1914 
Q 372 2147 372 2553 
Q 372 3047 722 3315 
Q 1072 3584 1716 3584 
Q 2034 3584 2315 3537 
Q 2597 3491 2834 3397 
z
" transform="scale(0.015625)"/>
       <path id="DejaVuSans-64" d="M 2906 2969 
L 2906 4863 
L 3481 4863 
L 3481 0 
L 2906 0 
L 2906 525 
Q 2725 213 2448 61 
Q 2172 -91 1784 -91 
Q 1150 -91 751 415 
Q 353 922 353 1747 
Q 353 2572 751 3078 
Q 1150 3584 1784 3584 
Q 2172 3584 2448 3432 
Q 2725 3281 2906 2969 
z
M 947 1747 
Q 947 1113 1208 752 
Q 1469 391 1925 391 
Q 2381 391 2643 752 
Q 2906 1113 2906 1747 
Q 2906 2381 2643 2742 
Q 2381 3103 1925 3103 
Q 1469 3103 1208 2742 
Q 947 2381 947 1747 
z
" transform="scale(0.015625)"/>
      </defs>
      <use xlink:href="#DejaVuSans-4c"/>
      <use xlink:href="#DejaVuSans-65" x="53.962891"/>
      <use xlink:href="#DejaVuSans-61" x="115.486328"/>
      <use xlink:href="#DejaVuSans-72" x="176.765625"/>
      <use xlink:href="#DejaVuSans-6e" x="216.128906"/>
      <use xlink:href="#DejaVuSans-69" x="279.507812"/>
      <use xlink:href="#DejaVuSans-6e" x="307.291016"/>
      <use xlink:href="#DejaVuSans-67" x="370.669922"/>
      <use xlink:href="#DejaVuSans-20" x="434.146484"/>
      <use xlink:href="#DejaVuSans-73" x="465.933594"/>
      <use xlink:href="#DejaVuSans-70" x="518.033203"/>
      <use xlink:href="#DejaVuSans-65" x="581.509766"/>
      <use xlink:href="#DejaVuSans-65" x="643.033203"/>
      <use xlink:href="#DejaVuSans-64" x="704.556641"/>
     </g>
    </g>
   </g>
   <g id="line2d_13">
    <path d="M 56.391429 172.628489 
L 75.522857 172.524504 
L 92.262857 172.431514 
L 125.742857 172.380152 
L 128.134286 172.344621 
L 130.525714 170.268255 
L 132.917143 167.72183 
L 137.7 163.485467 
L 140.091429 165.020026 
L 142.482857 164.949478 
L 144.874286 164.253781 
L 147.265714 162.263037 
L 149.657143 160.846583 
L 152.048571 161.514594 
L 154.44 161.945236 
L 156.831429 163.127465 
L 159.222857 163.026413 
L 161.614286 162.694 
L 164.005714 163.165352 
L 166.397143 163.061822 
L 168.788571 159.602035 
L 171.18 153.452723 
L 173.571429 150.074491 
L 175.962857 146.005445 
L 178.354286 149.729238 
L 180.745714 148.801263 
L 183.137143 151.210355 
L 185.528571 156.609206 
L 187.92 154.214716 
L 190.311429 160.137057 
L 192.702857 160.063777 
L 195.094286 154.422472 
L 197.485714 154.031174 
L 199.877143 151.289892 
L 202.268571 147.056786 
L 204.66 146.484303 
L 207.051429 143.388054 
L 209.442857 142.46066 
L 211.834286 140.90857 
L 214.225714 144.456361 
L 216.617143 148.590212 
L 219.008571 149.991184 
L 221.4 150.729138 
L 223.791429 147.824859 
L 226.182857 141.957157 
L 228.574286 133.201674 
L 230.965714 126.470865 
L 233.357143 118.878863 
L 235.748571 113.94672 
L 238.14 111.85191 
L 240.531429 110.332286 
L 242.922857 104.927556 
L 245.314286 97.343924 
L 247.705714 101.184546 
L 250.097143 110.585187 
L 252.488571 125.517965 
L 254.88 142.955131 
L 257.271429 150.641433 
L 259.662857 152.581764 
L 262.054286 153.33001 
L 264.445714 151.562764 
L 266.837143 152.833917 
L 269.228571 153.028801 
L 271.62 152.498256 
L 274.011429 151.647985 
L 276.402857 149.541281 
L 278.794286 149.458802 
L 281.185714 150.64491 
L 283.577143 152.981555 
L 285.968571 154.566971 
L 288.36 155.569969 
L 290.751429 156.366512 
L 295.534286 158.783755 
L 297.925714 159.428556 
L 300.317143 159.626236 
L 302.708571 159.580158 
L 305.1 159.656455 
L 307.491429 158.524682 
L 309.882857 158.464874 
L 312.274286 158.784305 
L 314.665714 157.815397 
L 317.057143 159.305808 
L 319.448571 159.404013 
L 321.84 160.402913 
L 324.231429 161.572338 
L 329.014286 161.04569 
L 333.797143 158.489637 
L 338.58 157.984003 
L 340.971429 158.753661 
L 343.362857 161.432627 
L 345.754286 162.387892 
L 348.145714 163.065992 
L 350.537143 163.019547 
L 352.928571 161.776382 
L 355.32 161.969324 
L 357.711429 160.768722 
L 360.102857 159.862194 
L 362.494286 160.214342 
L 364.885714 160.294447 
L 372.06 162.020607 
L 374.451429 161.846591 
L 379.234286 164.131117 
L 381.625714 163.833323 
L 384.017143 164.026383 
L 386.408571 163.200661 
L 391.191429 160.985908 
L 393.582857 160.054863 
L 395.974286 160.311177 
L 398.365714 159.999889 
L 400.757143 161.225334 
L 403.148571 161.891587 
L 405.54 162.194326 
L 407.931429 163.144666 
L 410.322857 162.666719 
L 412.714286 146.212786 
L 415.105714 146.897486 
L 417.497143 147.430246 
L 419.888571 148.160301 
L 422.28 164.96896 
L 424.671429 165.237539 
L 427.062857 165.190285 
L 429.454286 164.867555 
L 431.845714 164.845775 
L 433 164.673147 
L 433 164.673147 
" clip-path="url(#p747edd0915)" style="fill: none; stroke: #1f77b4; stroke-width: 2; stroke-linecap: square"/>
   </g>
   <g id="line2d_14">
    <path d="M 54.002391 162.826588 
L 54.956571 165.967474 
L 55.434857 167.197133 
L 55.913143 166.692802 
L 56.391429 168.084134 
L 56.869714 168.076598 
L 57.348 167.679964 
L 57.826286 167.04976 
L 58.304571 167.18589 
L 58.782857 166.593327 
L 59.261143 166.41385 
L 59.739429 165.785246 
L 60.217714 165.673992 
L 60.696 165.231532 
L 61.174286 164.977337 
L 61.652571 165.43228 
L 62.130857 165.515673 
L 62.609143 164.889504 
L 64.044 164.459482 
L 64.522286 163.523598 
L 65.478857 162.757349 
L 65.957143 162.308754 
L 66.435429 162.210194 
L 67.392 161.148433 
L 68.348571 161.070571 
L 68.826857 160.827991 
L 69.305143 160.943754 
L 69.783429 161.174145 
L 71.218286 159.910365 
L 71.696571 160.020424 
L 72.174857 159.542486 
L 73.131429 158.225534 
L 73.609714 157.939789 
L 74.088 158.255422 
L 74.566286 157.907076 
L 75.044571 157.804257 
L 75.522857 157.399481 
L 76.001143 157.752748 
L 76.479429 156.699467 
L 76.957714 156.290966 
L 78.392571 156.67335 
L 78.870857 157.246599 
L 79.349143 158.522744 
L 79.827429 158.955763 
L 80.305714 159.595056 
L 80.784 159.344823 
L 81.262286 159.550346 
L 82.218857 160.890945 
L 82.697143 161.666978 
L 83.175429 161.6952 
L 83.653714 162.848942 
L 84.132 163.693227 
L 84.610286 163.686118 
L 85.088571 164.25385 
L 85.566857 163.854942 
L 86.045143 164.825443 
L 87.001714 164.838688 
L 87.48 165.448761 
L 88.436571 165.80396 
L 88.914857 165.677811 
L 89.871429 164.911788 
L 90.349714 165.385003 
L 91.306286 165.563179 
L 91.784571 165.481675 
L 92.262857 165.663126 
L 93.219429 165.531825 
L 94.654286 165.81912 
L 95.132571 166.142428 
L 95.610857 166.20873 
L 96.089143 166.623977 
L 97.045714 167.817086 
L 97.524 167.885892 
L 98.002286 167.78836 
L 98.480571 167.379709 
L 98.958857 167.291361 
L 99.437143 167.080647 
L 99.915429 166.486941 
L 100.393714 166.295783 
L 101.350286 165.382837 
L 102.306857 163.357998 
L 102.785143 163.302642 
L 103.741714 162.673675 
L 104.22 163.115813 
L 104.698286 163.117197 
L 106.133143 165.00362 
L 107.089714 165.58799 
L 108.046286 164.80556 
L 108.524571 163.871441 
L 109.002857 163.474403 
L 110.437714 161.262145 
L 111.394286 160.125019 
L 112.829143 156.666063 
L 113.307429 155.589204 
L 113.785714 154.853322 
L 114.264 154.492695 
L 114.742286 154.438546 
L 116.177143 153.046432 
L 117.133714 151.546385 
L 117.612 149.884645 
L 118.090286 149.281479 
L 118.568571 147.851901 
L 119.046857 145.434016 
L 120.003429 130.954097 
L 120.481714 125.95759 
L 120.96 123.203391 
L 121.438286 119.060914 
L 121.916571 111.871971 
L 122.394857 102.661899 
L 122.873143 97.610381 
L 123.351429 95.360757 
L 123.829714 94.423658 
L 124.308 94.18359 
L 124.786286 95.01795 
L 125.264571 95.147016 
L 125.742857 95.657407 
L 126.221143 97.044503 
L 126.699429 100.813964 
L 128.134286 115.566049 
L 128.612571 124.393657 
L 130.047429 157.634595 
L 130.525714 162.821411 
L 131.004 164.6654 
L 131.960571 165.897337 
L 132.438857 165.617181 
L 132.917143 165.642014 
L 133.395429 167.659998 
L 133.873714 168.569481 
L 134.352 169.085173 
L 134.830286 168.943099 
L 135.308571 169.301595 
L 135.786857 169.249399 
L 136.265143 169.072819 
L 137.7 167.951983 
L 138.178286 167.893084 
L 138.656571 167.44002 
L 139.134857 167.501736 
L 139.613143 165.874392 
L 140.091429 165.353785 
L 140.569714 166.373195 
L 141.048 166.851922 
L 142.004571 167.391394 
L 142.482857 167.923471 
L 142.961143 168.063634 
L 143.439429 168.38586 
L 144.396 168.478711 
L 145.352571 168.259226 
L 145.830857 168.648827 
L 146.309143 168.729447 
L 146.787429 168.580284 
L 148.222286 168.75089 
L 148.700571 168.439934 
L 149.178857 168.524673 
L 149.657143 168.304641 
L 150.135429 168.2794 
L 151.092 168.762876 
L 152.048571 168.758698 
L 152.526857 169.294757 
L 153.005143 168.44831 
L 153.483429 168.824483 
L 153.961714 168.705221 
L 154.44 168.403458 
L 154.918286 168.884394 
L 155.396571 168.604297 
L 155.874857 169.020344 
L 156.831429 168.787673 
L 157.788 169.130476 
L 158.266286 169.164396 
L 158.744571 168.939715 
L 159.222857 169.031586 
L 159.701143 169.008431 
L 160.179429 168.784378 
L 161.136 168.72595 
L 161.614286 168.353036 
L 162.092571 168.488936 
L 163.049143 168.022983 
L 163.527429 167.971027 
L 164.005714 168.283953 
L 164.962286 167.846517 
L 165.918857 167.963874 
L 166.397143 167.846776 
L 166.875429 167.92008 
L 167.353714 167.843009 
L 170.223429 169.128196 
L 171.18 169.114146 
L 171.658286 169.0696 
L 172.136571 169.621714 
L 173.093143 169.724978 
L 173.571429 169.699628 
L 174.049714 169.805774 
L 174.528 169.579963 
L 175.006286 170.099715 
L 175.484571 170.100073 
L 177.876 169.131916 
L 178.354286 168.616477 
L 178.832571 168.410768 
L 179.789143 168.776647 
L 180.267429 168.43772 
L 181.702286 168.096453 
L 182.658857 167.918968 
L 183.137143 167.9319 
L 183.615429 168.183299 
L 184.093714 168.731229 
L 184.572 168.873197 
L 185.050286 169.1941 
L 185.528571 169.274888 
L 186.485143 169.042887 
L 186.963429 169.108958 
L 187.92 168.967409 
L 188.398286 168.984805 
L 188.876571 168.87184 
L 189.833143 169.22131 
L 190.311429 169.171998 
L 190.789714 169.301636 
L 192.224571 168.601683 
L 192.702857 168.949857 
L 193.181143 168.926217 
L 193.659429 169.302013 
L 194.616 169.215207 
L 195.094286 169.090433 
L 196.050857 169.065284 
L 197.485714 168.657566 
L 197.964 168.914314 
L 198.442286 169.392646 
L 198.920571 169.567026 
L 199.398857 169.340754 
L 200.833714 169.148495 
L 201.312 169.183702 
L 203.703429 168.550114 
L 204.181714 168.135643 
L 205.138286 168.301482 
L 205.616571 167.886579 
L 206.094857 167.996919 
L 207.051429 167.838283 
L 208.964571 167.905509 
L 209.442857 167.792889 
L 209.921143 168.154365 
L 210.399429 168.015195 
L 210.877714 168.071494 
L 211.356 168.3721 
L 211.834286 168.390717 
L 212.790857 168.66265 
L 213.269143 168.653143 
L 213.747429 168.838403 
L 214.225714 168.755061 
L 214.704 168.826839 
L 215.182286 168.676762 
L 216.138857 168.814962 
L 216.617143 169.059705 
L 217.095429 168.885277 
L 217.573714 168.967655 
L 218.052 169.28618 
L 218.530286 169.135852 
L 219.008571 169.177206 
L 219.486857 169.552781 
L 219.965143 169.695474 
L 220.443429 169.530807 
L 220.921714 169.631954 
L 221.4 169.87174 
L 221.878286 169.816319 
L 222.356571 170.107719 
L 223.313143 170.00834 
L 224.269714 170.407936 
L 226.182857 171.100102 
L 226.661143 170.896838 
L 227.139429 170.938086 
L 227.617714 171.105579 
L 228.096 171.087713 
L 228.574286 170.792421 
L 229.052571 170.816547 
L 229.530857 170.649367 
L 230.487429 169.979206 
L 230.965714 169.969427 
L 231.444 169.694672 
L 232.400571 169.638833 
L 233.835429 169.315185 
L 234.313714 169.611069 
L 234.792 169.76374 
L 235.270286 169.676837 
L 235.748571 170.021544 
L 236.226857 169.900462 
L 236.705143 169.959122 
L 237.183429 170.207567 
L 238.14 170.378458 
L 238.618286 170.486578 
L 239.574857 170.48548 
L 240.531429 170.429041 
L 241.488 171.044436 
L 241.966286 170.905115 
L 244.836 170.966087 
L 245.792571 170.931053 
L 246.270857 171.098326 
L 247.705714 171.088199 
L 248.184 171.273018 
L 249.140571 171.177261 
L 249.618857 170.633119 
L 250.575429 170.83529 
L 251.053714 170.671793 
L 251.532 170.793073 
L 252.966857 170.845182 
L 253.445143 171.10016 
L 253.923429 171.116568 
L 254.88 170.811359 
L 255.358286 170.985364 
L 255.836571 170.982154 
L 256.314857 171.09957 
L 257.749714 171.030425 
L 259.184571 171.204069 
L 260.141143 171.18586 
L 260.619429 171.24322 
L 261.097714 171.098371 
L 262.054286 171.23749 
L 262.532571 171.117354 
L 263.489143 171.086567 
L 264.445714 170.940923 
L 265.402286 170.92374 
L 267.315429 170.861221 
L 269.228571 171.185652 
L 269.706857 171.06508 
L 271.62 171.445973 
L 273.533143 171.260958 
L 274.489714 171.494603 
L 276.402857 171.585942 
L 276.881143 171.444464 
L 278.794286 171.562055 
L 279.272571 171.303616 
L 279.750857 171.308432 
L 280.229143 171.18582 
L 281.185714 171.32984 
L 281.664 171.106761 
L 282.620571 171.192141 
L 283.098857 170.912584 
L 283.577143 171.168733 
L 284.055429 171.723692 
L 285.012 171.732503 
L 288.36 171.696539 
L 289.794857 171.584837 
L 291.708 171.461199 
L 292.664571 171.502629 
L 293.142857 171.252654 
L 296.490857 171.531339 
L 296.969143 171.574659 
L 297.925714 171.206669 
L 300.795429 171.073568 
L 301.273714 171.333283 
L 304.143429 171.486961 
L 306.056571 171.75694 
L 307.969714 171.836291 
L 310.361143 171.387181 
L 310.839429 171.561319 
L 311.317714 171.338312 
L 314.187429 171.829722 
L 314.665714 171.737128 
L 315.144 171.936413 
L 316.100571 171.850035 
L 317.535429 171.626601 
L 318.013714 171.721074 
L 318.492 171.352185 
L 318.970286 171.190088 
L 319.448571 171.331548 
L 320.405143 171.203121 
L 320.883429 171.26504 
L 321.361714 171.143066 
L 321.84 171.15527 
L 322.318286 171.301264 
L 322.796571 171.267408 
L 323.274857 171.054619 
L 324.709714 171.098044 
L 325.188 171.054104 
L 325.666286 171.378879 
L 326.144571 171.448345 
L 326.622857 171.349637 
L 327.101143 171.484076 
L 328.536 171.4065 
L 329.014286 171.559282 
L 329.492571 171.447266 
L 331.405714 171.619363 
L 332.362286 171.605426 
L 332.840571 171.406552 
L 333.797143 171.39496 
L 334.753714 171.500769 
L 335.710286 171.648649 
L 341.928 171.548512 
L 342.406286 171.380162 
L 343.362857 171.27119 
L 344.319429 171.390826 
L 345.754286 171.224447 
L 346.710857 170.887473 
L 348.145714 171.19569 
L 348.624 171.083372 
L 349.102286 171.135585 
L 349.580571 171.44545 
L 350.058857 171.136909 
L 350.537143 171.142735 
L 352.450286 171.697978 
L 352.928571 171.724316 
L 354.841714 171.206721 
L 355.32 171.283179 
L 355.798286 171.23161 
L 356.276571 171.03178 
L 356.754857 171.131155 
L 357.233143 170.762572 
L 358.189714 170.654508 
L 358.668 170.757099 
L 359.146286 170.717068 
L 360.581143 171.042536 
L 361.059429 171.012533 
L 362.016 171.274563 
L 362.494286 171.372905 
L 362.972571 171.162531 
L 363.450857 171.214991 
L 363.929143 171.024455 
L 364.885714 171.313609 
L 366.320571 171.141222 
L 367.277143 171.302252 
L 368.233714 171.388286 
L 369.668571 171.464 
L 370.146857 171.647261 
L 371.581714 171.804793 
L 372.06 171.717305 
L 373.494857 171.95772 
L 374.451429 171.918458 
L 376.364571 171.9243 
L 377.321143 172.095833 
L 379.234286 171.768468 
L 379.712571 171.743023 
L 380.669143 171.560437 
L 382.104 171.278458 
L 384.017143 171.574405 
L 384.495429 171.845498 
L 384.973714 171.965866 
L 385.930286 172.026112 
L 386.408571 171.784772 
L 387.365143 171.887451 
L 387.843429 171.65586 
L 389.756571 171.643396 
L 391.669714 170.971418 
L 392.148 171.167629 
L 394.061143 171.137263 
L 395.017714 171.473647 
L 395.496 171.519078 
L 395.974286 171.407372 
L 396.452571 171.63645 
L 396.930857 171.661224 
L 397.409143 171.889115 
L 398.365714 171.614435 
L 398.844 171.762137 
L 399.800571 171.59024 
L 400.278857 171.556069 
L 401.235429 171.639308 
L 402.192 171.554122 
L 404.105143 171.654638 
L 404.583429 171.879037 
L 405.061714 171.925952 
L 405.061714 171.925952 
" clip-path="url(#p747edd0915)" style="fill: none; stroke: #d62728; stroke-width: 2; stroke-linecap: square"/>
   </g>
   <g id="patch_3">
    <path d="M 54 172.8 
L 54 25.92 
" style="fill: none; stroke: #000000; stroke-width: 0.8; stroke-linejoin: miter; stroke-linecap: square"/>
   </g>
   <g id="patch_4">
    <path d="M 388.8 172.8 
L 388.8 25.92 
" style="fill: none; stroke: #000000; stroke-width: 0.8; stroke-linejoin: miter; stroke-linecap: square"/>
   </g>
   <g id="patch_5">
    <path d="M 54 172.8 
L 388.8 172.8 
" style="fill: none; stroke: #000000; stroke-width: 0.8; stroke-linejoin: miter; stroke-linecap: square"/>
   </g>
   <g id="patch_6">
    <path d="M 54 25.92 
L 388.8 25.92 
" style="fill: none; stroke: #000000; stroke-width: 0.8; stroke-linejoin: miter; stroke-linecap: square"/>
   </g>
   <g id="legend_1">
    <g id="patch_7">
     <path d="M 260.228 128.736 
L 380.528 128.736 
Q 382.528 128.736 382.528 126.736 
L 382.528 98.37975 
Q 382.528 96.37975 380.528 96.37975 
L 260.228 96.37975 
Q 258.228 96.37975 258.228 98.37975 
L 258.228 126.736 
Q 258.228 128.736 260.228 128.736 
z
" style="fill: #ffffff; stroke: #cccccc; stroke-linejoin: miter"/>
    </g>
    <g id="line2d_15">
     <path d="M 262.228 104.478187 
L 272.228 104.478187 
L 282.228 104.478187 
" style="fill: none; stroke: #1f77b4; stroke-width: 2; stroke-linecap: square"/>
    </g>
    <g id="text_15">
     <!-- Neural Network $w$ -->
     <g transform="translate(290.228 107.978187) scale(0.1 -0.1)">
      <defs>
       <path id="DejaVuSans-4e" d="M 628 4666 
L 1478 4666 
L 3547 763 
L 3547 4666 
L 4159 4666 
L 4159 0 
L 3309 0 
L 1241 3903 
L 1241 0 
L 628 0 
L 628 4666 
z
" transform="scale(0.015625)"/>
       <path id="DejaVuSans-75" d="M 544 1381 
L 544 3500 
L 1119 3500 
L 1119 1403 
Q 1119 906 1312 657 
Q 1506 409 1894 409 
Q 2359 409 2629 706 
Q 2900 1003 2900 1516 
L 2900 3500 
L 3475 3500 
L 3475 0 
L 2900 0 
L 2900 538 
Q 2691 219 2414 64 
Q 2138 -91 1772 -91 
Q 1169 -91 856 284 
Q 544 659 544 1381 
z
M 1991 3584 
L 1991 3584 
z
" transform="scale(0.015625)"/>
       <path id="DejaVuSans-6c" d="M 603 4863 
L 1178 4863 
L 1178 0 
L 603 0 
L 603 4863 
z
" transform="scale(0.015625)"/>
       <path id="DejaVuSans-77" d="M 269 3500 
L 844 3500 
L 1563 769 
L 2278 3500 
L 2956 3500 
L 3675 769 
L 4391 3500 
L 4966 3500 
L 4050 0 
L 3372 0 
L 2619 2869 
L 1863 0 
L 1184 0 
L 269 3500 
z
" transform="scale(0.015625)"/>
       <path id="DejaVuSans-6f" d="M 1959 3097 
Q 1497 3097 1228 2736 
Q 959 2375 959 1747 
Q 959 1119 1226 758 
Q 1494 397 1959 397 
Q 2419 397 2687 759 
Q 2956 1122 2956 1747 
Q 2956 2369 2687 2733 
Q 2419 3097 1959 3097 
z
M 1959 3584 
Q 2709 3584 3137 3096 
Q 3566 2609 3566 1747 
Q 3566 888 3137 398 
Q 2709 -91 1959 -91 
Q 1206 -91 779 398 
Q 353 888 353 1747 
Q 353 2609 779 3096 
Q 1206 3584 1959 3584 
z
" transform="scale(0.015625)"/>
       <path id="DejaVuSans-6b" d="M 581 4863 
L 1159 4863 
L 1159 1991 
L 2875 3500 
L 3609 3500 
L 1753 1863 
L 3688 0 
L 2938 0 
L 1159 1709 
L 1159 0 
L 581 0 
L 581 4863 
z
" transform="scale(0.015625)"/>
       <path id="Cmmi10-77" d="M 691 744 
Q 691 878 727 1053 
Q 763 1228 806 1364 
Q 850 1500 954 1781 
Q 1059 2063 1069 2088 
Q 1153 2322 1153 2472 
Q 1153 2663 1013 2663 
Q 759 2663 595 2402 
Q 431 2141 353 1819 
Q 341 1778 300 1778 
L 225 1778 
Q 172 1778 172 1838 
L 172 1856 
Q 275 2238 487 2533 
Q 700 2828 1025 2828 
Q 1253 2828 1411 2678 
Q 1569 2528 1569 2297 
Q 1569 2178 1516 2047 
Q 1441 1853 1339 1581 
Q 1238 1309 1181 1087 
Q 1125 866 1125 659 
Q 1125 409 1256 253 
Q 1388 97 1638 97 
Q 1978 97 2203 616 
Q 2194 653 2194 722 
Q 2194 894 2247 1113 
L 2606 2553 
Q 2628 2638 2706 2698 
Q 2784 2759 2875 2759 
Q 2950 2759 3008 2709 
Q 3066 2659 3066 2578 
Q 3066 2541 3059 2528 
L 2700 1100 
Q 2638 844 2638 641 
Q 2638 400 2748 248 
Q 2859 97 3097 97 
Q 3509 97 3775 641 
Q 3875 834 3998 1212 
Q 4122 1591 4122 1791 
Q 4122 1975 4062 2083 
Q 4003 2191 3898 2316 
Q 3794 2441 3794 2503 
Q 3794 2625 3898 2729 
Q 4003 2834 4128 2834 
Q 4281 2834 4348 2693 
Q 4416 2553 4416 2375 
Q 4416 2159 4344 1826 
Q 4272 1494 4162 1158 
Q 4053 822 3956 622 
Q 3606 -72 3084 -72 
Q 2816 -72 2594 31 
Q 2372 134 2266 359 
Q 2163 175 1995 51 
Q 1828 -72 1625 -72 
Q 1203 -72 947 129 
Q 691 331 691 744 
z
" transform="scale(0.015625)"/>
      </defs>
      <use xlink:href="#DejaVuSans-4e" transform="translate(0 0.015625)"/>
      <use xlink:href="#DejaVuSans-65" transform="translate(74.804688 0.015625)"/>
      <use xlink:href="#DejaVuSans-75" transform="translate(136.328125 0.015625)"/>
      <use xlink:href="#DejaVuSans-72" transform="translate(199.707031 0.015625)"/>
      <use xlink:href="#DejaVuSans-61" transform="translate(240.820312 0.015625)"/>
      <use xlink:href="#DejaVuSans-6c" transform="translate(302.099609 0.015625)"/>
      <use xlink:href="#DejaVuSans-20" transform="translate(329.882812 0.015625)"/>
      <use xlink:href="#DejaVuSans-4e" transform="translate(361.669922 0.015625)"/>
      <use xlink:href="#DejaVuSans-65" transform="translate(436.474609 0.015625)"/>
      <use xlink:href="#DejaVuSans-74" transform="translate(497.998047 0.015625)"/>
      <use xlink:href="#DejaVuSans-77" transform="translate(537.207031 0.015625)"/>
      <use xlink:href="#DejaVuSans-6f" transform="translate(618.994141 0.015625)"/>
      <use xlink:href="#DejaVuSans-72" transform="translate(680.175781 0.015625)"/>
      <use xlink:href="#DejaVuSans-6b" transform="translate(721.289062 0.015625)"/>
      <use xlink:href="#DejaVuSans-20" transform="translate(779.199219 0.015625)"/>
      <use xlink:href="#Cmmi10-77" transform="translate(810.986328 0.015625)"/>
     </g>
    </g>
    <g id="line2d_16">
     <path d="M 262.228 119.156312 
L 272.228 119.156312 
L 282.228 119.156312 
" style="fill: none; stroke: #d62728; stroke-width: 2; stroke-linecap: square"/>
    </g>
    <g id="text_16">
     <!-- Sensor $\epsilon$ -->
     <g transform="translate(290.228 122.656312) scale(0.1 -0.1)">
      <defs>
       <path id="Cmmi10-b2" d="M 788 903 
Q 788 688 866 503 
Q 944 319 1101 208 
Q 1259 97 1472 97 
Q 1616 97 1778 159 
Q 1941 222 2080 297 
Q 2219 372 2222 372 
Q 2256 372 2276 333 
Q 2297 294 2297 256 
Q 2297 222 2278 213 
Q 1878 -72 1466 -72 
Q 1128 -72 856 86 
Q 584 244 436 525 
Q 288 806 288 1141 
Q 288 1472 422 1770 
Q 556 2069 793 2291 
Q 1031 2513 1331 2636 
Q 1631 2759 1959 2759 
L 2322 2759 
Q 2419 2759 2419 2663 
Q 2419 2609 2383 2571 
Q 2347 2534 2297 2534 
L 1947 2534 
Q 1691 2534 1483 2421 
Q 1275 2309 1134 2109 
Q 994 1909 916 1656 
L 2047 1656 
Q 2091 1656 2117 1629 
Q 2144 1603 2144 1563 
Q 2144 1509 2109 1471 
Q 2075 1434 2022 1434 
L 856 1434 
Q 788 1103 788 903 
z
" transform="scale(0.015625)"/>
      </defs>
      <use xlink:href="#DejaVuSans-53" transform="translate(0 0.78125)"/>
      <use xlink:href="#DejaVuSans-65" transform="translate(63.476562 0.78125)"/>
      <use xlink:href="#DejaVuSans-6e" transform="translate(125 0.78125)"/>
      <use xlink:href="#DejaVuSans-73" transform="translate(188.378906 0.78125)"/>
      <use xlink:href="#DejaVuSans-6f" transform="translate(240.478516 0.78125)"/>
      <use xlink:href="#DejaVuSans-72" transform="translate(301.660156 0.78125)"/>
      <use xlink:href="#DejaVuSans-20" transform="translate(342.773438 0.78125)"/>
      <use xlink:href="#Cmmi10-b2" transform="translate(374.560547 0.78125)"/>
     </g>
    </g>
   </g>
  </g>
 </g>
 <defs>
  <clipPath id="p747edd0915">
   <rect x="54" y="25.92" width="334.8" height="146.88"/>
  </clipPath>
 </defs>
</svg>
