<?xml version="1.0" encoding="utf-8" standalone="no"?>
<!DOCTYPE svg PUBLIC "-//W3C//DTD SVG 1.1//EN"
  "http://www.w3.org/Graphics/SVG/1.1/DTD/svg11.dtd">
<svg xmlns:xlink="http://www.w3.org/1999/xlink" width="432pt" height="216pt" viewBox="0 0 432 216" xmlns="http://www.w3.org/2000/svg" version="1.1">
 <metadata>
  <rdf:RDF xmlns:dc="http://purl.org/dc/elements/1.1/" xmlns:cc="http://creativecommons.org/ns#" xmlns:rdf="http://www.w3.org/1999/02/22-rdf-syntax-ns#">
   <cc:Work>
    <dc:type rdf:resource="http://purl.org/dc/dcmitype/StillImage"/>
    <dc:date>2023-11-30T09:25:51.669973</dc:date>
    <dc:format>image/svg+xml</dc:format>
    <dc:creator>
     <cc:Agent>
      <dc:title>Matplotlib v3.7.1, https://matplotlib.org/</dc:title>
     </cc:Agent>
    </dc:creator>
   </cc:Work>
  </rdf:RDF>
 </metadata>
 <defs>
  <style type="text/css">*{stroke-linejoin: round; stroke-linecap: butt}</style>
 </defs>
 <g id="figure_1">
  <g id="patch_1">
   <path d="M 0 216 
L 432 216 
L 432 0 
L 0 0 
z
" style="fill: #ffffff"/>
  </g>
  <g id="axes_1">
   <g id="PolyCollection_1">
    <defs>
     <path id="m414264abce" d="M 50.0679 -154.425782 
L 50.0679 -141.432977 
L 51.7558 -141.432977 
L 53.4437 -141.432977 
L 55.1316 -141.432977 
L 56.8195 -141.432977 
L 58.5074 -141.432977 
L 60.1953 -141.432977 
L 61.8832 -141.432977 
L 63.5711 -141.432977 
L 65.259 -141.432977 
L 66.9469 -141.432977 
L 68.6348 -141.432977 
L 70.3227 -141.432977 
L 72.0106 -141.432977 
L 73.6985 -141.432977 
L 75.3864 -141.432977 
L 77.0743 -140.98879 
L 78.7622 -140.636667 
L 80.4501 -140.296016 
L 82.138 -140.056456 
L 83.8259 -140.146865 
L 85.5138 -140.236571 
L 87.2017 -140.002069 
L 88.8896 -139.973475 
L 90.5775 -140.295609 
L 92.2654 -140.013032 
L 93.9533 -140.450352 
L 95.6412 -140.361013 
L 97.3291 -140.010964 
L 99.017 -140.268557 
L 100.7049 -139.849723 
L 102.3928 -92.274864 
L 104.0807 -70.032892 
L 105.7686 -51.346387 
L 107.4565 -36.314328 
L 109.1444 -23.619067 
L 110.8323 -20.065528 
L 112.5202 -17.428501 
L 114.2081 -15.752883 
L 115.896 -14.745364 
L 117.5839 -14.632295 
L 119.2718 -15.699764 
L 120.9597 -18.454668 
L 122.6476 -22.558257 
L 124.3355 -29.76512 
L 126.0234 -41.953803 
L 127.7113 -44.507343 
L 129.3992 -47.836677 
L 131.0871 -53.902846 
L 132.775 -61.842903 
L 134.4629 -77.022863 
L 136.1508 -74.487382 
L 137.8387 -73.321496 
L 139.5266 -71.5796 
L 141.2145 -70.848686 
L 142.9024 -70.602924 
L 144.5903 -70.18568 
L 146.2782 -70.333392 
L 147.9661 -70.412618 
L 149.654 -70.407925 
L 151.3419 -66.2812 
L 153.0298 -62.96512 
L 154.7177 -60.816907 
L 156.4056 -60.71968 
L 158.0935 -61.226731 
L 159.7814 -62.445702 
L 161.4693 -63.747294 
L 163.1572 -64.280631 
L 164.8451 -66.053339 
L 166.533 -67.718725 
L 168.2209 -69.282399 
L 169.9088 -70.538091 
L 171.5967 -67.053491 
L 173.2846 -64.532677 
L 174.9725 -64.990222 
L 176.6604 -64.774355 
L 178.3483 -64.31883 
L 180.0362 -63.994175 
L 181.7241 -64.278478 
L 183.412 -63.838749 
L 185.0999 -66.038943 
L 186.7878 -64.467998 
L 188.4757 -62.156959 
L 190.1636 -59.222642 
L 191.8515 -56.468376 
L 193.5394 -51.333077 
L 195.2273 -45.79011 
L 196.9152 -42.374267 
L 198.6031 -38.754072 
L 200.291 -35.922387 
L 201.9789 -33.239715 
L 203.6668 -33.064048 
L 205.3547 -33.476096 
L 207.0426 -37.350652 
L 208.7305 -54.597493 
L 210.4184 -65.091065 
L 212.1063 -64.70559 
L 213.7942 -64.594516 
L 215.4821 -64.033658 
L 217.17 -63.800951 
L 218.8579 -63.685096 
L 220.5458 -63.335462 
L 222.2337 -63.369754 
L 223.9216 -63.020834 
L 225.6095 -62.353686 
L 227.2974 -62.080173 
L 228.9853 -63.066112 
L 230.6732 -62.764014 
L 232.3611 -62.965471 
L 234.049 -62.838131 
L 235.7369 -63.738593 
L 237.4248 -63.046198 
L 239.1127 -63.346557 
L 240.8006 -63.357567 
L 242.4885 -63.252081 
L 244.1764 -62.769971 
L 245.8643 -61.551824 
L 247.5522 -61.521963 
L 249.2401 -61.267689 
L 250.928 -61.602427 
L 252.6159 -59.689126 
L 254.3038 -59.177087 
L 255.9917 -59.344877 
L 257.6796 -59.176295 
L 259.3675 -59.341276 
L 261.0554 -59.293357 
L 262.7433 -59.925561 
L 264.4312 -59.925541 
L 266.1191 -59.86006 
L 267.807 -59.840975 
L 269.4949 -59.826907 
L 271.1828 -60.221982 
L 272.8707 -60.271082 
L 274.5586 -60.665972 
L 276.2465 -60.88108 
L 277.9344 -63.215319 
L 279.6223 -64.389496 
L 281.3102 -64.448566 
L 282.9981 -64.298949 
L 284.686 -64.093591 
L 286.3739 -63.456138 
L 288.0618 -62.405962 
L 289.7497 -61.932481 
L 291.4376 -61.263551 
L 293.1255 -60.867101 
L 294.8134 -60.730707 
L 296.5013 -60.567756 
L 298.1892 -60.446175 
L 299.8771 -60.84133 
L 301.565 -60.79832 
L 303.2529 -61.117305 
L 304.9408 -61.18986 
L 306.6287 -60.624428 
L 308.3166 -59.448034 
L 310.0045 -58.234851 
L 311.6924 -57.744229 
L 313.3803 -57.579657 
L 315.0682 -57.070458 
L 316.7561 -57.013105 
L 318.444 -57.005211 
L 320.1319 -57.102017 
L 321.8198 -57.01806 
L 323.5077 -57.182116 
L 325.1956 -57.232804 
L 326.8835 -57.148074 
L 328.5714 -57.23418 
L 330.2593 -57.247441 
L 331.9472 -56.865556 
L 333.6351 -56.946268 
L 335.323 -56.90009 
L 337.0109 -56.937755 
L 338.6988 -56.793173 
L 340.3867 -57.088286 
L 342.0746 -57.080541 
L 343.7625 -57.059097 
L 345.4504 -57.044279 
L 347.1383 -57.150697 
L 348.8262 -57.109546 
L 350.5141 -57.265047 
L 352.202 -57.459999 
L 353.8899 -56.633756 
L 355.5778 -56.63321 
L 357.2657 -57.08134 
L 358.9536 -57.388374 
L 360.6415 -58.310747 
L 362.3294 -58.618743 
L 364.0173 -58.349049 
L 365.7052 -58.194418 
L 367.3931 -57.808666 
L 369.081 -57.648056 
L 370.7689 -57.361714 
L 372.4568 -57.133294 
L 374.1447 -56.114597 
L 375.8326 -55.474703 
L 377.5205 -54.910915 
L 379.2084 -55.449019 
L 380.8963 -55.476931 
L 382.5842 -55.533189 
L 384.2721 -55.745901 
L 385.96 -55.828067 
L 385.96 -61.844327 
L 385.96 -61.844327 
L 384.2721 -62.156154 
L 382.5842 -62.612453 
L 380.8963 -62.86666 
L 379.2084 -63.230978 
L 377.5205 -64.924991 
L 375.8326 -64.911319 
L 374.1447 -64.757196 
L 372.4568 -64.327988 
L 370.7689 -64.384655 
L 369.081 -64.524281 
L 367.3931 -64.682663 
L 365.7052 -64.576719 
L 364.0173 -64.575313 
L 362.3294 -64.420972 
L 360.6415 -64.464642 
L 358.9536 -64.886741 
L 357.2657 -64.790319 
L 355.5778 -64.83796 
L 353.8899 -64.869665 
L 352.202 -63.346167 
L 350.5141 -63.856429 
L 348.8262 -64.451033 
L 347.1383 -64.64276 
L 345.4504 -64.568701 
L 343.7625 -64.486347 
L 342.0746 -64.375607 
L 340.3867 -64.395521 
L 338.6988 -64.356138 
L 337.0109 -64.37755 
L 335.323 -64.384027 
L 333.6351 -64.356966 
L 331.9472 -64.384581 
L 330.2593 -64.284102 
L 328.5714 -64.352926 
L 326.8835 -64.814191 
L 325.1956 -64.521776 
L 323.5077 -64.613648 
L 321.8198 -65.008205 
L 320.1319 -65.379844 
L 318.444 -65.783207 
L 316.7561 -65.962202 
L 315.0682 -66.057511 
L 313.3803 -66.161272 
L 311.6924 -66.211499 
L 310.0045 -66.263785 
L 308.3166 -66.136044 
L 306.6287 -65.751032 
L 304.9408 -65.925004 
L 303.2529 -66.594708 
L 301.565 -67.445071 
L 299.8771 -68.296519 
L 298.1892 -69.420757 
L 296.5013 -69.496436 
L 294.8134 -69.925709 
L 293.1255 -70.28106 
L 291.4376 -70.513914 
L 289.7497 -70.320468 
L 288.0618 -70.210445 
L 286.3739 -69.85777 
L 284.686 -69.521616 
L 282.9981 -69.609068 
L 281.3102 -69.525876 
L 279.6223 -69.54733 
L 277.9344 -70.160063 
L 276.2465 -71.353619 
L 274.5586 -71.839083 
L 272.8707 -72.584505 
L 271.1828 -73.384669 
L 269.4949 -74.468312 
L 267.807 -74.712207 
L 266.1191 -74.761851 
L 264.4312 -74.776346 
L 262.7433 -74.776348 
L 261.0554 -74.814437 
L 259.3675 -74.823723 
L 257.6796 -74.709874 
L 255.9917 -74.749443 
L 254.3038 -74.759589 
L 252.6159 -74.612363 
L 250.928 -73.624056 
L 249.2401 -73.192707 
L 247.5522 -72.168401 
L 245.8643 -71.282636 
L 244.1764 -69.241253 
L 242.4885 -68.364178 
L 240.8006 -68.18592 
L 239.1127 -68.235739 
L 237.4248 -68.918935 
L 235.7369 -68.880515 
L 234.049 -70.56122 
L 232.3611 -70.831261 
L 230.6732 -71.583251 
L 228.9853 -72.17787 
L 227.2974 -74.683865 
L 225.6095 -74.677052 
L 223.9216 -74.62105 
L 222.2337 -74.639869 
L 220.5458 -76.327197 
L 218.8579 -76.286858 
L 217.17 -76.247453 
L 215.4821 -76.840079 
L 213.7942 -76.760938 
L 212.1063 -76.763728 
L 210.4184 -77.233494 
L 208.7305 -92.217888 
L 207.0426 -119.619393 
L 205.3547 -131.5806 
L 203.6668 -139.055886 
L 201.9789 -145.000453 
L 200.291 -149.202583 
L 198.6031 -153.993961 
L 196.9152 -158.651518 
L 195.2273 -161.720909 
L 193.5394 -160.798572 
L 191.8515 -158.83683 
L 190.1636 -157.707736 
L 188.4757 -156.270867 
L 186.7878 -155.031911 
L 185.0999 -154.21877 
L 183.412 -154.352097 
L 181.7241 -146.970468 
L 180.0362 -142.257411 
L 178.3483 -139.077274 
L 176.6604 -135.929033 
L 174.9725 -132.899449 
L 173.2846 -127.336749 
L 171.5967 -118.058606 
L 169.9088 -108.184885 
L 168.2209 -105.707609 
L 166.533 -105.402263 
L 164.8451 -105.582935 
L 163.1572 -106.092974 
L 161.4693 -106.241231 
L 159.7814 -106.567304 
L 158.0935 -105.827993 
L 156.4056 -104.408095 
L 154.7177 -102.648047 
L 153.0298 -98.113272 
L 151.3419 -92.289618 
L 149.654 -85.896375 
L 147.9661 -85.878913 
L 146.2782 -86.180308 
L 144.5903 -87.190292 
L 142.9024 -87.516575 
L 141.2145 -88.027394 
L 139.5266 -88.107116 
L 137.8387 -87.874248 
L 136.1508 -87.756299 
L 134.4629 -86.426446 
L 132.775 -97.92253 
L 131.0871 -101.984823 
L 129.3992 -103.81107 
L 127.7113 -103.237332 
L 126.0234 -102.199705 
L 124.3355 -122.197292 
L 122.6476 -137.507595 
L 120.9597 -149.412495 
L 119.2718 -159.916094 
L 117.5839 -169.096637 
L 115.896 -176.697334 
L 114.2081 -184.043388 
L 112.5202 -190.350419 
L 110.8323 -195.722535 
L 109.1444 -200.537715 
L 107.4565 -200.459609 
L 105.7686 -197.739394 
L 104.0807 -191.482949 
L 102.3928 -181.021902 
L 100.7049 -145.039691 
L 99.017 -144.832577 
L 97.3291 -145.588454 
L 95.6412 -145.800966 
L 93.9533 -145.843132 
L 92.2654 -146.991353 
L 90.5775 -147.617843 
L 88.8896 -148.545129 
L 87.2017 -149.029289 
L 85.5138 -149.267129 
L 83.8259 -149.861075 
L 82.138 -151.094548 
L 80.4501 -152.268674 
L 78.7622 -153.051288 
L 77.0743 -153.671455 
L 75.3864 -154.425782 
L 73.6985 -154.425782 
L 72.0106 -154.425782 
L 70.3227 -154.425782 
L 68.6348 -154.425782 
L 66.9469 -154.425782 
L 65.259 -154.425782 
L 63.5711 -154.425782 
L 61.8832 -154.425782 
L 60.1953 -154.425782 
L 58.5074 -154.425782 
L 56.8195 -154.425782 
L 55.1316 -154.425782 
L 53.4437 -154.425782 
L 51.7558 -154.425782 
L 50.0679 -154.425782 
z
" style="stroke: #1f77b4; stroke-opacity: 0.2; stroke-width: 0.24"/>
    </defs>
    <g clip-path="url(#pb562622461)">
     <use xlink:href="#m414264abce" x="0" y="216" style="fill: #1f77b4; fill-opacity: 0.2; stroke: #1f77b4; stroke-opacity: 0.2; stroke-width: 0.24"/>
    </g>
   </g>
   <g id="matplotlib.axis_1">
    <g id="ytick_1">
     <g id="line2d_1">
      <defs>
       <path id="m3d7ec0725f" d="M 0 0 
L 3.5 0 
" style="stroke: #000000; stroke-width: 0.8"/>
      </defs>
      <g>
       <use xlink:href="#m3d7ec0725f" x="385.96" y="170.788" style="stroke: #000000; stroke-width: 0.8"/>
      </g>
     </g>
     <g id="text_1">
      <!-- 0.0 -->
      <g style="fill: #1f77b4" transform="translate(395.06 173.827375) scale(0.08 -0.08)">
       <defs>
        <path id="DejaVuSans-30" d="M 2034 4250 
Q 1547 4250 1301 3770 
Q 1056 3291 1056 2328 
Q 1056 1369 1301 889 
Q 1547 409 2034 409 
Q 2525 409 2770 889 
Q 3016 1369 3016 2328 
Q 3016 3291 2770 3770 
Q 2525 4250 2034 4250 
z
M 2034 4750 
Q 2819 4750 3233 4129 
Q 3647 3509 3647 2328 
Q 3647 1150 3233 529 
Q 2819 -91 2034 -91 
Q 1250 -91 836 529 
Q 422 1150 422 2328 
Q 422 3509 836 4129 
Q 1250 4750 2034 4750 
z
" transform="scale(0.015625)"/>
        <path id="DejaVuSans-2e" d="M 684 794 
L 1344 794 
L 1344 0 
L 684 0 
L 684 794 
z
" transform="scale(0.015625)"/>
       </defs>
       <use xlink:href="#DejaVuSans-30"/>
       <use xlink:href="#DejaVuSans-2e" x="63.623047"/>
       <use xlink:href="#DejaVuSans-30" x="95.410156"/>
      </g>
     </g>
    </g>
    <g id="ytick_2">
     <g id="line2d_2">
      <g>
       <use xlink:href="#m3d7ec0725f" x="385.96" y="142.222909" style="stroke: #000000; stroke-width: 0.8"/>
      </g>
     </g>
     <g id="text_2">
      <!-- 0.2 -->
      <g style="fill: #1f77b4" transform="translate(395.06 145.262284) scale(0.08 -0.08)">
       <defs>
        <path id="DejaVuSans-32" d="M 1228 531 
L 3431 531 
L 3431 0 
L 469 0 
L 469 531 
Q 828 903 1448 1529 
Q 2069 2156 2228 2338 
Q 2531 2678 2651 2914 
Q 2772 3150 2772 3378 
Q 2772 3750 2511 3984 
Q 2250 4219 1831 4219 
Q 1534 4219 1204 4116 
Q 875 4013 500 3803 
L 500 4441 
Q 881 4594 1212 4672 
Q 1544 4750 1819 4750 
Q 2544 4750 2975 4387 
Q 3406 4025 3406 3419 
Q 3406 3131 3298 2873 
Q 3191 2616 2906 2266 
Q 2828 2175 2409 1742 
Q 1991 1309 1228 531 
z
" transform="scale(0.015625)"/>
       </defs>
       <use xlink:href="#DejaVuSans-30"/>
       <use xlink:href="#DejaVuSans-2e" x="63.623047"/>
       <use xlink:href="#DejaVuSans-32" x="95.410156"/>
      </g>
     </g>
    </g>
    <g id="ytick_3">
     <g id="line2d_3">
      <g>
       <use xlink:href="#m3d7ec0725f" x="385.96" y="113.657818" style="stroke: #000000; stroke-width: 0.8"/>
      </g>
     </g>
     <g id="text_3">
      <!-- 0.4 -->
      <g style="fill: #1f77b4" transform="translate(395.06 116.697193) scale(0.08 -0.08)">
       <defs>
        <path id="DejaVuSans-34" d="M 2419 4116 
L 825 1625 
L 2419 1625 
L 2419 4116 
z
M 2253 4666 
L 3047 4666 
L 3047 1625 
L 3713 1625 
L 3713 1100 
L 3047 1100 
L 3047 0 
L 2419 0 
L 2419 1100 
L 313 1100 
L 313 1709 
L 2253 4666 
z
" transform="scale(0.015625)"/>
       </defs>
       <use xlink:href="#DejaVuSans-30"/>
       <use xlink:href="#DejaVuSans-2e" x="63.623047"/>
       <use xlink:href="#DejaVuSans-34" x="95.410156"/>
      </g>
     </g>
    </g>
    <g id="ytick_4">
     <g id="line2d_4">
      <g>
       <use xlink:href="#m3d7ec0725f" x="385.96" y="85.092727" style="stroke: #000000; stroke-width: 0.8"/>
      </g>
     </g>
     <g id="text_4">
      <!-- 0.6 -->
      <g style="fill: #1f77b4" transform="translate(395.06 88.132102) scale(0.08 -0.08)">
       <defs>
        <path id="DejaVuSans-36" d="M 2113 2584 
Q 1688 2584 1439 2293 
Q 1191 2003 1191 1497 
Q 1191 994 1439 701 
Q 1688 409 2113 409 
Q 2538 409 2786 701 
Q 3034 994 3034 1497 
Q 3034 2003 2786 2293 
Q 2538 2584 2113 2584 
z
M 3366 4563 
L 3366 3988 
Q 3128 4100 2886 4159 
Q 2644 4219 2406 4219 
Q 1781 4219 1451 3797 
Q 1122 3375 1075 2522 
Q 1259 2794 1537 2939 
Q 1816 3084 2150 3084 
Q 2853 3084 3261 2657 
Q 3669 2231 3669 1497 
Q 3669 778 3244 343 
Q 2819 -91 2113 -91 
Q 1303 -91 875 529 
Q 447 1150 447 2328 
Q 447 3434 972 4092 
Q 1497 4750 2381 4750 
Q 2619 4750 2861 4703 
Q 3103 4656 3366 4563 
z
" transform="scale(0.015625)"/>
       </defs>
       <use xlink:href="#DejaVuSans-30"/>
       <use xlink:href="#DejaVuSans-2e" x="63.623047"/>
       <use xlink:href="#DejaVuSans-36" x="95.410156"/>
      </g>
     </g>
    </g>
    <g id="ytick_5">
     <g id="line2d_5">
      <g>
       <use xlink:href="#m3d7ec0725f" x="385.96" y="56.527636" style="stroke: #000000; stroke-width: 0.8"/>
      </g>
     </g>
     <g id="text_5">
      <!-- 0.8 -->
      <g style="fill: #1f77b4" transform="translate(395.06 59.567011) scale(0.08 -0.08)">
       <defs>
        <path id="DejaVuSans-38" d="M 2034 2216 
Q 1584 2216 1326 1975 
Q 1069 1734 1069 1313 
Q 1069 891 1326 650 
Q 1584 409 2034 409 
Q 2484 409 2743 651 
Q 3003 894 3003 1313 
Q 3003 1734 2745 1975 
Q 2488 2216 2034 2216 
z
M 1403 2484 
Q 997 2584 770 2862 
Q 544 3141 544 3541 
Q 544 4100 942 4425 
Q 1341 4750 2034 4750 
Q 2731 4750 3128 4425 
Q 3525 4100 3525 3541 
Q 3525 3141 3298 2862 
Q 3072 2584 2669 2484 
Q 3125 2378 3379 2068 
Q 3634 1759 3634 1313 
Q 3634 634 3220 271 
Q 2806 -91 2034 -91 
Q 1263 -91 848 271 
Q 434 634 434 1313 
Q 434 1759 690 2068 
Q 947 2378 1403 2484 
z
M 1172 3481 
Q 1172 3119 1398 2916 
Q 1625 2713 2034 2713 
Q 2441 2713 2670 2916 
Q 2900 3119 2900 3481 
Q 2900 3844 2670 4047 
Q 2441 4250 2034 4250 
Q 1625 4250 1398 4047 
Q 1172 3844 1172 3481 
z
" transform="scale(0.015625)"/>
       </defs>
       <use xlink:href="#DejaVuSans-30"/>
       <use xlink:href="#DejaVuSans-2e" x="63.623047"/>
       <use xlink:href="#DejaVuSans-38" x="95.410156"/>
      </g>
     </g>
    </g>
    <g id="ytick_6">
     <g id="line2d_6">
      <g>
       <use xlink:href="#m3d7ec0725f" x="385.96" y="27.962545" style="stroke: #000000; stroke-width: 0.8"/>
      </g>
     </g>
     <g id="text_6">
      <!-- 1.0 -->
      <g style="fill: #1f77b4" transform="translate(395.06 31.00192) scale(0.08 -0.08)">
       <defs>
        <path id="DejaVuSans-31" d="M 794 531 
L 1825 531 
L 1825 4091 
L 703 3866 
L 703 4441 
L 1819 4666 
L 2450 4666 
L 2450 531 
L 3481 531 
L 3481 0 
L 794 0 
L 794 531 
z
" transform="scale(0.015625)"/>
       </defs>
       <use xlink:href="#DejaVuSans-31"/>
       <use xlink:href="#DejaVuSans-2e" x="63.623047"/>
       <use xlink:href="#DejaVuSans-30" x="95.410156"/>
      </g>
     </g>
    </g>
    <g id="text_7">
     <!-- Loss -->
     <g style="fill: #1f77b4" transform="translate(418.469125 101.885125) rotate(-90) scale(0.088 -0.088)">
      <defs>
       <path id="DejaVuSans-4c" d="M 628 4666 
L 1259 4666 
L 1259 531 
L 3531 531 
L 3531 0 
L 628 0 
L 628 4666 
z
" transform="scale(0.015625)"/>
       <path id="DejaVuSans-6f" d="M 1959 3097 
Q 1497 3097 1228 2736 
Q 959 2375 959 1747 
Q 959 1119 1226 758 
Q 1494 397 1959 397 
Q 2419 397 2687 759 
Q 2956 1122 2956 1747 
Q 2956 2369 2687 2733 
Q 2419 3097 1959 3097 
z
M 1959 3584 
Q 2709 3584 3137 3096 
Q 3566 2609 3566 1747 
Q 3566 888 3137 398 
Q 2709 -91 1959 -91 
Q 1206 -91 779 398 
Q 353 888 353 1747 
Q 353 2609 779 3096 
Q 1206 3584 1959 3584 
z
" transform="scale(0.015625)"/>
       <path id="DejaVuSans-73" d="M 2834 3397 
L 2834 2853 
Q 2591 2978 2328 3040 
Q 2066 3103 1784 3103 
Q 1356 3103 1142 2972 
Q 928 2841 928 2578 
Q 928 2378 1081 2264 
Q 1234 2150 1697 2047 
L 1894 2003 
Q 2506 1872 2764 1633 
Q 3022 1394 3022 966 
Q 3022 478 2636 193 
Q 2250 -91 1575 -91 
Q 1294 -91 989 -36 
Q 684 19 347 128 
L 347 722 
Q 666 556 975 473 
Q 1284 391 1588 391 
Q 1994 391 2212 530 
Q 2431 669 2431 922 
Q 2431 1156 2273 1281 
Q 2116 1406 1581 1522 
L 1381 1569 
Q 847 1681 609 1914 
Q 372 2147 372 2553 
Q 372 3047 722 3315 
Q 1072 3584 1716 3584 
Q 2034 3584 2315 3537 
Q 2597 3491 2834 3397 
z
" transform="scale(0.015625)"/>
      </defs>
      <use xlink:href="#DejaVuSans-4c"/>
      <use xlink:href="#DejaVuSans-6f" x="53.962891"/>
      <use xlink:href="#DejaVuSans-73" x="115.144531"/>
      <use xlink:href="#DejaVuSans-73" x="167.244141"/>
     </g>
    </g>
   </g>
   <g id="line2d_7">
    <path d="M 50.0679 68.07062 
L 75.3864 68.07062 
L 78.7622 69.156023 
L 80.4501 69.717655 
L 82.138 70.424498 
L 83.8259 70.99603 
L 90.5775 72.043274 
L 93.9533 72.853258 
L 95.6412 72.91901 
L 99.017 73.449433 
L 100.7049 73.555293 
L 104.0807 85.24208 
L 109.1444 103.921609 
L 112.5202 112.11054 
L 126.0234 143.923246 
L 129.3992 140.176126 
L 131.0871 138.056165 
L 134.4629 134.275346 
L 139.5266 136.156642 
L 146.2782 137.74315 
L 147.9661 137.854235 
L 149.654 137.84785 
L 153.0298 135.460804 
L 154.7177 134.267523 
L 156.4056 133.436113 
L 159.7814 131.493497 
L 161.4693 131.005737 
L 163.1572 130.813197 
L 166.533 129.439506 
L 168.2209 128.504996 
L 169.9088 126.638512 
L 174.9725 117.055165 
L 180.0362 112.874207 
L 181.7241 110.375527 
L 183.412 106.904577 
L 185.0999 105.871143 
L 186.7878 106.250046 
L 188.4757 106.786087 
L 191.8515 108.347397 
L 193.5394 109.934175 
L 195.2273 112.24449 
L 196.9152 115.487108 
L 198.6031 119.625984 
L 200.291 123.437515 
L 201.9789 126.879916 
L 203.6668 129.940033 
L 205.3547 133.471652 
L 207.0426 137.514978 
L 208.7305 142.59231 
L 210.4184 144.83772 
L 212.1063 145.265341 
L 213.7942 145.322273 
L 215.4821 145.563132 
L 217.17 145.975798 
L 218.8579 146.014023 
L 220.5458 146.16867 
L 222.2337 146.995188 
L 223.9216 147.179058 
L 225.6095 147.484631 
L 227.2974 147.617981 
L 228.9853 148.378009 
L 230.6732 148.826368 
L 239.1127 150.208852 
L 242.4885 150.19187 
L 244.1764 149.994388 
L 250.928 148.386758 
L 252.6159 148.849255 
L 254.3038 149.031662 
L 255.9917 148.95284 
L 257.6796 149.056915 
L 259.3675 148.9175 
L 261.0554 148.946103 
L 262.7433 148.649046 
L 267.807 148.723409 
L 269.4949 148.85239 
L 272.8707 149.572206 
L 276.2465 149.882651 
L 277.9344 149.312309 
L 279.6223 149.031587 
L 282.9981 149.045991 
L 286.3739 149.343046 
L 288.0618 149.691796 
L 291.4376 150.111268 
L 296.5013 150.967904 
L 298.1892 151.066534 
L 308.3166 153.207961 
L 310.0045 153.750682 
L 311.6924 154.022136 
L 313.3803 154.129536 
L 315.0682 154.436016 
L 320.1319 154.759069 
L 321.8198 154.986868 
L 325.1956 155.12271 
L 326.8835 155.018868 
L 328.5714 155.206447 
L 330.2593 155.234229 
L 331.9472 155.374931 
L 337.0109 155.342348 
L 338.6988 155.425344 
L 340.3867 155.258097 
L 345.4504 155.19351 
L 347.1383 155.103271 
L 350.5141 155.439262 
L 352.202 155.596917 
L 353.8899 155.24829 
L 355.5778 155.264415 
L 362.3294 154.480143 
L 367.3931 154.754336 
L 372.4568 155.269359 
L 377.5205 156.082047 
L 379.2084 156.660001 
L 382.5842 156.927179 
L 385.96 157.163803 
L 385.96 157.163803 
" clip-path="url(#pb562622461)" style="fill: none; stroke: #1f77b4; stroke-width: 2; stroke-linecap: square"/>
   </g>
   <g id="patch_2">
    <path d="M 48.38 170.788 
L 48.38 13.68 
" style="fill: none; stroke: #000000; stroke-width: 0.8; stroke-linejoin: miter; stroke-linecap: square"/>
   </g>
   <g id="patch_3">
    <path d="M 385.96 170.788 
L 385.96 13.68 
" style="fill: none; stroke: #000000; stroke-width: 0.8; stroke-linejoin: miter; stroke-linecap: square"/>
   </g>
   <g id="patch_4">
    <path d="M 48.38 170.788 
L 385.96 170.788 
" style="fill: none; stroke: #000000; stroke-width: 0.8; stroke-linejoin: miter; stroke-linecap: square"/>
   </g>
   <g id="patch_5">
    <path d="M 48.38 13.68 
L 385.96 13.68 
" style="fill: none; stroke: #000000; stroke-width: 0.8; stroke-linejoin: miter; stroke-linecap: square"/>
   </g>
  </g>
  <g id="axes_2">
   <g id="patch_6">
    <path d="M 48.38 170.788 
L 102.3928 170.788 
L 102.3928 13.68 
L 48.38 13.68 
z
" clip-path="url(#pb562622461)" style="fill: #2ca02c; opacity: 0.12"/>
   </g>
   <g id="patch_7">
    <path d="M 102.3928 170.788 
L 385.96 170.788 
L 385.96 13.68 
L 102.3928 13.68 
z
" clip-path="url(#pb562622461)" style="fill: #9467bd; opacity: 0.12"/>
   </g>
   <g id="PolyCollection_2">
    <defs>
     <path id="ma0019b6458" d="M 50.0679 -54.871185 
L 50.0679 -43.512954 
L 51.7558 -43.512954 
L 53.4437 -43.512954 
L 55.1316 -43.512954 
L 56.8195 -43.512954 
L 58.5074 -43.512954 
L 60.1953 -43.512954 
L 61.8832 -43.512954 
L 63.5711 -43.512954 
L 65.259 -43.512954 
L 66.9469 -43.512954 
L 68.6348 -43.512954 
L 70.3227 -43.512954 
L 72.0106 -43.512954 
L 73.6985 -43.512954 
L 75.3864 -43.512954 
L 77.0743 -43.285365 
L 78.7622 -43.311761 
L 80.4501 -42.779824 
L 82.138 -42.779824 
L 83.8259 -42.779824 
L 85.5138 -42.979449 
L 87.2017 -43.638521 
L 88.8896 -44.270421 
L 90.5775 -43.638521 
L 92.2654 -43.408215 
L 93.9533 -43.384768 
L 95.6412 -43.148627 
L 97.3291 -42.817991 
L 99.017 -42.898672 
L 100.7049 -44.072118 
L 102.3928 -43.953835 
L 104.0807 -43.036246 
L 105.7686 -43.675588 
L 107.4565 -43.223326 
L 109.1444 -43.160103 
L 110.8323 -43.349183 
L 112.5202 -43.160103 
L 114.2081 -42.684152 
L 115.896 -43.566438 
L 117.5839 -44.466178 
L 119.2718 -44.466178 
L 120.9597 -45.173461 
L 122.6476 -46.302263 
L 124.3355 -47.326945 
L 126.0234 -48.086933 
L 127.7113 -48.086933 
L 129.3992 -48.026065 
L 131.0871 -48.085089 
L 132.775 -48.069491 
L 134.4629 -48.160639 
L 136.1508 -49.235318 
L 137.8387 -50.320967 
L 139.5266 -50.417779 
L 141.2145 -50.417779 
L 142.9024 -49.443844 
L 144.5903 -49.890065 
L 146.2782 -50.028237 
L 147.9661 -50.028237 
L 149.654 -49.379998 
L 151.3419 -49.144539 
L 153.0298 -48.255002 
L 154.7177 -46.388084 
L 156.4056 -45.394009 
L 158.0935 -44.795051 
L 159.7814 -44.731684 
L 161.4693 -42.243974 
L 163.1572 -43.705074 
L 164.8451 -44.853329 
L 166.533 -46.913734 
L 168.2209 -48.382121 
L 169.9088 -52.953606 
L 171.5967 -54.749276 
L 173.2846 -58.672833 
L 174.9725 -63.670234 
L 176.6604 -69.069271 
L 178.3483 -73.46127 
L 180.0362 -77.355782 
L 181.7241 -77.444144 
L 183.412 -82.494978 
L 185.0999 -88.122676 
L 186.7878 -89.638812 
L 188.4757 -92.304302 
L 190.1636 -94.48027 
L 191.8515 -97.152817 
L 193.5394 -99.854697 
L 195.2273 -102.608576 
L 196.9152 -103.288451 
L 198.6031 -102.701561 
L 200.291 -107.476367 
L 201.9789 -109.128791 
L 203.6668 -111.456174 
L 205.3547 -112.839385 
L 207.0426 -110.963214 
L 208.7305 -112.407545 
L 210.4184 -113.211144 
L 212.1063 -112.86264 
L 213.7942 -114.722807 
L 215.4821 -113.721926 
L 217.17 -116.191023 
L 218.8579 -117.389636 
L 220.5458 -117.30703 
L 222.2337 -114.424859 
L 223.9216 -114.424859 
L 225.6095 -114.580607 
L 227.2974 -115.292379 
L 228.9853 -115.742743 
L 230.6732 -115.714011 
L 232.3611 -115.972741 
L 234.049 -117.565102 
L 235.7369 -118.184115 
L 237.4248 -121.701174 
L 239.1127 -122.678441 
L 240.8006 -128.574848 
L 242.4885 -127.651621 
L 244.1764 -128.883792 
L 245.8643 -129.170374 
L 247.5522 -129.911558 
L 249.2401 -131.136747 
L 250.928 -131.005058 
L 252.6159 -132.286691 
L 254.3038 -132.838604 
L 255.9917 -133.157524 
L 257.6796 -132.675705 
L 259.3675 -132.675705 
L 261.0554 -133.004457 
L 262.7433 -135.466625 
L 264.4312 -135.175349 
L 266.1191 -135.295783 
L 267.807 -138.392062 
L 269.4949 -138.247014 
L 271.1828 -135.290114 
L 272.8707 -134.010097 
L 274.5586 -133.478037 
L 276.2465 -133.584216 
L 277.9344 -133.56323 
L 279.6223 -133.791193 
L 281.3102 -132.924635 
L 282.9981 -135.504214 
L 284.686 -134.571751 
L 286.3739 -134.082855 
L 288.0618 -130.719264 
L 289.7497 -130.944084 
L 291.4376 -131.002832 
L 293.1255 -131.526526 
L 294.8134 -131.575745 
L 296.5013 -134.366801 
L 298.1892 -136.38243 
L 299.8771 -137.813676 
L 301.565 -138.240667 
L 303.2529 -139.074989 
L 304.9408 -136.478148 
L 306.6287 -138.494492 
L 308.3166 -138.613589 
L 310.0045 -141.328956 
L 311.6924 -140.627857 
L 313.3803 -143.180259 
L 315.0682 -143.782488 
L 316.7561 -141.510886 
L 318.444 -141.392054 
L 320.1319 -141.18571 
L 321.8198 -138.897722 
L 323.5077 -138.839684 
L 325.1956 -138.946659 
L 326.8835 -139.266913 
L 328.5714 -138.805412 
L 330.2593 -141.244972 
L 331.9472 -141.641669 
L 333.6351 -141.77672 
L 335.323 -141.966684 
L 337.0109 -142.86104 
L 338.6988 -142.908713 
L 340.3867 -142.382264 
L 342.0746 -144.922209 
L 343.7625 -143.804505 
L 345.4504 -143.837404 
L 347.1383 -147.44635 
L 348.8262 -147.293505 
L 350.5141 -147.245645 
L 352.202 -147.115244 
L 353.8899 -148.33211 
L 355.5778 -149.52911 
L 357.2657 -149.52911 
L 358.9536 -148.799477 
L 360.6415 -148.686782 
L 362.3294 -146.924381 
L 364.0173 -145.90576 
L 365.7052 -147.070102 
L 367.3931 -147.248716 
L 369.081 -148.371334 
L 370.7689 -148.68249 
L 372.4568 -148.065803 
L 374.1447 -148.570657 
L 375.8326 -148.570657 
L 377.5205 -149.207863 
L 379.2084 -149.903594 
L 380.8963 -149.857495 
L 382.5842 -149.885325 
L 384.2721 -150.287594 
L 385.96 -150.216348 
L 385.96 -175.450698 
L 385.96 -175.450698 
L 384.2721 -175.588928 
L 382.5842 -175.78172 
L 380.8963 -175.181118 
L 379.2084 -174.087633 
L 377.5205 -173.945455 
L 375.8326 -173.535274 
L 374.1447 -173.535274 
L 372.4568 -173.411695 
L 370.7689 -173.213963 
L 369.081 -172.68721 
L 367.3931 -173.181396 
L 365.7052 -173.569487 
L 364.0173 -172.848533 
L 362.3294 -172.667822 
L 360.6415 -169.229602 
L 358.9536 -168.90743 
L 357.2657 -168.806229 
L 355.5778 -168.806229 
L 353.8899 -168.746365 
L 352.202 -169.125321 
L 350.5141 -169.204397 
L 348.8262 -168.109151 
L 347.1383 -168.584738 
L 345.4504 -170.308388 
L 343.7625 -170.969719 
L 342.0746 -171.527833 
L 340.3867 -170.506664 
L 338.6988 -170.608647 
L 337.0109 -171.284752 
L 335.323 -170.712767 
L 333.6351 -169.645867 
L 331.9472 -169.361963 
L 330.2593 -168.082841 
L 328.5714 -169.05606 
L 326.8835 -169.851423 
L 325.1956 -169.333768 
L 323.5077 -170.069175 
L 321.8198 -169.173228 
L 320.1319 -169.18949 
L 318.444 -168.564191 
L 316.7561 -167.188496 
L 315.0682 -166.173757 
L 313.3803 -165.938077 
L 311.6924 -169.956821 
L 310.0045 -170.303108 
L 308.3166 -171.342657 
L 306.6287 -171.252276 
L 304.9408 -172.011756 
L 303.2529 -171.509688 
L 301.565 -170.877669 
L 299.8771 -170.885705 
L 298.1892 -170.0127 
L 296.5013 -170.143034 
L 294.8134 -169.79193 
L 293.1255 -168.374808 
L 291.4376 -167.851114 
L 289.7497 -167.700385 
L 288.0618 -167.506251 
L 286.3739 -162.466841 
L 284.686 -160.721081 
L 282.9981 -160.626527 
L 281.3102 -160.692378 
L 279.6223 -160.873207 
L 277.9344 -161.310647 
L 276.2465 -161.708616 
L 274.5586 -162.652705 
L 272.8707 -163.377508 
L 271.1828 -163.77331 
L 269.4949 -162.701706 
L 267.807 -163.604045 
L 266.1191 -165.233982 
L 264.4312 -165.144939 
L 262.7433 -165.272618 
L 261.0554 -164.173671 
L 259.3675 -165.968765 
L 257.6796 -165.968765 
L 255.9917 -165.696422 
L 254.3038 -165.596388 
L 252.6159 -164.053528 
L 250.928 -163.659342 
L 249.2401 -162.689744 
L 247.5522 -161.820159 
L 245.8643 -163.399252 
L 244.1764 -162.847925 
L 242.4885 -161.147414 
L 240.8006 -160.852618 
L 239.1127 -162.978433 
L 237.4248 -161.860927 
L 235.7369 -163.49269 
L 234.049 -159.712679 
L 232.3611 -158.581835 
L 230.6732 -160.935338 
L 228.9853 -160.697129 
L 227.2974 -160.100107 
L 225.6095 -159.764491 
L 223.9216 -157.825466 
L 222.2337 -157.825466 
L 220.5458 -152.010612 
L 218.8579 -150.461665 
L 217.17 -150.403415 
L 215.4821 -150.149306 
L 213.7942 -149.776857 
L 212.1063 -149.751728 
L 210.4184 -149.612701 
L 208.7305 -149.787868 
L 207.0426 -150.184813 
L 205.3547 -147.051777 
L 203.6668 -144.664396 
L 201.9789 -144.268574 
L 200.291 -143.826225 
L 198.6031 -144.620961 
L 196.9152 -142.148775 
L 195.2273 -139.267536 
L 193.5394 -138.041346 
L 191.8515 -137.810543 
L 190.1636 -138.17884 
L 188.4757 -137.212647 
L 186.7878 -136.945455 
L 185.0999 -135.738386 
L 183.412 -136.338628 
L 181.7241 -136.571483 
L 180.0362 -128.280751 
L 178.3483 -127.357285 
L 176.6604 -126.51235 
L 174.9725 -125.41759 
L 173.2846 -125.597012 
L 171.5967 -120.722522 
L 169.9088 -116.652826 
L 168.2209 -114.939991 
L 166.533 -111.171445 
L 164.8451 -107.366484 
L 163.1572 -102.439897 
L 161.4693 -97.616677 
L 159.7814 -89.054124 
L 158.0935 -85.429643 
L 156.4056 -81.479047 
L 154.7177 -77.761767 
L 153.0298 -72.962166 
L 151.3419 -69.139947 
L 149.654 -67.438146 
L 147.9661 -65.323566 
L 146.2782 -65.323566 
L 144.5903 -63.157487 
L 142.9024 -63.184754 
L 141.2145 -61.163432 
L 139.5266 -61.163432 
L 137.8387 -61.679198 
L 136.1508 -62.345893 
L 134.4629 -62.582663 
L 132.775 -62.254856 
L 131.0871 -62.02978 
L 129.3992 -61.250895 
L 127.7113 -60.98055 
L 126.0234 -60.98055 
L 124.3355 -60.902628 
L 122.6476 -60.879924 
L 120.9597 -60.542385 
L 119.2718 -60.830712 
L 117.5839 -60.830712 
L 115.896 -60.473589 
L 114.2081 -59.680056 
L 112.5202 -57.737764 
L 110.8323 -57.758161 
L 109.1444 -57.737764 
L 107.4565 -57.046109 
L 105.7686 -55.755937 
L 104.0807 -55.347893 
L 102.3928 -53.592394 
L 100.7049 -52.636202 
L 99.017 -54.647557 
L 97.3291 -55.35667 
L 95.6412 -55.444989 
L 93.9533 -55.418325 
L 92.2654 -54.766446 
L 90.5775 -54.745618 
L 88.8896 -54.532672 
L 87.2017 -54.745618 
L 85.5138 -54.776257 
L 83.8259 -54.766405 
L 82.138 -54.766405 
L 80.4501 -54.766405 
L 78.7622 -54.653423 
L 77.0743 -54.889296 
L 75.3864 -54.871185 
L 73.6985 -54.871185 
L 72.0106 -54.871185 
L 70.3227 -54.871185 
L 68.6348 -54.871185 
L 66.9469 -54.871185 
L 65.259 -54.871185 
L 63.5711 -54.871185 
L 61.8832 -54.871185 
L 60.1953 -54.871185 
L 58.5074 -54.871185 
L 56.8195 -54.871185 
L 55.1316 -54.871185 
L 53.4437 -54.871185 
L 51.7558 -54.871185 
L 50.0679 -54.871185 
z
" style="stroke: #d62728; stroke-opacity: 0.2; stroke-width: 0.24"/>
    </defs>
    <g clip-path="url(#pb562622461)">
     <use xlink:href="#ma0019b6458" x="0" y="216" style="fill: #d62728; fill-opacity: 0.2; stroke: #d62728; stroke-opacity: 0.2; stroke-width: 0.24"/>
    </g>
   </g>
   <g id="matplotlib.axis_2">
    <g id="xtick_1">
     <g id="line2d_8">
      <defs>
       <path id="mf07a2ba802" d="M 0 0 
L 0 3.5 
" style="stroke: #000000; stroke-width: 0.8"/>
      </defs>
      <g>
       <use xlink:href="#mf07a2ba802" x="48.38" y="170.788" style="stroke: #000000; stroke-width: 0.8"/>
      </g>
     </g>
     <g id="text_8">
      <!-- 0 -->
      <g transform="translate(45.835 185.96675) scale(0.08 -0.08)">
       <use xlink:href="#DejaVuSans-30"/>
      </g>
     </g>
    </g>
    <g id="xtick_2">
     <g id="line2d_9">
      <g>
       <use xlink:href="#mf07a2ba802" x="90.5775" y="170.788" style="stroke: #000000; stroke-width: 0.8"/>
      </g>
     </g>
     <g id="text_9">
      <!-- 25 -->
      <g transform="translate(85.4875 185.96675) scale(0.08 -0.08)">
       <defs>
        <path id="DejaVuSans-35" d="M 691 4666 
L 3169 4666 
L 3169 4134 
L 1269 4134 
L 1269 2991 
Q 1406 3038 1543 3061 
Q 1681 3084 1819 3084 
Q 2600 3084 3056 2656 
Q 3513 2228 3513 1497 
Q 3513 744 3044 326 
Q 2575 -91 1722 -91 
Q 1428 -91 1123 -41 
Q 819 9 494 109 
L 494 744 
Q 775 591 1075 516 
Q 1375 441 1709 441 
Q 2250 441 2565 725 
Q 2881 1009 2881 1497 
Q 2881 1984 2565 2268 
Q 2250 2553 1709 2553 
Q 1456 2553 1204 2497 
Q 953 2441 691 2322 
L 691 4666 
z
" transform="scale(0.015625)"/>
       </defs>
       <use xlink:href="#DejaVuSans-32"/>
       <use xlink:href="#DejaVuSans-35" x="63.623047"/>
      </g>
     </g>
    </g>
    <g id="xtick_3">
     <g id="line2d_10">
      <g>
       <use xlink:href="#mf07a2ba802" x="132.775" y="170.788" style="stroke: #000000; stroke-width: 0.8"/>
      </g>
     </g>
     <g id="text_10">
      <!-- 50 -->
      <g transform="translate(127.685 185.96675) scale(0.08 -0.08)">
       <use xlink:href="#DejaVuSans-35"/>
       <use xlink:href="#DejaVuSans-30" x="63.623047"/>
      </g>
     </g>
    </g>
    <g id="xtick_4">
     <g id="line2d_11">
      <g>
       <use xlink:href="#mf07a2ba802" x="174.9725" y="170.788" style="stroke: #000000; stroke-width: 0.8"/>
      </g>
     </g>
     <g id="text_11">
      <!-- 75 -->
      <g transform="translate(169.8825 185.96675) scale(0.08 -0.08)">
       <defs>
        <path id="DejaVuSans-37" d="M 525 4666 
L 3525 4666 
L 3525 4397 
L 1831 0 
L 1172 0 
L 2766 4134 
L 525 4134 
L 525 4666 
z
" transform="scale(0.015625)"/>
       </defs>
       <use xlink:href="#DejaVuSans-37"/>
       <use xlink:href="#DejaVuSans-35" x="63.623047"/>
      </g>
     </g>
    </g>
    <g id="xtick_5">
     <g id="line2d_12">
      <g>
       <use xlink:href="#mf07a2ba802" x="217.17" y="170.788" style="stroke: #000000; stroke-width: 0.8"/>
      </g>
     </g>
     <g id="text_12">
      <!-- 100 -->
      <g transform="translate(209.535 185.96675) scale(0.08 -0.08)">
       <use xlink:href="#DejaVuSans-31"/>
       <use xlink:href="#DejaVuSans-30" x="63.623047"/>
       <use xlink:href="#DejaVuSans-30" x="127.246094"/>
      </g>
     </g>
    </g>
    <g id="xtick_6">
     <g id="line2d_13">
      <g>
       <use xlink:href="#mf07a2ba802" x="259.3675" y="170.788" style="stroke: #000000; stroke-width: 0.8"/>
      </g>
     </g>
     <g id="text_13">
      <!-- 125 -->
      <g transform="translate(251.7325 185.96675) scale(0.08 -0.08)">
       <use xlink:href="#DejaVuSans-31"/>
       <use xlink:href="#DejaVuSans-32" x="63.623047"/>
       <use xlink:href="#DejaVuSans-35" x="127.246094"/>
      </g>
     </g>
    </g>
    <g id="xtick_7">
     <g id="line2d_14">
      <g>
       <use xlink:href="#mf07a2ba802" x="301.565" y="170.788" style="stroke: #000000; stroke-width: 0.8"/>
      </g>
     </g>
     <g id="text_14">
      <!-- 150 -->
      <g transform="translate(293.93 185.96675) scale(0.08 -0.08)">
       <use xlink:href="#DejaVuSans-31"/>
       <use xlink:href="#DejaVuSans-35" x="63.623047"/>
       <use xlink:href="#DejaVuSans-30" x="127.246094"/>
      </g>
     </g>
    </g>
    <g id="xtick_8">
     <g id="line2d_15">
      <g>
       <use xlink:href="#mf07a2ba802" x="343.7625" y="170.788" style="stroke: #000000; stroke-width: 0.8"/>
      </g>
     </g>
     <g id="text_15">
      <!-- 175 -->
      <g transform="translate(336.1275 185.96675) scale(0.08 -0.08)">
       <use xlink:href="#DejaVuSans-31"/>
       <use xlink:href="#DejaVuSans-37" x="63.623047"/>
       <use xlink:href="#DejaVuSans-35" x="127.246094"/>
      </g>
     </g>
    </g>
    <g id="xtick_9">
     <g id="line2d_16">
      <g>
       <use xlink:href="#mf07a2ba802" x="385.96" y="170.788" style="stroke: #000000; stroke-width: 0.8"/>
      </g>
     </g>
     <g id="text_16">
      <!-- 200 -->
      <g transform="translate(378.325 185.96675) scale(0.08 -0.08)">
       <use xlink:href="#DejaVuSans-32"/>
       <use xlink:href="#DejaVuSans-30" x="63.623047"/>
       <use xlink:href="#DejaVuSans-30" x="127.246094"/>
      </g>
     </g>
    </g>
    <g id="text_17">
     <!-- Step ($\times10^3$) -->
     <g transform="translate(190.902 199.6385) scale(0.088 -0.088)">
      <defs>
       <path id="DejaVuSans-53" d="M 3425 4513 
L 3425 3897 
Q 3066 4069 2747 4153 
Q 2428 4238 2131 4238 
Q 1616 4238 1336 4038 
Q 1056 3838 1056 3469 
Q 1056 3159 1242 3001 
Q 1428 2844 1947 2747 
L 2328 2669 
Q 3034 2534 3370 2195 
Q 3706 1856 3706 1288 
Q 3706 609 3251 259 
Q 2797 -91 1919 -91 
Q 1588 -91 1214 -16 
Q 841 59 441 206 
L 441 856 
Q 825 641 1194 531 
Q 1563 422 1919 422 
Q 2459 422 2753 634 
Q 3047 847 3047 1241 
Q 3047 1584 2836 1778 
Q 2625 1972 2144 2069 
L 1759 2144 
Q 1053 2284 737 2584 
Q 422 2884 422 3419 
Q 422 4038 858 4394 
Q 1294 4750 2059 4750 
Q 2388 4750 2728 4690 
Q 3069 4631 3425 4513 
z
" transform="scale(0.015625)"/>
       <path id="DejaVuSans-74" d="M 1172 4494 
L 1172 3500 
L 2356 3500 
L 2356 3053 
L 1172 3053 
L 1172 1153 
Q 1172 725 1289 603 
Q 1406 481 1766 481 
L 2356 481 
L 2356 0 
L 1766 0 
Q 1100 0 847 248 
Q 594 497 594 1153 
L 594 3053 
L 172 3053 
L 172 3500 
L 594 3500 
L 594 4494 
L 1172 4494 
z
" transform="scale(0.015625)"/>
       <path id="DejaVuSans-65" d="M 3597 1894 
L 3597 1613 
L 953 1613 
Q 991 1019 1311 708 
Q 1631 397 2203 397 
Q 2534 397 2845 478 
Q 3156 559 3463 722 
L 3463 178 
Q 3153 47 2828 -22 
Q 2503 -91 2169 -91 
Q 1331 -91 842 396 
Q 353 884 353 1716 
Q 353 2575 817 3079 
Q 1281 3584 2069 3584 
Q 2775 3584 3186 3129 
Q 3597 2675 3597 1894 
z
M 3022 2063 
Q 3016 2534 2758 2815 
Q 2500 3097 2075 3097 
Q 1594 3097 1305 2825 
Q 1016 2553 972 2059 
L 3022 2063 
z
" transform="scale(0.015625)"/>
       <path id="DejaVuSans-70" d="M 1159 525 
L 1159 -1331 
L 581 -1331 
L 581 3500 
L 1159 3500 
L 1159 2969 
Q 1341 3281 1617 3432 
Q 1894 3584 2278 3584 
Q 2916 3584 3314 3078 
Q 3713 2572 3713 1747 
Q 3713 922 3314 415 
Q 2916 -91 2278 -91 
Q 1894 -91 1617 61 
Q 1341 213 1159 525 
z
M 3116 1747 
Q 3116 2381 2855 2742 
Q 2594 3103 2138 3103 
Q 1681 3103 1420 2742 
Q 1159 2381 1159 1747 
Q 1159 1113 1420 752 
Q 1681 391 2138 391 
Q 2594 391 2855 752 
Q 3116 1113 3116 1747 
z
" transform="scale(0.015625)"/>
       <path id="DejaVuSans-20" transform="scale(0.015625)"/>
       <path id="DejaVuSans-28" d="M 1984 4856 
Q 1566 4138 1362 3434 
Q 1159 2731 1159 2009 
Q 1159 1288 1364 580 
Q 1569 -128 1984 -844 
L 1484 -844 
Q 1016 -109 783 600 
Q 550 1309 550 2009 
Q 550 2706 781 3412 
Q 1013 4119 1484 4856 
L 1984 4856 
z
" transform="scale(0.015625)"/>
       <path id="DejaVuSans-d7" d="M 4488 3438 
L 3059 2003 
L 4488 575 
L 4116 197 
L 2681 1631 
L 1247 197 
L 878 575 
L 2303 2003 
L 878 3438 
L 1247 3816 
L 2681 2381 
L 4116 3816 
L 4488 3438 
z
" transform="scale(0.015625)"/>
       <path id="DejaVuSans-33" d="M 2597 2516 
Q 3050 2419 3304 2112 
Q 3559 1806 3559 1356 
Q 3559 666 3084 287 
Q 2609 -91 1734 -91 
Q 1441 -91 1130 -33 
Q 819 25 488 141 
L 488 750 
Q 750 597 1062 519 
Q 1375 441 1716 441 
Q 2309 441 2620 675 
Q 2931 909 2931 1356 
Q 2931 1769 2642 2001 
Q 2353 2234 1838 2234 
L 1294 2234 
L 1294 2753 
L 1863 2753 
Q 2328 2753 2575 2939 
Q 2822 3125 2822 3475 
Q 2822 3834 2567 4026 
Q 2313 4219 1838 4219 
Q 1578 4219 1281 4162 
Q 984 4106 628 3988 
L 628 4550 
Q 988 4650 1302 4700 
Q 1616 4750 1894 4750 
Q 2613 4750 3031 4423 
Q 3450 4097 3450 3541 
Q 3450 3153 3228 2886 
Q 3006 2619 2597 2516 
z
" transform="scale(0.015625)"/>
       <path id="DejaVuSans-29" d="M 513 4856 
L 1013 4856 
Q 1481 4119 1714 3412 
Q 1947 2706 1947 2009 
Q 1947 1309 1714 600 
Q 1481 -109 1013 -844 
L 513 -844 
Q 928 -128 1133 580 
Q 1338 1288 1338 2009 
Q 1338 2731 1133 3434 
Q 928 4138 513 4856 
z
" transform="scale(0.015625)"/>
      </defs>
      <use xlink:href="#DejaVuSans-53" transform="translate(0 0.765625)"/>
      <use xlink:href="#DejaVuSans-74" transform="translate(63.476562 0.765625)"/>
      <use xlink:href="#DejaVuSans-65" transform="translate(102.685547 0.765625)"/>
      <use xlink:href="#DejaVuSans-70" transform="translate(164.208984 0.765625)"/>
      <use xlink:href="#DejaVuSans-20" transform="translate(227.685547 0.765625)"/>
      <use xlink:href="#DejaVuSans-28" transform="translate(259.472656 0.765625)"/>
      <use xlink:href="#DejaVuSans-d7" transform="translate(298.486328 0.765625)"/>
      <use xlink:href="#DejaVuSans-31" transform="translate(382.275391 0.765625)"/>
      <use xlink:href="#DejaVuSans-30" transform="translate(445.898438 0.765625)"/>
      <use xlink:href="#DejaVuSans-33" transform="translate(510.478516 39.046875) scale(0.7)"/>
      <use xlink:href="#DejaVuSans-29" transform="translate(557.749023 0.765625)"/>
     </g>
    </g>
   </g>
   <g id="matplotlib.axis_3">
    <g id="ytick_7">
     <g id="line2d_17">
      <defs>
       <path id="m754d982d2c" d="M 0 0 
L -3.5 0 
" style="stroke: #000000; stroke-width: 0.8"/>
      </defs>
      <g>
       <use xlink:href="#m754d982d2c" x="48.38" y="170.788" style="stroke: #000000; stroke-width: 0.8"/>
      </g>
     </g>
     <g id="text_18">
      <!-- 0 -->
      <g style="fill: #d62728" transform="translate(34.19 173.827375) scale(0.08 -0.08)">
       <use xlink:href="#DejaVuSans-30"/>
      </g>
     </g>
    </g>
    <g id="ytick_8">
     <g id="line2d_18">
      <g>
       <use xlink:href="#m754d982d2c" x="48.38" y="139.3664" style="stroke: #000000; stroke-width: 0.8"/>
      </g>
     </g>
     <g id="text_19">
      <!-- 20 -->
      <g style="fill: #d62728" transform="translate(29.1 142.405775) scale(0.08 -0.08)">
       <use xlink:href="#DejaVuSans-32"/>
       <use xlink:href="#DejaVuSans-30" x="63.623047"/>
      </g>
     </g>
    </g>
    <g id="ytick_9">
     <g id="line2d_19">
      <g>
       <use xlink:href="#m754d982d2c" x="48.38" y="107.9448" style="stroke: #000000; stroke-width: 0.8"/>
      </g>
     </g>
     <g id="text_20">
      <!-- 40 -->
      <g style="fill: #d62728" transform="translate(29.1 110.984175) scale(0.08 -0.08)">
       <use xlink:href="#DejaVuSans-34"/>
       <use xlink:href="#DejaVuSans-30" x="63.623047"/>
      </g>
     </g>
    </g>
    <g id="ytick_10">
     <g id="line2d_20">
      <g>
       <use xlink:href="#m754d982d2c" x="48.38" y="76.5232" style="stroke: #000000; stroke-width: 0.8"/>
      </g>
     </g>
     <g id="text_21">
      <!-- 60 -->
      <g style="fill: #d62728" transform="translate(29.1 79.562575) scale(0.08 -0.08)">
       <use xlink:href="#DejaVuSans-36"/>
       <use xlink:href="#DejaVuSans-30" x="63.623047"/>
      </g>
     </g>
    </g>
    <g id="ytick_11">
     <g id="line2d_21">
      <g>
       <use xlink:href="#m754d982d2c" x="48.38" y="45.1016" style="stroke: #000000; stroke-width: 0.8"/>
      </g>
     </g>
     <g id="text_22">
      <!-- 80 -->
      <g style="fill: #d62728" transform="translate(29.1 48.140975) scale(0.08 -0.08)">
       <use xlink:href="#DejaVuSans-38"/>
       <use xlink:href="#DejaVuSans-30" x="63.623047"/>
      </g>
     </g>
    </g>
    <g id="ytick_12">
     <g id="line2d_22">
      <g>
       <use xlink:href="#m754d982d2c" x="48.38" y="13.68" style="stroke: #000000; stroke-width: 0.8"/>
      </g>
     </g>
     <g id="text_23">
      <!-- 100 -->
      <g style="fill: #d62728" transform="translate(24.01 16.719375) scale(0.08 -0.08)">
       <use xlink:href="#DejaVuSans-31"/>
       <use xlink:href="#DejaVuSans-30" x="63.623047"/>
       <use xlink:href="#DejaVuSans-30" x="127.246094"/>
      </g>
     </g>
    </g>
    <g id="text_24">
     <!-- Success rate (%) -->
     <g style="fill: #d62728" transform="translate(18.179875 129.294375) rotate(-90) scale(0.088 -0.088)">
      <defs>
       <path id="DejaVuSans-75" d="M 544 1381 
L 544 3500 
L 1119 3500 
L 1119 1403 
Q 1119 906 1312 657 
Q 1506 409 1894 409 
Q 2359 409 2629 706 
Q 2900 1003 2900 1516 
L 2900 3500 
L 3475 3500 
L 3475 0 
L 2900 0 
L 2900 538 
Q 2691 219 2414 64 
Q 2138 -91 1772 -91 
Q 1169 -91 856 284 
Q 544 659 544 1381 
z
M 1991 3584 
L 1991 3584 
z
" transform="scale(0.015625)"/>
       <path id="DejaVuSans-63" d="M 3122 3366 
L 3122 2828 
Q 2878 2963 2633 3030 
Q 2388 3097 2138 3097 
Q 1578 3097 1268 2742 
Q 959 2388 959 1747 
Q 959 1106 1268 751 
Q 1578 397 2138 397 
Q 2388 397 2633 464 
Q 2878 531 3122 666 
L 3122 134 
Q 2881 22 2623 -34 
Q 2366 -91 2075 -91 
Q 1284 -91 818 406 
Q 353 903 353 1747 
Q 353 2603 823 3093 
Q 1294 3584 2113 3584 
Q 2378 3584 2631 3529 
Q 2884 3475 3122 3366 
z
" transform="scale(0.015625)"/>
       <path id="DejaVuSans-72" d="M 2631 2963 
Q 2534 3019 2420 3045 
Q 2306 3072 2169 3072 
Q 1681 3072 1420 2755 
Q 1159 2438 1159 1844 
L 1159 0 
L 581 0 
L 581 3500 
L 1159 3500 
L 1159 2956 
Q 1341 3275 1631 3429 
Q 1922 3584 2338 3584 
Q 2397 3584 2469 3576 
Q 2541 3569 2628 3553 
L 2631 2963 
z
" transform="scale(0.015625)"/>
       <path id="DejaVuSans-61" d="M 2194 1759 
Q 1497 1759 1228 1600 
Q 959 1441 959 1056 
Q 959 750 1161 570 
Q 1363 391 1709 391 
Q 2188 391 2477 730 
Q 2766 1069 2766 1631 
L 2766 1759 
L 2194 1759 
z
M 3341 1997 
L 3341 0 
L 2766 0 
L 2766 531 
Q 2569 213 2275 61 
Q 1981 -91 1556 -91 
Q 1019 -91 701 211 
Q 384 513 384 1019 
Q 384 1609 779 1909 
Q 1175 2209 1959 2209 
L 2766 2209 
L 2766 2266 
Q 2766 2663 2505 2880 
Q 2244 3097 1772 3097 
Q 1472 3097 1187 3025 
Q 903 2953 641 2809 
L 641 3341 
Q 956 3463 1253 3523 
Q 1550 3584 1831 3584 
Q 2591 3584 2966 3190 
Q 3341 2797 3341 1997 
z
" transform="scale(0.015625)"/>
       <path id="DejaVuSans-25" d="M 4653 2053 
Q 4381 2053 4226 1822 
Q 4072 1591 4072 1178 
Q 4072 772 4226 539 
Q 4381 306 4653 306 
Q 4919 306 5073 539 
Q 5228 772 5228 1178 
Q 5228 1588 5073 1820 
Q 4919 2053 4653 2053 
z
M 4653 2450 
Q 5147 2450 5437 2106 
Q 5728 1763 5728 1178 
Q 5728 594 5436 251 
Q 5144 -91 4653 -91 
Q 4153 -91 3862 251 
Q 3572 594 3572 1178 
Q 3572 1766 3864 2108 
Q 4156 2450 4653 2450 
z
M 1428 4353 
Q 1159 4353 1004 4120 
Q 850 3888 850 3481 
Q 850 3069 1003 2837 
Q 1156 2606 1428 2606 
Q 1700 2606 1854 2837 
Q 2009 3069 2009 3481 
Q 2009 3884 1853 4118 
Q 1697 4353 1428 4353 
z
M 4250 4750 
L 4750 4750 
L 1831 -91 
L 1331 -91 
L 4250 4750 
z
M 1428 4750 
Q 1922 4750 2215 4408 
Q 2509 4066 2509 3481 
Q 2509 2891 2217 2550 
Q 1925 2209 1428 2209 
Q 931 2209 642 2551 
Q 353 2894 353 3481 
Q 353 4063 643 4406 
Q 934 4750 1428 4750 
z
" transform="scale(0.015625)"/>
      </defs>
      <use xlink:href="#DejaVuSans-53"/>
      <use xlink:href="#DejaVuSans-75" x="63.476562"/>
      <use xlink:href="#DejaVuSans-63" x="126.855469"/>
      <use xlink:href="#DejaVuSans-63" x="181.835938"/>
      <use xlink:href="#DejaVuSans-65" x="236.816406"/>
      <use xlink:href="#DejaVuSans-73" x="298.339844"/>
      <use xlink:href="#DejaVuSans-73" x="350.439453"/>
      <use xlink:href="#DejaVuSans-20" x="402.539062"/>
      <use xlink:href="#DejaVuSans-72" x="434.326172"/>
      <use xlink:href="#DejaVuSans-61" x="475.439453"/>
      <use xlink:href="#DejaVuSans-74" x="536.71875"/>
      <use xlink:href="#DejaVuSans-65" x="575.927734"/>
      <use xlink:href="#DejaVuSans-20" x="637.451172"/>
      <use xlink:href="#DejaVuSans-28" x="669.238281"/>
      <use xlink:href="#DejaVuSans-25" x="708.251953"/>
      <use xlink:href="#DejaVuSans-29" x="803.271484"/>
     </g>
    </g>
   </g>
   <g id="line2d_23">
    <path d="M 50.0679 166.807931 
L 77.0743 166.912669 
L 83.8259 167.226885 
L 85.5138 167.122147 
L 88.8896 166.598453 
L 92.2654 166.912669 
L 93.9533 166.598453 
L 97.3291 166.912669 
L 100.7049 167.64584 
L 109.1444 165.551067 
L 110.8323 165.446328 
L 112.5202 165.551067 
L 117.5839 163.351555 
L 119.2718 163.351555 
L 120.9597 163.142077 
L 122.6476 162.408907 
L 126.0234 161.466259 
L 129.3992 161.36152 
L 131.0871 160.942565 
L 134.4629 160.628349 
L 136.1508 160.209395 
L 137.8387 159.999917 
L 139.5266 160.209395 
L 141.2145 160.209395 
L 142.9024 159.685701 
L 144.5903 159.476224 
L 146.2782 158.324099 
L 147.9661 158.324099 
L 151.3419 156.857757 
L 158.0935 150.887653 
L 159.7814 149.107096 
L 166.533 136.957411 
L 168.2209 134.338944 
L 171.5967 128.264101 
L 173.2846 123.865077 
L 174.9725 121.456088 
L 176.6604 118.209189 
L 178.3483 115.590723 
L 180.0362 113.181733 
L 181.7241 108.992187 
L 185.0999 104.069469 
L 188.4757 101.241525 
L 190.1636 99.670445 
L 191.8515 98.51832 
L 193.5394 97.051979 
L 195.2273 95.061944 
L 196.9152 93.281387 
L 198.6031 92.338739 
L 200.291 90.348704 
L 201.9789 89.301317 
L 203.6668 87.939715 
L 205.3547 86.054419 
L 208.7305 84.902293 
L 210.4184 84.588077 
L 212.1063 84.692816 
L 213.7942 83.750168 
L 215.4821 84.064384 
L 217.17 82.702781 
L 220.5458 81.341179 
L 222.2337 79.874837 
L 223.9216 79.874837 
L 225.6095 78.827451 
L 228.9853 77.780064 
L 230.6732 77.675325 
L 232.3611 78.722712 
L 234.049 77.361109 
L 235.7369 75.161597 
L 239.1127 73.171563 
L 240.8006 71.286267 
L 242.4885 71.600483 
L 244.1764 70.134141 
L 245.8643 69.715187 
L 247.5522 70.134141 
L 249.2401 69.086755 
L 250.928 68.6678 
L 252.6159 67.829891 
L 254.3038 66.782504 
L 255.9917 66.573027 
L 259.3675 66.677765 
L 261.0554 67.410936 
L 262.7433 65.630379 
L 264.4312 65.839856 
L 266.1191 65.735117 
L 267.807 65.001947 
L 269.4949 65.52564 
L 272.8707 67.306197 
L 274.5586 67.934629 
L 276.2465 68.353584 
L 279.6223 68.6678 
L 281.3102 69.191493 
L 282.9981 67.934629 
L 284.686 68.353584 
L 286.3739 67.725152 
L 288.0618 66.887243 
L 291.4376 66.573027 
L 293.1255 66.049333 
L 294.8134 65.316163 
L 296.5013 63.745083 
L 298.1892 62.802435 
L 299.8771 61.650309 
L 301.565 61.440832 
L 303.2529 60.707661 
L 304.9408 61.755048 
L 306.6287 61.126616 
L 308.3166 61.021877 
L 310.0045 60.183968 
L 311.6924 60.707661 
L 313.3803 61.440832 
L 315.0682 61.021877 
L 316.7561 61.650309 
L 318.444 61.021877 
L 320.1319 60.8124 
L 321.8198 61.964525 
L 323.5077 61.545571 
L 325.1956 61.859787 
L 326.8835 61.440832 
L 328.5714 62.069264 
L 331.9472 60.498184 
L 333.6351 60.288707 
L 337.0109 58.927104 
L 340.3867 59.555536 
L 342.0746 57.774979 
L 343.7625 58.612888 
L 345.4504 58.927104 
L 347.1383 57.984456 
L 348.8262 58.298672 
L 350.5141 57.774979 
L 352.202 57.879717 
L 353.8899 57.460763 
L 355.5778 56.832331 
L 357.2657 56.832331 
L 358.9536 57.146547 
L 360.6415 57.041808 
L 362.3294 56.203899 
L 364.0173 56.622853 
L 365.7052 55.680205 
L 367.3931 55.784944 
L 370.7689 55.051773 
L 372.4568 55.261251 
L 374.1447 54.947035 
L 375.8326 54.947035 
L 380.8963 53.480693 
L 382.5842 53.166477 
L 384.2721 53.061739 
L 385.96 53.166477 
L 385.96 53.166477 
" clip-path="url(#pb562622461)" style="fill: none; stroke: #d62728; stroke-width: 2; stroke-linecap: square"/>
   </g>
   <g id="patch_8">
    <path d="M 48.38 170.788 
L 48.38 13.68 
" style="fill: none; stroke: #000000; stroke-width: 0.8; stroke-linejoin: miter; stroke-linecap: square"/>
   </g>
   <g id="patch_9">
    <path d="M 385.96 170.788 
L 385.96 13.68 
" style="fill: none; stroke: #000000; stroke-width: 0.8; stroke-linejoin: miter; stroke-linecap: square"/>
   </g>
   <g id="patch_10">
    <path d="M 48.38 170.788 
L 385.96 170.788 
" style="fill: none; stroke: #000000; stroke-width: 0.8; stroke-linejoin: miter; stroke-linecap: square"/>
   </g>
   <g id="patch_11">
    <path d="M 48.38 13.68 
L 385.96 13.68 
" style="fill: none; stroke: #000000; stroke-width: 0.8; stroke-linejoin: miter; stroke-linecap: square"/>
   </g>
   <g id="text_25">
    <!-- Stage I -->
    <g style="fill: #2ca02c" transform="translate(60.1953 107.9448) scale(0.1 -0.1)">
     <defs>
      <path id="DejaVuSans-67" d="M 2906 1791 
Q 2906 2416 2648 2759 
Q 2391 3103 1925 3103 
Q 1463 3103 1205 2759 
Q 947 2416 947 1791 
Q 947 1169 1205 825 
Q 1463 481 1925 481 
Q 2391 481 2648 825 
Q 2906 1169 2906 1791 
z
M 3481 434 
Q 3481 -459 3084 -895 
Q 2688 -1331 1869 -1331 
Q 1566 -1331 1297 -1286 
Q 1028 -1241 775 -1147 
L 775 -588 
Q 1028 -725 1275 -790 
Q 1522 -856 1778 -856 
Q 2344 -856 2625 -561 
Q 2906 -266 2906 331 
L 2906 616 
Q 2728 306 2450 153 
Q 2172 0 1784 0 
Q 1141 0 747 490 
Q 353 981 353 1791 
Q 353 2603 747 3093 
Q 1141 3584 1784 3584 
Q 2172 3584 2450 3431 
Q 2728 3278 2906 2969 
L 2906 3500 
L 3481 3500 
L 3481 434 
z
" transform="scale(0.015625)"/>
      <path id="DejaVuSans-49" d="M 628 4666 
L 1259 4666 
L 1259 0 
L 628 0 
L 628 4666 
z
" transform="scale(0.015625)"/>
     </defs>
     <use xlink:href="#DejaVuSans-53"/>
     <use xlink:href="#DejaVuSans-74" x="63.476562"/>
     <use xlink:href="#DejaVuSans-61" x="102.685547"/>
     <use xlink:href="#DejaVuSans-67" x="163.964844"/>
     <use xlink:href="#DejaVuSans-65" x="227.441406"/>
     <use xlink:href="#DejaVuSans-20" x="288.964844"/>
     <use xlink:href="#DejaVuSans-49" x="320.751953"/>
    </g>
   </g>
   <g id="text_26">
    <!-- Stage II -->
    <g style="fill: #9467bd" transform="translate(109.1444 107.9448) scale(0.1 -0.1)">
     <use xlink:href="#DejaVuSans-53"/>
     <use xlink:href="#DejaVuSans-74" x="63.476562"/>
     <use xlink:href="#DejaVuSans-61" x="102.685547"/>
     <use xlink:href="#DejaVuSans-67" x="163.964844"/>
     <use xlink:href="#DejaVuSans-65" x="227.441406"/>
     <use xlink:href="#DejaVuSans-20" x="288.964844"/>
     <use xlink:href="#DejaVuSans-49" x="320.751953"/>
     <use xlink:href="#DejaVuSans-49" x="350.244141"/>
    </g>
   </g>
  </g>
 </g>
 <defs>
  <clipPath id="pb562622461">
   <rect x="48.38" y="13.68" width="337.58" height="157.108"/>
  </clipPath>
 </defs>
</svg>
