<?xml version="1.0" encoding="utf-8" standalone="no"?>
<!DOCTYPE svg PUBLIC "-//W3C//DTD SVG 1.1//EN"
  "http://www.w3.org/Graphics/SVG/1.1/DTD/svg11.dtd">
<svg xmlns:xlink="http://www.w3.org/1999/xlink" width="432pt" height="216pt" viewBox="0 0 432 216" xmlns="http://www.w3.org/2000/svg" version="1.1">
 <metadata>
  <rdf:RDF xmlns:dc="http://purl.org/dc/elements/1.1/" xmlns:cc="http://creativecommons.org/ns#" xmlns:rdf="http://www.w3.org/1999/02/22-rdf-syntax-ns#">
   <cc:Work>
    <dc:type rdf:resource="http://purl.org/dc/dcmitype/StillImage"/>
    <dc:date>2023-11-30T09:25:52.133085</dc:date>
    <dc:format>image/svg+xml</dc:format>
    <dc:creator>
     <cc:Agent>
      <dc:title>Matplotlib v3.7.1, https://matplotlib.org/</dc:title>
     </cc:Agent>
    </dc:creator>
   </cc:Work>
  </rdf:RDF>
 </metadata>
 <defs>
  <style type="text/css">*{stroke-linejoin: round; stroke-linecap: butt}</style>
 </defs>
 <g id="figure_1">
  <g id="patch_1">
   <path d="M 0 216 
L 432 216 
L 432 0 
L 0 0 
z
" style="fill: #ffffff"/>
  </g>
  <g id="axes_1">
   <g id="PolyCollection_1">
    <defs>
     <path id="m361bdcee84" d="M 50.0679 -154.045852 
L 50.0679 -140.803829 
L 51.7558 -140.803829 
L 53.4437 -140.803829 
L 55.1316 -140.803829 
L 56.8195 -140.803829 
L 58.5074 -140.803829 
L 60.1953 -140.803829 
L 61.8832 -140.803829 
L 63.5711 -140.803829 
L 65.259 -140.803829 
L 66.9469 -140.803829 
L 68.6348 -140.803829 
L 70.3227 -140.803829 
L 72.0106 -140.803829 
L 73.6985 -140.803829 
L 75.3864 -140.803829 
L 77.0743 -139.060335 
L 78.7622 -138.654455 
L 80.4501 -137.290024 
L 82.138 -133.069117 
L 83.8259 -94.823887 
L 85.5138 -70.839858 
L 87.2017 -52.598455 
L 88.8896 -38.261296 
L 90.5775 -26.04872 
L 92.2654 -16.770589 
L 93.9533 -9.675414 
L 95.6412 -4.377419 
L 97.3291 -0.515156 
L 99.017 1.720249 
L 100.7049 2.404567 
L 102.3928 1.039181 
L 104.0807 -4.973408 
L 105.7686 -16.458598 
L 107.4565 -44.551847 
L 109.1444 -46.44192 
L 110.8323 -46.405773 
L 112.5202 -46.317482 
L 114.2081 -46.114464 
L 115.896 -46.184431 
L 117.5839 -45.992655 
L 119.2718 -46.08564 
L 120.9597 -46.205747 
L 122.6476 -45.893413 
L 124.3355 -44.318541 
L 126.0234 -44.635597 
L 127.7113 -44.492381 
L 129.3992 -44.155687 
L 131.0871 -42.967582 
L 132.775 -41.771906 
L 134.4629 -41.963937 
L 136.1508 -42.75072 
L 137.8387 -44.006544 
L 139.5266 -45.698518 
L 141.2145 -47.247151 
L 142.9024 -49.566293 
L 144.5903 -51.808839 
L 146.2782 -53.639839 
L 147.9661 -55.188697 
L 149.654 -55.18245 
L 151.3419 -56.816811 
L 153.0298 -57.205594 
L 154.7177 -57.496066 
L 156.4056 -56.913808 
L 158.0935 -56.524702 
L 159.7814 -56.9051 
L 161.4693 -56.809143 
L 163.1572 -57.859601 
L 164.8451 -59.162369 
L 166.533 -61.340278 
L 168.2209 -61.314117 
L 169.9088 -60.085818 
L 171.5967 -59.727055 
L 173.2846 -60.884095 
L 174.9725 -60.882439 
L 176.6604 -60.77689 
L 178.3483 -60.774941 
L 180.0362 -60.660955 
L 181.7241 -60.741675 
L 183.412 -59.976576 
L 185.0999 -55.826422 
L 186.7878 -56.705347 
L 188.4757 -57.042668 
L 190.1636 -57.325539 
L 191.8515 -57.326637 
L 193.5394 -59.143195 
L 195.2273 -61.800954 
L 196.9152 -63.129618 
L 198.6031 -62.988667 
L 200.291 -62.806044 
L 201.9789 -62.786469 
L 203.6668 -63.296101 
L 205.3547 -64.17579 
L 207.0426 -64.247039 
L 208.7305 -63.511445 
L 210.4184 -66.175218 
L 212.1063 -66.117669 
L 213.7942 -65.997617 
L 215.4821 -65.317563 
L 217.17 -65.158008 
L 218.8579 -64.123564 
L 220.5458 -64.309355 
L 222.2337 -63.828914 
L 223.9216 -63.862976 
L 225.6095 -63.008301 
L 227.2974 -62.683597 
L 228.9853 -62.948907 
L 230.6732 -62.494924 
L 232.3611 -62.410218 
L 234.049 -62.461995 
L 235.7369 -62.798626 
L 237.4248 -62.773179 
L 239.1127 -63.299402 
L 240.8006 -63.695564 
L 242.4885 -63.96382 
L 244.1764 -64.977697 
L 245.8643 -64.576454 
L 247.5522 -65.485514 
L 249.2401 -66.191586 
L 250.928 -66.294777 
L 252.6159 -65.548887 
L 254.3038 -63.832646 
L 255.9917 -64.005458 
L 257.6796 -63.068008 
L 259.3675 -63.07323 
L 261.0554 -63.136575 
L 262.7433 -63.075972 
L 264.4312 -63.175067 
L 266.1191 -62.200172 
L 267.807 -61.915345 
L 269.4949 -62.018029 
L 271.1828 -62.315155 
L 272.8707 -60.024333 
L 274.5586 -59.547518 
L 276.2465 -60.755268 
L 277.9344 -61.657161 
L 279.6223 -62.718148 
L 281.3102 -61.425822 
L 282.9981 -61.685154 
L 284.686 -61.6573 
L 286.3739 -61.72618 
L 288.0618 -60.38731 
L 289.7497 -59.676693 
L 291.4376 -59.923642 
L 293.1255 -60.463368 
L 294.8134 -60.664144 
L 296.5013 -60.006902 
L 298.1892 -62.977597 
L 299.8771 -63.273265 
L 301.565 -63.146774 
L 303.2529 -62.804455 
L 303.2529 -61.853071 
L 304.9408 -61.571857 
L 306.6287 -61.319264 
L 308.3166 -60.445147 
L 310.0045 -61.581829 
L 311.6924 -62.070374 
L 313.3803 -61.414837 
L 315.0682 -61.324618 
L 316.7561 -61.221603 
L 318.444 -61.365188 
L 320.1319 -61.254709 
L 321.8198 -60.883516 
L 323.5077 -60.542779 
L 325.1956 -60.532937 
L 326.8835 -59.675818 
L 328.5714 -58.037041 
L 330.2593 -57.608486 
L 331.9472 -56.824856 
L 333.6351 -56.570162 
L 335.323 -56.491934 
L 337.0109 -56.763732 
L 338.6988 -56.424503 
L 340.3867 -56.410541 
L 342.0746 -56.4158 
L 343.7625 -57.261371 
L 345.4504 -57.520157 
L 347.1383 -57.515858 
L 348.8262 -57.441321 
L 350.5141 -57.344422 
L 352.202 -57.211364 
L 353.8899 -57.919233 
L 355.5778 -57.519329 
L 357.2657 -57.738319 
L 358.9536 -57.753909 
L 360.6415 -57.871993 
L 362.3294 -57.052731 
L 364.0173 -56.890021 
L 365.7052 -56.365214 
L 367.3931 -56.148649 
L 369.081 -56.510621 
L 370.7689 -55.994807 
L 372.4568 -55.968979 
L 374.1447 -54.641896 
L 375.8326 -54.257826 
L 377.5205 -54.191153 
L 379.2084 -54.388923 
L 380.8963 -54.779368 
L 382.5842 -54.927219 
L 384.2721 -55.082987 
L 385.96 -55.076523 
L 385.96 -71.109162 
L 385.96 -71.109162 
L 384.2721 -70.944058 
L 382.5842 -70.740189 
L 380.8963 -70.642672 
L 379.2084 -70.310949 
L 377.5205 -70.193481 
L 375.8326 -69.14467 
L 374.1447 -68.408033 
L 372.4568 -66.35635 
L 370.7689 -66.263268 
L 369.081 -66.537224 
L 367.3931 -66.515118 
L 365.7052 -67.023735 
L 364.0173 -67.834415 
L 362.3294 -67.800358 
L 360.6415 -67.710293 
L 358.9536 -67.463511 
L 357.2657 -67.461273 
L 355.5778 -67.505832 
L 353.8899 -67.422947 
L 352.202 -67.763676 
L 350.5141 -67.738193 
L 348.8262 -67.449049 
L 347.1383 -67.079403 
L 345.4504 -67.151454 
L 343.7625 -67.772002 
L 342.0746 -70.430906 
L 340.3867 -70.398882 
L 338.6988 -70.36424 
L 337.0109 -70.448323 
L 335.323 -71.47392 
L 333.6351 -72.478744 
L 331.9472 -72.469688 
L 330.2593 -72.529125 
L 328.5714 -72.584408 
L 326.8835 -71.786394 
L 325.1956 -71.525462 
L 323.5077 -72.42199 
L 321.8198 -73.249391 
L 320.1319 -74.014818 
L 318.444 -74.080286 
L 316.7561 -74.340418 
L 315.0682 -75.575956 
L 313.3803 -75.603274 
L 311.6924 -75.440816 
L 310.0045 -75.373625 
L 308.3166 -77.657246 
L 306.6287 -78.252353 
L 304.9408 -79.294167 
L 303.2529 -79.200176 
L 303.2529 -78.844263 
L 301.565 -80.346243 
L 299.8771 -80.7429 
L 298.1892 -80.693997 
L 296.5013 -86.096798 
L 294.8134 -86.138903 
L 293.1255 -86.041715 
L 291.4376 -85.839162 
L 289.7497 -85.909537 
L 288.0618 -86.062126 
L 286.3739 -85.87003 
L 284.686 -86.101832 
L 282.9981 -86.621795 
L 281.3102 -87.694906 
L 279.6223 -87.731209 
L 277.9344 -88.238716 
L 276.2465 -87.66465 
L 274.5586 -87.702628 
L 272.8707 -87.755226 
L 271.1828 -83.2362 
L 269.4949 -83.115467 
L 267.807 -83.099629 
L 266.1191 -84.281021 
L 264.4312 -84.07706 
L 262.7433 -83.979926 
L 261.0554 -84.190011 
L 259.3675 -83.141365 
L 257.6796 -82.206722 
L 255.9917 -80.436919 
L 254.3038 -80.7998 
L 252.6159 -80.760627 
L 250.928 -81.311426 
L 249.2401 -81.376693 
L 247.5522 -81.509153 
L 245.8643 -81.639081 
L 244.1764 -81.708192 
L 242.4885 -82.142355 
L 240.8006 -80.837763 
L 239.1127 -80.767334 
L 237.4248 -80.667818 
L 235.7369 -80.068479 
L 234.049 -80.013699 
L 232.3611 -79.961525 
L 230.6732 -79.728899 
L 228.9853 -78.816624 
L 227.2974 -79.283404 
L 225.6095 -78.667065 
L 223.9216 -78.507585 
L 222.2337 -78.513668 
L 220.5458 -78.5144 
L 218.8579 -79.06131 
L 217.17 -79.391793 
L 215.4821 -80.815193 
L 213.7942 -81.059363 
L 212.1063 -80.999743 
L 210.4184 -81.936854 
L 208.7305 -87.950676 
L 207.0426 -88.491939 
L 205.3547 -88.474763 
L 203.6668 -88.606073 
L 201.9789 -88.234594 
L 200.291 -88.262995 
L 198.6031 -88.236828 
L 196.9152 -88.181791 
L 195.2273 -88.710619 
L 193.5394 -89.420547 
L 191.8515 -89.526315 
L 190.1636 -88.708582 
L 188.4757 -88.322478 
L 186.7878 -88.377211 
L 185.0999 -87.421301 
L 183.412 -80.705975 
L 181.7241 -79.310793 
L 180.0362 -79.529413 
L 178.3483 -79.667242 
L 176.6604 -79.777343 
L 174.9725 -78.714918 
L 173.2846 -78.683615 
L 171.5967 -78.968619 
L 169.9088 -78.925688 
L 168.2209 -78.383201 
L 166.533 -78.369355 
L 164.8451 -78.631184 
L 163.1572 -78.659327 
L 161.4693 -78.953112 
L 159.7814 -78.961612 
L 158.0935 -77.87386 
L 156.4056 -77.078377 
L 154.7177 -75.726483 
L 153.0298 -74.947912 
L 151.3419 -73.715423 
L 149.654 -73.690178 
L 147.9661 -72.120894 
L 146.2782 -72.672869 
L 144.5903 -72.581078 
L 142.9024 -72.690024 
L 141.2145 -73.139773 
L 139.5266 -73.484799 
L 137.8387 -73.591178 
L 136.1508 -73.462331 
L 134.4629 -72.192377 
L 132.775 -71.265863 
L 131.0871 -67.072016 
L 129.3992 -63.051434 
L 127.7113 -60.730569 
L 126.0234 -58.886274 
L 124.3355 -58.028114 
L 122.6476 -55.406748 
L 120.9597 -54.84662 
L 119.2718 -55.078907 
L 117.5839 -55.557255 
L 115.896 -55.66544 
L 114.2081 -55.652478 
L 112.5202 -55.757859 
L 110.8323 -55.838781 
L 109.1444 -56.176836 
L 107.4565 -59.030358 
L 105.7686 -97.67875 
L 104.0807 -121.226941 
L 102.3928 -139.818031 
L 100.7049 -153.378579 
L 99.017 -165.403933 
L 97.3291 -175.144491 
L 95.6412 -183.193427 
L 93.9533 -189.910579 
L 92.2654 -194.984142 
L 90.5775 -198.67795 
L 88.8896 -199.350619 
L 87.2017 -197.979182 
L 85.5138 -192.511976 
L 83.8259 -181.088919 
L 82.138 -154.774688 
L 80.4501 -153.613902 
L 78.7622 -153.689167 
L 77.0743 -154.398497 
L 75.3864 -154.045852 
L 73.6985 -154.045852 
L 72.0106 -154.045852 
L 70.3227 -154.045852 
L 68.6348 -154.045852 
L 66.9469 -154.045852 
L 65.259 -154.045852 
L 63.5711 -154.045852 
L 61.8832 -154.045852 
L 60.1953 -154.045852 
L 58.5074 -154.045852 
L 56.8195 -154.045852 
L 55.1316 -154.045852 
L 53.4437 -154.045852 
L 51.7558 -154.045852 
L 50.0679 -154.045852 
z
" style="stroke: #1f77b4; stroke-opacity: 0.2; stroke-width: 0.24"/>
    </defs>
    <g clip-path="url(#p0866f939c1)">
     <use xlink:href="#m361bdcee84" x="0" y="216" style="fill: #1f77b4; fill-opacity: 0.2; stroke: #1f77b4; stroke-opacity: 0.2; stroke-width: 0.24"/>
    </g>
   </g>
   <g id="matplotlib.axis_1">
    <g id="ytick_1">
     <g id="line2d_1">
      <defs>
       <path id="m5e587333b3" d="M 0 0 
L 3.5 0 
" style="stroke: #000000; stroke-width: 0.8"/>
      </defs>
      <g>
       <use xlink:href="#m5e587333b3" x="385.96" y="170.788" style="stroke: #000000; stroke-width: 0.8"/>
      </g>
     </g>
     <g id="text_1">
      <!-- 0.0 -->
      <g style="fill: #1f77b4" transform="translate(395.06 173.827375) scale(0.08 -0.08)">
       <defs>
        <path id="DejaVuSans-30" d="M 2034 4250 
Q 1547 4250 1301 3770 
Q 1056 3291 1056 2328 
Q 1056 1369 1301 889 
Q 1547 409 2034 409 
Q 2525 409 2770 889 
Q 3016 1369 3016 2328 
Q 3016 3291 2770 3770 
Q 2525 4250 2034 4250 
z
M 2034 4750 
Q 2819 4750 3233 4129 
Q 3647 3509 3647 2328 
Q 3647 1150 3233 529 
Q 2819 -91 2034 -91 
Q 1250 -91 836 529 
Q 422 1150 422 2328 
Q 422 3509 836 4129 
Q 1250 4750 2034 4750 
z
" transform="scale(0.015625)"/>
        <path id="DejaVuSans-2e" d="M 684 794 
L 1344 794 
L 1344 0 
L 684 0 
L 684 794 
z
" transform="scale(0.015625)"/>
       </defs>
       <use xlink:href="#DejaVuSans-30"/>
       <use xlink:href="#DejaVuSans-2e" x="63.623047"/>
       <use xlink:href="#DejaVuSans-30" x="95.410156"/>
      </g>
     </g>
    </g>
    <g id="ytick_2">
     <g id="line2d_2">
      <g>
       <use xlink:href="#m5e587333b3" x="385.96" y="142.222909" style="stroke: #000000; stroke-width: 0.8"/>
      </g>
     </g>
     <g id="text_2">
      <!-- 0.2 -->
      <g style="fill: #1f77b4" transform="translate(395.06 145.262284) scale(0.08 -0.08)">
       <defs>
        <path id="DejaVuSans-32" d="M 1228 531 
L 3431 531 
L 3431 0 
L 469 0 
L 469 531 
Q 828 903 1448 1529 
Q 2069 2156 2228 2338 
Q 2531 2678 2651 2914 
Q 2772 3150 2772 3378 
Q 2772 3750 2511 3984 
Q 2250 4219 1831 4219 
Q 1534 4219 1204 4116 
Q 875 4013 500 3803 
L 500 4441 
Q 881 4594 1212 4672 
Q 1544 4750 1819 4750 
Q 2544 4750 2975 4387 
Q 3406 4025 3406 3419 
Q 3406 3131 3298 2873 
Q 3191 2616 2906 2266 
Q 2828 2175 2409 1742 
Q 1991 1309 1228 531 
z
" transform="scale(0.015625)"/>
       </defs>
       <use xlink:href="#DejaVuSans-30"/>
       <use xlink:href="#DejaVuSans-2e" x="63.623047"/>
       <use xlink:href="#DejaVuSans-32" x="95.410156"/>
      </g>
     </g>
    </g>
    <g id="ytick_3">
     <g id="line2d_3">
      <g>
       <use xlink:href="#m5e587333b3" x="385.96" y="113.657818" style="stroke: #000000; stroke-width: 0.8"/>
      </g>
     </g>
     <g id="text_3">
      <!-- 0.4 -->
      <g style="fill: #1f77b4" transform="translate(395.06 116.697193) scale(0.08 -0.08)">
       <defs>
        <path id="DejaVuSans-34" d="M 2419 4116 
L 825 1625 
L 2419 1625 
L 2419 4116 
z
M 2253 4666 
L 3047 4666 
L 3047 1625 
L 3713 1625 
L 3713 1100 
L 3047 1100 
L 3047 0 
L 2419 0 
L 2419 1100 
L 313 1100 
L 313 1709 
L 2253 4666 
z
" transform="scale(0.015625)"/>
       </defs>
       <use xlink:href="#DejaVuSans-30"/>
       <use xlink:href="#DejaVuSans-2e" x="63.623047"/>
       <use xlink:href="#DejaVuSans-34" x="95.410156"/>
      </g>
     </g>
    </g>
    <g id="ytick_4">
     <g id="line2d_4">
      <g>
       <use xlink:href="#m5e587333b3" x="385.96" y="85.092727" style="stroke: #000000; stroke-width: 0.8"/>
      </g>
     </g>
     <g id="text_4">
      <!-- 0.6 -->
      <g style="fill: #1f77b4" transform="translate(395.06 88.132102) scale(0.08 -0.08)">
       <defs>
        <path id="DejaVuSans-36" d="M 2113 2584 
Q 1688 2584 1439 2293 
Q 1191 2003 1191 1497 
Q 1191 994 1439 701 
Q 1688 409 2113 409 
Q 2538 409 2786 701 
Q 3034 994 3034 1497 
Q 3034 2003 2786 2293 
Q 2538 2584 2113 2584 
z
M 3366 4563 
L 3366 3988 
Q 3128 4100 2886 4159 
Q 2644 4219 2406 4219 
Q 1781 4219 1451 3797 
Q 1122 3375 1075 2522 
Q 1259 2794 1537 2939 
Q 1816 3084 2150 3084 
Q 2853 3084 3261 2657 
Q 3669 2231 3669 1497 
Q 3669 778 3244 343 
Q 2819 -91 2113 -91 
Q 1303 -91 875 529 
Q 447 1150 447 2328 
Q 447 3434 972 4092 
Q 1497 4750 2381 4750 
Q 2619 4750 2861 4703 
Q 3103 4656 3366 4563 
z
" transform="scale(0.015625)"/>
       </defs>
       <use xlink:href="#DejaVuSans-30"/>
       <use xlink:href="#DejaVuSans-2e" x="63.623047"/>
       <use xlink:href="#DejaVuSans-36" x="95.410156"/>
      </g>
     </g>
    </g>
    <g id="ytick_5">
     <g id="line2d_5">
      <g>
       <use xlink:href="#m5e587333b3" x="385.96" y="56.527636" style="stroke: #000000; stroke-width: 0.8"/>
      </g>
     </g>
     <g id="text_5">
      <!-- 0.8 -->
      <g style="fill: #1f77b4" transform="translate(395.06 59.567011) scale(0.08 -0.08)">
       <defs>
        <path id="DejaVuSans-38" d="M 2034 2216 
Q 1584 2216 1326 1975 
Q 1069 1734 1069 1313 
Q 1069 891 1326 650 
Q 1584 409 2034 409 
Q 2484 409 2743 651 
Q 3003 894 3003 1313 
Q 3003 1734 2745 1975 
Q 2488 2216 2034 2216 
z
M 1403 2484 
Q 997 2584 770 2862 
Q 544 3141 544 3541 
Q 544 4100 942 4425 
Q 1341 4750 2034 4750 
Q 2731 4750 3128 4425 
Q 3525 4100 3525 3541 
Q 3525 3141 3298 2862 
Q 3072 2584 2669 2484 
Q 3125 2378 3379 2068 
Q 3634 1759 3634 1313 
Q 3634 634 3220 271 
Q 2806 -91 2034 -91 
Q 1263 -91 848 271 
Q 434 634 434 1313 
Q 434 1759 690 2068 
Q 947 2378 1403 2484 
z
M 1172 3481 
Q 1172 3119 1398 2916 
Q 1625 2713 2034 2713 
Q 2441 2713 2670 2916 
Q 2900 3119 2900 3481 
Q 2900 3844 2670 4047 
Q 2441 4250 2034 4250 
Q 1625 4250 1398 4047 
Q 1172 3844 1172 3481 
z
" transform="scale(0.015625)"/>
       </defs>
       <use xlink:href="#DejaVuSans-30"/>
       <use xlink:href="#DejaVuSans-2e" x="63.623047"/>
       <use xlink:href="#DejaVuSans-38" x="95.410156"/>
      </g>
     </g>
    </g>
    <g id="ytick_6">
     <g id="line2d_6">
      <g>
       <use xlink:href="#m5e587333b3" x="385.96" y="27.962545" style="stroke: #000000; stroke-width: 0.8"/>
      </g>
     </g>
     <g id="text_6">
      <!-- 1.0 -->
      <g style="fill: #1f77b4" transform="translate(395.06 31.00192) scale(0.08 -0.08)">
       <defs>
        <path id="DejaVuSans-31" d="M 794 531 
L 1825 531 
L 1825 4091 
L 703 3866 
L 703 4441 
L 1819 4666 
L 2450 4666 
L 2450 531 
L 3481 531 
L 3481 0 
L 794 0 
L 794 531 
z
" transform="scale(0.015625)"/>
       </defs>
       <use xlink:href="#DejaVuSans-31"/>
       <use xlink:href="#DejaVuSans-2e" x="63.623047"/>
       <use xlink:href="#DejaVuSans-30" x="95.410156"/>
      </g>
     </g>
    </g>
    <g id="text_7">
     <!-- Loss -->
     <g style="fill: #1f77b4" transform="translate(418.469125 101.885125) rotate(-90) scale(0.088 -0.088)">
      <defs>
       <path id="DejaVuSans-4c" d="M 628 4666 
L 1259 4666 
L 1259 531 
L 3531 531 
L 3531 0 
L 628 0 
L 628 4666 
z
" transform="scale(0.015625)"/>
       <path id="DejaVuSans-6f" d="M 1959 3097 
Q 1497 3097 1228 2736 
Q 959 2375 959 1747 
Q 959 1119 1226 758 
Q 1494 397 1959 397 
Q 2419 397 2687 759 
Q 2956 1122 2956 1747 
Q 2956 2369 2687 2733 
Q 2419 3097 1959 3097 
z
M 1959 3584 
Q 2709 3584 3137 3096 
Q 3566 2609 3566 1747 
Q 3566 888 3137 398 
Q 2709 -91 1959 -91 
Q 1206 -91 779 398 
Q 353 888 353 1747 
Q 353 2609 779 3096 
Q 1206 3584 1959 3584 
z
" transform="scale(0.015625)"/>
       <path id="DejaVuSans-73" d="M 2834 3397 
L 2834 2853 
Q 2591 2978 2328 3040 
Q 2066 3103 1784 3103 
Q 1356 3103 1142 2972 
Q 928 2841 928 2578 
Q 928 2378 1081 2264 
Q 1234 2150 1697 2047 
L 1894 2003 
Q 2506 1872 2764 1633 
Q 3022 1394 3022 966 
Q 3022 478 2636 193 
Q 2250 -91 1575 -91 
Q 1294 -91 989 -36 
Q 684 19 347 128 
L 347 722 
Q 666 556 975 473 
Q 1284 391 1588 391 
Q 1994 391 2212 530 
Q 2431 669 2431 922 
Q 2431 1156 2273 1281 
Q 2116 1406 1581 1522 
L 1381 1569 
Q 847 1681 609 1914 
Q 372 2147 372 2553 
Q 372 3047 722 3315 
Q 1072 3584 1716 3584 
Q 2034 3584 2315 3537 
Q 2597 3491 2834 3397 
z
" transform="scale(0.015625)"/>
      </defs>
      <use xlink:href="#DejaVuSans-4c"/>
      <use xlink:href="#DejaVuSans-6f" x="53.962891"/>
      <use xlink:href="#DejaVuSans-73" x="115.144531"/>
      <use xlink:href="#DejaVuSans-73" x="167.244141"/>
     </g>
    </g>
   </g>
   <g id="line2d_7">
    <path d="M 50.0679 68.57516 
L 75.3864 68.57516 
L 77.0743 69.270584 
L 78.7622 69.828189 
L 80.4501 70.548037 
L 82.138 72.078098 
L 85.5138 84.324083 
L 95.6412 122.214577 
L 99.017 134.158158 
L 104.0807 152.899825 
L 105.7686 158.931326 
L 107.4565 164.208897 
L 109.1444 164.690622 
L 112.5202 164.962329 
L 114.2081 165.116529 
L 115.896 165.075065 
L 120.9597 165.473816 
L 122.6476 165.349919 
L 126.0234 164.239065 
L 127.7113 163.388525 
L 129.3992 162.39644 
L 132.775 159.481116 
L 134.4629 158.921843 
L 136.1508 157.893474 
L 141.2145 155.806538 
L 142.9024 154.871842 
L 146.2782 152.843646 
L 147.9661 152.345205 
L 153.0298 149.923247 
L 154.7177 149.388726 
L 156.4056 149.003908 
L 158.0935 148.800719 
L 159.7814 148.066644 
L 161.4693 148.118873 
L 163.1572 147.740536 
L 164.8451 147.103224 
L 166.533 146.145184 
L 168.2209 146.151341 
L 169.9088 146.494247 
L 171.5967 146.652163 
L 173.2846 146.216145 
L 174.9725 146.201321 
L 176.6604 145.722883 
L 181.7241 145.973766 
L 183.412 145.658725 
L 185.0999 144.376138 
L 186.7878 143.458721 
L 188.4757 143.317427 
L 191.8515 142.573524 
L 195.2273 140.744214 
L 196.9152 140.344296 
L 201.9789 140.489468 
L 205.3547 139.674724 
L 207.0426 139.630511 
L 208.7305 140.26894 
L 210.4184 141.943964 
L 212.1063 142.441294 
L 213.7942 142.47151 
L 215.4821 142.933622 
L 218.8579 144.407563 
L 222.2337 144.828709 
L 223.9216 144.814719 
L 225.6095 145.162317 
L 227.2974 145.016499 
L 228.9853 145.117234 
L 230.6732 144.888089 
L 235.7369 144.566447 
L 240.8006 143.733336 
L 242.4885 142.946913 
L 244.1764 142.657056 
L 245.8643 142.892232 
L 249.2401 142.215861 
L 250.928 142.196898 
L 252.6159 142.845243 
L 254.3038 143.683777 
L 255.9917 143.778812 
L 259.3675 142.892702 
L 261.0554 142.336707 
L 262.7433 142.472051 
L 264.4312 142.373937 
L 266.1191 142.759403 
L 267.807 143.492513 
L 269.4949 143.433252 
L 271.1828 143.224323 
L 272.8707 142.110221 
L 274.5586 142.374927 
L 276.2465 141.790041 
L 277.9344 141.052062 
L 279.6223 140.775321 
L 281.3102 141.439636 
L 282.9981 141.846526 
L 284.686 142.120434 
L 286.3739 142.201895 
L 288.0618 142.775282 
L 289.7497 143.206885 
L 291.4376 143.118598 
L 293.1255 142.747458 
L 294.8134 142.598476 
L 296.5013 142.94815 
L 298.1892 144.164203 
L 299.8771 143.991918 
L 301.565 144.253491 
L 303.2529 145.175641 
L 303.2529 145.473376 
L 304.9408 145.566988 
L 310.0045 147.522273 
L 311.6924 147.244405 
L 313.3803 147.490945 
L 315.0682 147.549713 
L 316.7561 148.218989 
L 320.1319 148.365236 
L 325.1956 149.970801 
L 326.8835 150.268894 
L 328.5714 150.689276 
L 330.2593 150.931194 
L 331.9472 151.352728 
L 333.6351 151.475547 
L 335.323 152.017073 
L 337.0109 152.393973 
L 338.6988 152.605628 
L 342.0746 152.576647 
L 343.7625 153.483314 
L 345.4504 153.664195 
L 347.1383 153.702369 
L 350.5141 153.458692 
L 352.202 153.51248 
L 353.8899 153.32891 
L 355.5778 153.48742 
L 360.6415 153.208857 
L 362.3294 153.573455 
L 364.0173 153.637782 
L 365.7052 154.305526 
L 367.3931 154.668117 
L 369.081 154.476077 
L 370.7689 154.870962 
L 372.4568 154.837335 
L 374.1447 154.475035 
L 375.8326 154.298752 
L 377.5205 153.807683 
L 379.2084 153.650064 
L 380.8963 153.28898 
L 385.96 152.907158 
L 385.96 152.907158 
" clip-path="url(#p0866f939c1)" style="fill: none; stroke: #1f77b4; stroke-width: 2; stroke-linecap: square"/>
   </g>
   <g id="patch_2">
    <path d="M 48.38 170.788 
L 48.38 13.68 
" style="fill: none; stroke: #000000; stroke-width: 0.8; stroke-linejoin: miter; stroke-linecap: square"/>
   </g>
   <g id="patch_3">
    <path d="M 385.96 170.788 
L 385.96 13.68 
" style="fill: none; stroke: #000000; stroke-width: 0.8; stroke-linejoin: miter; stroke-linecap: square"/>
   </g>
   <g id="patch_4">
    <path d="M 48.38 170.788 
L 385.96 170.788 
" style="fill: none; stroke: #000000; stroke-width: 0.8; stroke-linejoin: miter; stroke-linecap: square"/>
   </g>
   <g id="patch_5">
    <path d="M 48.38 13.68 
L 385.96 13.68 
" style="fill: none; stroke: #000000; stroke-width: 0.8; stroke-linejoin: miter; stroke-linecap: square"/>
   </g>
  </g>
  <g id="axes_2">
   <g id="patch_6">
    <path d="M 48.38 170.788 
L 83.8259 170.788 
L 83.8259 13.68 
L 48.38 13.68 
z
" clip-path="url(#p0866f939c1)" style="fill: #2ca02c; opacity: 0.12"/>
   </g>
   <g id="patch_7">
    <path d="M 83.8259 170.788 
L 385.96 170.788 
L 385.96 13.68 
L 83.8259 13.68 
z
" clip-path="url(#p0866f939c1)" style="fill: #9467bd; opacity: 0.12"/>
   </g>
   <g id="PolyCollection_2">
    <defs>
     <path id="m53a12519e8" d="M 50.0679 -53.551476 
L 50.0679 -44.413708 
L 51.7558 -44.413708 
L 53.4437 -44.413708 
L 55.1316 -44.413708 
L 56.8195 -44.413708 
L 58.5074 -44.413708 
L 60.1953 -44.413708 
L 61.8832 -44.413708 
L 63.5711 -44.413708 
L 65.259 -44.413708 
L 66.9469 -44.413708 
L 68.6348 -44.413708 
L 70.3227 -44.413708 
L 72.0106 -44.413708 
L 73.6985 -44.413708 
L 75.3864 -44.413708 
L 77.0743 -44.413708 
L 78.7622 -45.100936 
L 80.4501 -44.733616 
L 82.138 -44.733616 
L 83.8259 -44.651066 
L 85.5138 -44.579829 
L 87.2017 -43.512954 
L 88.8896 -43.285365 
L 90.5775 -43.285365 
L 92.2654 -42.932897 
L 93.9533 -42.858193 
L 95.6412 -42.859604 
L 97.3291 -43.19759 
L 99.017 -43.593026 
L 100.7049 -43.420976 
L 102.3928 -43.593026 
L 104.0807 -43.842919 
L 105.7686 -44.695792 
L 107.4565 -45.370711 
L 109.1444 -45.380337 
L 110.8323 -46.438123 
L 112.5202 -46.410374 
L 114.2081 -47.349287 
L 115.896 -47.995189 
L 117.5839 -44.914333 
L 119.2718 -45.015129 
L 120.9597 -44.973626 
L 122.6476 -45.81801 
L 124.3355 -45.282138 
L 126.0234 -46.589408 
L 127.7113 -46.941294 
L 129.3992 -47.030163 
L 131.0871 -47.916554 
L 132.775 -48.095507 
L 134.4629 -47.182187 
L 136.1508 -47.632087 
L 137.8387 -47.923086 
L 139.5266 -49.710872 
L 141.2145 -49.77464 
L 142.9024 -50.821485 
L 144.5903 -50.802125 
L 146.2782 -51.311583 
L 147.9661 -50.912946 
L 149.654 -53.071925 
L 151.3419 -52.417287 
L 153.0298 -52.714489 
L 154.7177 -52.814712 
L 156.4056 -54.133269 
L 158.0935 -53.264758 
L 159.7814 -53.264758 
L 161.4693 -53.660429 
L 163.1572 -53.408694 
L 164.8451 -54.362542 
L 166.533 -54.511998 
L 168.2209 -54.4831 
L 169.9088 -54.362542 
L 171.5967 -53.463582 
L 173.2846 -54.452024 
L 174.9725 -53.386604 
L 176.6604 -51.201104 
L 178.3483 -53.191223 
L 180.0362 -53.488243 
L 181.7241 -53.45805 
L 183.412 -53.002562 
L 185.0999 -54.029622 
L 186.7878 -54.200609 
L 188.4757 -58.230016 
L 190.1636 -62.279187 
L 191.8515 -66.212637 
L 193.5394 -68.459039 
L 195.2273 -73.821278 
L 196.9152 -74.734029 
L 198.6031 -76.326143 
L 200.291 -76.092235 
L 201.9789 -76.095458 
L 203.6668 -75.208103 
L 205.3547 -74.903891 
L 207.0426 -74.607554 
L 208.7305 -74.813912 
L 210.4184 -76.92556 
L 212.1063 -77.05717 
L 213.7942 -77.072515 
L 215.4821 -77.030528 
L 217.17 -78.931604 
L 218.8579 -83.176734 
L 220.5458 -84.257266 
L 222.2337 -88.183638 
L 223.9216 -90.842682 
L 225.6095 -92.009892 
L 227.2974 -94.648833 
L 228.9853 -94.648833 
L 230.6732 -94.392601 
L 232.3611 -95.199802 
L 234.049 -96.621752 
L 235.7369 -97.895949 
L 237.4248 -101.594878 
L 239.1127 -99.731764 
L 240.8006 -101.259552 
L 242.4885 -102.269137 
L 244.1764 -104.045239 
L 245.8643 -103.985363 
L 247.5522 -104.020282 
L 249.2401 -102.782874 
L 250.928 -103.938298 
L 252.6159 -105.982492 
L 254.3038 -108.48652 
L 255.9917 -108.748181 
L 257.6796 -110.791548 
L 259.3675 -111.073961 
L 261.0554 -112.721579 
L 262.7433 -113.119044 
L 264.4312 -112.453784 
L 266.1191 -111.662389 
L 267.807 -111.792163 
L 269.4949 -113.56645 
L 271.1828 -113.113386 
L 272.8707 -113.236748 
L 274.5586 -113.363732 
L 276.2465 -114.767939 
L 277.9344 -114.767939 
L 279.6223 -115.221555 
L 281.3102 -116.071873 
L 282.9981 -116.196157 
L 284.686 -116.397908 
L 286.3739 -116.312874 
L 288.0618 -116.312874 
L 289.7497 -116.250681 
L 291.4376 -117.870529 
L 293.1255 -115.337566 
L 294.8134 -114.989497 
L 296.5013 -118.803383 
L 298.1892 -118.199122 
L 299.8771 -118.909513 
L 301.565 -114.453308 
L 303.2529 -106.995169 
L 304.9408 -106.717389 
L 306.6287 -106.750024 
L 308.3166 -106.569293 
L 310.0045 -106.807832 
L 311.6924 -107.749215 
L 313.3803 -107.505558 
L 315.0682 -107.326305 
L 316.7561 -107.699874 
L 318.444 -109.364494 
L 320.1319 -109.498821 
L 321.8198 -108.808928 
L 323.5077 -109.442016 
L 325.1956 -109.462414 
L 326.8835 -113.462721 
L 328.5714 -124.857438 
L 330.2593 -126.978298 
L 331.9472 -127.559709 
L 333.6351 -128.865776 
L 335.323 -129.212602 
L 337.0109 -131.230882 
L 338.6988 -130.042841 
L 340.3867 -130.521393 
L 342.0746 -130.886359 
L 343.7625 -131.109869 
L 345.4504 -130.069697 
L 347.1383 -128.881104 
L 348.8262 -128.82127 
L 350.5141 -129.088685 
L 352.202 -129.938542 
L 353.8899 -129.197696 
L 355.5778 -129.309094 
L 357.2657 -129.567778 
L 358.9536 -129.567778 
L 360.6415 -130.114324 
L 362.3294 -128.090048 
L 364.0173 -129.835245 
L 365.7052 -129.779496 
L 367.3931 -129.77936 
L 369.081 -129.919297 
L 370.7689 -133.522318 
L 372.4568 -135.947822 
L 374.1447 -136.191204 
L 375.8326 -136.58439 
L 377.5205 -137.170679 
L 379.2084 -137.458141 
L 380.8963 -133.124287 
L 382.5842 -131.416684 
L 384.2721 -131.3198 
L 385.96 -131.501705 
L 385.96 -167.980674 
L 385.96 -167.980674 
L 384.2721 -167.953102 
L 382.5842 -168.275172 
L 380.8963 -164.263318 
L 379.2084 -162.233715 
L 377.5205 -163.987518 
L 375.8326 -163.316943 
L 374.1447 -161.824833 
L 372.4568 -161.858738 
L 370.7689 -162.398946 
L 369.081 -162.440852 
L 367.3931 -162.161834 
L 365.7052 -161.952222 
L 364.0173 -161.477518 
L 362.3294 -161.127941 
L 360.6415 -162.66478 
L 358.9536 -162.582894 
L 357.2657 -162.582894 
L 355.5778 -162.003668 
L 353.8899 -161.696112 
L 352.202 -158.441538 
L 350.5141 -158.244008 
L 348.8262 -158.092468 
L 347.1383 -158.242112 
L 345.4504 -158.519861 
L 343.7625 -157.898643 
L 342.0746 -157.703198 
L 340.3867 -157.020778 
L 338.6988 -156.242466 
L 337.0109 -155.892334 
L 335.323 -153.721067 
L 333.6351 -153.648939 
L 331.9472 -151.603369 
L 330.2593 -150.927915 
L 328.5714 -150.535048 
L 326.8835 -156.902308 
L 325.1956 -157.760456 
L 323.5077 -157.152421 
L 321.8198 -155.062304 
L 320.1319 -153.115547 
L 318.444 -154.506738 
L 316.7561 -153.029198 
L 315.0682 -151.307994 
L 313.3803 -150.290832 
L 311.6924 -149.62822 
L 310.0045 -153.502285 
L 308.3166 -152.483961 
L 306.6287 -153.76957 
L 304.9408 -153.592728 
L 303.2529 -153.733903 
L 301.565 -150.465311 
L 299.8771 -148.941788 
L 298.1892 -148.604792 
L 296.5013 -148.419486 
L 294.8134 -149.30069 
L 293.1255 -148.324189 
L 291.4376 -147.676522 
L 289.7497 -148.45846 
L 288.0618 -149.024699 
L 286.3739 -149.024699 
L 284.686 -145.37855 
L 282.9981 -145.370825 
L 281.3102 -143.81929 
L 279.6223 -143.412744 
L 277.9344 -143.237927 
L 276.2465 -143.237927 
L 274.5586 -142.337884 
L 272.8707 -143.512254 
L 271.1828 -143.426139 
L 269.4949 -143.182553 
L 267.807 -142.024157 
L 266.1191 -141.106545 
L 264.4312 -140.943581 
L 262.7433 -139.440412 
L 261.0554 -137.114672 
L 259.3675 -137.714903 
L 257.6796 -137.368884 
L 255.9917 -137.526955 
L 254.3038 -137.369661 
L 252.6159 -137.778916 
L 250.928 -136.052518 
L 249.2401 -136.160556 
L 247.5522 -131.990465 
L 245.8643 -130.349565 
L 244.1764 -130.918121 
L 242.4885 -131.437359 
L 240.8006 -130.142693 
L 239.1127 -129.156753 
L 237.4248 -124.360957 
L 235.7369 -125.33668 
L 234.049 -125.144536 
L 232.3611 -123.424326 
L 230.6732 -122.974663 
L 228.9853 -120.41418 
L 227.2974 -120.41418 
L 225.6095 -121.377303 
L 223.9216 -120.868694 
L 222.2337 -120.385578 
L 220.5458 -120.33188 
L 218.8579 -116.384956 
L 217.17 -117.068972 
L 215.4821 -115.827888 
L 213.7942 -114.738514 
L 212.1063 -112.030654 
L 210.4184 -113.000174 
L 208.7305 -112.179139 
L 207.0426 -111.547587 
L 205.3547 -110.203863 
L 203.6668 -108.43331 
L 201.9789 -103.984841 
L 200.291 -103.778587 
L 198.6031 -102.287814 
L 196.9152 -102.413587 
L 195.2273 -102.697906 
L 193.5394 -105.546417 
L 191.8515 -106.535955 
L 190.1636 -107.955677 
L 188.4757 -107.396346 
L 186.7878 -107.655162 
L 185.0999 -103.00817 
L 183.412 -102.568888 
L 181.7241 -100.437582 
L 180.0362 -96.636797 
L 178.3483 -93.163225 
L 176.6604 -92.011184 
L 174.9725 -87.311956 
L 173.2846 -82.475944 
L 171.5967 -80.531703 
L 169.9088 -77.53797 
L 168.2209 -77.836367 
L 166.533 -77.597991 
L 164.8451 -77.53797 
L 163.1572 -77.863386 
L 161.4693 -77.821128 
L 159.7814 -77.588367 
L 158.0935 -77.588367 
L 156.4056 -73.787174 
L 154.7177 -73.63939 
L 153.0298 -73.530135 
L 151.3419 -73.61786 
L 149.654 -71.077926 
L 147.9661 -71.980041 
L 146.2782 -72.000358 
L 144.5903 -71.671907 
L 142.9024 -70.186205 
L 141.2145 -71.861482 
L 139.5266 -71.506296 
L 137.8387 -72.246695 
L 136.1508 -71.909262 
L 134.4629 -71.521253 
L 132.775 -69.560546 
L 131.0871 -69.530022 
L 129.3992 -69.787981 
L 127.7113 -69.248418 
L 126.0234 -69.18135 
L 124.3355 -69.231755 
L 122.6476 -69.114838 
L 120.9597 -68.702358 
L 119.2718 -68.870332 
L 117.5839 -68.761651 
L 115.896 -63.167067 
L 114.2081 -62.346627 
L 112.5202 -62.866586 
L 110.8323 -62.62936 
L 109.1444 -62.639759 
L 107.4565 -60.764089 
L 105.7686 -60.391622 
L 104.0807 -60.616062 
L 102.3928 -59.609091 
L 100.7049 -59.15271 
L 99.017 -59.609091 
L 97.3291 -59.166618 
L 95.6412 -59.085649 
L 93.9533 -57.201764 
L 92.2654 -55.870197 
L 90.5775 -54.889296 
L 88.8896 -54.889296 
L 87.2017 -54.871185 
L 85.5138 -52.9664 
L 83.8259 -53.104641 
L 82.138 -53.231568 
L 80.4501 -53.231568 
L 78.7622 -53.283203 
L 77.0743 -53.551476 
L 75.3864 -53.551476 
L 73.6985 -53.551476 
L 72.0106 -53.551476 
L 70.3227 -53.551476 
L 68.6348 -53.551476 
L 66.9469 -53.551476 
L 65.259 -53.551476 
L 63.5711 -53.551476 
L 61.8832 -53.551476 
L 60.1953 -53.551476 
L 58.5074 -53.551476 
L 56.8195 -53.551476 
L 55.1316 -53.551476 
L 53.4437 -53.551476 
L 51.7558 -53.551476 
L 50.0679 -53.551476 
z
" style="stroke: #d62728; stroke-opacity: 0.2; stroke-width: 0.24"/>
    </defs>
    <g clip-path="url(#p0866f939c1)">
     <use xlink:href="#m53a12519e8" x="0" y="216" style="fill: #d62728; fill-opacity: 0.2; stroke: #d62728; stroke-opacity: 0.2; stroke-width: 0.24"/>
    </g>
   </g>
   <g id="matplotlib.axis_2">
    <g id="xtick_1">
     <g id="line2d_8">
      <defs>
       <path id="m104bdc9045" d="M 0 0 
L 0 3.5 
" style="stroke: #000000; stroke-width: 0.8"/>
      </defs>
      <g>
       <use xlink:href="#m104bdc9045" x="48.38" y="170.788" style="stroke: #000000; stroke-width: 0.8"/>
      </g>
     </g>
     <g id="text_8">
      <!-- 0 -->
      <g transform="translate(45.835 185.96675) scale(0.08 -0.08)">
       <use xlink:href="#DejaVuSans-30"/>
      </g>
     </g>
    </g>
    <g id="xtick_2">
     <g id="line2d_9">
      <g>
       <use xlink:href="#m104bdc9045" x="90.5775" y="170.788" style="stroke: #000000; stroke-width: 0.8"/>
      </g>
     </g>
     <g id="text_9">
      <!-- 25 -->
      <g transform="translate(85.4875 185.96675) scale(0.08 -0.08)">
       <defs>
        <path id="DejaVuSans-35" d="M 691 4666 
L 3169 4666 
L 3169 4134 
L 1269 4134 
L 1269 2991 
Q 1406 3038 1543 3061 
Q 1681 3084 1819 3084 
Q 2600 3084 3056 2656 
Q 3513 2228 3513 1497 
Q 3513 744 3044 326 
Q 2575 -91 1722 -91 
Q 1428 -91 1123 -41 
Q 819 9 494 109 
L 494 744 
Q 775 591 1075 516 
Q 1375 441 1709 441 
Q 2250 441 2565 725 
Q 2881 1009 2881 1497 
Q 2881 1984 2565 2268 
Q 2250 2553 1709 2553 
Q 1456 2553 1204 2497 
Q 953 2441 691 2322 
L 691 4666 
z
" transform="scale(0.015625)"/>
       </defs>
       <use xlink:href="#DejaVuSans-32"/>
       <use xlink:href="#DejaVuSans-35" x="63.623047"/>
      </g>
     </g>
    </g>
    <g id="xtick_3">
     <g id="line2d_10">
      <g>
       <use xlink:href="#m104bdc9045" x="132.775" y="170.788" style="stroke: #000000; stroke-width: 0.8"/>
      </g>
     </g>
     <g id="text_10">
      <!-- 50 -->
      <g transform="translate(127.685 185.96675) scale(0.08 -0.08)">
       <use xlink:href="#DejaVuSans-35"/>
       <use xlink:href="#DejaVuSans-30" x="63.623047"/>
      </g>
     </g>
    </g>
    <g id="xtick_4">
     <g id="line2d_11">
      <g>
       <use xlink:href="#m104bdc9045" x="174.9725" y="170.788" style="stroke: #000000; stroke-width: 0.8"/>
      </g>
     </g>
     <g id="text_11">
      <!-- 75 -->
      <g transform="translate(169.8825 185.96675) scale(0.08 -0.08)">
       <defs>
        <path id="DejaVuSans-37" d="M 525 4666 
L 3525 4666 
L 3525 4397 
L 1831 0 
L 1172 0 
L 2766 4134 
L 525 4134 
L 525 4666 
z
" transform="scale(0.015625)"/>
       </defs>
       <use xlink:href="#DejaVuSans-37"/>
       <use xlink:href="#DejaVuSans-35" x="63.623047"/>
      </g>
     </g>
    </g>
    <g id="xtick_5">
     <g id="line2d_12">
      <g>
       <use xlink:href="#m104bdc9045" x="217.17" y="170.788" style="stroke: #000000; stroke-width: 0.8"/>
      </g>
     </g>
     <g id="text_12">
      <!-- 100 -->
      <g transform="translate(209.535 185.96675) scale(0.08 -0.08)">
       <use xlink:href="#DejaVuSans-31"/>
       <use xlink:href="#DejaVuSans-30" x="63.623047"/>
       <use xlink:href="#DejaVuSans-30" x="127.246094"/>
      </g>
     </g>
    </g>
    <g id="xtick_6">
     <g id="line2d_13">
      <g>
       <use xlink:href="#m104bdc9045" x="259.3675" y="170.788" style="stroke: #000000; stroke-width: 0.8"/>
      </g>
     </g>
     <g id="text_13">
      <!-- 125 -->
      <g transform="translate(251.7325 185.96675) scale(0.08 -0.08)">
       <use xlink:href="#DejaVuSans-31"/>
       <use xlink:href="#DejaVuSans-32" x="63.623047"/>
       <use xlink:href="#DejaVuSans-35" x="127.246094"/>
      </g>
     </g>
    </g>
    <g id="xtick_7">
     <g id="line2d_14">
      <g>
       <use xlink:href="#m104bdc9045" x="301.565" y="170.788" style="stroke: #000000; stroke-width: 0.8"/>
      </g>
     </g>
     <g id="text_14">
      <!-- 150 -->
      <g transform="translate(293.93 185.96675) scale(0.08 -0.08)">
       <use xlink:href="#DejaVuSans-31"/>
       <use xlink:href="#DejaVuSans-35" x="63.623047"/>
       <use xlink:href="#DejaVuSans-30" x="127.246094"/>
      </g>
     </g>
    </g>
    <g id="xtick_8">
     <g id="line2d_15">
      <g>
       <use xlink:href="#m104bdc9045" x="343.7625" y="170.788" style="stroke: #000000; stroke-width: 0.8"/>
      </g>
     </g>
     <g id="text_15">
      <!-- 175 -->
      <g transform="translate(336.1275 185.96675) scale(0.08 -0.08)">
       <use xlink:href="#DejaVuSans-31"/>
       <use xlink:href="#DejaVuSans-37" x="63.623047"/>
       <use xlink:href="#DejaVuSans-35" x="127.246094"/>
      </g>
     </g>
    </g>
    <g id="xtick_9">
     <g id="line2d_16">
      <g>
       <use xlink:href="#m104bdc9045" x="385.96" y="170.788" style="stroke: #000000; stroke-width: 0.8"/>
      </g>
     </g>
     <g id="text_16">
      <!-- 200 -->
      <g transform="translate(378.325 185.96675) scale(0.08 -0.08)">
       <use xlink:href="#DejaVuSans-32"/>
       <use xlink:href="#DejaVuSans-30" x="63.623047"/>
       <use xlink:href="#DejaVuSans-30" x="127.246094"/>
      </g>
     </g>
    </g>
    <g id="text_17">
     <!-- Step ($\times10^3$) -->
     <g transform="translate(190.902 199.6385) scale(0.088 -0.088)">
      <defs>
       <path id="DejaVuSans-53" d="M 3425 4513 
L 3425 3897 
Q 3066 4069 2747 4153 
Q 2428 4238 2131 4238 
Q 1616 4238 1336 4038 
Q 1056 3838 1056 3469 
Q 1056 3159 1242 3001 
Q 1428 2844 1947 2747 
L 2328 2669 
Q 3034 2534 3370 2195 
Q 3706 1856 3706 1288 
Q 3706 609 3251 259 
Q 2797 -91 1919 -91 
Q 1588 -91 1214 -16 
Q 841 59 441 206 
L 441 856 
Q 825 641 1194 531 
Q 1563 422 1919 422 
Q 2459 422 2753 634 
Q 3047 847 3047 1241 
Q 3047 1584 2836 1778 
Q 2625 1972 2144 2069 
L 1759 2144 
Q 1053 2284 737 2584 
Q 422 2884 422 3419 
Q 422 4038 858 4394 
Q 1294 4750 2059 4750 
Q 2388 4750 2728 4690 
Q 3069 4631 3425 4513 
z
" transform="scale(0.015625)"/>
       <path id="DejaVuSans-74" d="M 1172 4494 
L 1172 3500 
L 2356 3500 
L 2356 3053 
L 1172 3053 
L 1172 1153 
Q 1172 725 1289 603 
Q 1406 481 1766 481 
L 2356 481 
L 2356 0 
L 1766 0 
Q 1100 0 847 248 
Q 594 497 594 1153 
L 594 3053 
L 172 3053 
L 172 3500 
L 594 3500 
L 594 4494 
L 1172 4494 
z
" transform="scale(0.015625)"/>
       <path id="DejaVuSans-65" d="M 3597 1894 
L 3597 1613 
L 953 1613 
Q 991 1019 1311 708 
Q 1631 397 2203 397 
Q 2534 397 2845 478 
Q 3156 559 3463 722 
L 3463 178 
Q 3153 47 2828 -22 
Q 2503 -91 2169 -91 
Q 1331 -91 842 396 
Q 353 884 353 1716 
Q 353 2575 817 3079 
Q 1281 3584 2069 3584 
Q 2775 3584 3186 3129 
Q 3597 2675 3597 1894 
z
M 3022 2063 
Q 3016 2534 2758 2815 
Q 2500 3097 2075 3097 
Q 1594 3097 1305 2825 
Q 1016 2553 972 2059 
L 3022 2063 
z
" transform="scale(0.015625)"/>
       <path id="DejaVuSans-70" d="M 1159 525 
L 1159 -1331 
L 581 -1331 
L 581 3500 
L 1159 3500 
L 1159 2969 
Q 1341 3281 1617 3432 
Q 1894 3584 2278 3584 
Q 2916 3584 3314 3078 
Q 3713 2572 3713 1747 
Q 3713 922 3314 415 
Q 2916 -91 2278 -91 
Q 1894 -91 1617 61 
Q 1341 213 1159 525 
z
M 3116 1747 
Q 3116 2381 2855 2742 
Q 2594 3103 2138 3103 
Q 1681 3103 1420 2742 
Q 1159 2381 1159 1747 
Q 1159 1113 1420 752 
Q 1681 391 2138 391 
Q 2594 391 2855 752 
Q 3116 1113 3116 1747 
z
" transform="scale(0.015625)"/>
       <path id="DejaVuSans-20" transform="scale(0.015625)"/>
       <path id="DejaVuSans-28" d="M 1984 4856 
Q 1566 4138 1362 3434 
Q 1159 2731 1159 2009 
Q 1159 1288 1364 580 
Q 1569 -128 1984 -844 
L 1484 -844 
Q 1016 -109 783 600 
Q 550 1309 550 2009 
Q 550 2706 781 3412 
Q 1013 4119 1484 4856 
L 1984 4856 
z
" transform="scale(0.015625)"/>
       <path id="DejaVuSans-d7" d="M 4488 3438 
L 3059 2003 
L 4488 575 
L 4116 197 
L 2681 1631 
L 1247 197 
L 878 575 
L 2303 2003 
L 878 3438 
L 1247 3816 
L 2681 2381 
L 4116 3816 
L 4488 3438 
z
" transform="scale(0.015625)"/>
       <path id="DejaVuSans-33" d="M 2597 2516 
Q 3050 2419 3304 2112 
Q 3559 1806 3559 1356 
Q 3559 666 3084 287 
Q 2609 -91 1734 -91 
Q 1441 -91 1130 -33 
Q 819 25 488 141 
L 488 750 
Q 750 597 1062 519 
Q 1375 441 1716 441 
Q 2309 441 2620 675 
Q 2931 909 2931 1356 
Q 2931 1769 2642 2001 
Q 2353 2234 1838 2234 
L 1294 2234 
L 1294 2753 
L 1863 2753 
Q 2328 2753 2575 2939 
Q 2822 3125 2822 3475 
Q 2822 3834 2567 4026 
Q 2313 4219 1838 4219 
Q 1578 4219 1281 4162 
Q 984 4106 628 3988 
L 628 4550 
Q 988 4650 1302 4700 
Q 1616 4750 1894 4750 
Q 2613 4750 3031 4423 
Q 3450 4097 3450 3541 
Q 3450 3153 3228 2886 
Q 3006 2619 2597 2516 
z
" transform="scale(0.015625)"/>
       <path id="DejaVuSans-29" d="M 513 4856 
L 1013 4856 
Q 1481 4119 1714 3412 
Q 1947 2706 1947 2009 
Q 1947 1309 1714 600 
Q 1481 -109 1013 -844 
L 513 -844 
Q 928 -128 1133 580 
Q 1338 1288 1338 2009 
Q 1338 2731 1133 3434 
Q 928 4138 513 4856 
z
" transform="scale(0.015625)"/>
      </defs>
      <use xlink:href="#DejaVuSans-53" transform="translate(0 0.765625)"/>
      <use xlink:href="#DejaVuSans-74" transform="translate(63.476562 0.765625)"/>
      <use xlink:href="#DejaVuSans-65" transform="translate(102.685547 0.765625)"/>
      <use xlink:href="#DejaVuSans-70" transform="translate(164.208984 0.765625)"/>
      <use xlink:href="#DejaVuSans-20" transform="translate(227.685547 0.765625)"/>
      <use xlink:href="#DejaVuSans-28" transform="translate(259.472656 0.765625)"/>
      <use xlink:href="#DejaVuSans-d7" transform="translate(298.486328 0.765625)"/>
      <use xlink:href="#DejaVuSans-31" transform="translate(382.275391 0.765625)"/>
      <use xlink:href="#DejaVuSans-30" transform="translate(445.898438 0.765625)"/>
      <use xlink:href="#DejaVuSans-33" transform="translate(510.478516 39.046875) scale(0.7)"/>
      <use xlink:href="#DejaVuSans-29" transform="translate(557.749023 0.765625)"/>
     </g>
    </g>
   </g>
   <g id="matplotlib.axis_3">
    <g id="ytick_7">
     <g id="line2d_17">
      <defs>
       <path id="m9680715b92" d="M 0 0 
L -3.5 0 
" style="stroke: #000000; stroke-width: 0.8"/>
      </defs>
      <g>
       <use xlink:href="#m9680715b92" x="48.38" y="170.788" style="stroke: #000000; stroke-width: 0.8"/>
      </g>
     </g>
     <g id="text_18">
      <!-- 0 -->
      <g style="fill: #d62728" transform="translate(34.19 173.827375) scale(0.08 -0.08)">
       <use xlink:href="#DejaVuSans-30"/>
      </g>
     </g>
    </g>
    <g id="ytick_8">
     <g id="line2d_18">
      <g>
       <use xlink:href="#m9680715b92" x="48.38" y="139.3664" style="stroke: #000000; stroke-width: 0.8"/>
      </g>
     </g>
     <g id="text_19">
      <!-- 20 -->
      <g style="fill: #d62728" transform="translate(29.1 142.405775) scale(0.08 -0.08)">
       <use xlink:href="#DejaVuSans-32"/>
       <use xlink:href="#DejaVuSans-30" x="63.623047"/>
      </g>
     </g>
    </g>
    <g id="ytick_9">
     <g id="line2d_19">
      <g>
       <use xlink:href="#m9680715b92" x="48.38" y="107.9448" style="stroke: #000000; stroke-width: 0.8"/>
      </g>
     </g>
     <g id="text_20">
      <!-- 40 -->
      <g style="fill: #d62728" transform="translate(29.1 110.984175) scale(0.08 -0.08)">
       <use xlink:href="#DejaVuSans-34"/>
       <use xlink:href="#DejaVuSans-30" x="63.623047"/>
      </g>
     </g>
    </g>
    <g id="ytick_10">
     <g id="line2d_20">
      <g>
       <use xlink:href="#m9680715b92" x="48.38" y="76.5232" style="stroke: #000000; stroke-width: 0.8"/>
      </g>
     </g>
     <g id="text_21">
      <!-- 60 -->
      <g style="fill: #d62728" transform="translate(29.1 79.562575) scale(0.08 -0.08)">
       <use xlink:href="#DejaVuSans-36"/>
       <use xlink:href="#DejaVuSans-30" x="63.623047"/>
      </g>
     </g>
    </g>
    <g id="ytick_11">
     <g id="line2d_21">
      <g>
       <use xlink:href="#m9680715b92" x="48.38" y="45.1016" style="stroke: #000000; stroke-width: 0.8"/>
      </g>
     </g>
     <g id="text_22">
      <!-- 80 -->
      <g style="fill: #d62728" transform="translate(29.1 48.140975) scale(0.08 -0.08)">
       <use xlink:href="#DejaVuSans-38"/>
       <use xlink:href="#DejaVuSans-30" x="63.623047"/>
      </g>
     </g>
    </g>
    <g id="ytick_12">
     <g id="line2d_22">
      <g>
       <use xlink:href="#m9680715b92" x="48.38" y="13.68" style="stroke: #000000; stroke-width: 0.8"/>
      </g>
     </g>
     <g id="text_23">
      <!-- 100 -->
      <g style="fill: #d62728" transform="translate(24.01 16.719375) scale(0.08 -0.08)">
       <use xlink:href="#DejaVuSans-31"/>
       <use xlink:href="#DejaVuSans-30" x="63.623047"/>
       <use xlink:href="#DejaVuSans-30" x="127.246094"/>
      </g>
     </g>
    </g>
    <g id="text_24">
     <!-- Success rate (%) -->
     <g style="fill: #d62728" transform="translate(18.179875 129.294375) rotate(-90) scale(0.088 -0.088)">
      <defs>
       <path id="DejaVuSans-75" d="M 544 1381 
L 544 3500 
L 1119 3500 
L 1119 1403 
Q 1119 906 1312 657 
Q 1506 409 1894 409 
Q 2359 409 2629 706 
Q 2900 1003 2900 1516 
L 2900 3500 
L 3475 3500 
L 3475 0 
L 2900 0 
L 2900 538 
Q 2691 219 2414 64 
Q 2138 -91 1772 -91 
Q 1169 -91 856 284 
Q 544 659 544 1381 
z
M 1991 3584 
L 1991 3584 
z
" transform="scale(0.015625)"/>
       <path id="DejaVuSans-63" d="M 3122 3366 
L 3122 2828 
Q 2878 2963 2633 3030 
Q 2388 3097 2138 3097 
Q 1578 3097 1268 2742 
Q 959 2388 959 1747 
Q 959 1106 1268 751 
Q 1578 397 2138 397 
Q 2388 397 2633 464 
Q 2878 531 3122 666 
L 3122 134 
Q 2881 22 2623 -34 
Q 2366 -91 2075 -91 
Q 1284 -91 818 406 
Q 353 903 353 1747 
Q 353 2603 823 3093 
Q 1294 3584 2113 3584 
Q 2378 3584 2631 3529 
Q 2884 3475 3122 3366 
z
" transform="scale(0.015625)"/>
       <path id="DejaVuSans-72" d="M 2631 2963 
Q 2534 3019 2420 3045 
Q 2306 3072 2169 3072 
Q 1681 3072 1420 2755 
Q 1159 2438 1159 1844 
L 1159 0 
L 581 0 
L 581 3500 
L 1159 3500 
L 1159 2956 
Q 1341 3275 1631 3429 
Q 1922 3584 2338 3584 
Q 2397 3584 2469 3576 
Q 2541 3569 2628 3553 
L 2631 2963 
z
" transform="scale(0.015625)"/>
       <path id="DejaVuSans-61" d="M 2194 1759 
Q 1497 1759 1228 1600 
Q 959 1441 959 1056 
Q 959 750 1161 570 
Q 1363 391 1709 391 
Q 2188 391 2477 730 
Q 2766 1069 2766 1631 
L 2766 1759 
L 2194 1759 
z
M 3341 1997 
L 3341 0 
L 2766 0 
L 2766 531 
Q 2569 213 2275 61 
Q 1981 -91 1556 -91 
Q 1019 -91 701 211 
Q 384 513 384 1019 
Q 384 1609 779 1909 
Q 1175 2209 1959 2209 
L 2766 2209 
L 2766 2266 
Q 2766 2663 2505 2880 
Q 2244 3097 1772 3097 
Q 1472 3097 1187 3025 
Q 903 2953 641 2809 
L 641 3341 
Q 956 3463 1253 3523 
Q 1550 3584 1831 3584 
Q 2591 3584 2966 3190 
Q 3341 2797 3341 1997 
z
" transform="scale(0.015625)"/>
       <path id="DejaVuSans-25" d="M 4653 2053 
Q 4381 2053 4226 1822 
Q 4072 1591 4072 1178 
Q 4072 772 4226 539 
Q 4381 306 4653 306 
Q 4919 306 5073 539 
Q 5228 772 5228 1178 
Q 5228 1588 5073 1820 
Q 4919 2053 4653 2053 
z
M 4653 2450 
Q 5147 2450 5437 2106 
Q 5728 1763 5728 1178 
Q 5728 594 5436 251 
Q 5144 -91 4653 -91 
Q 4153 -91 3862 251 
Q 3572 594 3572 1178 
Q 3572 1766 3864 2108 
Q 4156 2450 4653 2450 
z
M 1428 4353 
Q 1159 4353 1004 4120 
Q 850 3888 850 3481 
Q 850 3069 1003 2837 
Q 1156 2606 1428 2606 
Q 1700 2606 1854 2837 
Q 2009 3069 2009 3481 
Q 2009 3884 1853 4118 
Q 1697 4353 1428 4353 
z
M 4250 4750 
L 4750 4750 
L 1831 -91 
L 1331 -91 
L 4250 4750 
z
M 1428 4750 
Q 1922 4750 2215 4408 
Q 2509 4066 2509 3481 
Q 2509 2891 2217 2550 
Q 1925 2209 1428 2209 
Q 931 2209 642 2551 
Q 353 2894 353 3481 
Q 353 4063 643 4406 
Q 934 4750 1428 4750 
z
" transform="scale(0.015625)"/>
      </defs>
      <use xlink:href="#DejaVuSans-53"/>
      <use xlink:href="#DejaVuSans-75" x="63.476562"/>
      <use xlink:href="#DejaVuSans-63" x="126.855469"/>
      <use xlink:href="#DejaVuSans-63" x="181.835938"/>
      <use xlink:href="#DejaVuSans-65" x="236.816406"/>
      <use xlink:href="#DejaVuSans-73" x="298.339844"/>
      <use xlink:href="#DejaVuSans-73" x="350.439453"/>
      <use xlink:href="#DejaVuSans-20" x="402.539062"/>
      <use xlink:href="#DejaVuSans-72" x="434.326172"/>
      <use xlink:href="#DejaVuSans-61" x="475.439453"/>
      <use xlink:href="#DejaVuSans-74" x="536.71875"/>
      <use xlink:href="#DejaVuSans-65" x="575.927734"/>
      <use xlink:href="#DejaVuSans-20" x="637.451172"/>
      <use xlink:href="#DejaVuSans-28" x="669.238281"/>
      <use xlink:href="#DejaVuSans-25" x="708.251953"/>
      <use xlink:href="#DejaVuSans-29" x="803.271484"/>
     </g>
    </g>
   </g>
   <g id="line2d_23">
    <path d="M 50.0679 167.017408 
L 77.0743 167.017408 
L 78.7622 166.807931 
L 80.4501 167.017408 
L 83.8259 167.122147 
L 85.5138 167.226885 
L 87.2017 166.807931 
L 90.5775 166.912669 
L 92.2654 166.598453 
L 93.9533 165.970021 
L 95.6412 165.027373 
L 97.3291 164.817896 
L 99.017 164.398941 
L 100.7049 164.713157 
L 102.3928 164.398941 
L 104.0807 163.770509 
L 105.7686 163.456293 
L 107.4565 162.9326 
L 109.1444 161.989952 
L 110.8323 161.466259 
L 114.2081 161.152043 
L 115.896 160.418872 
L 117.5839 159.162008 
L 119.2718 159.057269 
L 120.9597 159.162008 
L 122.6476 158.533576 
L 124.3355 158.743053 
L 126.0234 158.114621 
L 129.3992 157.590928 
L 131.0871 157.276712 
L 132.775 157.171973 
L 136.1508 156.229325 
L 137.8387 155.915109 
L 139.5266 155.391416 
L 141.2145 155.181939 
L 142.9024 155.496155 
L 144.5903 154.762984 
L 146.2782 154.344029 
L 147.9661 154.553507 
L 149.654 153.925075 
L 151.3419 152.982427 
L 154.7177 152.772949 
L 156.4056 152.039779 
L 158.0935 150.573437 
L 159.7814 150.573437 
L 161.4693 150.259221 
L 163.1572 150.36396 
L 164.8451 150.049744 
L 168.2209 149.840267 
L 169.9088 150.049744 
L 171.5967 149.002357 
L 173.2846 147.536016 
L 174.9725 145.65072 
L 176.6604 144.393856 
L 178.3483 142.822776 
L 181.7241 139.052184 
L 185.0999 137.481104 
L 186.7878 135.072115 
L 188.4757 133.186819 
L 190.1636 130.882568 
L 191.8515 129.625704 
L 193.5394 128.997272 
L 195.2273 127.740408 
L 196.9152 127.426192 
L 200.291 126.064589 
L 201.9789 125.959851 
L 203.6668 124.179293 
L 205.3547 123.446123 
L 208.7305 122.503475 
L 210.4184 121.037133 
L 212.1063 121.456088 
L 213.7942 120.094485 
L 215.4821 119.570792 
L 217.17 117.999712 
L 218.8579 116.219155 
L 220.5458 113.705427 
L 222.2337 111.715392 
L 223.9216 110.144312 
L 227.2974 108.468493 
L 228.9853 108.468493 
L 230.6732 107.316368 
L 232.3611 106.687936 
L 234.049 105.116856 
L 235.7369 104.383685 
L 240.8006 100.298877 
L 242.4885 99.146752 
L 244.1764 98.51832 
L 245.8643 98.832536 
L 247.5522 97.994627 
L 249.2401 96.528285 
L 250.928 96.004592 
L 252.6159 94.119296 
L 254.3038 93.071909 
L 255.9917 92.862432 
L 257.6796 91.919784 
L 259.3675 91.605568 
L 261.0554 91.081875 
L 262.7433 89.720272 
L 264.4312 89.301317 
L 266.1191 89.615533 
L 267.807 89.09184 
L 269.4949 87.625499 
L 271.1828 87.730237 
L 272.8707 87.625499 
L 274.5586 88.149192 
L 276.2465 86.997067 
L 277.9344 86.997067 
L 279.6223 86.682851 
L 281.3102 86.054419 
L 282.9981 85.216509 
L 284.686 85.111771 
L 286.3739 83.331213 
L 288.0618 83.331213 
L 289.7497 83.645429 
L 291.4376 83.226475 
L 293.1255 84.169123 
L 294.8134 83.854907 
L 296.5013 82.388565 
L 298.1892 82.598043 
L 299.8771 82.074349 
L 301.565 83.540691 
L 303.2529 85.635464 
L 304.9408 85.844941 
L 306.6287 85.740203 
L 308.3166 86.473373 
L 310.0045 85.844941 
L 311.6924 87.311283 
L 313.3803 87.101805 
L 315.0682 86.682851 
L 316.7561 85.635464 
L 318.444 84.064384 
L 320.1319 84.692816 
L 321.8198 84.064384 
L 323.5077 82.702781 
L 325.1956 82.388565 
L 326.8835 80.817485 
L 328.5714 78.303757 
L 330.2593 77.046893 
L 331.9472 76.418461 
L 333.6351 74.742643 
L 335.323 74.533165 
L 337.0109 72.438392 
L 338.6988 72.857347 
L 342.0746 71.705221 
L 343.7625 71.495744 
L 345.4504 71.705221 
L 347.1383 72.438392 
L 348.8262 72.543131 
L 350.5141 72.333653 
L 352.202 71.80996 
L 353.8899 70.553096 
L 355.5778 70.343619 
L 357.2657 69.924664 
L 358.9536 69.924664 
L 360.6415 69.610448 
L 362.3294 71.391005 
L 364.0173 70.343619 
L 369.081 69.819925 
L 370.7689 68.039368 
L 372.4568 67.09672 
L 374.1447 66.991981 
L 375.8326 66.049333 
L 377.5205 65.420901 
L 379.2084 66.154072 
L 380.8963 67.306197 
L 382.5842 66.154072 
L 384.2721 66.363549 
L 385.96 66.258811 
L 385.96 66.258811 
" clip-path="url(#p0866f939c1)" style="fill: none; stroke: #d62728; stroke-width: 2; stroke-linecap: square"/>
   </g>
   <g id="patch_8">
    <path d="M 48.38 170.788 
L 48.38 13.68 
" style="fill: none; stroke: #000000; stroke-width: 0.8; stroke-linejoin: miter; stroke-linecap: square"/>
   </g>
   <g id="patch_9">
    <path d="M 385.96 170.788 
L 385.96 13.68 
" style="fill: none; stroke: #000000; stroke-width: 0.8; stroke-linejoin: miter; stroke-linecap: square"/>
   </g>
   <g id="patch_10">
    <path d="M 48.38 170.788 
L 385.96 170.788 
" style="fill: none; stroke: #000000; stroke-width: 0.8; stroke-linejoin: miter; stroke-linecap: square"/>
   </g>
   <g id="patch_11">
    <path d="M 48.38 13.68 
L 385.96 13.68 
" style="fill: none; stroke: #000000; stroke-width: 0.8; stroke-linejoin: miter; stroke-linecap: square"/>
   </g>
   <g id="text_25">
    <!-- Stage I -->
    <g style="fill: #2ca02c" transform="translate(49.22395 107.9448) scale(0.09 -0.09)">
     <defs>
      <path id="DejaVuSans-67" d="M 2906 1791 
Q 2906 2416 2648 2759 
Q 2391 3103 1925 3103 
Q 1463 3103 1205 2759 
Q 947 2416 947 1791 
Q 947 1169 1205 825 
Q 1463 481 1925 481 
Q 2391 481 2648 825 
Q 2906 1169 2906 1791 
z
M 3481 434 
Q 3481 -459 3084 -895 
Q 2688 -1331 1869 -1331 
Q 1566 -1331 1297 -1286 
Q 1028 -1241 775 -1147 
L 775 -588 
Q 1028 -725 1275 -790 
Q 1522 -856 1778 -856 
Q 2344 -856 2625 -561 
Q 2906 -266 2906 331 
L 2906 616 
Q 2728 306 2450 153 
Q 2172 0 1784 0 
Q 1141 0 747 490 
Q 353 981 353 1791 
Q 353 2603 747 3093 
Q 1141 3584 1784 3584 
Q 2172 3584 2450 3431 
Q 2728 3278 2906 2969 
L 2906 3500 
L 3481 3500 
L 3481 434 
z
" transform="scale(0.015625)"/>
      <path id="DejaVuSans-49" d="M 628 4666 
L 1259 4666 
L 1259 0 
L 628 0 
L 628 4666 
z
" transform="scale(0.015625)"/>
     </defs>
     <use xlink:href="#DejaVuSans-53"/>
     <use xlink:href="#DejaVuSans-74" x="63.476562"/>
     <use xlink:href="#DejaVuSans-61" x="102.685547"/>
     <use xlink:href="#DejaVuSans-67" x="163.964844"/>
     <use xlink:href="#DejaVuSans-65" x="227.441406"/>
     <use xlink:href="#DejaVuSans-20" x="288.964844"/>
     <use xlink:href="#DejaVuSans-49" x="320.751953"/>
    </g>
   </g>
   <g id="text_26">
    <!-- Stage II -->
    <g style="fill: #9467bd" transform="translate(100.7049 107.9448) scale(0.1 -0.1)">
     <use xlink:href="#DejaVuSans-53"/>
     <use xlink:href="#DejaVuSans-74" x="63.476562"/>
     <use xlink:href="#DejaVuSans-61" x="102.685547"/>
     <use xlink:href="#DejaVuSans-67" x="163.964844"/>
     <use xlink:href="#DejaVuSans-65" x="227.441406"/>
     <use xlink:href="#DejaVuSans-20" x="288.964844"/>
     <use xlink:href="#DejaVuSans-49" x="320.751953"/>
     <use xlink:href="#DejaVuSans-49" x="350.244141"/>
    </g>
   </g>
  </g>
 </g>
 <defs>
  <clipPath id="p0866f939c1">
   <rect x="48.38" y="13.68" width="337.58" height="157.108"/>
  </clipPath>
 </defs>
</svg>
