<?xml version="1.0" encoding="utf-8" standalone="no"?>
<!DOCTYPE svg PUBLIC "-//W3C//DTD SVG 1.1//EN"
  "http://www.w3.org/Graphics/SVG/1.1/DTD/svg11.dtd">
<svg xmlns:xlink="http://www.w3.org/1999/xlink" width="432pt" height="216pt" viewBox="0 0 432 216" xmlns="http://www.w3.org/2000/svg" version="1.1">
 <metadata>
  <rdf:RDF xmlns:dc="http://purl.org/dc/elements/1.1/" xmlns:cc="http://creativecommons.org/ns#" xmlns:rdf="http://www.w3.org/1999/02/22-rdf-syntax-ns#">
   <cc:Work>
    <dc:type rdf:resource="http://purl.org/dc/dcmitype/StillImage"/>
    <dc:date>2023-11-30T09:25:51.901982</dc:date>
    <dc:format>image/svg+xml</dc:format>
    <dc:creator>
     <cc:Agent>
      <dc:title>Matplotlib v3.7.1, https://matplotlib.org/</dc:title>
     </cc:Agent>
    </dc:creator>
   </cc:Work>
  </rdf:RDF>
 </metadata>
 <defs>
  <style type="text/css">*{stroke-linejoin: round; stroke-linecap: butt}</style>
 </defs>
 <g id="figure_1">
  <g id="patch_1">
   <path d="M 0 216 
L 432 216 
L 432 0 
L 0 0 
z
" style="fill: #ffffff"/>
  </g>
  <g id="axes_1">
   <g id="PolyCollection_1">
    <defs>
     <path id="mc1e4953816" d="M 50.0679 -153.955302 
L 50.0679 -140.986049 
L 51.7558 -140.986049 
L 53.4437 -140.986049 
L 55.1316 -140.986049 
L 56.8195 -140.986049 
L 58.5074 -140.986049 
L 60.1953 -140.986049 
L 61.8832 -140.986049 
L 63.5711 -140.986049 
L 65.259 -140.986049 
L 66.9469 -140.986049 
L 68.6348 -140.986049 
L 70.3227 -140.986049 
L 72.0106 -140.986049 
L 73.6985 -140.986049 
L 75.3864 -140.986049 
L 77.0743 -141.130029 
L 78.7622 -140.945081 
L 80.4501 -140.61431 
L 82.138 -140.682305 
L 83.8259 -140.908847 
L 85.5138 -140.499333 
L 87.2017 -140.318075 
L 88.8896 -140.464276 
L 90.5775 -140.216773 
L 92.2654 -140.705601 
L 93.9533 -140.817336 
L 95.6412 -140.874812 
L 97.3291 -140.846809 
L 99.017 -140.636184 
L 100.7049 -140.099081 
L 102.3928 -140.016378 
L 104.0807 -139.448221 
L 105.7686 -139.067828 
L 107.4565 -139.076551 
L 109.1444 -139.022829 
L 110.8323 -138.834089 
L 112.5202 -138.572718 
L 114.2081 -138.418464 
L 115.896 -138.41004 
L 117.5839 -138.597135 
L 119.2718 -138.643191 
L 120.9597 -138.772755 
L 122.6476 -138.979678 
L 124.3355 -138.897902 
L 126.0234 -139.05318 
L 127.7113 -139.022437 
L 129.3992 -139.229102 
L 131.0871 -139.395372 
L 132.775 -139.364558 
L 134.4629 -139.285876 
L 136.1508 -139.278394 
L 137.8387 -139.359732 
L 139.5266 -139.497015 
L 141.2145 -139.438056 
L 142.9024 -139.30282 
L 144.5903 -139.302865 
L 146.2782 -139.303696 
L 147.9661 -139.235235 
L 149.654 -139.399791 
L 151.3419 -139.337599 
L 153.0298 -139.470522 
L 154.7177 -139.707523 
L 156.4056 -139.878829 
L 158.0935 -140.256403 
L 159.7814 -140.801136 
L 161.4693 -140.820134 
L 163.1572 -140.560017 
L 164.8451 -140.198299 
L 166.533 -140.184809 
L 168.2209 -140.136094 
L 169.9088 -140.358524 
L 171.5967 -140.467157 
L 173.2846 -140.379193 
L 174.9725 -140.381424 
L 176.6604 -140.372518 
L 178.3483 -140.291316 
L 180.0362 -140.289665 
L 181.7241 -140.279015 
L 183.412 -140.541938 
L 185.0999 -140.555998 
L 186.7878 -140.711884 
L 188.4757 -141.004899 
L 190.1636 -141.164147 
L 191.8515 -141.094042 
L 193.5394 -140.314353 
L 195.2273 -139.423173 
L 196.9152 -138.268209 
L 198.6031 -137.74088 
L 200.291 -137.41104 
L 201.9789 -137.20397 
L 203.6668 -136.8068 
L 205.3547 -135.767422 
L 207.0426 -126.360243 
L 208.7305 -93.874401 
L 210.4184 -72.280201 
L 212.1063 -65.437795 
L 213.7942 -57.824651 
L 215.4821 -47.747311 
L 217.17 -39.507828 
L 218.8579 -32.011235 
L 220.5458 -25.459739 
L 222.2337 -20.499692 
L 223.9216 -16.702644 
L 225.6095 -15.631183 
L 227.2974 -16.783465 
L 228.9853 -21.382033 
L 230.6732 -30.617975 
L 232.3611 -40.850203 
L 234.049 -39.635578 
L 235.7369 -38.85584 
L 237.4248 -42.522704 
L 239.1127 -46.64015 
L 240.8006 -47.173549 
L 242.4885 -48.520213 
L 244.1764 -49.320766 
L 245.8643 -49.505226 
L 247.5522 -49.866261 
L 249.2401 -49.850495 
L 250.928 -49.664484 
L 252.6159 -49.306376 
L 254.3038 -48.767508 
L 255.9917 -48.886851 
L 257.6796 -49.471875 
L 259.3675 -49.682735 
L 261.0554 -50.067036 
L 262.7433 -50.347871 
L 264.4312 -50.754732 
L 266.1191 -50.93801 
L 267.807 -50.648387 
L 269.4949 -50.553058 
L 271.1828 -50.666812 
L 272.8707 -50.675957 
L 274.5586 -50.514383 
L 276.2465 -50.565302 
L 277.9344 -50.579927 
L 279.6223 -51.243976 
L 281.3102 -50.121557 
L 282.9981 -50.123935 
L 284.686 -50.237202 
L 286.3739 -50.030279 
L 288.0618 -50.42177 
L 289.7497 -50.45103 
L 291.4376 -50.88059 
L 293.1255 -51.439196 
L 294.8134 -51.987757 
L 296.5013 -52.580268 
L 298.1892 -52.614062 
L 299.8771 -52.544881 
L 301.565 -52.311307 
L 303.2529 -51.836905 
L 304.9408 -52.354594 
L 306.6287 -52.328516 
L 308.3166 -52.584021 
L 310.0045 -52.791784 
L 311.6924 -52.806385 
L 313.3803 -53.090979 
L 315.0682 -53.155502 
L 316.7561 -53.753246 
L 318.444 -54.894133 
L 320.1319 -54.752799 
L 321.8198 -55.346116 
L 323.5077 -56.360259 
L 325.1956 -56.358764 
L 326.8835 -55.905763 
L 328.5714 -55.398364 
L 330.2593 -54.740561 
L 331.9472 -54.562684 
L 333.6351 -54.273904 
L 335.323 -53.554033 
L 337.0109 -53.763371 
L 338.6988 -53.816631 
L 340.3867 -53.778839 
L 342.0746 -53.767328 
L 343.7625 -53.469463 
L 345.4504 -53.857186 
L 347.1383 -53.690347 
L 348.8262 -53.381951 
L 350.5141 -53.186399 
L 352.202 -53.283441 
L 353.8899 -53.696311 
L 355.5778 -54.392479 
L 357.2657 -54.157427 
L 358.9536 -54.895115 
L 360.6415 -56.585163 
L 362.3294 -56.526456 
L 364.0173 -56.561989 
L 365.7052 -56.592112 
L 367.3931 -56.302063 
L 369.081 -56.39629 
L 370.7689 -56.458765 
L 372.4568 -56.496048 
L 374.1447 -56.607605 
L 375.8326 -56.433136 
L 377.5205 -56.397603 
L 379.2084 -56.400153 
L 380.8963 -57.001583 
L 382.5842 -57.518297 
L 384.2721 -57.4954 
L 385.96 -56.671846 
L 385.96 -63.701377 
L 385.96 -63.701377 
L 384.2721 -61.979871 
L 382.5842 -61.996721 
L 380.8963 -62.055166 
L 379.2084 -63.245397 
L 377.5205 -63.229947 
L 375.8326 -63.230762 
L 374.1447 -63.203516 
L 372.4568 -63.201822 
L 370.7689 -63.201738 
L 369.081 -63.1652 
L 367.3931 -63.108605 
L 365.7052 -63.189571 
L 364.0173 -63.305031 
L 362.3294 -63.572349 
L 360.6415 -63.429467 
L 358.9536 -66.575931 
L 357.2657 -68.534972 
L 355.5778 -68.448174 
L 353.8899 -68.190091 
L 352.202 -68.218184 
L 350.5141 -68.22167 
L 348.8262 -68.50506 
L 347.1383 -68.637204 
L 345.4504 -68.641558 
L 343.7625 -68.744365 
L 342.0746 -69.097623 
L 340.3867 -69.786592 
L 338.6988 -69.826408 
L 337.0109 -69.785283 
L 335.323 -69.726847 
L 333.6351 -68.272842 
L 331.9472 -66.366564 
L 330.2593 -66.355862 
L 328.5714 -66.554279 
L 326.8835 -67.056147 
L 325.1956 -67.409861 
L 323.5077 -67.443962 
L 321.8198 -67.730232 
L 320.1319 -67.909852 
L 318.444 -67.846951 
L 316.7561 -67.83466 
L 315.0682 -67.016721 
L 313.3803 -66.765347 
L 311.6924 -66.58405 
L 310.0045 -66.571851 
L 308.3166 -65.824407 
L 306.6287 -65.903801 
L 304.9408 -65.997063 
L 303.2529 -65.385428 
L 301.565 -63.893086 
L 299.8771 -62.294981 
L 298.1892 -60.903794 
L 296.5013 -60.889176 
L 294.8134 -60.981948 
L 293.1255 -60.932309 
L 291.4376 -61.116389 
L 289.7497 -61.200706 
L 288.0618 -60.423092 
L 286.3739 -60.119034 
L 284.686 -59.15324 
L 282.9981 -58.822715 
L 281.3102 -58.85763 
L 279.6223 -56.989418 
L 277.9344 -58.213097 
L 276.2465 -58.240013 
L 274.5586 -58.653695 
L 272.8707 -58.689863 
L 271.1828 -58.509533 
L 269.4949 -58.537858 
L 267.807 -58.53239 
L 266.1191 -58.470542 
L 264.4312 -58.550278 
L 262.7433 -58.685794 
L 261.0554 -58.809829 
L 259.3675 -58.901966 
L 257.6796 -58.934832 
L 255.9917 -58.839536 
L 254.3038 -58.69548 
L 252.6159 -57.726036 
L 250.928 -56.903109 
L 249.2401 -56.59633 
L 247.5522 -56.395508 
L 245.8643 -57.068837 
L 244.1764 -57.851549 
L 242.4885 -59.506705 
L 240.8006 -62.153802 
L 239.1127 -64.33923 
L 237.4248 -72.108613 
L 235.7369 -80.51439 
L 234.049 -80.455163 
L 232.3611 -80.99434 
L 230.6732 -100.168896 
L 228.9853 -120.471307 
L 227.2974 -136.083095 
L 225.6095 -148.702734 
L 223.9216 -158.774425 
L 222.2337 -166.400065 
L 220.5458 -172.20959 
L 218.8579 -176.590068 
L 217.17 -179.723927 
L 215.4821 -181.879194 
L 213.7942 -181.999573 
L 212.1063 -182.760808 
L 210.4184 -183.420426 
L 208.7305 -173.229027 
L 207.0426 -151.308636 
L 205.3547 -145.435664 
L 203.6668 -145.421781 
L 201.9789 -145.808388 
L 200.291 -146.070033 
L 198.6031 -146.174885 
L 196.9152 -146.318482 
L 195.2273 -145.821901 
L 193.5394 -145.486309 
L 191.8515 -145.179313 
L 190.1636 -145.149487 
L 188.4757 -145.256474 
L 186.7878 -145.413248 
L 185.0999 -145.406192 
L 183.412 -145.405922 
L 181.7241 -145.212818 
L 180.0362 -144.948348 
L 178.3483 -144.94254 
L 176.6604 -144.714814 
L 174.9725 -144.681253 
L 173.2846 -144.666217 
L 171.5967 -144.418984 
L 169.9088 -144.370836 
L 168.2209 -144.263243 
L 166.533 -144.140271 
L 164.8451 -144.159592 
L 163.1572 -144.064997 
L 161.4693 -143.960916 
L 159.7814 -143.964562 
L 158.0935 -144.204871 
L 156.4056 -144.416006 
L 154.7177 -144.402195 
L 153.0298 -144.194114 
L 151.3419 -143.988014 
L 149.654 -143.677597 
L 147.9661 -143.483757 
L 146.2782 -143.19664 
L 144.5903 -143.189532 
L 142.9024 -143.189527 
L 141.2145 -142.913228 
L 139.5266 -142.724897 
L 137.8387 -142.491756 
L 136.1508 -142.298802 
L 134.4629 -142.111694 
L 132.775 -142.111067 
L 131.0871 -142.423131 
L 129.3992 -142.444074 
L 127.7113 -142.534605 
L 126.0234 -142.585572 
L 124.3355 -142.515287 
L 122.6476 -142.571725 
L 120.9597 -143.00746 
L 119.2718 -143.310593 
L 117.5839 -143.605559 
L 115.896 -144.02125 
L 114.2081 -144.116381 
L 112.5202 -144.481217 
L 110.8323 -144.553965 
L 109.1444 -144.577661 
L 107.4565 -144.566839 
L 105.7686 -144.645148 
L 104.0807 -144.701793 
L 102.3928 -144.78101 
L 100.7049 -145.141169 
L 99.017 -145.34956 
L 97.3291 -145.694823 
L 95.6412 -145.711668 
L 93.9533 -145.713658 
L 92.2654 -146.241181 
L 90.5775 -147.269667 
L 88.8896 -147.358497 
L 87.2017 -147.980191 
L 85.5138 -148.37032 
L 83.8259 -148.540295 
L 82.138 -150.206214 
L 80.4501 -151.378764 
L 78.7622 -151.966774 
L 77.0743 -152.631795 
L 75.3864 -153.955302 
L 73.6985 -153.955302 
L 72.0106 -153.955302 
L 70.3227 -153.955302 
L 68.6348 -153.955302 
L 66.9469 -153.955302 
L 65.259 -153.955302 
L 63.5711 -153.955302 
L 61.8832 -153.955302 
L 60.1953 -153.955302 
L 58.5074 -153.955302 
L 56.8195 -153.955302 
L 55.1316 -153.955302 
L 53.4437 -153.955302 
L 51.7558 -153.955302 
L 50.0679 -153.955302 
z
" style="stroke: #1f77b4; stroke-opacity: 0.2; stroke-width: 0.24"/>
    </defs>
    <g clip-path="url(#paa478c6c2f)">
     <use xlink:href="#mc1e4953816" x="0" y="216" style="fill: #1f77b4; fill-opacity: 0.2; stroke: #1f77b4; stroke-opacity: 0.2; stroke-width: 0.24"/>
    </g>
   </g>
   <g id="matplotlib.axis_1">
    <g id="ytick_1">
     <g id="line2d_1">
      <defs>
       <path id="m7b79dc4713" d="M 0 0 
L 3.5 0 
" style="stroke: #000000; stroke-width: 0.8"/>
      </defs>
      <g>
       <use xlink:href="#m7b79dc4713" x="385.96" y="170.788" style="stroke: #000000; stroke-width: 0.8"/>
      </g>
     </g>
     <g id="text_1">
      <!-- 0.0 -->
      <g style="fill: #1f77b4" transform="translate(395.06 173.827375) scale(0.08 -0.08)">
       <defs>
        <path id="DejaVuSans-30" d="M 2034 4250 
Q 1547 4250 1301 3770 
Q 1056 3291 1056 2328 
Q 1056 1369 1301 889 
Q 1547 409 2034 409 
Q 2525 409 2770 889 
Q 3016 1369 3016 2328 
Q 3016 3291 2770 3770 
Q 2525 4250 2034 4250 
z
M 2034 4750 
Q 2819 4750 3233 4129 
Q 3647 3509 3647 2328 
Q 3647 1150 3233 529 
Q 2819 -91 2034 -91 
Q 1250 -91 836 529 
Q 422 1150 422 2328 
Q 422 3509 836 4129 
Q 1250 4750 2034 4750 
z
" transform="scale(0.015625)"/>
        <path id="DejaVuSans-2e" d="M 684 794 
L 1344 794 
L 1344 0 
L 684 0 
L 684 794 
z
" transform="scale(0.015625)"/>
       </defs>
       <use xlink:href="#DejaVuSans-30"/>
       <use xlink:href="#DejaVuSans-2e" x="63.623047"/>
       <use xlink:href="#DejaVuSans-30" x="95.410156"/>
      </g>
     </g>
    </g>
    <g id="ytick_2">
     <g id="line2d_2">
      <g>
       <use xlink:href="#m7b79dc4713" x="385.96" y="142.222909" style="stroke: #000000; stroke-width: 0.8"/>
      </g>
     </g>
     <g id="text_2">
      <!-- 0.2 -->
      <g style="fill: #1f77b4" transform="translate(395.06 145.262284) scale(0.08 -0.08)">
       <defs>
        <path id="DejaVuSans-32" d="M 1228 531 
L 3431 531 
L 3431 0 
L 469 0 
L 469 531 
Q 828 903 1448 1529 
Q 2069 2156 2228 2338 
Q 2531 2678 2651 2914 
Q 2772 3150 2772 3378 
Q 2772 3750 2511 3984 
Q 2250 4219 1831 4219 
Q 1534 4219 1204 4116 
Q 875 4013 500 3803 
L 500 4441 
Q 881 4594 1212 4672 
Q 1544 4750 1819 4750 
Q 2544 4750 2975 4387 
Q 3406 4025 3406 3419 
Q 3406 3131 3298 2873 
Q 3191 2616 2906 2266 
Q 2828 2175 2409 1742 
Q 1991 1309 1228 531 
z
" transform="scale(0.015625)"/>
       </defs>
       <use xlink:href="#DejaVuSans-30"/>
       <use xlink:href="#DejaVuSans-2e" x="63.623047"/>
       <use xlink:href="#DejaVuSans-32" x="95.410156"/>
      </g>
     </g>
    </g>
    <g id="ytick_3">
     <g id="line2d_3">
      <g>
       <use xlink:href="#m7b79dc4713" x="385.96" y="113.657818" style="stroke: #000000; stroke-width: 0.8"/>
      </g>
     </g>
     <g id="text_3">
      <!-- 0.4 -->
      <g style="fill: #1f77b4" transform="translate(395.06 116.697193) scale(0.08 -0.08)">
       <defs>
        <path id="DejaVuSans-34" d="M 2419 4116 
L 825 1625 
L 2419 1625 
L 2419 4116 
z
M 2253 4666 
L 3047 4666 
L 3047 1625 
L 3713 1625 
L 3713 1100 
L 3047 1100 
L 3047 0 
L 2419 0 
L 2419 1100 
L 313 1100 
L 313 1709 
L 2253 4666 
z
" transform="scale(0.015625)"/>
       </defs>
       <use xlink:href="#DejaVuSans-30"/>
       <use xlink:href="#DejaVuSans-2e" x="63.623047"/>
       <use xlink:href="#DejaVuSans-34" x="95.410156"/>
      </g>
     </g>
    </g>
    <g id="ytick_4">
     <g id="line2d_4">
      <g>
       <use xlink:href="#m7b79dc4713" x="385.96" y="85.092727" style="stroke: #000000; stroke-width: 0.8"/>
      </g>
     </g>
     <g id="text_4">
      <!-- 0.6 -->
      <g style="fill: #1f77b4" transform="translate(395.06 88.132102) scale(0.08 -0.08)">
       <defs>
        <path id="DejaVuSans-36" d="M 2113 2584 
Q 1688 2584 1439 2293 
Q 1191 2003 1191 1497 
Q 1191 994 1439 701 
Q 1688 409 2113 409 
Q 2538 409 2786 701 
Q 3034 994 3034 1497 
Q 3034 2003 2786 2293 
Q 2538 2584 2113 2584 
z
M 3366 4563 
L 3366 3988 
Q 3128 4100 2886 4159 
Q 2644 4219 2406 4219 
Q 1781 4219 1451 3797 
Q 1122 3375 1075 2522 
Q 1259 2794 1537 2939 
Q 1816 3084 2150 3084 
Q 2853 3084 3261 2657 
Q 3669 2231 3669 1497 
Q 3669 778 3244 343 
Q 2819 -91 2113 -91 
Q 1303 -91 875 529 
Q 447 1150 447 2328 
Q 447 3434 972 4092 
Q 1497 4750 2381 4750 
Q 2619 4750 2861 4703 
Q 3103 4656 3366 4563 
z
" transform="scale(0.015625)"/>
       </defs>
       <use xlink:href="#DejaVuSans-30"/>
       <use xlink:href="#DejaVuSans-2e" x="63.623047"/>
       <use xlink:href="#DejaVuSans-36" x="95.410156"/>
      </g>
     </g>
    </g>
    <g id="ytick_5">
     <g id="line2d_5">
      <g>
       <use xlink:href="#m7b79dc4713" x="385.96" y="56.527636" style="stroke: #000000; stroke-width: 0.8"/>
      </g>
     </g>
     <g id="text_5">
      <!-- 0.8 -->
      <g style="fill: #1f77b4" transform="translate(395.06 59.567011) scale(0.08 -0.08)">
       <defs>
        <path id="DejaVuSans-38" d="M 2034 2216 
Q 1584 2216 1326 1975 
Q 1069 1734 1069 1313 
Q 1069 891 1326 650 
Q 1584 409 2034 409 
Q 2484 409 2743 651 
Q 3003 894 3003 1313 
Q 3003 1734 2745 1975 
Q 2488 2216 2034 2216 
z
M 1403 2484 
Q 997 2584 770 2862 
Q 544 3141 544 3541 
Q 544 4100 942 4425 
Q 1341 4750 2034 4750 
Q 2731 4750 3128 4425 
Q 3525 4100 3525 3541 
Q 3525 3141 3298 2862 
Q 3072 2584 2669 2484 
Q 3125 2378 3379 2068 
Q 3634 1759 3634 1313 
Q 3634 634 3220 271 
Q 2806 -91 2034 -91 
Q 1263 -91 848 271 
Q 434 634 434 1313 
Q 434 1759 690 2068 
Q 947 2378 1403 2484 
z
M 1172 3481 
Q 1172 3119 1398 2916 
Q 1625 2713 2034 2713 
Q 2441 2713 2670 2916 
Q 2900 3119 2900 3481 
Q 2900 3844 2670 4047 
Q 2441 4250 2034 4250 
Q 1625 4250 1398 4047 
Q 1172 3844 1172 3481 
z
" transform="scale(0.015625)"/>
       </defs>
       <use xlink:href="#DejaVuSans-30"/>
       <use xlink:href="#DejaVuSans-2e" x="63.623047"/>
       <use xlink:href="#DejaVuSans-38" x="95.410156"/>
      </g>
     </g>
    </g>
    <g id="ytick_6">
     <g id="line2d_6">
      <g>
       <use xlink:href="#m7b79dc4713" x="385.96" y="27.962545" style="stroke: #000000; stroke-width: 0.8"/>
      </g>
     </g>
     <g id="text_6">
      <!-- 1.0 -->
      <g style="fill: #1f77b4" transform="translate(395.06 31.00192) scale(0.08 -0.08)">
       <defs>
        <path id="DejaVuSans-31" d="M 794 531 
L 1825 531 
L 1825 4091 
L 703 3866 
L 703 4441 
L 1819 4666 
L 2450 4666 
L 2450 531 
L 3481 531 
L 3481 0 
L 794 0 
L 794 531 
z
" transform="scale(0.015625)"/>
       </defs>
       <use xlink:href="#DejaVuSans-31"/>
       <use xlink:href="#DejaVuSans-2e" x="63.623047"/>
       <use xlink:href="#DejaVuSans-30" x="95.410156"/>
      </g>
     </g>
    </g>
    <g id="text_7">
     <!-- Loss -->
     <g style="fill: #1f77b4" transform="translate(418.469125 101.885125) rotate(-90) scale(0.088 -0.088)">
      <defs>
       <path id="DejaVuSans-4c" d="M 628 4666 
L 1259 4666 
L 1259 531 
L 3531 531 
L 3531 0 
L 628 0 
L 628 4666 
z
" transform="scale(0.015625)"/>
       <path id="DejaVuSans-6f" d="M 1959 3097 
Q 1497 3097 1228 2736 
Q 959 2375 959 1747 
Q 959 1119 1226 758 
Q 1494 397 1959 397 
Q 2419 397 2687 759 
Q 2956 1122 2956 1747 
Q 2956 2369 2687 2733 
Q 2419 3097 1959 3097 
z
M 1959 3584 
Q 2709 3584 3137 3096 
Q 3566 2609 3566 1747 
Q 3566 888 3137 398 
Q 2709 -91 1959 -91 
Q 1206 -91 779 398 
Q 353 888 353 1747 
Q 353 2609 779 3096 
Q 1206 3584 1959 3584 
z
" transform="scale(0.015625)"/>
       <path id="DejaVuSans-73" d="M 2834 3397 
L 2834 2853 
Q 2591 2978 2328 3040 
Q 2066 3103 1784 3103 
Q 1356 3103 1142 2972 
Q 928 2841 928 2578 
Q 928 2378 1081 2264 
Q 1234 2150 1697 2047 
L 1894 2003 
Q 2506 1872 2764 1633 
Q 3022 1394 3022 966 
Q 3022 478 2636 193 
Q 2250 -91 1575 -91 
Q 1294 -91 989 -36 
Q 684 19 347 128 
L 347 722 
Q 666 556 975 473 
Q 1284 391 1588 391 
Q 1994 391 2212 530 
Q 2431 669 2431 922 
Q 2431 1156 2273 1281 
Q 2116 1406 1581 1522 
L 1381 1569 
Q 847 1681 609 1914 
Q 372 2147 372 2553 
Q 372 3047 722 3315 
Q 1072 3584 1716 3584 
Q 2034 3584 2315 3537 
Q 2597 3491 2834 3397 
z
" transform="scale(0.015625)"/>
      </defs>
      <use xlink:href="#DejaVuSans-4c"/>
      <use xlink:href="#DejaVuSans-6f" x="53.962891"/>
      <use xlink:href="#DejaVuSans-73" x="115.144531"/>
      <use xlink:href="#DejaVuSans-73" x="167.244141"/>
     </g>
    </g>
   </g>
   <g id="line2d_7">
    <path d="M 50.0679 68.529325 
L 75.3864 68.529325 
L 77.0743 69.119088 
L 80.4501 70.003463 
L 82.138 70.555741 
L 83.8259 71.275429 
L 88.8896 72.088614 
L 92.2654 72.526609 
L 93.9533 72.734503 
L 97.3291 72.729184 
L 105.7686 74.143512 
L 110.8323 74.305973 
L 117.5839 74.898653 
L 124.3355 75.293405 
L 126.0234 75.180624 
L 129.3992 75.163412 
L 131.0871 75.090748 
L 132.775 75.262187 
L 134.4629 75.301215 
L 137.8387 75.074256 
L 139.5266 74.889044 
L 144.5903 74.753801 
L 147.9661 74.640504 
L 156.4056 73.852582 
L 161.4693 73.609475 
L 166.533 73.83746 
L 168.2209 73.800331 
L 171.5967 73.556929 
L 174.9725 73.468661 
L 180.0362 73.380993 
L 186.7878 72.937434 
L 190.1636 72.843183 
L 191.8515 72.863323 
L 195.2273 73.377463 
L 200.291 74.259463 
L 201.9789 74.493821 
L 203.6668 74.88571 
L 205.3547 75.398457 
L 207.0426 77.165561 
L 208.7305 82.448286 
L 210.4184 88.149687 
L 212.1063 91.900699 
L 213.7942 96.087888 
L 218.8579 111.699348 
L 225.6095 133.833042 
L 228.9853 145.07333 
L 230.6732 150.606564 
L 232.3611 155.077729 
L 234.049 155.954629 
L 235.7369 156.314885 
L 237.4248 158.684341 
L 239.1127 160.51031 
L 240.8006 161.336325 
L 242.4885 161.986541 
L 244.1764 162.413843 
L 245.8643 162.712968 
L 247.5522 162.869116 
L 252.6159 162.483794 
L 259.3675 161.70765 
L 264.4312 161.347495 
L 266.1191 161.295724 
L 269.4949 161.454542 
L 274.5586 161.415961 
L 276.2465 161.597343 
L 277.9344 161.603488 
L 279.6223 161.883303 
L 281.3102 161.510407 
L 282.9981 161.526675 
L 284.686 161.304779 
L 289.7497 160.174132 
L 293.1255 159.814248 
L 296.5013 159.265278 
L 298.1892 159.241072 
L 301.565 157.897804 
L 304.9408 156.824172 
L 306.6287 156.883842 
L 308.3166 156.795786 
L 310.0045 156.318182 
L 311.6924 156.304783 
L 315.0682 155.913888 
L 316.7561 155.206047 
L 318.444 154.629458 
L 320.1319 154.668674 
L 321.8198 154.461826 
L 323.5077 154.097889 
L 325.1956 154.115687 
L 328.5714 155.023679 
L 330.2593 155.451789 
L 331.9472 155.535376 
L 333.6351 154.726627 
L 335.323 154.35956 
L 338.6988 154.178481 
L 340.3867 154.217284 
L 343.7625 154.893086 
L 345.4504 154.750628 
L 347.1383 154.836224 
L 350.5141 155.295965 
L 352.202 155.249187 
L 353.8899 155.056799 
L 355.5778 154.579673 
L 357.2657 154.6538 
L 360.6415 155.992685 
L 362.3294 155.950598 
L 367.3931 156.294666 
L 374.1447 156.09444 
L 377.5205 156.186225 
L 379.2084 156.177225 
L 380.8963 156.471625 
L 382.5842 156.242491 
L 384.2721 156.262365 
L 385.96 155.813388 
L 385.96 155.813388 
" clip-path="url(#paa478c6c2f)" style="fill: none; stroke: #1f77b4; stroke-width: 2; stroke-linecap: square"/>
   </g>
   <g id="patch_2">
    <path d="M 48.38 170.788 
L 48.38 13.68 
" style="fill: none; stroke: #000000; stroke-width: 0.8; stroke-linejoin: miter; stroke-linecap: square"/>
   </g>
   <g id="patch_3">
    <path d="M 385.96 170.788 
L 385.96 13.68 
" style="fill: none; stroke: #000000; stroke-width: 0.8; stroke-linejoin: miter; stroke-linecap: square"/>
   </g>
   <g id="patch_4">
    <path d="M 48.38 170.788 
L 385.96 170.788 
" style="fill: none; stroke: #000000; stroke-width: 0.8; stroke-linejoin: miter; stroke-linecap: square"/>
   </g>
   <g id="patch_5">
    <path d="M 48.38 13.68 
L 385.96 13.68 
" style="fill: none; stroke: #000000; stroke-width: 0.8; stroke-linejoin: miter; stroke-linecap: square"/>
   </g>
  </g>
  <g id="axes_2">
   <g id="patch_6">
    <path d="M 48.38 170.788 
L 210.4184 170.788 
L 210.4184 13.68 
L 48.38 13.68 
z
" clip-path="url(#paa478c6c2f)" style="fill: #2ca02c; opacity: 0.12"/>
   </g>
   <g id="patch_7">
    <path d="M 210.4184 170.788 
L 385.96 170.788 
L 385.96 13.68 
L 210.4184 13.68 
z
" clip-path="url(#paa478c6c2f)" style="fill: #9467bd; opacity: 0.12"/>
   </g>
   <g id="PolyCollection_2">
    <defs>
     <path id="m9dba3062cd" d="M 50.0679 -53.002292 
L 50.0679 -45.17237 
L 51.7558 -45.17237 
L 53.4437 -45.17237 
L 55.1316 -45.17237 
L 56.8195 -45.17237 
L 58.5074 -45.17237 
L 60.1953 -45.17237 
L 61.8832 -45.17237 
L 63.5711 -45.17237 
L 65.259 -45.17237 
L 66.9469 -45.17237 
L 68.6348 -45.17237 
L 70.3227 -45.17237 
L 72.0106 -45.17237 
L 73.6985 -45.17237 
L 75.3864 -45.17237 
L 77.0743 -44.821342 
L 78.7622 -44.827304 
L 80.4501 -44.487388 
L 82.138 -44.255975 
L 83.8259 -44.261877 
L 85.5138 -43.669551 
L 87.2017 -43.61108 
L 88.8896 -43.697995 
L 90.5775 -43.953835 
L 92.2654 -44.193063 
L 93.9533 -44.414893 
L 95.6412 -44.651066 
L 97.3291 -44.664856 
L 99.017 -44.329596 
L 100.7049 -44.428995 
L 102.3928 -44.700792 
L 104.0807 -44.612907 
L 105.7686 -44.884977 
L 107.4565 -45.1366 
L 109.1444 -44.700792 
L 110.8323 -45.627216 
L 112.5202 -45.462829 
L 114.2081 -45.313 
L 115.896 -45.313 
L 117.5839 -45.217183 
L 119.2718 -45.345036 
L 120.9597 -45.484695 
L 122.6476 -45.52278 
L 124.3355 -46.008779 
L 126.0234 -46.261076 
L 127.7113 -46.424292 
L 129.3992 -46.424292 
L 131.0871 -46.424292 
L 132.775 -46.835984 
L 134.4629 -47.486536 
L 136.1508 -47.462163 
L 137.8387 -47.486536 
L 139.5266 -47.486536 
L 141.2145 -47.380436 
L 142.9024 -46.902823 
L 144.5903 -46.335112 
L 146.2782 -46.261076 
L 147.9661 -46.210184 
L 149.654 -46.179378 
L 151.3419 -46.05059 
L 153.0298 -45.905274 
L 154.7177 -45.578954 
L 156.4056 -45.462829 
L 158.0935 -45.313 
L 159.7814 -45.296169 
L 161.4693 -44.989146 
L 163.1572 -44.612907 
L 164.8451 -44.700792 
L 166.533 -44.700792 
L 168.2209 -45.135711 
L 169.9088 -45.643198 
L 171.5967 -45.135711 
L 173.2846 -45.135711 
L 174.9725 -45.011081 
L 176.6604 -44.985098 
L 178.3483 -45.066521 
L 180.0362 -45.404053 
L 181.7241 -44.985098 
L 183.412 -45.174741 
L 185.0999 -44.985098 
L 186.7878 -45.303362 
L 188.4757 -45.643198 
L 190.1636 -45.455736 
L 191.8515 -45.455736 
L 193.5394 -45.46228 
L 195.2273 -45.325589 
L 196.9152 -45.827055 
L 198.6031 -45.555555 
L 200.291 -45.827055 
L 201.9789 -45.325589 
L 203.6668 -45.46228 
L 205.3547 -45.643198 
L 207.0426 -45.643198 
L 208.7305 -45.135711 
L 210.4184 -45.135711 
L 212.1063 -45.174741 
L 213.7942 -45.314033 
L 215.4821 -45.084034 
L 217.17 -45.084034 
L 218.8579 -45.074031 
L 220.5458 -44.442922 
L 222.2337 -44.415365 
L 223.9216 -44.628713 
L 225.6095 -44.353928 
L 227.2974 -45.13015 
L 228.9853 -44.040738 
L 230.6732 -44.598543 
L 232.3611 -41.201825 
L 234.049 -42.60314 
L 235.7369 -43.204484 
L 237.4248 -43.726813 
L 239.1127 -44.592098 
L 240.8006 -44.262825 
L 242.4885 -45.764478 
L 244.1764 -47.020217 
L 245.8643 -47.546981 
L 247.5522 -49.772297 
L 249.2401 -51.037544 
L 250.928 -51.341105 
L 252.6159 -51.913313 
L 254.3038 -51.557522 
L 255.9917 -51.143684 
L 257.6796 -52.666629 
L 259.3675 -54.571379 
L 261.0554 -54.709325 
L 262.7433 -54.709325 
L 264.4312 -53.677677 
L 266.1191 -54.056161 
L 267.807 -52.525552 
L 269.4949 -52.525552 
L 271.1828 -52.325163 
L 272.8707 -52.095051 
L 274.5586 -52.079944 
L 276.2465 -52.769629 
L 277.9344 -50.923228 
L 279.6223 -51.716038 
L 281.3102 -54.252128 
L 282.9981 -54.477303 
L 284.686 -54.265133 
L 286.3739 -54.323875 
L 288.0618 -53.552953 
L 289.7497 -53.477038 
L 291.4376 -53.870025 
L 293.1255 -57.294397 
L 294.8134 -59.857932 
L 296.5013 -63.061624 
L 298.1892 -60.52539 
L 299.8771 -61.876078 
L 301.565 -62.851352 
L 303.2529 -62.942937 
L 304.9408 -65.058192 
L 306.6287 -67.78271 
L 308.3166 -68.91603 
L 310.0045 -68.737614 
L 311.6924 -66.343365 
L 313.3803 -64.743376 
L 315.0682 -67.001145 
L 316.7561 -68.60495 
L 318.444 -67.20032 
L 320.1319 -67.196858 
L 321.8198 -69.67411 
L 323.5077 -69.552944 
L 325.1956 -72.558288 
L 326.8835 -74.775823 
L 328.5714 -77.771684 
L 330.2593 -79.533996 
L 331.9472 -80.992985 
L 333.6351 -79.955027 
L 335.323 -85.463937 
L 337.0109 -83.365994 
L 338.6988 -83.655864 
L 340.3867 -88.593211 
L 342.0746 -89.668646 
L 343.7625 -89.739576 
L 345.4504 -89.86621 
L 347.1383 -90.541531 
L 348.8262 -92.310835 
L 350.5141 -95.324723 
L 352.202 -98.936803 
L 353.8899 -103.777674 
L 355.5778 -109.435288 
L 357.2657 -110.986954 
L 358.9536 -110.948316 
L 360.6415 -112.828419 
L 362.3294 -112.805896 
L 364.0173 -114.530756 
L 365.7052 -114.427073 
L 367.3931 -113.442479 
L 369.081 -114.337834 
L 370.7689 -115.82 
L 372.4568 -115.896151 
L 374.1447 -114.534454 
L 375.8326 -114.496431 
L 377.5205 -115.561951 
L 379.2084 -115.739348 
L 380.8963 -116.299274 
L 382.5842 -117.720738 
L 384.2721 -117.926778 
L 385.96 -118.931089 
L 385.96 -159.394079 
L 385.96 -159.394079 
L 384.2721 -157.884662 
L 382.5842 -155.995929 
L 380.8963 -153.437324 
L 379.2084 -151.902476 
L 377.5205 -151.870396 
L 375.8326 -148.327414 
L 374.1447 -148.708346 
L 372.4568 -143.785534 
L 370.7689 -144.071163 
L 369.081 -144.086987 
L 367.3931 -144.563387 
L 365.7052 -142.531407 
L 364.0173 -140.751906 
L 362.3294 -141.010424 
L 360.6415 -140.778424 
L 358.9536 -140.773231 
L 357.2657 -139.687206 
L 355.5778 -140.191485 
L 353.8899 -142.287985 
L 352.202 -143.148786 
L 350.5141 -144.456616 
L 348.8262 -142.443048 
L 347.1383 -141.698624 
L 345.4504 -137.765443 
L 343.7625 -137.054168 
L 342.0746 -136.915621 
L 340.3867 -132.754122 
L 338.6988 -132.245059 
L 337.0109 -130.85911 
L 335.323 -125.619007 
L 333.6351 -126.309938 
L 331.9472 -121.082434 
L 330.2593 -118.980308 
L 328.5714 -118.857324 
L 326.8835 -119.339457 
L 325.1956 -119.252741 
L 323.5077 -119.53488 
L 321.8198 -118.575804 
L 320.1319 -117.910896 
L 318.444 -113.298934 
L 316.7561 -107.285802 
L 315.0682 -106.375879 
L 313.3803 -106.957829 
L 311.6924 -103.05359 
L 310.0045 -96.888749 
L 308.3166 -96.91981 
L 306.6287 -95.120448 
L 304.9408 -95.12176 
L 303.2529 -94.513809 
L 301.565 -95.233826 
L 299.8771 -94.74276 
L 298.1892 -94.836583 
L 296.5013 -88.739234 
L 294.8134 -89.638676 
L 293.1255 -89.688483 
L 291.4376 -89.970695 
L 289.7497 -89.316295 
L 288.0618 -90.07829 
L 286.3739 -86.584162 
L 284.686 -85.386041 
L 282.9981 -83.079097 
L 281.3102 -82.67584 
L 279.6223 -83.536111 
L 277.9344 -83.491012 
L 276.2465 -78.292974 
L 274.5586 -77.30684 
L 272.8707 -77.082256 
L 271.1828 -76.014235 
L 269.4949 -76.023323 
L 267.807 -76.023323 
L 266.1191 -76.168532 
L 264.4312 -77.175448 
L 262.7433 -73.839549 
L 261.0554 -73.839549 
L 259.3675 -74.186973 
L 257.6796 -74.625381 
L 255.9917 -77.614668 
L 254.3038 -77.410308 
L 252.6159 -77.473471 
L 250.928 -77.626725 
L 249.2401 -77.720808 
L 247.5522 -77.519714 
L 245.8643 -77.859734 
L 244.1764 -77.758065 
L 242.4885 -77.966418 
L 240.8006 -77.16382 
L 239.1127 -74.530297 
L 237.4248 -74.348195 
L 235.7369 -72.985228 
L 234.049 -70.65389 
L 232.3611 -71.007818 
L 230.6732 -63.421553 
L 228.9853 -63.141448 
L 227.2974 -60.376218 
L 225.6095 -59.686099 
L 223.9216 -58.573404 
L 222.2337 -57.739366 
L 220.5458 -57.921286 
L 218.8579 -56.661745 
L 217.17 -56.442265 
L 215.4821 -56.442265 
L 213.7942 -55.164879 
L 212.1063 -54.675739 
L 210.4184 -54.086337 
L 208.7305 -54.086337 
L 207.0426 -54.207282 
L 205.3547 -54.207282 
L 203.6668 -54.178723 
L 201.9789 -54.524891 
L 200.291 -54.861334 
L 198.6031 -54.71388 
L 196.9152 -54.861334 
L 195.2273 -54.524891 
L 193.5394 -54.178723 
L 191.8515 -53.975789 
L 190.1636 -53.975789 
L 188.4757 -54.207282 
L 186.7878 -54.337641 
L 185.0999 -54.446427 
L 183.412 -54.675739 
L 181.7241 -54.446427 
L 180.0362 -54.865382 
L 178.3483 -54.993436 
L 176.6604 -54.446427 
L 174.9725 -53.792012 
L 173.2846 -54.086337 
L 171.5967 -54.086337 
L 169.9088 -54.207282 
L 168.2209 -54.086337 
L 166.533 -54.102301 
L 164.8451 -54.102301 
L 163.1572 -53.771232 
L 161.4693 -54.023425 
L 159.7814 -53.925879 
L 158.0935 -53.699571 
L 156.4056 -53.759219 
L 154.7177 -53.014662 
L 153.0298 -52.89782 
L 151.3419 -52.961981 
L 149.654 -53.252147 
L 147.9661 -53.011864 
L 146.2782 -52.751494 
L 144.5903 -52.467981 
L 142.9024 -52.319225 
L 141.2145 -52.051089 
L 139.5266 -51.735512 
L 137.8387 -51.735512 
L 136.1508 -51.34093 
L 134.4629 -51.735512 
L 132.775 -51.96711 
L 131.0871 -52.797756 
L 129.3992 -52.797756 
L 127.7113 -52.797756 
L 126.0234 -52.751494 
L 124.3355 -53.213269 
L 122.6476 -53.280313 
L 120.9597 -53.527876 
L 119.2718 -53.458058 
L 117.5839 -53.376433 
L 115.896 -53.699571 
L 114.2081 -53.699571 
L 112.5202 -53.759219 
L 110.8323 -54.013787 
L 109.1444 -54.102301 
L 107.4565 -54.294925 
L 105.7686 -53.708639 
L 104.0807 -53.771232 
L 102.3928 -54.102301 
L 100.7049 -54.164621 
L 99.017 -53.42611 
L 97.3291 -53.509805 
L 95.6412 -53.104641 
L 93.9533 -53.131336 
L 92.2654 -53.143689 
L 90.5775 -53.592394 
L 88.8896 -54.267189 
L 87.2017 -54.144627 
L 85.5138 -53.876678 
L 83.8259 -53.703307 
L 82.138 -53.290254 
L 80.4501 -53.268319 
L 78.7622 -53.347357 
L 77.0743 -52.934364 
L 75.3864 -53.002292 
L 73.6985 -53.002292 
L 72.0106 -53.002292 
L 70.3227 -53.002292 
L 68.6348 -53.002292 
L 66.9469 -53.002292 
L 65.259 -53.002292 
L 63.5711 -53.002292 
L 61.8832 -53.002292 
L 60.1953 -53.002292 
L 58.5074 -53.002292 
L 56.8195 -53.002292 
L 55.1316 -53.002292 
L 53.4437 -53.002292 
L 51.7558 -53.002292 
L 50.0679 -53.002292 
z
" style="stroke: #d62728; stroke-opacity: 0.2; stroke-width: 0.24"/>
    </defs>
    <g clip-path="url(#paa478c6c2f)">
     <use xlink:href="#m9dba3062cd" x="0" y="216" style="fill: #d62728; fill-opacity: 0.2; stroke: #d62728; stroke-opacity: 0.2; stroke-width: 0.24"/>
    </g>
   </g>
   <g id="matplotlib.axis_2">
    <g id="xtick_1">
     <g id="line2d_8">
      <defs>
       <path id="mf41d6b48d5" d="M 0 0 
L 0 3.5 
" style="stroke: #000000; stroke-width: 0.8"/>
      </defs>
      <g>
       <use xlink:href="#mf41d6b48d5" x="48.38" y="170.788" style="stroke: #000000; stroke-width: 0.8"/>
      </g>
     </g>
     <g id="text_8">
      <!-- 0 -->
      <g transform="translate(45.835 185.96675) scale(0.08 -0.08)">
       <use xlink:href="#DejaVuSans-30"/>
      </g>
     </g>
    </g>
    <g id="xtick_2">
     <g id="line2d_9">
      <g>
       <use xlink:href="#mf41d6b48d5" x="90.5775" y="170.788" style="stroke: #000000; stroke-width: 0.8"/>
      </g>
     </g>
     <g id="text_9">
      <!-- 25 -->
      <g transform="translate(85.4875 185.96675) scale(0.08 -0.08)">
       <defs>
        <path id="DejaVuSans-35" d="M 691 4666 
L 3169 4666 
L 3169 4134 
L 1269 4134 
L 1269 2991 
Q 1406 3038 1543 3061 
Q 1681 3084 1819 3084 
Q 2600 3084 3056 2656 
Q 3513 2228 3513 1497 
Q 3513 744 3044 326 
Q 2575 -91 1722 -91 
Q 1428 -91 1123 -41 
Q 819 9 494 109 
L 494 744 
Q 775 591 1075 516 
Q 1375 441 1709 441 
Q 2250 441 2565 725 
Q 2881 1009 2881 1497 
Q 2881 1984 2565 2268 
Q 2250 2553 1709 2553 
Q 1456 2553 1204 2497 
Q 953 2441 691 2322 
L 691 4666 
z
" transform="scale(0.015625)"/>
       </defs>
       <use xlink:href="#DejaVuSans-32"/>
       <use xlink:href="#DejaVuSans-35" x="63.623047"/>
      </g>
     </g>
    </g>
    <g id="xtick_3">
     <g id="line2d_10">
      <g>
       <use xlink:href="#mf41d6b48d5" x="132.775" y="170.788" style="stroke: #000000; stroke-width: 0.8"/>
      </g>
     </g>
     <g id="text_10">
      <!-- 50 -->
      <g transform="translate(127.685 185.96675) scale(0.08 -0.08)">
       <use xlink:href="#DejaVuSans-35"/>
       <use xlink:href="#DejaVuSans-30" x="63.623047"/>
      </g>
     </g>
    </g>
    <g id="xtick_4">
     <g id="line2d_11">
      <g>
       <use xlink:href="#mf41d6b48d5" x="174.9725" y="170.788" style="stroke: #000000; stroke-width: 0.8"/>
      </g>
     </g>
     <g id="text_11">
      <!-- 75 -->
      <g transform="translate(169.8825 185.96675) scale(0.08 -0.08)">
       <defs>
        <path id="DejaVuSans-37" d="M 525 4666 
L 3525 4666 
L 3525 4397 
L 1831 0 
L 1172 0 
L 2766 4134 
L 525 4134 
L 525 4666 
z
" transform="scale(0.015625)"/>
       </defs>
       <use xlink:href="#DejaVuSans-37"/>
       <use xlink:href="#DejaVuSans-35" x="63.623047"/>
      </g>
     </g>
    </g>
    <g id="xtick_5">
     <g id="line2d_12">
      <g>
       <use xlink:href="#mf41d6b48d5" x="217.17" y="170.788" style="stroke: #000000; stroke-width: 0.8"/>
      </g>
     </g>
     <g id="text_12">
      <!-- 100 -->
      <g transform="translate(209.535 185.96675) scale(0.08 -0.08)">
       <use xlink:href="#DejaVuSans-31"/>
       <use xlink:href="#DejaVuSans-30" x="63.623047"/>
       <use xlink:href="#DejaVuSans-30" x="127.246094"/>
      </g>
     </g>
    </g>
    <g id="xtick_6">
     <g id="line2d_13">
      <g>
       <use xlink:href="#mf41d6b48d5" x="259.3675" y="170.788" style="stroke: #000000; stroke-width: 0.8"/>
      </g>
     </g>
     <g id="text_13">
      <!-- 125 -->
      <g transform="translate(251.7325 185.96675) scale(0.08 -0.08)">
       <use xlink:href="#DejaVuSans-31"/>
       <use xlink:href="#DejaVuSans-32" x="63.623047"/>
       <use xlink:href="#DejaVuSans-35" x="127.246094"/>
      </g>
     </g>
    </g>
    <g id="xtick_7">
     <g id="line2d_14">
      <g>
       <use xlink:href="#mf41d6b48d5" x="301.565" y="170.788" style="stroke: #000000; stroke-width: 0.8"/>
      </g>
     </g>
     <g id="text_14">
      <!-- 150 -->
      <g transform="translate(293.93 185.96675) scale(0.08 -0.08)">
       <use xlink:href="#DejaVuSans-31"/>
       <use xlink:href="#DejaVuSans-35" x="63.623047"/>
       <use xlink:href="#DejaVuSans-30" x="127.246094"/>
      </g>
     </g>
    </g>
    <g id="xtick_8">
     <g id="line2d_15">
      <g>
       <use xlink:href="#mf41d6b48d5" x="343.7625" y="170.788" style="stroke: #000000; stroke-width: 0.8"/>
      </g>
     </g>
     <g id="text_15">
      <!-- 175 -->
      <g transform="translate(336.1275 185.96675) scale(0.08 -0.08)">
       <use xlink:href="#DejaVuSans-31"/>
       <use xlink:href="#DejaVuSans-37" x="63.623047"/>
       <use xlink:href="#DejaVuSans-35" x="127.246094"/>
      </g>
     </g>
    </g>
    <g id="xtick_9">
     <g id="line2d_16">
      <g>
       <use xlink:href="#mf41d6b48d5" x="385.96" y="170.788" style="stroke: #000000; stroke-width: 0.8"/>
      </g>
     </g>
     <g id="text_16">
      <!-- 200 -->
      <g transform="translate(378.325 185.96675) scale(0.08 -0.08)">
       <use xlink:href="#DejaVuSans-32"/>
       <use xlink:href="#DejaVuSans-30" x="63.623047"/>
       <use xlink:href="#DejaVuSans-30" x="127.246094"/>
      </g>
     </g>
    </g>
    <g id="text_17">
     <!-- Step ($\times10^3$) -->
     <g transform="translate(190.902 199.6385) scale(0.088 -0.088)">
      <defs>
       <path id="DejaVuSans-53" d="M 3425 4513 
L 3425 3897 
Q 3066 4069 2747 4153 
Q 2428 4238 2131 4238 
Q 1616 4238 1336 4038 
Q 1056 3838 1056 3469 
Q 1056 3159 1242 3001 
Q 1428 2844 1947 2747 
L 2328 2669 
Q 3034 2534 3370 2195 
Q 3706 1856 3706 1288 
Q 3706 609 3251 259 
Q 2797 -91 1919 -91 
Q 1588 -91 1214 -16 
Q 841 59 441 206 
L 441 856 
Q 825 641 1194 531 
Q 1563 422 1919 422 
Q 2459 422 2753 634 
Q 3047 847 3047 1241 
Q 3047 1584 2836 1778 
Q 2625 1972 2144 2069 
L 1759 2144 
Q 1053 2284 737 2584 
Q 422 2884 422 3419 
Q 422 4038 858 4394 
Q 1294 4750 2059 4750 
Q 2388 4750 2728 4690 
Q 3069 4631 3425 4513 
z
" transform="scale(0.015625)"/>
       <path id="DejaVuSans-74" d="M 1172 4494 
L 1172 3500 
L 2356 3500 
L 2356 3053 
L 1172 3053 
L 1172 1153 
Q 1172 725 1289 603 
Q 1406 481 1766 481 
L 2356 481 
L 2356 0 
L 1766 0 
Q 1100 0 847 248 
Q 594 497 594 1153 
L 594 3053 
L 172 3053 
L 172 3500 
L 594 3500 
L 594 4494 
L 1172 4494 
z
" transform="scale(0.015625)"/>
       <path id="DejaVuSans-65" d="M 3597 1894 
L 3597 1613 
L 953 1613 
Q 991 1019 1311 708 
Q 1631 397 2203 397 
Q 2534 397 2845 478 
Q 3156 559 3463 722 
L 3463 178 
Q 3153 47 2828 -22 
Q 2503 -91 2169 -91 
Q 1331 -91 842 396 
Q 353 884 353 1716 
Q 353 2575 817 3079 
Q 1281 3584 2069 3584 
Q 2775 3584 3186 3129 
Q 3597 2675 3597 1894 
z
M 3022 2063 
Q 3016 2534 2758 2815 
Q 2500 3097 2075 3097 
Q 1594 3097 1305 2825 
Q 1016 2553 972 2059 
L 3022 2063 
z
" transform="scale(0.015625)"/>
       <path id="DejaVuSans-70" d="M 1159 525 
L 1159 -1331 
L 581 -1331 
L 581 3500 
L 1159 3500 
L 1159 2969 
Q 1341 3281 1617 3432 
Q 1894 3584 2278 3584 
Q 2916 3584 3314 3078 
Q 3713 2572 3713 1747 
Q 3713 922 3314 415 
Q 2916 -91 2278 -91 
Q 1894 -91 1617 61 
Q 1341 213 1159 525 
z
M 3116 1747 
Q 3116 2381 2855 2742 
Q 2594 3103 2138 3103 
Q 1681 3103 1420 2742 
Q 1159 2381 1159 1747 
Q 1159 1113 1420 752 
Q 1681 391 2138 391 
Q 2594 391 2855 752 
Q 3116 1113 3116 1747 
z
" transform="scale(0.015625)"/>
       <path id="DejaVuSans-20" transform="scale(0.015625)"/>
       <path id="DejaVuSans-28" d="M 1984 4856 
Q 1566 4138 1362 3434 
Q 1159 2731 1159 2009 
Q 1159 1288 1364 580 
Q 1569 -128 1984 -844 
L 1484 -844 
Q 1016 -109 783 600 
Q 550 1309 550 2009 
Q 550 2706 781 3412 
Q 1013 4119 1484 4856 
L 1984 4856 
z
" transform="scale(0.015625)"/>
       <path id="DejaVuSans-d7" d="M 4488 3438 
L 3059 2003 
L 4488 575 
L 4116 197 
L 2681 1631 
L 1247 197 
L 878 575 
L 2303 2003 
L 878 3438 
L 1247 3816 
L 2681 2381 
L 4116 3816 
L 4488 3438 
z
" transform="scale(0.015625)"/>
       <path id="DejaVuSans-33" d="M 2597 2516 
Q 3050 2419 3304 2112 
Q 3559 1806 3559 1356 
Q 3559 666 3084 287 
Q 2609 -91 1734 -91 
Q 1441 -91 1130 -33 
Q 819 25 488 141 
L 488 750 
Q 750 597 1062 519 
Q 1375 441 1716 441 
Q 2309 441 2620 675 
Q 2931 909 2931 1356 
Q 2931 1769 2642 2001 
Q 2353 2234 1838 2234 
L 1294 2234 
L 1294 2753 
L 1863 2753 
Q 2328 2753 2575 2939 
Q 2822 3125 2822 3475 
Q 2822 3834 2567 4026 
Q 2313 4219 1838 4219 
Q 1578 4219 1281 4162 
Q 984 4106 628 3988 
L 628 4550 
Q 988 4650 1302 4700 
Q 1616 4750 1894 4750 
Q 2613 4750 3031 4423 
Q 3450 4097 3450 3541 
Q 3450 3153 3228 2886 
Q 3006 2619 2597 2516 
z
" transform="scale(0.015625)"/>
       <path id="DejaVuSans-29" d="M 513 4856 
L 1013 4856 
Q 1481 4119 1714 3412 
Q 1947 2706 1947 2009 
Q 1947 1309 1714 600 
Q 1481 -109 1013 -844 
L 513 -844 
Q 928 -128 1133 580 
Q 1338 1288 1338 2009 
Q 1338 2731 1133 3434 
Q 928 4138 513 4856 
z
" transform="scale(0.015625)"/>
      </defs>
      <use xlink:href="#DejaVuSans-53" transform="translate(0 0.765625)"/>
      <use xlink:href="#DejaVuSans-74" transform="translate(63.476562 0.765625)"/>
      <use xlink:href="#DejaVuSans-65" transform="translate(102.685547 0.765625)"/>
      <use xlink:href="#DejaVuSans-70" transform="translate(164.208984 0.765625)"/>
      <use xlink:href="#DejaVuSans-20" transform="translate(227.685547 0.765625)"/>
      <use xlink:href="#DejaVuSans-28" transform="translate(259.472656 0.765625)"/>
      <use xlink:href="#DejaVuSans-d7" transform="translate(298.486328 0.765625)"/>
      <use xlink:href="#DejaVuSans-31" transform="translate(382.275391 0.765625)"/>
      <use xlink:href="#DejaVuSans-30" transform="translate(445.898438 0.765625)"/>
      <use xlink:href="#DejaVuSans-33" transform="translate(510.478516 39.046875) scale(0.7)"/>
      <use xlink:href="#DejaVuSans-29" transform="translate(557.749023 0.765625)"/>
     </g>
    </g>
   </g>
   <g id="matplotlib.axis_3">
    <g id="ytick_7">
     <g id="line2d_17">
      <defs>
       <path id="m1f5f4f6b5d" d="M 0 0 
L -3.5 0 
" style="stroke: #000000; stroke-width: 0.8"/>
      </defs>
      <g>
       <use xlink:href="#m1f5f4f6b5d" x="48.38" y="170.788" style="stroke: #000000; stroke-width: 0.8"/>
      </g>
     </g>
     <g id="text_18">
      <!-- 0 -->
      <g style="fill: #d62728" transform="translate(34.19 173.827375) scale(0.08 -0.08)">
       <use xlink:href="#DejaVuSans-30"/>
      </g>
     </g>
    </g>
    <g id="ytick_8">
     <g id="line2d_18">
      <g>
       <use xlink:href="#m1f5f4f6b5d" x="48.38" y="139.3664" style="stroke: #000000; stroke-width: 0.8"/>
      </g>
     </g>
     <g id="text_19">
      <!-- 20 -->
      <g style="fill: #d62728" transform="translate(29.1 142.405775) scale(0.08 -0.08)">
       <use xlink:href="#DejaVuSans-32"/>
       <use xlink:href="#DejaVuSans-30" x="63.623047"/>
      </g>
     </g>
    </g>
    <g id="ytick_9">
     <g id="line2d_19">
      <g>
       <use xlink:href="#m1f5f4f6b5d" x="48.38" y="107.9448" style="stroke: #000000; stroke-width: 0.8"/>
      </g>
     </g>
     <g id="text_20">
      <!-- 40 -->
      <g style="fill: #d62728" transform="translate(29.1 110.984175) scale(0.08 -0.08)">
       <use xlink:href="#DejaVuSans-34"/>
       <use xlink:href="#DejaVuSans-30" x="63.623047"/>
      </g>
     </g>
    </g>
    <g id="ytick_10">
     <g id="line2d_20">
      <g>
       <use xlink:href="#m1f5f4f6b5d" x="48.38" y="76.5232" style="stroke: #000000; stroke-width: 0.8"/>
      </g>
     </g>
     <g id="text_21">
      <!-- 60 -->
      <g style="fill: #d62728" transform="translate(29.1 79.562575) scale(0.08 -0.08)">
       <use xlink:href="#DejaVuSans-36"/>
       <use xlink:href="#DejaVuSans-30" x="63.623047"/>
      </g>
     </g>
    </g>
    <g id="ytick_11">
     <g id="line2d_21">
      <g>
       <use xlink:href="#m1f5f4f6b5d" x="48.38" y="45.1016" style="stroke: #000000; stroke-width: 0.8"/>
      </g>
     </g>
     <g id="text_22">
      <!-- 80 -->
      <g style="fill: #d62728" transform="translate(29.1 48.140975) scale(0.08 -0.08)">
       <use xlink:href="#DejaVuSans-38"/>
       <use xlink:href="#DejaVuSans-30" x="63.623047"/>
      </g>
     </g>
    </g>
    <g id="ytick_12">
     <g id="line2d_22">
      <g>
       <use xlink:href="#m1f5f4f6b5d" x="48.38" y="13.68" style="stroke: #000000; stroke-width: 0.8"/>
      </g>
     </g>
     <g id="text_23">
      <!-- 100 -->
      <g style="fill: #d62728" transform="translate(24.01 16.719375) scale(0.08 -0.08)">
       <use xlink:href="#DejaVuSans-31"/>
       <use xlink:href="#DejaVuSans-30" x="63.623047"/>
       <use xlink:href="#DejaVuSans-30" x="127.246094"/>
      </g>
     </g>
    </g>
    <g id="text_24">
     <!-- Success rate (%) -->
     <g style="fill: #d62728" transform="translate(18.179875 129.294375) rotate(-90) scale(0.088 -0.088)">
      <defs>
       <path id="DejaVuSans-75" d="M 544 1381 
L 544 3500 
L 1119 3500 
L 1119 1403 
Q 1119 906 1312 657 
Q 1506 409 1894 409 
Q 2359 409 2629 706 
Q 2900 1003 2900 1516 
L 2900 3500 
L 3475 3500 
L 3475 0 
L 2900 0 
L 2900 538 
Q 2691 219 2414 64 
Q 2138 -91 1772 -91 
Q 1169 -91 856 284 
Q 544 659 544 1381 
z
M 1991 3584 
L 1991 3584 
z
" transform="scale(0.015625)"/>
       <path id="DejaVuSans-63" d="M 3122 3366 
L 3122 2828 
Q 2878 2963 2633 3030 
Q 2388 3097 2138 3097 
Q 1578 3097 1268 2742 
Q 959 2388 959 1747 
Q 959 1106 1268 751 
Q 1578 397 2138 397 
Q 2388 397 2633 464 
Q 2878 531 3122 666 
L 3122 134 
Q 2881 22 2623 -34 
Q 2366 -91 2075 -91 
Q 1284 -91 818 406 
Q 353 903 353 1747 
Q 353 2603 823 3093 
Q 1294 3584 2113 3584 
Q 2378 3584 2631 3529 
Q 2884 3475 3122 3366 
z
" transform="scale(0.015625)"/>
       <path id="DejaVuSans-72" d="M 2631 2963 
Q 2534 3019 2420 3045 
Q 2306 3072 2169 3072 
Q 1681 3072 1420 2755 
Q 1159 2438 1159 1844 
L 1159 0 
L 581 0 
L 581 3500 
L 1159 3500 
L 1159 2956 
Q 1341 3275 1631 3429 
Q 1922 3584 2338 3584 
Q 2397 3584 2469 3576 
Q 2541 3569 2628 3553 
L 2631 2963 
z
" transform="scale(0.015625)"/>
       <path id="DejaVuSans-61" d="M 2194 1759 
Q 1497 1759 1228 1600 
Q 959 1441 959 1056 
Q 959 750 1161 570 
Q 1363 391 1709 391 
Q 2188 391 2477 730 
Q 2766 1069 2766 1631 
L 2766 1759 
L 2194 1759 
z
M 3341 1997 
L 3341 0 
L 2766 0 
L 2766 531 
Q 2569 213 2275 61 
Q 1981 -91 1556 -91 
Q 1019 -91 701 211 
Q 384 513 384 1019 
Q 384 1609 779 1909 
Q 1175 2209 1959 2209 
L 2766 2209 
L 2766 2266 
Q 2766 2663 2505 2880 
Q 2244 3097 1772 3097 
Q 1472 3097 1187 3025 
Q 903 2953 641 2809 
L 641 3341 
Q 956 3463 1253 3523 
Q 1550 3584 1831 3584 
Q 2591 3584 2966 3190 
Q 3341 2797 3341 1997 
z
" transform="scale(0.015625)"/>
       <path id="DejaVuSans-25" d="M 4653 2053 
Q 4381 2053 4226 1822 
Q 4072 1591 4072 1178 
Q 4072 772 4226 539 
Q 4381 306 4653 306 
Q 4919 306 5073 539 
Q 5228 772 5228 1178 
Q 5228 1588 5073 1820 
Q 4919 2053 4653 2053 
z
M 4653 2450 
Q 5147 2450 5437 2106 
Q 5728 1763 5728 1178 
Q 5728 594 5436 251 
Q 5144 -91 4653 -91 
Q 4153 -91 3862 251 
Q 3572 594 3572 1178 
Q 3572 1766 3864 2108 
Q 4156 2450 4653 2450 
z
M 1428 4353 
Q 1159 4353 1004 4120 
Q 850 3888 850 3481 
Q 850 3069 1003 2837 
Q 1156 2606 1428 2606 
Q 1700 2606 1854 2837 
Q 2009 3069 2009 3481 
Q 2009 3884 1853 4118 
Q 1697 4353 1428 4353 
z
M 4250 4750 
L 4750 4750 
L 1831 -91 
L 1331 -91 
L 4250 4750 
z
M 1428 4750 
Q 1922 4750 2215 4408 
Q 2509 4066 2509 3481 
Q 2509 2891 2217 2550 
Q 1925 2209 1428 2209 
Q 931 2209 642 2551 
Q 353 2894 353 3481 
Q 353 4063 643 4406 
Q 934 4750 1428 4750 
z
" transform="scale(0.015625)"/>
      </defs>
      <use xlink:href="#DejaVuSans-53"/>
      <use xlink:href="#DejaVuSans-75" x="63.476562"/>
      <use xlink:href="#DejaVuSans-63" x="126.855469"/>
      <use xlink:href="#DejaVuSans-63" x="181.835938"/>
      <use xlink:href="#DejaVuSans-65" x="236.816406"/>
      <use xlink:href="#DejaVuSans-73" x="298.339844"/>
      <use xlink:href="#DejaVuSans-73" x="350.439453"/>
      <use xlink:href="#DejaVuSans-20" x="402.539062"/>
      <use xlink:href="#DejaVuSans-72" x="434.326172"/>
      <use xlink:href="#DejaVuSans-61" x="475.439453"/>
      <use xlink:href="#DejaVuSans-74" x="536.71875"/>
      <use xlink:href="#DejaVuSans-65" x="575.927734"/>
      <use xlink:href="#DejaVuSans-20" x="637.451172"/>
      <use xlink:href="#DejaVuSans-28" x="669.238281"/>
      <use xlink:href="#DejaVuSans-25" x="708.251953"/>
      <use xlink:href="#DejaVuSans-29" x="803.271484"/>
     </g>
    </g>
   </g>
   <g id="line2d_23">
    <path d="M 50.0679 166.912669 
L 75.3864 166.912669 
L 77.0743 167.122147 
L 78.7622 166.912669 
L 82.138 167.226885 
L 83.8259 167.017408 
L 85.5138 167.226885 
L 88.8896 167.017408 
L 92.2654 167.331624 
L 97.3291 166.912669 
L 99.017 167.122147 
L 100.7049 166.703192 
L 102.3928 166.598453 
L 104.0807 166.807931 
L 105.7686 166.703192 
L 107.4565 166.284237 
L 109.1444 166.598453 
L 110.8323 166.179499 
L 114.2081 166.493715 
L 115.896 166.493715 
L 117.5839 166.703192 
L 120.9597 166.493715 
L 122.6476 166.598453 
L 124.3355 166.388976 
L 126.0234 166.493715 
L 129.3992 166.388976 
L 131.0871 166.388976 
L 132.775 166.598453 
L 134.4629 166.388976 
L 136.1508 166.598453 
L 137.8387 166.388976 
L 142.9024 166.388976 
L 144.5903 166.598453 
L 149.654 166.284237 
L 153.0298 166.598453 
L 154.7177 166.703192 
L 156.4056 166.388976 
L 158.0935 166.493715 
L 159.7814 166.388976 
L 161.4693 166.493715 
L 163.1572 166.807931 
L 164.8451 166.598453 
L 166.533 166.598453 
L 169.9088 166.07476 
L 171.5967 166.388976 
L 173.2846 166.388976 
L 174.9725 166.598453 
L 178.3483 165.970021 
L 180.0362 165.865283 
L 181.7241 166.284237 
L 183.412 166.07476 
L 185.0999 166.284237 
L 188.4757 166.07476 
L 190.1636 166.284237 
L 193.5394 166.179499 
L 195.2273 166.07476 
L 196.9152 165.655805 
L 198.6031 165.865283 
L 200.291 165.655805 
L 201.9789 166.07476 
L 203.6668 166.179499 
L 207.0426 166.07476 
L 208.7305 166.388976 
L 210.4184 166.388976 
L 213.7942 165.760544 
L 215.4821 165.236851 
L 218.8579 165.132112 
L 220.5458 164.817896 
L 222.2337 164.922635 
L 227.2974 163.246816 
L 228.9853 162.408907 
L 230.6732 161.989952 
L 232.3611 159.895179 
L 234.049 159.371485 
L 235.7369 157.905144 
L 237.4248 156.962496 
L 239.1127 156.438803 
L 242.4885 154.134552 
L 244.1764 153.610859 
L 245.8643 153.296643 
L 247.5522 152.353995 
L 249.2401 151.620824 
L 252.6159 151.306608 
L 255.9917 151.620824 
L 257.6796 152.353995 
L 259.3675 151.620824 
L 262.7433 151.725563 
L 264.4312 150.573437 
L 266.1191 150.887653 
L 267.807 151.725563 
L 271.1828 151.830301 
L 272.8707 151.411347 
L 274.5586 151.306608 
L 276.2465 150.468699 
L 277.9344 148.79288 
L 279.6223 148.373925 
L 281.3102 147.536016 
L 282.9981 147.2218 
L 284.686 146.174413 
L 286.3739 145.545981 
L 288.0618 144.184379 
L 289.7497 144.603333 
L 291.4376 144.07964 
L 293.1255 142.50856 
L 296.5013 140.099571 
L 298.1892 138.319013 
L 301.565 136.957411 
L 303.2529 137.271627 
L 308.3166 133.08208 
L 310.0045 133.186819 
L 311.6924 131.301523 
L 313.3803 130.149397 
L 315.0682 129.311488 
L 316.7561 128.054624 
L 320.1319 123.446123 
L 321.8198 121.875043 
L 323.5077 121.456088 
L 325.1956 120.094485 
L 330.2593 116.742848 
L 331.9472 114.962291 
L 333.6351 112.867517 
L 335.323 110.458528 
L 337.0109 108.887448 
L 338.6988 108.049539 
L 342.0746 102.707867 
L 343.7625 102.603128 
L 345.4504 102.184173 
L 347.1383 99.879923 
L 348.8262 98.623059 
L 350.5141 96.109331 
L 352.202 94.957205 
L 353.8899 92.967171 
L 355.5778 91.186613 
L 358.9536 90.139227 
L 360.6415 89.196579 
L 362.3294 89.09184 
L 367.3931 86.997067 
L 369.081 86.787589 
L 370.7689 86.054419 
L 372.4568 86.159157 
L 374.1447 84.3786 
L 375.8326 84.588077 
L 377.5205 82.283827 
L 379.2084 82.179088 
L 380.8963 81.131701 
L 382.5842 79.141667 
L 384.2721 78.09428 
L 385.96 76.837416 
L 385.96 76.837416 
" clip-path="url(#paa478c6c2f)" style="fill: none; stroke: #d62728; stroke-width: 2; stroke-linecap: square"/>
   </g>
   <g id="patch_8">
    <path d="M 48.38 170.788 
L 48.38 13.68 
" style="fill: none; stroke: #000000; stroke-width: 0.8; stroke-linejoin: miter; stroke-linecap: square"/>
   </g>
   <g id="patch_9">
    <path d="M 385.96 170.788 
L 385.96 13.68 
" style="fill: none; stroke: #000000; stroke-width: 0.8; stroke-linejoin: miter; stroke-linecap: square"/>
   </g>
   <g id="patch_10">
    <path d="M 48.38 170.788 
L 385.96 170.788 
" style="fill: none; stroke: #000000; stroke-width: 0.8; stroke-linejoin: miter; stroke-linecap: square"/>
   </g>
   <g id="patch_11">
    <path d="M 48.38 13.68 
L 385.96 13.68 
" style="fill: none; stroke: #000000; stroke-width: 0.8; stroke-linejoin: miter; stroke-linecap: square"/>
   </g>
   <g id="text_25">
    <!-- Stage I -->
    <g style="fill: #2ca02c" transform="translate(151.3419 107.9448) scale(0.1 -0.1)">
     <defs>
      <path id="DejaVuSans-67" d="M 2906 1791 
Q 2906 2416 2648 2759 
Q 2391 3103 1925 3103 
Q 1463 3103 1205 2759 
Q 947 2416 947 1791 
Q 947 1169 1205 825 
Q 1463 481 1925 481 
Q 2391 481 2648 825 
Q 2906 1169 2906 1791 
z
M 3481 434 
Q 3481 -459 3084 -895 
Q 2688 -1331 1869 -1331 
Q 1566 -1331 1297 -1286 
Q 1028 -1241 775 -1147 
L 775 -588 
Q 1028 -725 1275 -790 
Q 1522 -856 1778 -856 
Q 2344 -856 2625 -561 
Q 2906 -266 2906 331 
L 2906 616 
Q 2728 306 2450 153 
Q 2172 0 1784 0 
Q 1141 0 747 490 
Q 353 981 353 1791 
Q 353 2603 747 3093 
Q 1141 3584 1784 3584 
Q 2172 3584 2450 3431 
Q 2728 3278 2906 2969 
L 2906 3500 
L 3481 3500 
L 3481 434 
z
" transform="scale(0.015625)"/>
      <path id="DejaVuSans-49" d="M 628 4666 
L 1259 4666 
L 1259 0 
L 628 0 
L 628 4666 
z
" transform="scale(0.015625)"/>
     </defs>
     <use xlink:href="#DejaVuSans-53"/>
     <use xlink:href="#DejaVuSans-74" x="63.476562"/>
     <use xlink:href="#DejaVuSans-61" x="102.685547"/>
     <use xlink:href="#DejaVuSans-67" x="163.964844"/>
     <use xlink:href="#DejaVuSans-65" x="227.441406"/>
     <use xlink:href="#DejaVuSans-20" x="288.964844"/>
     <use xlink:href="#DejaVuSans-49" x="320.751953"/>
    </g>
   </g>
   <g id="text_26">
    <!-- Stage II -->
    <g style="fill: #9467bd" transform="translate(227.2974 107.9448) scale(0.1 -0.1)">
     <use xlink:href="#DejaVuSans-53"/>
     <use xlink:href="#DejaVuSans-74" x="63.476562"/>
     <use xlink:href="#DejaVuSans-61" x="102.685547"/>
     <use xlink:href="#DejaVuSans-67" x="163.964844"/>
     <use xlink:href="#DejaVuSans-65" x="227.441406"/>
     <use xlink:href="#DejaVuSans-20" x="288.964844"/>
     <use xlink:href="#DejaVuSans-49" x="320.751953"/>
     <use xlink:href="#DejaVuSans-49" x="350.244141"/>
    </g>
   </g>
  </g>
 </g>
 <defs>
  <clipPath id="paa478c6c2f">
   <rect x="48.38" y="13.68" width="337.58" height="157.108"/>
  </clipPath>
 </defs>
</svg>
