<?xml version="1.0" encoding="utf-8" standalone="no"?>
<!DOCTYPE svg PUBLIC "-//W3C//DTD SVG 1.1//EN"
  "http://www.w3.org/Graphics/SVG/1.1/DTD/svg11.dtd">
<svg xmlns:xlink="http://www.w3.org/1999/xlink" width="576pt" height="216pt" viewBox="0 0 576 216" xmlns="http://www.w3.org/2000/svg" version="1.1">
 <metadata>
  <rdf:RDF xmlns:dc="http://purl.org/dc/elements/1.1/" xmlns:cc="http://creativecommons.org/ns#" xmlns:rdf="http://www.w3.org/1999/02/22-rdf-syntax-ns#">
   <cc:Work>
    <dc:type rdf:resource="http://purl.org/dc/dcmitype/StillImage"/>
    <dc:date>2023-11-30T09:29:14.014809</dc:date>
    <dc:format>image/svg+xml</dc:format>
    <dc:creator>
     <cc:Agent>
      <dc:title>Matplotlib v3.7.1, https://matplotlib.org/</dc:title>
     </cc:Agent>
    </dc:creator>
   </cc:Work>
  </rdf:RDF>
 </metadata>
 <defs>
  <style type="text/css">*{stroke-linejoin: round; stroke-linecap: butt}</style>
 </defs>
 <g id="figure_1">
  <g id="patch_1">
   <path d="M 0 216 
L 576 216 
L 576 0 
L 0 0 
z
" style="fill: #ffffff"/>
  </g>
  <g id="axes_1">
   <g id="PolyCollection_1">
    <defs>
     <path id="m00b78fca56" d="M 55.85 -181.663779 
L 55.85 -152.032105 
L 60.5245 -152.032105 
L 65.199 -152.032105 
L 69.8735 -152.032105 
L 74.548 -152.032105 
L 79.2225 -152.032105 
L 83.897 -152.032105 
L 88.5715 -152.032105 
L 93.246 -152.032105 
L 97.9205 -152.032105 
L 102.595 -152.032105 
L 107.2695 -152.032105 
L 111.944 -152.032105 
L 116.6185 -152.032105 
L 121.293 -152.032105 
L 125.9675 -152.032105 
L 130.642 -152.032105 
L 135.3165 -152.032105 
L 139.991 -152.032105 
L 144.6655 -152.032105 
L 149.34 -152.032105 
L 154.0145 -152.032105 
L 158.689 -151.514929 
L 163.3635 -151.233892 
L 168.038 -150.928883 
L 172.7125 -150.807006 
L 177.387 -150.693538 
L 182.0615 -156.762669 
L 186.736 -156.976301 
L 191.4105 -156.985543 
L 196.085 -156.629435 
L 200.7595 -156.320121 
L 205.434 -156.338238 
L 210.1085 -156.243156 
L 214.783 -156.012061 
L 219.4575 -155.927017 
L 224.132 -155.747045 
L 228.8065 -148.99574 
L 233.481 -136.818681 
L 238.1555 -128.426952 
L 242.83 -119.761085 
L 247.5045 -111.945079 
L 252.179 -103.287192 
L 256.8535 -96.671594 
L 261.528 -89.681204 
L 266.2025 -82.225624 
L 270.877 -78.476575 
L 275.5515 -72.077883 
L 280.226 -66.359386 
L 284.9005 -65.11517 
L 289.575 -63.377318 
L 294.2495 -57.945357 
L 298.924 -57.923011 
L 303.5985 -56.486554 
L 308.273 -55.053273 
L 312.9475 -57.66357 
L 317.622 -67.024197 
L 322.2965 -69.75576 
L 326.971 -70.58802 
L 331.6455 -71.309567 
L 336.32 -68.991982 
L 340.9945 -69.577308 
L 345.669 -68.110643 
L 350.3435 -68.23317 
L 355.018 -68.281514 
L 359.6925 -68.276572 
L 364.367 -67.849274 
L 369.0415 -67.961202 
L 373.716 -66.802683 
L 378.3905 -68.12217 
L 383.065 -67.434296 
L 387.7395 -68.258708 
L 392.414 -66.962695 
L 397.0885 -67.073002 
L 401.763 -67.397512 
L 406.4375 -66.00368 
L 411.112 -67.64129 
L 415.7865 -67.641323 
L 420.461 -67.979172 
L 425.1355 -66.550486 
L 429.81 -67.178749 
L 434.4845 -67.414527 
L 439.159 -67.727447 
L 443.8335 -66.230916 
L 448.508 -66.877641 
L 453.1825 -65.738964 
L 457.857 -65.889917 
L 462.5315 -65.968175 
L 467.206 -66.584523 
L 471.8805 -66.849762 
L 476.555 -67.404188 
L 481.2295 -67.708587 
L 485.904 -68.847518 
L 490.5785 -68.93081 
L 495.253 -69.146818 
L 499.9275 -70.097018 
L 504.602 -70.339931 
L 509.2765 -68.978205 
L 513.951 -68.259675 
L 518.6255 -68.680558 
L 523.3 -69.250214 
L 527.9745 -69.019893 
L 532.649 -69.052599 
L 537.3235 -70.614601 
L 541.998 -70.714413 
L 546.6725 -71.967621 
L 551.347 -71.979279 
L 556.0215 -71.914695 
L 560.696 -71.856877 
L 560.696 -89.878938 
L 560.696 -89.878938 
L 556.0215 -90.12159 
L 551.347 -90.240681 
L 546.6725 -90.19497 
L 541.998 -93.712963 
L 537.3235 -93.219605 
L 532.649 -93.808561 
L 527.9745 -93.77034 
L 523.3 -93.846336 
L 518.6255 -95.972747 
L 513.951 -96.187895 
L 509.2765 -96.366361 
L 504.602 -96.256766 
L 499.9275 -96.172299 
L 495.253 -96.515274 
L 490.5785 -96.577168 
L 485.904 -96.331789 
L 481.2295 -95.779714 
L 476.555 -95.246447 
L 471.8805 -95.159242 
L 467.206 -96.077471 
L 462.5315 -95.845005 
L 457.857 -96.517118 
L 453.1825 -96.396103 
L 448.508 -94.452161 
L 443.8335 -96.459597 
L 439.159 -96.668057 
L 434.4845 -96.624288 
L 429.81 -98.019599 
L 425.1355 -96.365905 
L 420.461 -96.561675 
L 415.7865 -97.692035 
L 411.112 -97.691731 
L 406.4375 -101.790743 
L 401.763 -101.894721 
L 397.0885 -102.022081 
L 392.414 -101.995751 
L 387.7395 -103.161169 
L 383.065 -103.49019 
L 378.3905 -105.305955 
L 373.716 -108.315747 
L 369.0415 -108.018364 
L 364.367 -107.924033 
L 359.6925 -109.955343 
L 355.018 -109.962847 
L 350.3435 -110.289163 
L 345.669 -111.993176 
L 340.9945 -112.817248 
L 336.32 -114.953772 
L 331.6455 -116.59678 
L 326.971 -120.445556 
L 322.2965 -123.945028 
L 317.622 -132.063092 
L 312.9475 -147.894482 
L 308.273 -157.733827 
L 303.5985 -164.838782 
L 298.924 -171.360442 
L 294.2495 -177.911661 
L 289.575 -181.103472 
L 284.9005 -185.098762 
L 280.226 -189.161229 
L 275.5515 -191.29975 
L 270.877 -192.265683 
L 266.2025 -194.278727 
L 261.528 -194.102327 
L 256.8535 -193.58123 
L 252.179 -192.343381 
L 247.5045 -189.754417 
L 242.83 -187.728341 
L 238.1555 -184.427118 
L 233.481 -181.06438 
L 228.8065 -173.152434 
L 224.132 -168.659811 
L 219.4575 -167.366025 
L 214.783 -167.704268 
L 210.1085 -167.993298 
L 205.434 -168.028303 
L 200.7595 -168.241814 
L 196.085 -168.456543 
L 191.4105 -168.291859 
L 186.736 -168.293786 
L 182.0615 -168.283816 
L 177.387 -177.295475 
L 172.7125 -178.216984 
L 168.038 -178.896955 
L 163.3635 -179.164259 
L 158.689 -181.096236 
L 154.0145 -181.663779 
L 149.34 -181.663779 
L 144.6655 -181.663779 
L 139.991 -181.663779 
L 135.3165 -181.663779 
L 130.642 -181.663779 
L 125.9675 -181.663779 
L 121.293 -181.663779 
L 116.6185 -181.663779 
L 111.944 -181.663779 
L 107.2695 -181.663779 
L 102.595 -181.663779 
L 97.9205 -181.663779 
L 93.246 -181.663779 
L 88.5715 -181.663779 
L 83.897 -181.663779 
L 79.2225 -181.663779 
L 74.548 -181.663779 
L 69.8735 -181.663779 
L 65.199 -181.663779 
L 60.5245 -181.663779 
L 55.85 -181.663779 
z
" style="stroke: #1f77b4; stroke-opacity: 0.2; stroke-width: 0.24"/>
    </defs>
    <g clip-path="url(#p416f3a8810)">
     <use xlink:href="#m00b78fca56" x="0" y="216" style="fill: #1f77b4; fill-opacity: 0.2; stroke: #1f77b4; stroke-opacity: 0.2; stroke-width: 0.24"/>
    </g>
   </g>
   <g id="matplotlib.axis_1">
    <g id="ytick_1">
     <g id="line2d_1">
      <defs>
       <path id="m841cb7ac69" d="M 0 0 
L 3.5 0 
" style="stroke: #000000; stroke-width: 0.8"/>
      </defs>
      <g>
       <use xlink:href="#m841cb7ac69" x="523.3" y="141.319709" style="stroke: #000000; stroke-width: 0.8"/>
      </g>
     </g>
     <g id="text_1">
      <!-- 0.2 -->
      <g style="fill: #1f77b4" transform="translate(532.4 145.118928) scale(0.1 -0.1)">
       <defs>
        <path id="DejaVuSans-30" d="M 2034 4250 
Q 1547 4250 1301 3770 
Q 1056 3291 1056 2328 
Q 1056 1369 1301 889 
Q 1547 409 2034 409 
Q 2525 409 2770 889 
Q 3016 1369 3016 2328 
Q 3016 3291 2770 3770 
Q 2525 4250 2034 4250 
z
M 2034 4750 
Q 2819 4750 3233 4129 
Q 3647 3509 3647 2328 
Q 3647 1150 3233 529 
Q 2819 -91 2034 -91 
Q 1250 -91 836 529 
Q 422 1150 422 2328 
Q 422 3509 836 4129 
Q 1250 4750 2034 4750 
z
" transform="scale(0.015625)"/>
        <path id="DejaVuSans-2e" d="M 684 794 
L 1344 794 
L 1344 0 
L 684 0 
L 684 794 
z
" transform="scale(0.015625)"/>
        <path id="DejaVuSans-32" d="M 1228 531 
L 3431 531 
L 3431 0 
L 469 0 
L 469 531 
Q 828 903 1448 1529 
Q 2069 2156 2228 2338 
Q 2531 2678 2651 2914 
Q 2772 3150 2772 3378 
Q 2772 3750 2511 3984 
Q 2250 4219 1831 4219 
Q 1534 4219 1204 4116 
Q 875 4013 500 3803 
L 500 4441 
Q 881 4594 1212 4672 
Q 1544 4750 1819 4750 
Q 2544 4750 2975 4387 
Q 3406 4025 3406 3419 
Q 3406 3131 3298 2873 
Q 3191 2616 2906 2266 
Q 2828 2175 2409 1742 
Q 1991 1309 1228 531 
z
" transform="scale(0.015625)"/>
       </defs>
       <use xlink:href="#DejaVuSans-30"/>
       <use xlink:href="#DejaVuSans-2e" x="63.623047"/>
       <use xlink:href="#DejaVuSans-32" x="95.410156"/>
      </g>
     </g>
    </g>
    <g id="ytick_2">
     <g id="line2d_2">
      <g>
       <use xlink:href="#m841cb7ac69" x="523.3" y="102.801477" style="stroke: #000000; stroke-width: 0.8"/>
      </g>
     </g>
     <g id="text_2">
      <!-- 0.4 -->
      <g style="fill: #1f77b4" transform="translate(532.4 106.600695) scale(0.1 -0.1)">
       <defs>
        <path id="DejaVuSans-34" d="M 2419 4116 
L 825 1625 
L 2419 1625 
L 2419 4116 
z
M 2253 4666 
L 3047 4666 
L 3047 1625 
L 3713 1625 
L 3713 1100 
L 3047 1100 
L 3047 0 
L 2419 0 
L 2419 1100 
L 313 1100 
L 313 1709 
L 2253 4666 
z
" transform="scale(0.015625)"/>
       </defs>
       <use xlink:href="#DejaVuSans-30"/>
       <use xlink:href="#DejaVuSans-2e" x="63.623047"/>
       <use xlink:href="#DejaVuSans-34" x="95.410156"/>
      </g>
     </g>
    </g>
    <g id="ytick_3">
     <g id="line2d_3">
      <g>
       <use xlink:href="#m841cb7ac69" x="523.3" y="64.283244" style="stroke: #000000; stroke-width: 0.8"/>
      </g>
     </g>
     <g id="text_3">
      <!-- 0.6 -->
      <g style="fill: #1f77b4" transform="translate(532.4 68.082463) scale(0.1 -0.1)">
       <defs>
        <path id="DejaVuSans-36" d="M 2113 2584 
Q 1688 2584 1439 2293 
Q 1191 2003 1191 1497 
Q 1191 994 1439 701 
Q 1688 409 2113 409 
Q 2538 409 2786 701 
Q 3034 994 3034 1497 
Q 3034 2003 2786 2293 
Q 2538 2584 2113 2584 
z
M 3366 4563 
L 3366 3988 
Q 3128 4100 2886 4159 
Q 2644 4219 2406 4219 
Q 1781 4219 1451 3797 
Q 1122 3375 1075 2522 
Q 1259 2794 1537 2939 
Q 1816 3084 2150 3084 
Q 2853 3084 3261 2657 
Q 3669 2231 3669 1497 
Q 3669 778 3244 343 
Q 2819 -91 2113 -91 
Q 1303 -91 875 529 
Q 447 1150 447 2328 
Q 447 3434 972 4092 
Q 1497 4750 2381 4750 
Q 2619 4750 2861 4703 
Q 3103 4656 3366 4563 
z
" transform="scale(0.015625)"/>
       </defs>
       <use xlink:href="#DejaVuSans-30"/>
       <use xlink:href="#DejaVuSans-2e" x="63.623047"/>
       <use xlink:href="#DejaVuSans-36" x="95.410156"/>
      </g>
     </g>
    </g>
    <g id="ytick_4">
     <g id="line2d_4">
      <g>
       <use xlink:href="#m841cb7ac69" x="523.3" y="25.765012" style="stroke: #000000; stroke-width: 0.8"/>
      </g>
     </g>
     <g id="text_4">
      <!-- 0.8 -->
      <g style="fill: #1f77b4" transform="translate(532.4 29.56423) scale(0.1 -0.1)">
       <defs>
        <path id="DejaVuSans-38" d="M 2034 2216 
Q 1584 2216 1326 1975 
Q 1069 1734 1069 1313 
Q 1069 891 1326 650 
Q 1584 409 2034 409 
Q 2484 409 2743 651 
Q 3003 894 3003 1313 
Q 3003 1734 2745 1975 
Q 2488 2216 2034 2216 
z
M 1403 2484 
Q 997 2584 770 2862 
Q 544 3141 544 3541 
Q 544 4100 942 4425 
Q 1341 4750 2034 4750 
Q 2731 4750 3128 4425 
Q 3525 4100 3525 3541 
Q 3525 3141 3298 2862 
Q 3072 2584 2669 2484 
Q 3125 2378 3379 2068 
Q 3634 1759 3634 1313 
Q 3634 634 3220 271 
Q 2806 -91 2034 -91 
Q 1263 -91 848 271 
Q 434 634 434 1313 
Q 434 1759 690 2068 
Q 947 2378 1403 2484 
z
M 1172 3481 
Q 1172 3119 1398 2916 
Q 1625 2713 2034 2713 
Q 2441 2713 2670 2916 
Q 2900 3119 2900 3481 
Q 2900 3844 2670 4047 
Q 2441 4250 2034 4250 
Q 1625 4250 1398 4047 
Q 1172 3844 1172 3481 
z
" transform="scale(0.015625)"/>
       </defs>
       <use xlink:href="#DejaVuSans-30"/>
       <use xlink:href="#DejaVuSans-2e" x="63.623047"/>
       <use xlink:href="#DejaVuSans-38" x="95.410156"/>
      </g>
     </g>
    </g>
    <g id="text_5">
     <!-- Loss -->
     <g style="fill: #1f77b4" transform="translate(561.42125 104.494625) rotate(-90) scale(0.12 -0.12)">
      <defs>
       <path id="DejaVuSans-4c" d="M 628 4666 
L 1259 4666 
L 1259 531 
L 3531 531 
L 3531 0 
L 628 0 
L 628 4666 
z
" transform="scale(0.015625)"/>
       <path id="DejaVuSans-6f" d="M 1959 3097 
Q 1497 3097 1228 2736 
Q 959 2375 959 1747 
Q 959 1119 1226 758 
Q 1494 397 1959 397 
Q 2419 397 2687 759 
Q 2956 1122 2956 1747 
Q 2956 2369 2687 2733 
Q 2419 3097 1959 3097 
z
M 1959 3584 
Q 2709 3584 3137 3096 
Q 3566 2609 3566 1747 
Q 3566 888 3137 398 
Q 2709 -91 1959 -91 
Q 1206 -91 779 398 
Q 353 888 353 1747 
Q 353 2609 779 3096 
Q 1206 3584 1959 3584 
z
" transform="scale(0.015625)"/>
       <path id="DejaVuSans-73" d="M 2834 3397 
L 2834 2853 
Q 2591 2978 2328 3040 
Q 2066 3103 1784 3103 
Q 1356 3103 1142 2972 
Q 928 2841 928 2578 
Q 928 2378 1081 2264 
Q 1234 2150 1697 2047 
L 1894 2003 
Q 2506 1872 2764 1633 
Q 3022 1394 3022 966 
Q 3022 478 2636 193 
Q 2250 -91 1575 -91 
Q 1294 -91 989 -36 
Q 684 19 347 128 
L 347 722 
Q 666 556 975 473 
Q 1284 391 1588 391 
Q 1994 391 2212 530 
Q 2431 669 2431 922 
Q 2431 1156 2273 1281 
Q 2116 1406 1581 1522 
L 1381 1569 
Q 847 1681 609 1914 
Q 372 2147 372 2553 
Q 372 3047 722 3315 
Q 1072 3584 1716 3584 
Q 2034 3584 2315 3537 
Q 2597 3491 2834 3397 
z
" transform="scale(0.015625)"/>
      </defs>
      <use xlink:href="#DejaVuSans-4c"/>
      <use xlink:href="#DejaVuSans-6f" x="53.962891"/>
      <use xlink:href="#DejaVuSans-73" x="115.144531"/>
      <use xlink:href="#DejaVuSans-73" x="167.244141"/>
     </g>
    </g>
   </g>
   <g id="line2d_5">
    <path d="M 55.85 49.152058 
L 60.5245 49.152058 
L 65.199 49.152058 
L 69.8735 49.152058 
L 74.548 49.152058 
L 79.2225 49.152058 
L 83.897 49.152058 
L 88.5715 49.152058 
L 93.246 49.152058 
L 97.9205 49.152058 
L 102.595 49.152058 
L 107.2695 49.152058 
L 111.944 49.152058 
L 116.6185 49.152058 
L 121.293 49.152058 
L 125.9675 49.152058 
L 130.642 49.152058 
L 135.3165 49.152058 
L 139.991 49.152058 
L 144.6655 49.152058 
L 149.34 49.152058 
L 154.0145 49.152058 
L 158.689 49.694417 
L 163.3635 50.800925 
L 168.038 51.087081 
L 172.7125 51.488005 
L 177.387 52.005493 
L 182.0615 53.476758 
L 186.736 53.364957 
L 191.4105 53.361299 
L 196.085 53.457011 
L 200.7595 53.719032 
L 205.434 53.816729 
L 210.1085 53.881773 
L 214.783 54.141835 
L 219.4575 54.353479 
L 224.132 53.796572 
L 228.8065 54.925913 
L 233.481 57.058469 
L 238.1555 59.572965 
L 242.83 62.255287 
L 247.5045 65.150252 
L 252.179 68.184714 
L 256.8535 70.873588 
L 261.528 74.108235 
L 266.2025 77.747824 
L 270.877 80.628871 
L 275.5515 84.311183 
L 280.226 88.239693 
L 284.9005 90.893034 
L 289.575 93.759605 
L 294.2495 98.071491 
L 298.924 101.358274 
L 303.5985 105.337332 
L 308.273 109.60645 
L 312.9475 113.220974 
L 317.622 116.456356 
L 322.2965 119.149606 
L 326.971 120.483212 
L 331.6455 122.046827 
L 336.32 124.027123 
L 340.9945 124.802722 
L 345.669 125.94809 
L 350.3435 126.738833 
L 355.018 126.877819 
L 359.6925 126.884042 
L 364.367 128.113346 
L 369.0415 128.010217 
L 373.716 128.440785 
L 378.3905 129.285938 
L 383.065 130.537757 
L 387.7395 130.290062 
L 392.414 131.520777 
L 397.0885 131.452458 
L 401.763 131.353884 
L 406.4375 132.102789 
L 411.112 133.333489 
L 415.7865 133.333321 
L 420.461 133.729577 
L 425.1355 134.541804 
L 429.81 133.400826 
L 434.4845 133.980593 
L 439.159 133.802248 
L 443.8335 134.654744 
L 448.508 135.335099 
L 453.1825 134.932467 
L 457.857 134.796482 
L 462.5315 135.09341 
L 467.206 134.669003 
L 471.8805 134.995498 
L 476.555 134.674683 
L 481.2295 134.255849 
L 485.904 133.410347 
L 490.5785 133.246011 
L 495.253 133.168954 
L 499.9275 132.865341 
L 504.602 132.701652 
L 509.2765 133.327717 
L 513.951 133.776215 
L 518.6255 133.673348 
L 523.3 134.451725 
L 527.9745 134.604884 
L 532.649 134.56942 
L 537.3235 134.082897 
L 541.998 133.786312 
L 546.6725 134.918704 
L 551.347 134.89002 
L 556.0215 134.981858 
L 560.696 135.132092 
" clip-path="url(#p416f3a8810)" style="fill: none; stroke: #1f77b4; stroke-width: 2; stroke-linecap: square"/>
   </g>
   <g id="patch_2">
    <path d="M 55.85 167.908 
L 55.85 14.76 
" style="fill: none; stroke: #000000; stroke-width: 0.8; stroke-linejoin: miter; stroke-linecap: square"/>
   </g>
   <g id="patch_3">
    <path d="M 523.3 167.908 
L 523.3 14.76 
" style="fill: none; stroke: #000000; stroke-width: 0.8; stroke-linejoin: miter; stroke-linecap: square"/>
   </g>
   <g id="patch_4">
    <path d="M 55.85 167.908 
L 523.3 167.908 
" style="fill: none; stroke: #000000; stroke-width: 0.8; stroke-linejoin: miter; stroke-linecap: square"/>
   </g>
   <g id="patch_5">
    <path d="M 55.85 14.76 
L 523.3 14.76 
" style="fill: none; stroke: #000000; stroke-width: 0.8; stroke-linejoin: miter; stroke-linecap: square"/>
   </g>
  </g>
  <g id="axes_2">
   <g id="PolyCollection_2">
    <defs>
     <path id="m422a03d4af" d="M 55.85 -62.33566 
L 55.85 -50.69462 
L 60.5245 -50.69462 
L 65.199 -50.69462 
L 69.8735 -50.69462 
L 74.548 -50.69462 
L 79.2225 -50.69462 
L 83.897 -50.69462 
L 88.5715 -50.69462 
L 93.246 -50.69462 
L 97.9205 -50.69462 
L 102.595 -50.69462 
L 107.2695 -50.69462 
L 111.944 -48.618397 
L 116.6185 -48.031299 
L 121.293 -48.031299 
L 125.9675 -48.031299 
L 130.642 -48.066849 
L 135.3165 -47.498856 
L 139.991 -47.048631 
L 144.6655 -47.888522 
L 149.34 -47.629721 
L 154.0145 -47.43981 
L 158.689 -48.824603 
L 163.3635 -48.824603 
L 168.038 -48.809985 
L 172.7125 -49.018185 
L 177.387 -48.986721 
L 182.0615 -49.32525 
L 186.736 -50.277275 
L 191.4105 -51.095859 
L 196.085 -50.960548 
L 200.7595 -50.946261 
L 205.434 -50.946261 
L 210.1085 -50.304617 
L 214.783 -50.140695 
L 219.4575 -49.890884 
L 224.132 -49.533083 
L 228.8065 -49.524903 
L 233.481 -32.826748 
L 238.1555 -30.155727 
L 242.83 -24.708516 
L 247.5045 -16.298367 
L 252.179 -13.953946 
L 256.8535 -20.195878 
L 261.528 -25.224586 
L 266.2025 -37.896249 
L 270.877 -55.482725 
L 275.5515 -78.372376 
L 280.226 -86.556117 
L 284.9005 -102.656469 
L 289.575 -112.536447 
L 294.2495 -114.01472 
L 298.924 -114.897253 
L 303.5985 -117.733197 
L 308.273 -117.536649 
L 312.9475 -120.775031 
L 317.622 -119.938325 
L 322.2965 -134.068361 
L 326.971 -134.096323 
L 331.6455 -140.971784 
L 336.32 -142.36334 
L 340.9945 -146.930098 
L 345.669 -148.287785 
L 350.3435 -146.735547 
L 355.018 -148.463832 
L 359.6925 -147.95909 
L 364.367 -153.41626 
L 369.0415 -153.227547 
L 373.716 -153.381547 
L 378.3905 -151.892356 
L 383.065 -151.651156 
L 387.7395 -150.287485 
L 392.414 -149.939017 
L 397.0885 -152.557467 
L 401.763 -152.491928 
L 406.4375 -151.931029 
L 411.112 -152.513054 
L 415.7865 -153.379308 
L 420.461 -150.428936 
L 425.1355 -149.573135 
L 429.81 -149.749369 
L 434.4845 -149.525305 
L 439.159 -150.577278 
L 443.8335 -147.893188 
L 448.508 -147.66016 
L 453.1825 -150.954001 
L 457.857 -146.08925 
L 462.5315 -146.731091 
L 467.206 -150.438953 
L 471.8805 -150.603229 
L 476.555 -150.478758 
L 481.2295 -149.695914 
L 485.904 -148.761567 
L 490.5785 -151.477618 
L 495.253 -150.654813 
L 499.9275 -150.895691 
L 504.602 -155.44248 
L 509.2765 -153.987536 
L 513.951 -152.559942 
L 518.6255 -152.316003 
L 523.3 -148.403593 
L 527.9745 -148.765555 
L 532.649 -148.922189 
L 537.3235 -149.326425 
L 541.998 -150.227484 
L 546.6725 -150.287485 
L 551.347 -150.287485 
L 556.0215 -152.54726 
L 560.696 -154.687212 
L 560.696 -180.101372 
L 560.696 -180.101372 
L 556.0215 -180.403548 
L 551.347 -179.906659 
L 546.6725 -179.906659 
L 541.998 -180.272956 
L 537.3235 -179.029943 
L 532.649 -178.821587 
L 527.9745 -178.671925 
L 523.3 -178.421295 
L 518.6255 -172.364813 
L 513.951 -175.49013 
L 509.2765 -176.206608 
L 504.602 -178.733512 
L 499.9275 -180.829933 
L 495.253 -181.683403 
L 490.5785 -184.53615 
L 485.904 -185.720721 
L 481.2295 -186.930446 
L 476.555 -190.435746 
L 471.8805 -190.617571 
L 467.206 -192.007031 
L 462.5315 -192.958229 
L 457.857 -191.455998 
L 453.1825 -189.960503 
L 448.508 -189.885088 
L 443.8335 -188.12058 
L 439.159 -186.96797 
L 434.4845 -185.875871 
L 429.81 -180.751071 
L 425.1355 -181.233601 
L 420.461 -179.765208 
L 415.7865 -179.877796 
L 411.112 -179.825162 
L 406.4375 -179.182003 
L 401.763 -178.9274 
L 397.0885 -178.555565 
L 392.414 -179.642535 
L 387.7395 -179.906659 
L 383.065 -179.768172 
L 378.3905 -177.689196 
L 373.716 -173.137045 
L 369.0415 -170.840677 
L 364.367 -171.264556 
L 359.6925 -173.658766 
L 355.018 -174.685504 
L 350.3435 -173.044533 
L 345.669 -173.330071 
L 340.9945 -172.23739 
L 336.32 -172.8223 
L 331.6455 -175.745336 
L 326.971 -177.720061 
L 322.2965 -178.973207 
L 317.622 -183.914363 
L 312.9475 -186.753209 
L 308.273 -184.171967 
L 303.5985 -186.119491 
L 298.924 -183.748403 
L 294.2495 -182.79316 
L 289.575 -182.739953 
L 284.9005 -179.755499 
L 280.226 -186.666971 
L 275.5515 -181.373688 
L 270.877 -192.317795 
L 266.2025 -187.238367 
L 261.528 -184.288934 
L 256.8535 -167.570626 
L 252.179 -156.659982 
L 247.5045 -136.244097 
L 242.83 -111.293964 
L 238.1555 -96.351577 
L 233.481 -86.635748 
L 228.8065 -61.361305 
L 224.132 -60.434237 
L 219.4575 -60.382732 
L 214.783 -59.826625 
L 210.1085 -59.968999 
L 205.434 -59.633651 
L 200.7595 -59.633651 
L 196.085 -60.538252 
L 191.4105 -58.871461 
L 186.736 -60.608933 
L 182.0615 -60.948366 
L 177.387 -60.980599 
L 172.7125 -61.868023 
L 168.038 -61.463631 
L 163.3635 -61.755309 
L 158.689 -61.755309 
L 154.0145 -62.221214 
L 149.34 -61.418711 
L 144.6655 -62.385094 
L 139.991 -63.837577 
L 135.3165 -63.693648 
L 130.642 -63.738247 
L 125.9675 -63.161205 
L 121.293 -63.161205 
L 116.6185 -63.161205 
L 111.944 -63.186699 
L 107.2695 -62.33566 
L 102.595 -62.33566 
L 97.9205 -62.33566 
L 93.246 -62.33566 
L 88.5715 -62.33566 
L 83.897 -62.33566 
L 79.2225 -62.33566 
L 74.548 -62.33566 
L 69.8735 -62.33566 
L 65.199 -62.33566 
L 60.5245 -62.33566 
L 55.85 -62.33566 
z
" style="stroke: #d62728; stroke-opacity: 0.2; stroke-width: 0.24"/>
    </defs>
    <g clip-path="url(#p416f3a8810)">
     <use xlink:href="#m422a03d4af" x="0" y="216" style="fill: #d62728; fill-opacity: 0.2; stroke: #d62728; stroke-opacity: 0.2; stroke-width: 0.24"/>
    </g>
   </g>
   <g id="matplotlib.axis_2">
    <g id="xtick_1">
     <g id="line2d_6">
      <defs>
       <path id="m06a9974bd0" d="M 0 0 
L 0 3.5 
" style="stroke: #000000; stroke-width: 0.8"/>
      </defs>
      <g>
       <use xlink:href="#m06a9974bd0" x="55.85" y="167.908" style="stroke: #000000; stroke-width: 0.8"/>
      </g>
     </g>
     <g id="text_6">
      <!-- 0 -->
      <g transform="translate(52.66875 184.606437) scale(0.1 -0.1)">
       <use xlink:href="#DejaVuSans-30"/>
      </g>
     </g>
    </g>
    <g id="xtick_2">
     <g id="line2d_7">
      <g>
       <use xlink:href="#m06a9974bd0" x="149.34" y="167.908" style="stroke: #000000; stroke-width: 0.8"/>
      </g>
     </g>
     <g id="text_7">
      <!-- 10 -->
      <g transform="translate(142.9775 184.606437) scale(0.1 -0.1)">
       <defs>
        <path id="DejaVuSans-31" d="M 794 531 
L 1825 531 
L 1825 4091 
L 703 3866 
L 703 4441 
L 1819 4666 
L 2450 4666 
L 2450 531 
L 3481 531 
L 3481 0 
L 794 0 
L 794 531 
z
" transform="scale(0.015625)"/>
       </defs>
       <use xlink:href="#DejaVuSans-31"/>
       <use xlink:href="#DejaVuSans-30" x="63.623047"/>
      </g>
     </g>
    </g>
    <g id="xtick_3">
     <g id="line2d_8">
      <g>
       <use xlink:href="#m06a9974bd0" x="242.83" y="167.908" style="stroke: #000000; stroke-width: 0.8"/>
      </g>
     </g>
     <g id="text_8">
      <!-- 20 -->
      <g transform="translate(236.4675 184.606437) scale(0.1 -0.1)">
       <use xlink:href="#DejaVuSans-32"/>
       <use xlink:href="#DejaVuSans-30" x="63.623047"/>
      </g>
     </g>
    </g>
    <g id="xtick_4">
     <g id="line2d_9">
      <g>
       <use xlink:href="#m06a9974bd0" x="336.32" y="167.908" style="stroke: #000000; stroke-width: 0.8"/>
      </g>
     </g>
     <g id="text_9">
      <!-- 30 -->
      <g transform="translate(329.9575 184.606437) scale(0.1 -0.1)">
       <defs>
        <path id="DejaVuSans-33" d="M 2597 2516 
Q 3050 2419 3304 2112 
Q 3559 1806 3559 1356 
Q 3559 666 3084 287 
Q 2609 -91 1734 -91 
Q 1441 -91 1130 -33 
Q 819 25 488 141 
L 488 750 
Q 750 597 1062 519 
Q 1375 441 1716 441 
Q 2309 441 2620 675 
Q 2931 909 2931 1356 
Q 2931 1769 2642 2001 
Q 2353 2234 1838 2234 
L 1294 2234 
L 1294 2753 
L 1863 2753 
Q 2328 2753 2575 2939 
Q 2822 3125 2822 3475 
Q 2822 3834 2567 4026 
Q 2313 4219 1838 4219 
Q 1578 4219 1281 4162 
Q 984 4106 628 3988 
L 628 4550 
Q 988 4650 1302 4700 
Q 1616 4750 1894 4750 
Q 2613 4750 3031 4423 
Q 3450 4097 3450 3541 
Q 3450 3153 3228 2886 
Q 3006 2619 2597 2516 
z
" transform="scale(0.015625)"/>
       </defs>
       <use xlink:href="#DejaVuSans-33"/>
       <use xlink:href="#DejaVuSans-30" x="63.623047"/>
      </g>
     </g>
    </g>
    <g id="xtick_5">
     <g id="line2d_10">
      <g>
       <use xlink:href="#m06a9974bd0" x="429.81" y="167.908" style="stroke: #000000; stroke-width: 0.8"/>
      </g>
     </g>
     <g id="text_10">
      <!-- 40 -->
      <g transform="translate(423.4475 184.606437) scale(0.1 -0.1)">
       <use xlink:href="#DejaVuSans-34"/>
       <use xlink:href="#DejaVuSans-30" x="63.623047"/>
      </g>
     </g>
    </g>
    <g id="xtick_6">
     <g id="line2d_11">
      <g>
       <use xlink:href="#m06a9974bd0" x="523.3" y="167.908" style="stroke: #000000; stroke-width: 0.8"/>
      </g>
     </g>
     <g id="text_11">
      <!-- 50 -->
      <g transform="translate(516.9375 184.606437) scale(0.1 -0.1)">
       <defs>
        <path id="DejaVuSans-35" d="M 691 4666 
L 3169 4666 
L 3169 4134 
L 1269 4134 
L 1269 2991 
Q 1406 3038 1543 3061 
Q 1681 3084 1819 3084 
Q 2600 3084 3056 2656 
Q 3513 2228 3513 1497 
Q 3513 744 3044 326 
Q 2575 -91 1722 -91 
Q 1428 -91 1123 -41 
Q 819 9 494 109 
L 494 744 
Q 775 591 1075 516 
Q 1375 441 1709 441 
Q 2250 441 2565 725 
Q 2881 1009 2881 1497 
Q 2881 1984 2565 2268 
Q 2250 2553 1709 2553 
Q 1456 2553 1204 2497 
Q 953 2441 691 2322 
L 691 4666 
z
" transform="scale(0.015625)"/>
       </defs>
       <use xlink:href="#DejaVuSans-35"/>
       <use xlink:href="#DejaVuSans-30" x="63.623047"/>
      </g>
     </g>
    </g>
    <g id="text_12">
     <!-- Step ($\times10^3$) -->
     <g transform="translate(263.307 198.694125) scale(0.088 -0.088)">
      <defs>
       <path id="DejaVuSans-53" d="M 3425 4513 
L 3425 3897 
Q 3066 4069 2747 4153 
Q 2428 4238 2131 4238 
Q 1616 4238 1336 4038 
Q 1056 3838 1056 3469 
Q 1056 3159 1242 3001 
Q 1428 2844 1947 2747 
L 2328 2669 
Q 3034 2534 3370 2195 
Q 3706 1856 3706 1288 
Q 3706 609 3251 259 
Q 2797 -91 1919 -91 
Q 1588 -91 1214 -16 
Q 841 59 441 206 
L 441 856 
Q 825 641 1194 531 
Q 1563 422 1919 422 
Q 2459 422 2753 634 
Q 3047 847 3047 1241 
Q 3047 1584 2836 1778 
Q 2625 1972 2144 2069 
L 1759 2144 
Q 1053 2284 737 2584 
Q 422 2884 422 3419 
Q 422 4038 858 4394 
Q 1294 4750 2059 4750 
Q 2388 4750 2728 4690 
Q 3069 4631 3425 4513 
z
" transform="scale(0.015625)"/>
       <path id="DejaVuSans-74" d="M 1172 4494 
L 1172 3500 
L 2356 3500 
L 2356 3053 
L 1172 3053 
L 1172 1153 
Q 1172 725 1289 603 
Q 1406 481 1766 481 
L 2356 481 
L 2356 0 
L 1766 0 
Q 1100 0 847 248 
Q 594 497 594 1153 
L 594 3053 
L 172 3053 
L 172 3500 
L 594 3500 
L 594 4494 
L 1172 4494 
z
" transform="scale(0.015625)"/>
       <path id="DejaVuSans-65" d="M 3597 1894 
L 3597 1613 
L 953 1613 
Q 991 1019 1311 708 
Q 1631 397 2203 397 
Q 2534 397 2845 478 
Q 3156 559 3463 722 
L 3463 178 
Q 3153 47 2828 -22 
Q 2503 -91 2169 -91 
Q 1331 -91 842 396 
Q 353 884 353 1716 
Q 353 2575 817 3079 
Q 1281 3584 2069 3584 
Q 2775 3584 3186 3129 
Q 3597 2675 3597 1894 
z
M 3022 2063 
Q 3016 2534 2758 2815 
Q 2500 3097 2075 3097 
Q 1594 3097 1305 2825 
Q 1016 2553 972 2059 
L 3022 2063 
z
" transform="scale(0.015625)"/>
       <path id="DejaVuSans-70" d="M 1159 525 
L 1159 -1331 
L 581 -1331 
L 581 3500 
L 1159 3500 
L 1159 2969 
Q 1341 3281 1617 3432 
Q 1894 3584 2278 3584 
Q 2916 3584 3314 3078 
Q 3713 2572 3713 1747 
Q 3713 922 3314 415 
Q 2916 -91 2278 -91 
Q 1894 -91 1617 61 
Q 1341 213 1159 525 
z
M 3116 1747 
Q 3116 2381 2855 2742 
Q 2594 3103 2138 3103 
Q 1681 3103 1420 2742 
Q 1159 2381 1159 1747 
Q 1159 1113 1420 752 
Q 1681 391 2138 391 
Q 2594 391 2855 752 
Q 3116 1113 3116 1747 
z
" transform="scale(0.015625)"/>
       <path id="DejaVuSans-20" transform="scale(0.015625)"/>
       <path id="DejaVuSans-28" d="M 1984 4856 
Q 1566 4138 1362 3434 
Q 1159 2731 1159 2009 
Q 1159 1288 1364 580 
Q 1569 -128 1984 -844 
L 1484 -844 
Q 1016 -109 783 600 
Q 550 1309 550 2009 
Q 550 2706 781 3412 
Q 1013 4119 1484 4856 
L 1984 4856 
z
" transform="scale(0.015625)"/>
       <path id="DejaVuSans-d7" d="M 4488 3438 
L 3059 2003 
L 4488 575 
L 4116 197 
L 2681 1631 
L 1247 197 
L 878 575 
L 2303 2003 
L 878 3438 
L 1247 3816 
L 2681 2381 
L 4116 3816 
L 4488 3438 
z
" transform="scale(0.015625)"/>
       <path id="DejaVuSans-29" d="M 513 4856 
L 1013 4856 
Q 1481 4119 1714 3412 
Q 1947 2706 1947 2009 
Q 1947 1309 1714 600 
Q 1481 -109 1013 -844 
L 513 -844 
Q 928 -128 1133 580 
Q 1338 1288 1338 2009 
Q 1338 2731 1133 3434 
Q 928 4138 513 4856 
z
" transform="scale(0.015625)"/>
      </defs>
      <use xlink:href="#DejaVuSans-53" transform="translate(0 0.765625)"/>
      <use xlink:href="#DejaVuSans-74" transform="translate(63.476562 0.765625)"/>
      <use xlink:href="#DejaVuSans-65" transform="translate(102.685547 0.765625)"/>
      <use xlink:href="#DejaVuSans-70" transform="translate(164.208984 0.765625)"/>
      <use xlink:href="#DejaVuSans-20" transform="translate(227.685547 0.765625)"/>
      <use xlink:href="#DejaVuSans-28" transform="translate(259.472656 0.765625)"/>
      <use xlink:href="#DejaVuSans-d7" transform="translate(298.486328 0.765625)"/>
      <use xlink:href="#DejaVuSans-31" transform="translate(382.275391 0.765625)"/>
      <use xlink:href="#DejaVuSans-30" transform="translate(445.898438 0.765625)"/>
      <use xlink:href="#DejaVuSans-33" transform="translate(510.478516 39.046875) scale(0.7)"/>
      <use xlink:href="#DejaVuSans-29" transform="translate(557.749023 0.765625)"/>
     </g>
    </g>
   </g>
   <g id="matplotlib.axis_3">
    <g id="ytick_5">
     <g id="line2d_12">
      <defs>
       <path id="m139c6426de" d="M 0 0 
L -3.5 0 
" style="stroke: #000000; stroke-width: 0.8"/>
      </defs>
      <g>
       <use xlink:href="#m139c6426de" x="55.85" y="167.908" style="stroke: #000000; stroke-width: 0.8"/>
      </g>
     </g>
     <g id="text_13">
      <!-- 0 -->
      <g style="fill: #d62728" transform="translate(40.3875 171.707219) scale(0.1 -0.1)">
       <use xlink:href="#DejaVuSans-30"/>
      </g>
     </g>
    </g>
    <g id="ytick_6">
     <g id="line2d_13">
      <g>
       <use xlink:href="#m139c6426de" x="55.85" y="137.2784" style="stroke: #000000; stroke-width: 0.8"/>
      </g>
     </g>
     <g id="text_14">
      <!-- 20 -->
      <g style="fill: #d62728" transform="translate(34.025 141.077619) scale(0.1 -0.1)">
       <use xlink:href="#DejaVuSans-32"/>
       <use xlink:href="#DejaVuSans-30" x="63.623047"/>
      </g>
     </g>
    </g>
    <g id="ytick_7">
     <g id="line2d_14">
      <g>
       <use xlink:href="#m139c6426de" x="55.85" y="106.6488" style="stroke: #000000; stroke-width: 0.8"/>
      </g>
     </g>
     <g id="text_15">
      <!-- 40 -->
      <g style="fill: #d62728" transform="translate(34.025 110.448019) scale(0.1 -0.1)">
       <use xlink:href="#DejaVuSans-34"/>
       <use xlink:href="#DejaVuSans-30" x="63.623047"/>
      </g>
     </g>
    </g>
    <g id="ytick_8">
     <g id="line2d_15">
      <g>
       <use xlink:href="#m139c6426de" x="55.85" y="76.0192" style="stroke: #000000; stroke-width: 0.8"/>
      </g>
     </g>
     <g id="text_16">
      <!-- 60 -->
      <g style="fill: #d62728" transform="translate(34.025 79.818419) scale(0.1 -0.1)">
       <use xlink:href="#DejaVuSans-36"/>
       <use xlink:href="#DejaVuSans-30" x="63.623047"/>
      </g>
     </g>
    </g>
    <g id="ytick_9">
     <g id="line2d_16">
      <g>
       <use xlink:href="#m139c6426de" x="55.85" y="45.3896" style="stroke: #000000; stroke-width: 0.8"/>
      </g>
     </g>
     <g id="text_17">
      <!-- 80 -->
      <g style="fill: #d62728" transform="translate(34.025 49.188819) scale(0.1 -0.1)">
       <use xlink:href="#DejaVuSans-38"/>
       <use xlink:href="#DejaVuSans-30" x="63.623047"/>
      </g>
     </g>
    </g>
    <g id="ytick_10">
     <g id="line2d_17">
      <g>
       <use xlink:href="#m139c6426de" x="55.85" y="14.76" style="stroke: #000000; stroke-width: 0.8"/>
      </g>
     </g>
     <g id="text_18">
      <!-- 100 -->
      <g style="fill: #d62728" transform="translate(27.6625 18.559219) scale(0.1 -0.1)">
       <use xlink:href="#DejaVuSans-31"/>
       <use xlink:href="#DejaVuSans-30" x="63.623047"/>
       <use xlink:href="#DejaVuSans-30" x="127.246094"/>
      </g>
     </g>
    </g>
    <g id="text_19">
     <!-- Success rate (%) -->
     <g style="fill: #d62728" transform="translate(21.166875 141.870875) rotate(-90) scale(0.12 -0.12)">
      <defs>
       <path id="DejaVuSans-75" d="M 544 1381 
L 544 3500 
L 1119 3500 
L 1119 1403 
Q 1119 906 1312 657 
Q 1506 409 1894 409 
Q 2359 409 2629 706 
Q 2900 1003 2900 1516 
L 2900 3500 
L 3475 3500 
L 3475 0 
L 2900 0 
L 2900 538 
Q 2691 219 2414 64 
Q 2138 -91 1772 -91 
Q 1169 -91 856 284 
Q 544 659 544 1381 
z
M 1991 3584 
L 1991 3584 
z
" transform="scale(0.015625)"/>
       <path id="DejaVuSans-63" d="M 3122 3366 
L 3122 2828 
Q 2878 2963 2633 3030 
Q 2388 3097 2138 3097 
Q 1578 3097 1268 2742 
Q 959 2388 959 1747 
Q 959 1106 1268 751 
Q 1578 397 2138 397 
Q 2388 397 2633 464 
Q 2878 531 3122 666 
L 3122 134 
Q 2881 22 2623 -34 
Q 2366 -91 2075 -91 
Q 1284 -91 818 406 
Q 353 903 353 1747 
Q 353 2603 823 3093 
Q 1294 3584 2113 3584 
Q 2378 3584 2631 3529 
Q 2884 3475 3122 3366 
z
" transform="scale(0.015625)"/>
       <path id="DejaVuSans-72" d="M 2631 2963 
Q 2534 3019 2420 3045 
Q 2306 3072 2169 3072 
Q 1681 3072 1420 2755 
Q 1159 2438 1159 1844 
L 1159 0 
L 581 0 
L 581 3500 
L 1159 3500 
L 1159 2956 
Q 1341 3275 1631 3429 
Q 1922 3584 2338 3584 
Q 2397 3584 2469 3576 
Q 2541 3569 2628 3553 
L 2631 2963 
z
" transform="scale(0.015625)"/>
       <path id="DejaVuSans-61" d="M 2194 1759 
Q 1497 1759 1228 1600 
Q 959 1441 959 1056 
Q 959 750 1161 570 
Q 1363 391 1709 391 
Q 2188 391 2477 730 
Q 2766 1069 2766 1631 
L 2766 1759 
L 2194 1759 
z
M 3341 1997 
L 3341 0 
L 2766 0 
L 2766 531 
Q 2569 213 2275 61 
Q 1981 -91 1556 -91 
Q 1019 -91 701 211 
Q 384 513 384 1019 
Q 384 1609 779 1909 
Q 1175 2209 1959 2209 
L 2766 2209 
L 2766 2266 
Q 2766 2663 2505 2880 
Q 2244 3097 1772 3097 
Q 1472 3097 1187 3025 
Q 903 2953 641 2809 
L 641 3341 
Q 956 3463 1253 3523 
Q 1550 3584 1831 3584 
Q 2591 3584 2966 3190 
Q 3341 2797 3341 1997 
z
" transform="scale(0.015625)"/>
       <path id="DejaVuSans-25" d="M 4653 2053 
Q 4381 2053 4226 1822 
Q 4072 1591 4072 1178 
Q 4072 772 4226 539 
Q 4381 306 4653 306 
Q 4919 306 5073 539 
Q 5228 772 5228 1178 
Q 5228 1588 5073 1820 
Q 4919 2053 4653 2053 
z
M 4653 2450 
Q 5147 2450 5437 2106 
Q 5728 1763 5728 1178 
Q 5728 594 5436 251 
Q 5144 -91 4653 -91 
Q 4153 -91 3862 251 
Q 3572 594 3572 1178 
Q 3572 1766 3864 2108 
Q 4156 2450 4653 2450 
z
M 1428 4353 
Q 1159 4353 1004 4120 
Q 850 3888 850 3481 
Q 850 3069 1003 2837 
Q 1156 2606 1428 2606 
Q 1700 2606 1854 2837 
Q 2009 3069 2009 3481 
Q 2009 3884 1853 4118 
Q 1697 4353 1428 4353 
z
M 4250 4750 
L 4750 4750 
L 1831 -91 
L 1331 -91 
L 4250 4750 
z
M 1428 4750 
Q 1922 4750 2215 4408 
Q 2509 4066 2509 3481 
Q 2509 2891 2217 2550 
Q 1925 2209 1428 2209 
Q 931 2209 642 2551 
Q 353 2894 353 3481 
Q 353 4063 643 4406 
Q 934 4750 1428 4750 
z
" transform="scale(0.015625)"/>
      </defs>
      <use xlink:href="#DejaVuSans-53"/>
      <use xlink:href="#DejaVuSans-75" x="63.476562"/>
      <use xlink:href="#DejaVuSans-63" x="126.855469"/>
      <use xlink:href="#DejaVuSans-63" x="181.835938"/>
      <use xlink:href="#DejaVuSans-65" x="236.816406"/>
      <use xlink:href="#DejaVuSans-73" x="298.339844"/>
      <use xlink:href="#DejaVuSans-73" x="350.439453"/>
      <use xlink:href="#DejaVuSans-20" x="402.539062"/>
      <use xlink:href="#DejaVuSans-72" x="434.326172"/>
      <use xlink:href="#DejaVuSans-61" x="475.439453"/>
      <use xlink:href="#DejaVuSans-74" x="536.71875"/>
      <use xlink:href="#DejaVuSans-65" x="575.927734"/>
      <use xlink:href="#DejaVuSans-20" x="637.451172"/>
      <use xlink:href="#DejaVuSans-28" x="669.238281"/>
      <use xlink:href="#DejaVuSans-25" x="708.251953"/>
      <use xlink:href="#DejaVuSans-29" x="803.271484"/>
     </g>
    </g>
   </g>
   <g id="line2d_18">
    <path d="M 55.85 159.48486 
L 60.5245 159.48486 
L 65.199 159.48486 
L 69.8735 159.48486 
L 74.548 159.48486 
L 79.2225 159.48486 
L 83.897 159.48486 
L 88.5715 159.48486 
L 93.246 159.48486 
L 97.9205 159.48486 
L 102.595 159.48486 
L 107.2695 159.48486 
L 111.944 160.097452 
L 116.6185 160.403748 
L 121.293 160.403748 
L 125.9675 160.403748 
L 130.642 160.097452 
L 135.3165 160.403748 
L 139.991 160.556896 
L 144.6655 160.863192 
L 149.34 161.475784 
L 154.0145 161.169488 
L 158.689 160.710044 
L 163.3635 160.710044 
L 168.038 160.863192 
L 172.7125 160.556896 
L 177.387 161.01634 
L 182.0615 160.863192 
L 186.736 160.556896 
L 191.4105 161.01634 
L 196.085 160.2506 
L 200.7595 160.710044 
L 205.434 160.710044 
L 210.1085 160.863192 
L 214.783 161.01634 
L 219.4575 160.863192 
L 224.132 161.01634 
L 228.8065 160.556896 
L 233.481 156.268752 
L 238.1555 152.746348 
L 242.83 147.99876 
L 247.5045 139.728768 
L 252.179 130.693036 
L 256.8535 122.116748 
L 261.528 111.24324 
L 266.2025 103.432692 
L 270.877 92.09974 
L 275.5515 86.126968 
L 280.226 79.388456 
L 284.9005 74.794016 
L 289.575 68.3618 
L 294.2495 67.59606 
L 298.924 66.677172 
L 303.5985 64.073656 
L 308.273 65.145692 
L 312.9475 62.23588 
L 317.622 64.073656 
L 322.2965 59.479216 
L 326.971 60.091808 
L 331.6455 57.64144 
L 336.32 58.40718 
L 340.9945 56.416256 
L 345.669 55.191072 
L 350.3435 56.10996 
L 355.018 54.425332 
L 359.6925 55.191072 
L 364.367 53.659592 
L 369.0415 53.965888 
L 373.716 52.740704 
L 378.3905 51.209224 
L 383.065 50.290336 
L 387.7395 50.902928 
L 392.414 51.209224 
L 397.0885 50.443484 
L 401.763 50.290336 
L 406.4375 50.443484 
L 411.112 49.830892 
L 415.7865 49.371448 
L 420.461 50.902928 
L 425.1355 50.596632 
L 429.81 50.74978 
L 434.4845 48.299412 
L 439.159 47.227376 
L 443.8335 47.993116 
L 448.508 47.227376 
L 453.1825 45.542748 
L 457.857 47.227376 
L 462.5315 46.15534 
L 467.206 44.777008 
L 471.8805 45.3896 
L 476.555 45.542748 
L 481.2295 47.68682 
L 485.904 48.758856 
L 490.5785 47.993116 
L 495.253 49.830892 
L 499.9275 50.137188 
L 504.602 48.912004 
L 509.2765 50.902928 
L 513.951 51.974964 
L 518.6255 53.659592 
L 523.3 52.587556 
L 527.9745 52.28126 
L 532.649 52.128112 
L 537.3235 51.821816 
L 541.998 50.74978 
L 546.6725 50.902928 
L 551.347 50.902928 
L 556.0215 49.524596 
L 560.696 48.605708 
" clip-path="url(#p416f3a8810)" style="fill: none; stroke: #d62728; stroke-width: 2; stroke-linecap: square"/>
   </g>
   <g id="patch_6">
    <path d="M 55.85 167.908 
L 55.85 14.76 
" style="fill: none; stroke: #000000; stroke-width: 0.8; stroke-linejoin: miter; stroke-linecap: square"/>
   </g>
   <g id="patch_7">
    <path d="M 523.3 167.908 
L 523.3 14.76 
" style="fill: none; stroke: #000000; stroke-width: 0.8; stroke-linejoin: miter; stroke-linecap: square"/>
   </g>
   <g id="patch_8">
    <path d="M 55.85 167.908 
L 523.3 167.908 
" style="fill: none; stroke: #000000; stroke-width: 0.8; stroke-linejoin: miter; stroke-linecap: square"/>
   </g>
   <g id="patch_9">
    <path d="M 55.85 14.76 
L 523.3 14.76 
" style="fill: none; stroke: #000000; stroke-width: 0.8; stroke-linejoin: miter; stroke-linecap: square"/>
   </g>
  </g>
 </g>
 <defs>
  <clipPath id="p416f3a8810">
   <rect x="55.85" y="14.76" width="467.45" height="153.148"/>
  </clipPath>
 </defs>
</svg>
